<svg width="284" height="52" viewBox="0 0 284 52" fill="none" xmlns="http://www.w3.org/2000/svg">
<g filter="url(#filter0_d_156_4615)">
<rect x="4" width="276" height="44" rx="15" fill="url(#paint0_linear_156_4615)" shape-rendering="crispEdges"></rect>
<path d="M61.4688 24.675H56.9088L56.0688 27H54.6288L58.4088 16.605H59.9838L63.7488 27H62.3088L61.4688 24.675ZM61.0788 23.565L59.1888 18.285L57.2988 23.565H61.0788ZM68.7862 18.645C69.4962 18.645 70.1162 18.8 70.6462 19.11C71.1862 19.42 71.5862 19.81 71.8462 20.28V18.78H73.2262V27.18C73.2262 27.93 73.0662 28.595 72.7462 29.175C72.4262 29.765 71.9662 30.225 71.3662 30.555C70.7762 30.885 70.0862 31.05 69.2962 31.05C68.2162 31.05 67.3162 30.795 66.5962 30.285C65.8762 29.775 65.4512 29.08 65.3212 28.2H66.6712C66.8212 28.7 67.1312 29.1 67.6012 29.4C68.0712 29.71 68.6362 29.865 69.2962 29.865C70.0462 29.865 70.6562 29.63 71.1262 29.16C71.6062 28.69 71.8462 28.03 71.8462 27.18V25.455C71.5762 25.935 71.1762 26.335 70.6462 26.655C70.1162 26.975 69.4962 27.135 68.7862 27.135C68.0562 27.135 67.3912 26.955 66.7912 26.595C66.2012 26.235 65.7362 25.73 65.3962 25.08C65.0562 24.43 64.8862 23.69 64.8862 22.86C64.8862 22.02 65.0562 21.285 65.3962 20.655C65.7362 20.015 66.2012 19.52 66.7912 19.17C67.3912 18.82 68.0562 18.645 68.7862 18.645ZM71.8462 22.875C71.8462 22.255 71.7212 21.715 71.4712 21.255C71.2212 20.795 70.8812 20.445 70.4512 20.205C70.0312 19.955 69.5662 19.83 69.0562 19.83C68.5462 19.83 68.0812 19.95 67.6612 20.19C67.2412 20.43 66.9062 20.78 66.6562 21.24C66.4062 21.7 66.2812 22.24 66.2812 22.86C66.2812 23.49 66.4062 24.04 66.6562 24.51C66.9062 24.97 67.2412 25.325 67.6612 25.575C68.0812 25.815 68.5462 25.935 69.0562 25.935C69.5662 25.935 70.0312 25.815 70.4512 25.575C70.8812 25.325 71.2212 24.97 71.4712 24.51C71.7212 24.04 71.8462 23.495 71.8462 22.875ZM76.8979 20.115C77.1379 19.645 77.4779 19.28 77.9179 19.02C78.3679 18.76 78.9129 18.63 79.5529 18.63V20.04H79.1929C77.6629 20.04 76.8979 20.87 76.8979 22.53V27H75.5329V18.78H76.8979V20.115ZM88.6286 22.575C88.6286 22.835 88.6136 23.11 88.5836 23.4H82.0136C82.0636 24.21 82.3386 24.845 82.8386 25.305C83.3486 25.755 83.9636 25.98 84.6836 25.98C85.2736 25.98 85.7636 25.845 86.1536 25.575C86.5536 25.295 86.8336 24.925 86.9936 24.465H88.4636C88.2436 25.255 87.8036 25.9 87.1436 26.4C86.4836 26.89 85.6636 27.135 84.6836 27.135C83.9036 27.135 83.2036 26.96 82.5836 26.61C81.9736 26.26 81.4936 25.765 81.1436 25.125C80.7936 24.475 80.6186 23.725 80.6186 22.875C80.6186 22.025 80.7886 21.28 81.1286 20.64C81.4686 20 81.9436 19.51 82.5536 19.17C83.1736 18.82 83.8836 18.645 84.6836 18.645C85.4636 18.645 86.1536 18.815 86.7536 19.155C87.3536 19.495 87.8136 19.965 88.1336 20.565C88.4636 21.155 88.6286 21.825 88.6286 22.575ZM87.2186 22.29C87.2186 21.77 87.1036 21.325 86.8736 20.955C86.6436 20.575 86.3286 20.29 85.9286 20.1C85.5386 19.9 85.1036 19.8 84.6236 19.8C83.9336 19.8 83.3436 20.02 82.8536 20.46C82.3736 20.9 82.0986 21.51 82.0286 22.29H87.2186ZM97.9304 22.575C97.9304 22.835 97.9154 23.11 97.8854 23.4H91.3154C91.3654 24.21 91.6404 24.845 92.1404 25.305C92.6504 25.755 93.2654 25.98 93.9854 25.98C94.5754 25.98 95.0654 25.845 95.4554 25.575C95.8554 25.295 96.1354 24.925 96.2954 24.465H97.7654C97.5454 25.255 97.1054 25.9 96.4454 26.4C95.7854 26.89 94.9654 27.135 93.9854 27.135C93.2054 27.135 92.5054 26.96 91.8854 26.61C91.2754 26.26 90.7954 25.765 90.4454 25.125C90.0954 24.475 89.9204 23.725 89.9204 22.875C89.9204 22.025 90.0904 21.28 90.4304 20.64C90.7704 20 91.2454 19.51 91.8554 19.17C92.4754 18.82 93.1854 18.645 93.9854 18.645C94.7654 18.645 95.4554 18.815 96.0554 19.155C96.6554 19.495 97.1154 19.965 97.4354 20.565C97.7654 21.155 97.9304 21.825 97.9304 22.575ZM96.5204 22.29C96.5204 21.77 96.4054 21.325 96.1754 20.955C95.9454 20.575 95.6304 20.29 95.2304 20.1C94.8404 19.9 94.4054 19.8 93.9254 19.8C93.2354 19.8 92.6454 20.02 92.1554 20.46C91.6754 20.9 91.4004 21.51 91.3304 22.29H96.5204ZM103.221 22.86C103.221 22.02 103.391 21.285 103.731 20.655C104.071 20.015 104.536 19.52 105.126 19.17C105.726 18.82 106.391 18.645 107.121 18.645C107.841 18.645 108.466 18.8 108.996 19.11C109.526 19.42 109.921 19.81 110.181 20.28V18.78H111.561V27H110.181V25.47C109.911 25.95 109.506 26.35 108.966 26.67C108.436 26.98 107.816 27.135 107.106 27.135C106.376 27.135 105.716 26.955 105.126 26.595C104.536 26.235 104.071 25.73 103.731 25.08C103.391 24.43 103.221 23.69 103.221 22.86ZM110.181 22.875C110.181 22.255 110.056 21.715 109.806 21.255C109.556 20.795 109.216 20.445 108.786 20.205C108.366 19.955 107.901 19.83 107.391 19.83C106.881 19.83 106.416 19.95 105.996 20.19C105.576 20.43 105.241 20.78 104.991 21.24C104.741 21.7 104.616 22.24 104.616 22.86C104.616 23.49 104.741 24.04 104.991 24.51C105.241 24.97 105.576 25.325 105.996 25.575C106.416 25.815 106.881 25.935 107.391 25.935C107.901 25.935 108.366 25.815 108.786 25.575C109.216 25.325 109.556 24.97 109.806 24.51C110.056 24.04 110.181 23.495 110.181 22.875ZM117.873 18.63C118.873 18.63 119.683 18.935 120.303 19.545C120.923 20.145 121.233 21.015 121.233 22.155V27H119.883V22.35C119.883 21.53 119.678 20.905 119.268 20.475C118.858 20.035 118.298 19.815 117.588 19.815C116.868 19.815 116.293 20.04 115.863 20.49C115.443 20.94 115.233 21.595 115.233 22.455V27H113.868V18.78H115.233V19.95C115.503 19.53 115.868 19.205 116.328 18.975C116.798 18.745 117.313 18.63 117.873 18.63ZM122.953 22.86C122.953 22.02 123.123 21.285 123.463 20.655C123.803 20.015 124.268 19.52 124.858 19.17C125.458 18.82 126.128 18.645 126.868 18.645C127.508 18.645 128.103 18.795 128.653 19.095C129.203 19.385 129.623 19.77 129.913 20.25V15.9H131.293V27H129.913V25.455C129.643 25.945 129.243 26.35 128.713 26.67C128.183 26.98 127.563 27.135 126.853 27.135C126.123 27.135 125.458 26.955 124.858 26.595C124.268 26.235 123.803 25.73 123.463 25.08C123.123 24.43 122.953 23.69 122.953 22.86ZM129.913 22.875C129.913 22.255 129.788 21.715 129.538 21.255C129.288 20.795 128.948 20.445 128.518 20.205C128.098 19.955 127.633 19.83 127.123 19.83C126.613 19.83 126.148 19.95 125.728 20.19C125.308 20.43 124.973 20.78 124.723 21.24C124.473 21.7 124.348 22.24 124.348 22.86C124.348 23.49 124.473 24.04 124.723 24.51C124.973 24.97 125.308 25.325 125.728 25.575C126.148 25.815 126.613 25.935 127.123 25.935C127.633 25.935 128.098 25.815 128.518 25.575C128.948 25.325 129.288 24.97 129.538 24.51C129.788 24.04 129.913 23.495 129.913 22.875ZM137.088 21.765C137.088 20.745 137.318 19.83 137.778 19.02C138.238 18.2 138.863 17.56 139.653 17.1C140.453 16.64 141.338 16.41 142.308 16.41C143.448 16.41 144.443 16.685 145.293 17.235C146.143 17.785 146.763 18.565 147.153 19.575H145.518C145.228 18.945 144.808 18.46 144.258 18.12C143.718 17.78 143.068 17.61 142.308 17.61C141.578 17.61 140.923 17.78 140.343 18.12C139.763 18.46 139.308 18.945 138.978 19.575C138.648 20.195 138.483 20.925 138.483 21.765C138.483 22.595 138.648 23.325 138.978 23.955C139.308 24.575 139.763 25.055 140.343 25.395C140.923 25.735 141.578 25.905 142.308 25.905C143.068 25.905 143.718 25.74 144.258 25.41C144.808 25.07 145.228 24.585 145.518 23.955H147.153C146.763 24.955 146.143 25.73 145.293 26.28C144.443 26.82 143.448 27.09 142.308 27.09C141.338 27.09 140.453 26.865 139.653 26.415C138.863 25.955 138.238 25.32 137.778 24.51C137.318 23.7 137.088 22.785 137.088 21.765ZM152.77 27.135C152 27.135 151.3 26.96 150.67 26.61C150.05 26.26 149.56 25.765 149.2 25.125C148.85 24.475 148.675 23.725 148.675 22.875C148.675 22.035 148.855 21.295 149.215 20.655C149.585 20.005 150.085 19.51 150.715 19.17C151.345 18.82 152.05 18.645 152.83 18.645C153.61 18.645 154.315 18.82 154.945 19.17C155.575 19.51 156.07 20 156.43 20.64C156.8 21.28 156.985 22.025 156.985 22.875C156.985 23.725 156.795 24.475 156.415 25.125C156.045 25.765 155.54 26.26 154.9 26.61C154.26 26.96 153.55 27.135 152.77 27.135ZM152.77 25.935C153.26 25.935 153.72 25.82 154.15 25.59C154.58 25.36 154.925 25.015 155.185 24.555C155.455 24.095 155.59 23.535 155.59 22.875C155.59 22.215 155.46 21.655 155.2 21.195C154.94 20.735 154.6 20.395 154.18 20.175C153.76 19.945 153.305 19.83 152.815 19.83C152.315 19.83 151.855 19.945 151.435 20.175C151.025 20.395 150.695 20.735 150.445 21.195C150.195 21.655 150.07 22.215 150.07 22.875C150.07 23.545 150.19 24.11 150.43 24.57C150.68 25.03 151.01 25.375 151.42 25.605C151.83 25.825 152.28 25.935 152.77 25.935ZM162.785 18.63C163.785 18.63 164.595 18.935 165.215 19.545C165.835 20.145 166.145 21.015 166.145 22.155V27H164.795V22.35C164.795 21.53 164.59 20.905 164.18 20.475C163.77 20.035 163.21 19.815 162.5 19.815C161.78 19.815 161.205 20.04 160.775 20.49C160.355 20.94 160.145 21.595 160.145 22.455V27H158.78V18.78H160.145V19.95C160.415 19.53 160.78 19.205 161.24 18.975C161.71 18.745 162.225 18.63 162.785 18.63ZM170.04 19.905V24.75C170.04 25.15 170.125 25.435 170.295 25.605C170.465 25.765 170.76 25.845 171.18 25.845H172.185V27H170.955C170.195 27 169.625 26.825 169.245 26.475C168.865 26.125 168.675 25.55 168.675 24.75V19.905H167.61V18.78H168.675V16.71H170.04V18.78H172.185V19.905H170.04ZM174.544 17.445C174.284 17.445 174.064 17.355 173.884 17.175C173.704 16.995 173.614 16.775 173.614 16.515C173.614 16.255 173.704 16.035 173.884 15.855C174.064 15.675 174.284 15.585 174.544 15.585C174.794 15.585 175.004 15.675 175.174 15.855C175.354 16.035 175.444 16.255 175.444 16.515C175.444 16.775 175.354 16.995 175.174 17.175C175.004 17.355 174.794 17.445 174.544 17.445ZM175.204 18.78V27H173.839V18.78H175.204ZM181.535 18.63C182.535 18.63 183.345 18.935 183.965 19.545C184.585 20.145 184.895 21.015 184.895 22.155V27H183.545V22.35C183.545 21.53 183.34 20.905 182.93 20.475C182.52 20.035 181.96 19.815 181.25 19.815C180.53 19.815 179.955 20.04 179.525 20.49C179.105 20.94 178.895 21.595 178.895 22.455V27H177.53V18.78H178.895V19.95C179.165 19.53 179.53 19.205 179.99 18.975C180.46 18.745 180.975 18.63 181.535 18.63ZM194.415 18.78V27H193.05V25.785C192.79 26.205 192.425 26.535 191.955 26.775C191.495 27.005 190.985 27.12 190.425 27.12C189.785 27.12 189.21 26.99 188.7 26.73C188.19 26.46 187.785 26.06 187.485 25.53C187.195 25 187.05 24.355 187.05 23.595V18.78H188.4V23.415C188.4 24.225 188.605 24.85 189.015 25.29C189.425 25.72 189.985 25.935 190.695 25.935C191.425 25.935 192 25.71 192.42 25.26C192.84 24.81 193.05 24.155 193.05 23.295V18.78H194.415ZM204.219 22.575C204.219 22.835 204.204 23.11 204.174 23.4H197.604C197.654 24.21 197.929 24.845 198.429 25.305C198.939 25.755 199.554 25.98 200.274 25.98C200.864 25.98 201.354 25.845 201.744 25.575C202.144 25.295 202.424 24.925 202.584 24.465H204.054C203.834 25.255 203.394 25.9 202.734 26.4C202.074 26.89 201.254 27.135 200.274 27.135C199.494 27.135 198.794 26.96 198.174 26.61C197.564 26.26 197.084 25.765 196.734 25.125C196.384 24.475 196.209 23.725 196.209 22.875C196.209 22.025 196.379 21.28 196.719 20.64C197.059 20 197.534 19.51 198.144 19.17C198.764 18.82 199.474 18.645 200.274 18.645C201.054 18.645 201.744 18.815 202.344 19.155C202.944 19.495 203.404 19.965 203.724 20.565C204.054 21.155 204.219 21.825 204.219 22.575ZM202.809 22.29C202.809 21.77 202.694 21.325 202.464 20.955C202.234 20.575 201.919 20.29 201.519 20.1C201.129 19.9 200.694 19.8 200.214 19.8C199.524 19.8 198.934 20.02 198.444 20.46C197.964 20.9 197.689 21.51 197.619 22.29H202.809Z" fill="#888888"></path>
<path d="M226.726 21.1485L222.007 16.9476C221.814 16.7762 221.722 16.5761 221.729 16.3475C221.737 16.1189 221.838 15.9188 222.031 15.7474C222.224 15.5902 222.448 15.5079 222.705 15.5005C222.962 15.493 223.187 15.5753 223.379 15.7474L229.736 21.4057C229.832 21.4914 229.901 21.5843 229.941 21.6843C229.982 21.7843 230.001 21.8915 230 22.0058C229.999 22.1201 229.978 22.2273 229.939 22.3273C229.9 22.4273 229.832 22.5202 229.735 22.6059L223.378 28.2642C223.202 28.4214 222.981 28.5 222.716 28.5C222.451 28.5 222.222 28.4214 222.03 28.2642C221.837 28.0928 221.741 27.889 221.741 27.653C221.741 27.4169 221.837 27.2134 222.03 27.0426L226.726 22.8631L215.963 22.8631C215.69 22.8631 215.461 22.7808 215.276 22.6162C215.092 22.4516 214.999 22.2481 215 22.0058C215.001 21.7635 215.093 21.5597 215.277 21.3945C215.462 21.2294 215.69 21.1473 215.963 21.1485L226.726 21.1485Z" fill="#888888"></path>
</g>
<defs>
<filter id="filter0_d_156_4615" x="0" y="0" width="284" height="52" filterUnits="userSpaceOnUse" color-interpolation-filters="sRGB">
<feFlood flood-opacity="0" result="BackgroundImageFix"></feFlood>
<feColorMatrix in="SourceAlpha" type="matrix" values="0 0 0 0 0 0 0 0 0 0 0 0 0 0 0 0 0 0 127 0" result="hardAlpha"></feColorMatrix>
<feOffset dy="4"></feOffset>
<feGaussianBlur stdDeviation="2"></feGaussianBlur>
<feComposite in2="hardAlpha" operator="out"></feComposite>
<feColorMatrix type="matrix" values="0 0 0 0 0 0 0 0 0 0 0 0 0 0 0 0 0 0 0.25 0"></feColorMatrix>
<feBlend mode="normal" in2="BackgroundImageFix" result="effect1_dropShadow_156_4615"></feBlend>
<feBlend mode="normal" in="SourceGraphic" in2="effect1_dropShadow_156_4615" result="shape"></feBlend>
</filter>
<linearGradient id="paint0_linear_156_4615" x1="4" y1="22" x2="280" y2="22" gradientUnits="userSpaceOnUse">
<stop offset="0.956731" stop-color="white"></stop>
</linearGradient>
</defs>
</svg>