<svg width="17" height="17" viewBox="0 0 17 17" fill="none" xmlns="http://www.w3.org/2000/svg">
<path d="M4.91592 1.41675C5.21058 1.41675 5.44929 1.64625 5.44929 1.92958V2.96375C5.92246 2.95525 6.453 2.95525 7.05012 2.95525H9.89408C10.4905 2.95525 11.021 2.95525 11.4942 2.96446V1.93029C11.4942 1.64696 11.7329 1.41675 12.0276 1.41675C12.3222 1.41675 12.561 1.64625 12.561 1.92958V3.0105C13.5845 3.08912 14.2567 3.2825 14.7497 3.75779C15.2441 4.23237 15.4453 4.87837 15.5267 5.86296L15.5834 6.37508H1.41675V5.86225C1.49891 4.87767 1.70008 4.23166 2.19379 3.75708C2.6875 3.2825 3.359 3.08841 4.38254 3.00979V1.92958C4.38254 1.64625 4.62125 1.41675 4.91592 1.41675Z" fill="black"></path>
<path opacity="0.5" d="M15.5834 9.91667V8.5C15.5834 7.90571 15.5806 6.84604 15.5713 6.375H1.4238C1.41459 6.84604 1.41672 7.90571 1.41672 8.5V9.91667C1.41672 12.5878 1.41672 13.9237 2.24688 14.7532C3.07705 15.5826 4.41155 15.5833 7.08338 15.5833H9.91672C12.5871 15.5833 13.923 15.5833 14.7532 14.7532C15.5834 13.923 15.5834 12.5885 15.5834 9.91667Z" fill="black"></path>
<path d="M12.75 12.0417C12.75 12.2295 12.6754 12.4097 12.5425 12.5425C12.4097 12.6754 12.2295 12.75 12.0417 12.75C11.8538 12.75 11.6736 12.6754 11.5408 12.5425C11.408 12.4097 11.3333 12.2295 11.3333 12.0417C11.3333 11.8538 11.408 11.6736 11.5408 11.5408C11.6736 11.408 11.8538 11.3333 12.0417 11.3333C12.2295 11.3333 12.4097 11.408 12.5425 11.5408C12.6754 11.6736 12.75 11.8538 12.75 12.0417ZM12.75 9.20833C12.75 9.39619 12.6754 9.57636 12.5425 9.7092C12.4097 9.84204 12.2295 9.91667 12.0417 9.91667C11.8538 9.91667 11.6736 9.84204 11.5408 9.7092C11.408 9.57636 11.3333 9.39619 11.3333 9.20833C11.3333 9.02047 11.408 8.8403 11.5408 8.70747C11.6736 8.57463 11.8538 8.5 12.0417 8.5C12.2295 8.5 12.4097 8.57463 12.5425 8.70747C12.6754 8.8403 12.75 9.02047 12.75 9.20833ZM9.20833 12.0417C9.20833 12.2295 9.13371 12.4097 9.00087 12.5425C8.86803 12.6754 8.68786 12.75 8.5 12.75C8.31214 12.75 8.13197 12.6754 7.99913 12.5425C7.86629 12.4097 7.79167 12.2295 7.79167 12.0417C7.79167 11.8538 7.86629 11.6736 7.99913 11.5408C8.13197 11.408 8.31214 11.3333 8.5 11.3333C8.68786 11.3333 8.86803 11.408 9.00087 11.5408C9.13371 11.6736 9.20833 11.8538 9.20833 12.0417ZM9.20833 9.20833C9.20833 9.39619 9.13371 9.57636 9.00087 9.7092C8.86803 9.84204 8.68786 9.91667 8.5 9.91667C8.31214 9.91667 8.13197 9.84204 7.99913 9.7092C7.86629 9.57636 7.79167 9.39619 7.79167 9.20833C7.79167 9.02047 7.86629 8.8403 7.99913 8.70747C8.13197 8.57463 8.31214 8.5 8.5 8.5C8.68786 8.5 8.86803 8.57463 9.00087 8.70747C9.13371 8.8403 9.20833 9.02047 9.20833 9.20833ZM5.66667 12.0417C5.66667 12.2295 5.59204 12.4097 5.4592 12.5425C5.32636 12.6754 5.14619 12.75 4.95833 12.75C4.77047 12.75 4.5903 12.6754 4.45747 12.5425C4.32463 12.4097 4.25 12.2295 4.25 12.0417C4.25 11.8538 4.32463 11.6736 4.45747 11.5408C4.5903 11.408 4.77047 11.3333 4.95833 11.3333C5.14619 11.3333 5.32636 11.408 5.4592 11.5408C5.59204 11.6736 5.66667 11.8538 5.66667 12.0417ZM5.66667 9.20833C5.66667 9.39619 5.59204 9.57636 5.4592 9.7092C5.32636 9.84204 5.14619 9.91667 4.95833 9.91667C4.77047 9.91667 4.5903 9.84204 4.45747 9.7092C4.32463 9.57636 4.25 9.39619 4.25 9.20833C4.25 9.02047 4.32463 8.8403 4.45747 8.70747C4.5903 8.57463 4.77047 8.5 4.95833 8.5C5.14619 8.5 5.32636 8.57463 5.4592 8.70747C5.59204 8.8403 5.66667 9.02047 5.66667 9.20833Z" fill="black"></path>
</svg>