<svg width="44" height="79" viewBox="0 0 44 79" fill="none" xmlns="http://www.w3.org/2000/svg">
<rect width="44" height="79" rx="22" fill="url(#paint0_linear_77_2914)"></rect>
<path d="M14.7545 15.84V24H12.5045V15.84H9.59453V13.8H17.6645V15.84H14.7545ZM25.4023 20.25V24H23.1523V20.25C23.1523 19.47 22.8523 19.05 22.1473 19.05C21.4423 19.05 20.8873 19.8 20.8873 20.7V24H18.6373V12.75H20.8873V18.195C21.3373 17.625 22.0423 17.235 22.9123 17.235C24.6823 17.235 25.4023 18.45 25.4023 20.25ZM26.8223 21.15V17.385H29.0723V21.15C29.0723 21.915 29.3723 22.35 30.0773 22.35C30.7823 22.35 31.3373 21.585 31.3373 20.7V17.385H33.5873V24H31.3373V23.19C30.8873 23.76 30.1823 24.15 29.3123 24.15C27.5423 24.15 26.8223 22.935 26.8223 21.15Z" fill="white"></path>
<circle cx="22" cy="57" r="14" fill="white"></circle>
<path d="M21.6026 51.8V62H19.3526V54.47H18.1676V52.925L21.6026 51.8ZM26.085 51.8V62H23.835V54.47H22.65V52.925L26.085 51.8Z" fill="#040404"></path>
<defs>
<linearGradient id="paint0_linear_77_2914" x1="22" y1="0" x2="22" y2="79" gradientUnits="userSpaceOnUse">
<stop offset="0.375" stop-color="#FF5338"></stop>
</linearGradient>
</defs>
</svg>