<svg width="362" height="98" viewBox="0 0 362 98" fill="none" xmlns="http://www.w3.org/2000/svg">
<rect width="362" height="98" rx="18" fill="white"></rect>
<path d="M116.469 45.0779C165.735 31.9867 166.429 10.1895 190.367 13.3001C214.306 16.4107 238.939 42.2641 246.571 48.1237C254.204 53.9833 259.755 53.9921 269.122 54.5754C278.49 55.1587 315.612 56.214 315.612 56.214H45C45 56.214 67.2041 58.1692 116.469 45.0779Z" fill="#FFC049" fill-opacity="0.8"></path>
<path d="M76.2245 33.5086C97.7347 32.1015 105.714 39.0298 121.673 47.5787C137.633 56.1275 147.347 55.2104 151.857 54.1551C163.23 51.4942 212.903 33.1698 229.571 35.2673C246.24 37.3648 254.285 42.4745 270.51 46.8752C286.736 51.2758 317 56.7242 317 56.7242H45C45 56.7242 54.7143 34.9156 76.2245 33.5086Z" fill="#FF5343" fill-opacity="0.9"></path>
<path d="M133.469 36.2465C156.791 36.8783 168.934 45.074 192.102 47.8543C203.98 49.2797 210.672 50.3048 222.633 50.3166C247.201 50.3409 261.012 33.6346 284.735 40.1158C297.963 43.7299 315.612 56.9999 315.612 56.9999H45C45 56.9999 98.0199 35.2862 133.469 36.2465Z" fill="#FF7926" fill-opacity="0.8"></path>
<path d="M52.8732 81L51.6012 75.192L49.1532 81.48L46.6932 75.192L45.4332 81H44.5692L46.4772 72.3L49.1532 79.284L51.8292 72.3L53.7252 81H52.8732ZM59.0677 78.336C59.0677 77.808 58.8757 77.364 58.5037 76.98C58.1197 76.608 57.6757 76.416 57.1477 76.416C56.6197 76.416 56.1637 76.608 55.7917 76.98C55.4077 77.364 55.2277 77.808 55.2277 78.336C55.2277 78.864 55.4077 79.308 55.7917 79.68C56.1637 80.064 56.6197 80.244 57.1477 80.244C57.6757 80.244 58.1197 80.064 58.5037 79.68C58.8757 79.308 59.0677 78.864 59.0677 78.336ZM59.9077 78.336C59.9077 79.104 59.6317 79.752 59.0917 80.28C58.5517 80.82 57.8917 81.084 57.1477 81.084C56.3917 81.084 55.7317 80.82 55.1917 80.28C54.6517 79.752 54.3877 79.104 54.3877 78.336C54.3877 77.58 54.6517 76.932 55.1917 76.392C55.7317 75.852 56.3797 75.576 57.1477 75.576C57.9037 75.576 58.5517 75.852 59.0917 76.392C59.6317 76.932 59.9077 77.58 59.9077 78.336ZM64.9933 81V77.712C64.9933 77.364 64.9093 77.064 64.7533 76.824C64.5973 76.584 64.3453 76.464 63.9853 76.464C63.6253 76.464 63.3253 76.524 63.1093 76.668C62.8813 76.8 62.7013 76.98 62.5573 77.196C62.3053 77.592 62.1853 78.12 62.1853 78.792V81H61.3453V75.72H62.1853V76.632C62.3533 76.332 62.5813 76.092 62.8573 75.912C63.1453 75.72 63.4693 75.612 63.8533 75.612C64.2253 75.612 64.5253 75.672 64.7653 75.78C64.9933 75.888 65.1853 76.032 65.3533 76.224C65.6653 76.596 65.8333 77.088 65.8333 77.7V81H64.9933Z" fill="black"></path>
<path d="M89.3618 73.596V72.816H91.3418H92.1818H94.1618V73.596H92.1818V80.976H91.3418V73.596H89.3618ZM97.5136 80.1C97.1176 80.772 96.5296 81.12 95.7496 81.12C95.1496 81.12 94.6936 80.916 94.3576 80.532C94.0216 80.136 93.8656 79.644 93.8656 79.032V75.732H94.7056V79.032C94.7056 79.368 94.7776 79.668 94.9336 79.908C95.0896 80.148 95.3536 80.28 95.7136 80.28C96.3616 80.28 96.8296 80.064 97.0936 79.656C97.3696 79.236 97.5136 78.672 97.5136 77.928V75.72H98.3536V81H97.5136V80.1ZM105.131 78.24V78.696H100.487C100.559 79.14 100.787 79.512 101.147 79.812C101.507 80.1 101.915 80.256 102.371 80.256C102.671 80.256 102.959 80.184 103.235 80.04C103.511 79.896 103.739 79.704 103.931 79.452H104.891C104.663 79.956 104.327 80.364 103.871 80.652C103.415 80.94 102.959 81.084 102.491 81.084C102.023 81.084 101.627 81.012 101.291 80.868C100.955 80.724 100.667 80.532 100.415 80.28C99.875 79.752 99.611 79.104 99.611 78.336C99.611 77.58 99.875 76.932 100.415 76.392C100.955 75.852 101.603 75.576 102.371 75.576C103.103 75.576 103.751 75.84 104.291 76.356C104.843 76.896 105.131 77.52 105.131 78.24ZM104.243 77.976C104.135 77.52 103.919 77.148 103.559 76.848C103.211 76.56 102.815 76.416 102.371 76.416C101.675 76.416 101.135 76.728 100.751 77.352C100.631 77.544 100.547 77.748 100.499 77.976H104.243Z" fill="black"></path>
<path d="M135.613 81.66L132.937 74.556L130.261 81.66L128.353 72.84H129.217L130.477 78.768L132.937 72.36L135.385 78.768L136.657 72.84H137.509L135.613 81.66ZM143.691 78.24V78.696H139.047C139.119 79.14 139.347 79.512 139.707 79.812C140.067 80.1 140.475 80.256 140.931 80.256C141.231 80.256 141.519 80.184 141.795 80.04C142.071 79.896 142.299 79.704 142.491 79.452H143.451C143.223 79.956 142.887 80.364 142.431 80.652C141.975 80.94 141.519 81.084 141.051 81.084C140.583 81.084 140.187 81.012 139.851 80.868C139.515 80.724 139.227 80.532 138.975 80.28C138.435 79.752 138.171 79.104 138.171 78.336C138.171 77.58 138.435 76.932 138.975 76.392C139.515 75.852 140.163 75.576 140.931 75.576C141.663 75.576 142.311 75.84 142.851 76.356C143.403 76.896 143.691 77.52 143.691 78.24ZM142.803 77.976C142.695 77.52 142.479 77.148 142.119 76.848C141.771 76.56 141.375 76.416 140.931 76.416C140.235 76.416 139.695 76.728 139.311 77.352C139.191 77.544 139.107 77.748 139.059 77.976H142.803ZM149.271 78.36C149.271 77.856 149.091 77.4 148.731 77.016C148.371 76.632 147.927 76.44 147.411 76.44C146.883 76.44 146.439 76.632 146.079 77.016C145.719 77.4 145.551 77.856 145.551 78.36C145.551 78.876 145.719 79.332 146.079 79.704C146.439 80.088 146.883 80.28 147.411 80.28C147.927 80.28 148.371 80.088 148.731 79.704C149.091 79.332 149.271 78.876 149.271 78.36ZM150.111 81H149.271V80.1C149.223 80.172 149.163 80.232 149.115 80.28C148.611 80.844 147.999 81.12 147.279 81.12C146.547 81.12 145.935 80.844 145.431 80.28C144.951 79.74 144.711 79.104 144.711 78.36C144.711 77.628 144.951 76.992 145.431 76.44C145.935 75.888 146.547 75.6 147.279 75.6C147.999 75.6 148.611 75.888 149.115 76.44C149.163 76.5 149.223 76.56 149.271 76.632V72H150.111V81Z" fill="black"></path>
<path d="M173.704 73.596V72.816H175.684H176.524H178.504V73.596H176.524V80.976H175.684V73.596H173.704ZM180.49 81H179.65V72H180.49V76.632C180.658 76.332 180.886 76.092 181.162 75.912C181.45 75.72 181.774 75.612 182.158 75.612C182.53 75.612 182.83 75.672 183.07 75.78C183.298 75.888 183.49 76.032 183.658 76.224C183.97 76.596 184.138 77.088 184.138 77.7V81H183.298V77.7C183.298 77.364 183.214 77.064 183.058 76.824C182.902 76.584 182.65 76.452 182.29 76.452C181.93 76.452 181.63 76.512 181.414 76.632C181.186 76.752 181.006 76.908 180.862 77.124C180.61 77.508 180.49 78.06 180.49 78.792V81ZM189.403 80.1C189.007 80.772 188.419 81.12 187.639 81.12C187.039 81.12 186.583 80.916 186.247 80.532C185.911 80.136 185.755 79.644 185.755 79.032V75.732H186.595V79.032C186.595 79.368 186.667 79.668 186.823 79.908C186.979 80.148 187.243 80.28 187.603 80.28C188.251 80.28 188.719 80.064 188.983 79.656C189.259 79.236 189.403 78.672 189.403 77.928V75.72H190.243V81H189.403V80.1ZM194.572 76.812C194.368 76.644 194.164 76.548 193.948 76.548C193.732 76.548 193.54 76.62 193.384 76.74C193.228 76.86 193.096 77.016 193 77.196C192.796 77.544 192.7 77.928 192.7 78.36V81H191.86V75.72H192.7V76.812L192.736 76.596C193.012 75.948 193.444 75.612 194.044 75.612C194.224 75.612 194.404 75.648 194.572 75.72V76.812ZM196.343 80.256C196.559 80.4 196.835 80.472 197.159 80.472C197.927 80.472 198.311 80.184 198.311 79.608C198.311 79.272 198.035 79.008 197.495 78.828C197.255 78.756 197.003 78.684 196.739 78.624C196.475 78.552 196.223 78.468 195.983 78.36C195.719 78.24 195.515 78.084 195.371 77.88C195.239 77.688 195.167 77.46 195.167 77.208C195.167 76.68 195.359 76.284 195.719 76.008C196.091 75.744 196.535 75.612 197.039 75.612C197.555 75.612 197.975 75.708 198.323 75.924C198.659 76.128 198.887 76.5 198.995 77.04H198.095C198.011 76.74 197.867 76.548 197.687 76.452C197.507 76.356 197.279 76.308 197.015 76.308C196.763 76.308 196.535 76.356 196.343 76.476C196.151 76.584 196.055 76.764 196.055 77.004C196.055 77.244 196.139 77.412 196.295 77.52C196.451 77.628 196.643 77.724 196.883 77.796C197.111 77.868 197.363 77.94 197.627 78C197.903 78.06 198.155 78.144 198.383 78.252C198.935 78.516 199.199 78.924 199.199 79.5C199.199 80.064 198.995 80.484 198.587 80.76C198.383 80.892 198.167 80.988 197.915 81.06C197.663 81.132 197.399 81.156 197.111 81.156C195.887 81.156 195.191 80.616 195.011 79.524H195.899C195.983 79.872 196.139 80.112 196.343 80.256Z" fill="#FF4D32"></path>
<path d="M228.614 73.62H224.606V76.524H228.494V77.316H224.606V81H223.766V72.84H228.614V73.62ZM232.466 76.812C232.262 76.644 232.058 76.548 231.842 76.548C231.626 76.548 231.434 76.62 231.278 76.74C231.122 76.86 230.99 77.016 230.894 77.196C230.69 77.544 230.594 77.928 230.594 78.36V81H229.754V75.72H230.594V76.812L230.63 76.596C230.906 75.948 231.338 75.612 231.938 75.612C232.118 75.612 232.298 75.648 232.466 75.72V76.812ZM234.333 73.896C234.429 74.004 234.489 74.136 234.489 74.28C234.489 74.424 234.429 74.556 234.333 74.652C234.225 74.76 234.093 74.808 233.949 74.808C233.805 74.808 233.673 74.76 233.577 74.652C233.469 74.556 233.421 74.424 233.421 74.28C233.421 74.136 233.469 74.004 233.577 73.896C233.673 73.8 233.805 73.74 233.949 73.74C234.093 73.74 234.225 73.8 234.333 73.896ZM234.381 81H233.541V75.72H234.381V81Z" fill="black"></path>
<path d="M260.428 77.16C258.772 76.776 257.932 76.056 257.932 75.012C257.932 74.244 258.208 73.68 258.736 73.296C259.276 72.912 259.912 72.72 260.632 72.72C262.216 72.72 263.164 73.32 263.464 74.496H262.552C262.384 73.8 261.748 73.44 260.632 73.44C259.84 73.44 259.288 73.68 258.976 74.148C258.856 74.316 258.808 74.544 258.808 74.808C258.796 75.312 259.072 75.696 259.624 75.972C259.876 76.104 260.416 76.284 261.256 76.5C262.084 76.716 262.684 76.956 263.056 77.22C263.584 77.58 263.848 78.096 263.848 78.768C263.848 79.584 263.512 80.208 262.864 80.628C262.324 80.988 261.652 81.156 260.848 81.156C259.048 81.156 258.004 80.472 257.716 79.092H258.7C258.856 79.956 259.576 80.388 260.848 80.388C261.76 80.388 262.408 80.136 262.768 79.632C262.912 79.44 262.984 79.164 262.984 78.828C262.984 78.492 262.852 78.216 262.588 78C262.204 77.688 261.484 77.412 260.428 77.16ZM269.262 78.36C269.262 77.856 269.082 77.4 268.722 77.016C268.362 76.632 267.918 76.44 267.402 76.44C266.874 76.44 266.43 76.632 266.07 77.016C265.71 77.4 265.542 77.856 265.542 78.36C265.542 78.876 265.71 79.332 266.07 79.704C266.43 80.088 266.874 80.28 267.402 80.28C267.918 80.28 268.362 80.088 268.722 79.704C269.082 79.332 269.262 78.876 269.262 78.36ZM270.102 81H269.262V80.1C269.214 80.172 269.154 80.232 269.106 80.28C268.602 80.844 267.99 81.12 267.27 81.12C266.538 81.12 265.926 80.844 265.422 80.28C264.942 79.74 264.702 79.104 264.702 78.36C264.702 77.628 264.942 76.992 265.422 76.44C265.926 75.888 266.538 75.6 267.27 75.6C267.99 75.6 268.602 75.888 269.106 76.44C269.154 76.5 269.214 76.56 269.262 76.632V75.72H270.102V81ZM271.246 76.5V75.72H272.566V73.668H273.406V75.72H274.714V76.5H273.406V81H272.566V76.5H271.246Z" fill="black"></path>
<path d="M300.911 77.16C299.255 76.776 298.415 76.056 298.415 75.012C298.415 74.244 298.691 73.68 299.219 73.296C299.759 72.912 300.395 72.72 301.115 72.72C302.699 72.72 303.647 73.32 303.947 74.496H303.035C302.867 73.8 302.231 73.44 301.115 73.44C300.323 73.44 299.771 73.68 299.459 74.148C299.339 74.316 299.291 74.544 299.291 74.808C299.279 75.312 299.555 75.696 300.107 75.972C300.359 76.104 300.899 76.284 301.739 76.5C302.567 76.716 303.167 76.956 303.539 77.22C304.067 77.58 304.331 78.096 304.331 78.768C304.331 79.584 303.995 80.208 303.347 80.628C302.807 80.988 302.135 81.156 301.331 81.156C299.531 81.156 298.487 80.472 298.199 79.092H299.183C299.339 79.956 300.059 80.388 301.331 80.388C302.243 80.388 302.891 80.136 303.251 79.632C303.395 79.44 303.467 79.164 303.467 78.828C303.467 78.492 303.335 78.216 303.071 78C302.687 77.688 301.967 77.412 300.911 77.16ZM309.194 80.1C308.798 80.772 308.21 81.12 307.43 81.12C306.83 81.12 306.374 80.916 306.038 80.532C305.702 80.136 305.546 79.644 305.546 79.032V75.732H306.386V79.032C306.386 79.368 306.458 79.668 306.614 79.908C306.77 80.148 307.034 80.28 307.394 80.28C308.042 80.28 308.51 80.064 308.774 79.656C309.05 79.236 309.194 78.672 309.194 77.928V75.72H310.034V81H309.194V80.1ZM315.299 81V77.712C315.299 77.364 315.215 77.064 315.059 76.824C314.903 76.584 314.651 76.464 314.291 76.464C313.931 76.464 313.631 76.524 313.415 76.668C313.187 76.8 313.007 76.98 312.863 77.196C312.611 77.592 312.491 78.12 312.491 78.792V81H311.651V75.72H312.491V76.632C312.659 76.332 312.887 76.092 313.163 75.912C313.451 75.72 313.775 75.612 314.159 75.612C314.531 75.612 314.831 75.672 315.071 75.78C315.299 75.888 315.491 76.032 315.659 76.224C315.971 76.596 316.139 77.088 316.139 77.7V81H315.299Z" fill="black"></path>
</svg>