<svg width="20" height="20" viewBox="0 0 20 20" fill="none" xmlns="http://www.w3.org/2000/svg">
<g opacity="0.7" clip-path="url(#clip0_191_4411)">
<path d="M18.334 10H16.2672C15.903 9.99924 15.5485 10.1178 15.258 10.3375C14.9676 10.5573 14.7571 10.8661 14.6587 11.2168L12.7002 18.184C12.6876 18.2273 12.6613 18.2653 12.6252 18.2923C12.5892 18.3194 12.5453 18.334 12.5002 18.334C12.4551 18.334 12.4113 18.3194 12.3752 18.2923C12.3391 18.2653 12.3128 18.2273 12.3002 18.184L7.69983 1.81603C7.68721 1.77275 7.66089 1.73473 7.62482 1.70769C7.58876 1.68064 7.5449 1.66602 7.49982 1.66602C7.45473 1.66602 7.41087 1.68064 7.37481 1.70769C7.33874 1.73473 7.31242 1.77275 7.2998 1.81603L5.34131 8.78325C5.24336 9.13257 5.0341 9.4404 4.74531 9.66C4.45653 9.8796 4.10398 9.99898 3.74118 10H1.66602" stroke="#1A1A1A" stroke-width="2" stroke-linecap="round"></path>
</g>
<defs>
<clipPath id="clip0_191_4411">
<rect width="20" height="20" fill="white"></rect>
</clipPath>
</defs>
</svg>