<svg width="18" height="18" viewBox="0 0 18 18" fill="none" xmlns="http://www.w3.org/2000/svg">
<path d="M15.0399 11.9899H2.95965M13.4995 3.74939C13.8973 3.74939 14.2788 3.90742 14.5601 4.18873C14.8414 4.47003 14.9994 4.85156 14.9994 5.24939V11.6439C14.9993 11.8774 15.0537 12.1078 15.1584 12.3166L15.9593 13.9119C16.0171 14.0266 16.0445 14.1543 16.0388 14.2826C16.0331 14.411 15.9946 14.5357 15.9268 14.6449C15.859 14.7541 15.7644 14.844 15.6519 14.9061C15.5394 14.9681 15.4128 15.0003 15.2844 14.9994H2.71515C2.58668 15.0003 2.46013 14.9681 2.34763 14.9061C2.23514 14.844 2.14048 14.7541 2.07272 14.6449C2.00497 14.5357 1.96639 14.411 1.9607 14.2826C1.955 14.1543 1.98238 14.0266 2.04019 13.9119L2.84114 12.3166C2.94579 12.1078 3.00024 11.8774 3.00013 11.6439V5.24939C3.00013 4.85156 3.15816 4.47003 3.43945 4.18873C3.72073 3.90742 4.10224 3.74939 4.50004 3.74939H13.4995Z" stroke="#1C1C1E" stroke-width="2" stroke-linecap="round"></path>
</svg>