<svg width="20" height="20" viewBox="0 0 20 20" fill="none" xmlns="http://www.w3.org/2000/svg">
<g opacity="0.7" clip-path="url(#clip0_191_4417)">
<path d="M7.08311 7.08311V7.09145M13.3336 12.9169V12.9252M10 10V10.0083M9.16661 14.167V14.1753M5.83301 11.6668V11.6751M10 1.66602C8.35171 1.66602 6.74042 2.1548 5.3699 3.07055C3.99938 3.9863 2.93119 5.28789 2.30041 6.81073C1.66963 8.33357 1.50459 10.0093 1.82615 11.6259C2.14772 13.2425 2.94146 14.7275 4.10699 15.893C5.27252 17.0586 6.7575 17.8523 8.37414 18.1739C9.99077 18.4954 11.6665 18.3304 13.1893 17.6996C14.7121 17.0688 16.0137 16.0007 16.9295 14.6301C17.8452 13.2596 18.334 11.6483 18.334 10C17.7548 10.1784 17.1379 10.1954 16.5498 10.0494C15.9616 9.90338 15.4243 9.59978 14.9958 9.17124C14.5673 8.7427 14.2636 8.20545 14.1176 7.61727C13.9716 7.02908 13.9887 6.41222 14.167 5.83301C13.5878 6.01136 12.9709 6.02844 12.3828 5.88241C11.7946 5.73638 11.2573 5.43278 10.8288 5.00424C10.4003 4.57571 10.0966 4.03846 9.95062 3.45027C9.80459 2.86209 9.82167 2.24522 10 1.66602Z" stroke="#1A1A1A" stroke-width="2" stroke-linecap="round"></path>
</g>
<defs>
<clipPath id="clip0_191_4417">
<rect width="20" height="20" fill="white"></rect>
</clipPath>
</defs>
</svg>