<svg width="28" height="28" viewBox="0 0 28 28" fill="none" xmlns="http://www.w3.org/2000/svg">
<path d="M13.6751 2.4254C13.5772 2.48619 13.4982 2.57314 13.4471 2.67644L10.7533 8.13527C10.5756 8.49492 10.3132 8.80601 9.98863 9.04176C9.66407 9.27751 9.28709 9.43086 8.89012 9.48861L2.86429 10.3694C2.74961 10.3857 2.64179 10.4338 2.55311 10.5083C2.46443 10.5828 2.39846 10.6807 2.36271 10.7908C2.32696 10.901 2.32287 11.019 2.35091 11.1314C2.37894 11.2437 2.43798 11.346 2.52129 11.4264L6.87995 15.6696C7.16766 15.9498 7.38289 16.2958 7.50708 16.6777C7.63127 17.0596 7.66068 17.466 7.59279 17.8618L6.56495 23.8573C6.54495 23.9713 6.55735 24.0886 6.60072 24.1959C6.64409 24.3032 6.7167 24.3961 6.8103 24.4642C6.90389 24.5323 7.01471 24.5727 7.13015 24.5809C7.24558 24.5891 7.36101 24.5648 7.46329 24.5106L12.8498 21.6779C13.2048 21.4915 13.5997 21.3941 14.0007 21.3941C14.4017 21.3941 14.7966 21.4915 15.1516 21.6779L20.5393 24.5106C20.6416 24.5651 20.7572 24.5897 20.8728 24.5817C20.9884 24.5736 21.0995 24.5332 21.1933 24.4651C21.287 24.397 21.3598 24.3039 21.4032 24.1964C21.4466 24.0889 21.4589 23.9714 21.4388 23.8573L20.4098 17.8606C20.3422 17.465 20.3718 17.0588 20.4959 16.6772C20.6201 16.2955 20.8352 15.9497 21.1226 15.6696L25.4813 11.4253C25.5639 11.3447 25.6223 11.2427 25.65 11.1306C25.6776 11.0186 25.6733 10.901 25.6376 10.7913C25.602 10.6816 25.5363 10.584 25.448 10.5097C25.3598 10.4353 25.2525 10.3872 25.1383 10.3706L19.1113 9.48861C18.7148 9.43041 18.3383 9.27686 18.0142 9.04114C17.6901 8.80542 17.428 8.49457 17.2505 8.13527L14.5555 2.67644C14.5043 2.57314 14.4253 2.48619 14.3274 2.4254C14.2295 2.36461 14.1165 2.3324 14.0013 2.3324C13.886 2.3324 13.7731 2.36461 13.6751 2.4254Z" stroke="#FFB800" stroke-width="2" stroke-linecap="round"></path>
</svg>