<svg width="20" height="20" viewBox="0 0 20 20" fill="none" xmlns="http://www.w3.org/2000/svg">
<g clip-path="url(#clip0_186_4636)">
<path d="M13.3336 6.66642V10.8334C13.3336 11.4965 13.597 12.1324 14.0659 12.6013C14.5348 13.0702 15.1707 13.3336 15.8338 13.3336C16.4969 13.3336 17.1328 13.0702 17.6017 12.6013C18.0706 12.1324 18.334 11.4965 18.334 10.8334V10C18.334 8.12262 17.7001 6.30022 16.535 4.82808C15.37 3.35594 13.742 2.3203 11.9148 1.88897C10.0876 1.45763 8.16832 1.65586 6.46788 2.45154C4.76744 3.24723 3.38547 4.59375 2.54587 6.27294C1.70627 7.95214 1.45824 9.86563 1.84196 11.7034C2.22567 13.5412 3.21866 15.1955 4.66003 16.3985C6.10141 17.6014 7.90672 18.2824 9.78348 18.3312C11.6602 18.38 13.4985 17.7937 15.0004 16.6672M13.3336 10C13.3336 11.8411 11.8411 13.3336 10 13.3336C8.15891 13.3336 6.66641 11.8411 6.66641 10C6.66641 8.15892 8.15891 6.66641 10 6.66641C11.8411 6.66641 13.3336 8.15892 13.3336 10Z" stroke="#8E8E93" stroke-width="2" stroke-linecap="round"></path>
</g>
<defs>
<clipPath id="clip0_186_4636">
<rect width="20" height="20" fill="white"></rect>
</clipPath>
</defs>
</svg>