<svg width="18" height="18" viewBox="0 0 18 18" fill="none" xmlns="http://www.w3.org/2000/svg">
<path d="M6.75011 8.99963L8.24996 10.4997L11.2497 7.49958M14.9993 9.74999C14.9993 13.5001 12.3746 15.3752 9.25486 16.4627C9.0915 16.5181 8.91405 16.5154 8.75241 16.4552C5.62523 15.3752 3.00049 13.5001 3.00049 9.74999V4.49982C3.00049 4.30091 3.0795 4.11013 3.22014 3.96948C3.36077 3.82882 3.55152 3.7498 3.75041 3.7498C5.25026 3.7498 7.12508 2.84977 8.42995 1.70973C8.58882 1.57398 8.79092 1.49939 8.99989 1.49939C9.20885 1.49939 9.41096 1.57398 9.56983 1.70973C10.8822 2.85727 12.7495 3.7498 14.2494 3.7498C14.4483 3.7498 14.639 3.82882 14.7796 3.96948C14.9203 4.11013 14.9993 4.30091 14.9993 4.49982V9.74999Z" stroke="#34C759" stroke-width="2" stroke-linecap="round"></path>
</svg>