<svg width="20" height="20" viewBox="0 0 20 20" fill="none" xmlns="http://www.w3.org/2000/svg">
<g clip-path="url(#clip0_186_4651)">
<path d="M12.0837 10.4171L13.7502 8.75053M9.58382 7.91725L11.2504 6.25069M7.08397 5.41741L8.75053 3.75085M14.5835 12.9169L16.2501 11.2504M17.7498 12.7501C17.9362 12.9359 18.0842 13.1567 18.1851 13.3998C18.2861 13.6429 18.338 13.9035 18.338 14.1667C18.338 14.4299 18.2861 14.6905 18.1851 14.9336C18.0842 15.1767 17.9362 15.3975 17.7498 15.5833L15.5833 17.7498C15.3975 17.9362 15.1767 18.0842 14.9336 18.1851C14.6905 18.2861 14.4299 18.338 14.1667 18.338C13.9035 18.338 13.6429 18.2861 13.3998 18.1851C13.1567 18.0842 12.9359 17.9362 12.7501 17.7498L2.25078 7.25046C1.87626 6.87413 1.66602 6.36481 1.66602 5.83388C1.66602 5.30296 1.87626 4.79364 2.25078 4.41731L4.41731 2.25078C4.79364 1.87626 5.30296 1.66602 5.83388 1.66602C6.36481 1.66602 6.87413 1.87626 7.25046 2.25078L17.7498 12.7501Z" stroke="#8E8E93" stroke-width="2" stroke-linecap="round"></path>
</g>
<defs>
<clipPath id="clip0_186_4651">
<rect width="20" height="20" fill="white"></rect>
</clipPath>
</defs>
</svg>