<svg width="10" height="10" viewBox="0 0 10 10" fill="none" xmlns="http://www.w3.org/2000/svg">
<path d="M9.58331 8.74992L4.99998 0.833252L0.416646 8.74992H9.58331ZM4.7029 7.38034C4.62317 7.30034 4.58331 7.20131 4.58331 7.08325C4.58331 6.9652 4.62331 6.86631 4.70331 6.78659C4.78331 6.70686 4.8822 6.66686 4.99998 6.66659C5.11776 6.66631 5.21665 6.70631 5.29665 6.78659C5.37665 6.86686 5.41665 6.96575 5.41665 7.08325C5.41665 7.20075 5.37665 7.29978 5.29665 7.38034C5.21665 7.46089 5.11776 7.50075 4.99998 7.49992C4.8822 7.49909 4.78317 7.4595 4.7029 7.38034ZM5.41665 6.24992H4.58331V4.16659H5.41665V6.24992Z" fill="#F79D5C"></path>
</svg>