<svg width="20" height="20" viewBox="0 0 20 20" fill="none" xmlns="http://www.w3.org/2000/svg">
<path d="M10 2.5V17.5M15.8338 6.66667L18.334 13.3333C17.6127 13.8743 16.7354 14.1667 15.8338 14.1667C14.9322 14.1667 14.0549 13.8743 13.3336 13.3333L15.8338 6.66667ZM15.8338 6.66667V5.83333M2.49942 5.83333H3.33282C5.65833 5.83333 7.94809 5.26094 10 4.16667C12.0519 5.26094 14.3417 5.83333 16.6672 5.83333H17.5006M4.16622 6.66667L6.66642 13.3333C5.94512 13.8743 5.06783 14.1667 4.16622 14.1667C3.2646 14.1667 2.38731 13.8743 1.66602 13.3333L4.16622 6.66667ZM4.16622 6.66667V5.83333M5.83302 17.5H14.167" stroke="#8E8E93" stroke-width="2" stroke-linecap="round"></path>
</svg>