<svg width="284" height="133" viewBox="0 0 284 133" fill="none" xmlns="http://www.w3.org/2000/svg">
<rect width="284" height="133" rx="18" fill="white"></rect>
<path d="M41.46 29L38.016 25.184V29H36.924V20.636H38.016V24.512L41.472 20.636H42.852L39.06 24.824L42.888 29H41.46ZM50.1076 25.46C50.1076 25.668 50.0956 25.888 50.0716 26.12H44.8156C44.8556 26.768 45.0756 27.276 45.4756 27.644C45.8836 28.004 46.3756 28.184 46.9516 28.184C47.4236 28.184 47.8156 28.076 48.1276 27.86C48.4476 27.636 48.6716 27.34 48.7996 26.972H49.9756C49.7996 27.604 49.4476 28.12 48.9196 28.52C48.3916 28.912 47.7356 29.108 46.9516 29.108C46.3276 29.108 45.7676 28.968 45.2716 28.688C44.7836 28.408 44.3996 28.012 44.1196 27.5C43.8396 26.98 43.6996 26.38 43.6996 25.7C43.6996 25.02 43.8356 24.424 44.1076 23.912C44.3796 23.4 44.7596 23.008 45.2476 22.736C45.7436 22.456 46.3116 22.316 46.9516 22.316C47.5756 22.316 48.1276 22.452 48.6076 22.724C49.0876 22.996 49.4556 23.372 49.7116 23.852C49.9756 24.324 50.1076 24.86 50.1076 25.46ZM48.9796 25.232C48.9796 24.816 48.8876 24.46 48.7036 24.164C48.5196 23.86 48.2676 23.632 47.9476 23.48C47.6356 23.32 47.2876 23.24 46.9036 23.24C46.3516 23.24 45.8796 23.416 45.4876 23.768C45.1036 24.12 44.8836 24.608 44.8276 25.232H48.9796ZM57.549 25.46C57.549 25.668 57.537 25.888 57.513 26.12H52.257C52.297 26.768 52.517 27.276 52.917 27.644C53.325 28.004 53.817 28.184 54.393 28.184C54.865 28.184 55.257 28.076 55.569 27.86C55.889 27.636 56.113 27.34 56.241 26.972H57.417C57.241 27.604 56.889 28.12 56.361 28.52C55.833 28.912 55.177 29.108 54.393 29.108C53.769 29.108 53.209 28.968 52.713 28.688C52.225 28.408 51.841 28.012 51.561 27.5C51.281 26.98 51.141 26.38 51.141 25.7C51.141 25.02 51.277 24.424 51.549 23.912C51.821 23.4 52.201 23.008 52.689 22.736C53.185 22.456 53.753 22.316 54.393 22.316C55.017 22.316 55.569 22.452 56.049 22.724C56.529 22.996 56.897 23.372 57.153 23.852C57.417 24.324 57.549 24.86 57.549 25.46ZM56.421 25.232C56.421 24.816 56.329 24.46 56.145 24.164C55.961 23.86 55.709 23.632 55.389 23.48C55.077 23.32 54.729 23.24 54.345 23.24C53.793 23.24 53.321 23.416 52.929 23.768C52.545 24.12 52.325 24.608 52.269 25.232H56.421ZM60.0824 23.636C60.2984 23.26 60.6184 22.948 61.0424 22.7C61.4744 22.444 61.9744 22.316 62.5424 22.316C63.1264 22.316 63.6544 22.456 64.1264 22.736C64.6064 23.016 64.9824 23.412 65.2544 23.924C65.5264 24.428 65.6624 25.016 65.6624 25.688C65.6624 26.352 65.5264 26.944 65.2544 27.464C64.9824 27.984 64.6064 28.388 64.1264 28.676C63.6544 28.964 63.1264 29.108 62.5424 29.108C61.9824 29.108 61.4864 28.984 61.0544 28.736C60.6304 28.48 60.3064 28.164 60.0824 27.788V32.12H58.9904V22.424H60.0824V23.636ZM64.5464 25.688C64.5464 25.192 64.4464 24.76 64.2464 24.392C64.0464 24.024 63.7744 23.744 63.4304 23.552C63.0944 23.36 62.7224 23.264 62.3144 23.264C61.9144 23.264 61.5424 23.364 61.1984 23.564C60.8624 23.756 60.5904 24.04 60.3824 24.416C60.1824 24.784 60.0824 25.212 60.0824 25.7C60.0824 26.196 60.1824 26.632 60.3824 27.008C60.5904 27.376 60.8624 27.66 61.1984 27.86C61.5424 28.052 61.9144 28.148 62.3144 28.148C62.7224 28.148 63.0944 28.052 63.4304 27.86C63.7744 27.66 64.0464 27.376 64.2464 27.008C64.4464 26.632 64.5464 26.192 64.5464 25.688ZM71.631 23.324V27.2C71.631 27.52 71.699 27.748 71.835 27.884C71.971 28.012 72.207 28.076 72.543 28.076H73.347V29H72.363C71.755 29 71.299 28.86 70.995 28.58C70.691 28.3 70.539 27.84 70.539 27.2V23.324H69.687V22.424H70.539V20.768H71.631V22.424H73.347V23.324H71.631ZM75.7621 23.492C75.9541 23.116 76.2261 22.824 76.5781 22.616C76.9381 22.408 77.3741 22.304 77.8861 22.304V23.432H77.5981C76.3741 23.432 75.7621 24.096 75.7621 25.424V29H74.6701V22.424H75.7621V23.492ZM78.7387 25.688C78.7387 25.016 78.8747 24.428 79.1467 23.924C79.4187 23.412 79.7907 23.016 80.2627 22.736C80.7427 22.456 81.2747 22.316 81.8587 22.316C82.4347 22.316 82.9347 22.44 83.3587 22.688C83.7827 22.936 84.0987 23.248 84.3067 23.624V22.424H85.4107V29H84.3067V27.776C84.0907 28.16 83.7667 28.48 83.3347 28.736C82.9107 28.984 82.4147 29.108 81.8467 29.108C81.2627 29.108 80.7347 28.964 80.2627 28.676C79.7907 28.388 79.4187 27.984 79.1467 27.464C78.8747 26.944 78.7387 26.352 78.7387 25.688ZM84.3067 25.7C84.3067 25.204 84.2067 24.772 84.0067 24.404C83.8067 24.036 83.5347 23.756 83.1907 23.564C82.8547 23.364 82.4827 23.264 82.0747 23.264C81.6667 23.264 81.2947 23.36 80.9587 23.552C80.6227 23.744 80.3547 24.024 80.1547 24.392C79.9547 24.76 79.8547 25.192 79.8547 25.688C79.8547 26.192 79.9547 26.632 80.1547 27.008C80.3547 27.376 80.6227 27.66 80.9587 27.86C81.2947 28.052 81.6667 28.148 82.0747 28.148C82.4827 28.148 82.8547 28.052 83.1907 27.86C83.5347 27.66 83.8067 27.376 84.0067 27.008C84.2067 26.632 84.3067 26.196 84.3067 25.7ZM86.848 25.7C86.848 25.02 86.984 24.428 87.256 23.924C87.528 23.412 87.904 23.016 88.384 22.736C88.872 22.456 89.428 22.316 90.052 22.316C90.86 22.316 91.524 22.512 92.044 22.904C92.572 23.296 92.92 23.84 93.088 24.536H91.912C91.8 24.136 91.58 23.82 91.252 23.588C90.932 23.356 90.532 23.24 90.052 23.24C89.428 23.24 88.924 23.456 88.54 23.888C88.156 24.312 87.964 24.916 87.964 25.7C87.964 26.492 88.156 27.104 88.54 27.536C88.924 27.968 89.428 28.184 90.052 28.184C90.532 28.184 90.932 28.072 91.252 27.848C91.572 27.624 91.792 27.304 91.912 26.888H93.088C92.912 27.56 92.56 28.1 92.032 28.508C91.504 28.908 90.844 29.108 90.052 29.108C89.428 29.108 88.872 28.968 88.384 28.688C87.904 28.408 87.528 28.012 87.256 27.5C86.984 26.988 86.848 26.388 86.848 25.7ZM98.2171 29L95.6371 26.096V29H94.5451V20.12H95.6371V25.34L98.1691 22.424H99.6931L96.5971 25.7L99.7051 29H98.2171ZM101.285 21.356C101.077 21.356 100.901 21.284 100.757 21.14C100.613 20.996 100.541 20.82 100.541 20.612C100.541 20.404 100.613 20.228 100.757 20.084C100.901 19.94 101.077 19.868 101.285 19.868C101.485 19.868 101.653 19.94 101.789 20.084C101.933 20.228 102.005 20.404 102.005 20.612C102.005 20.82 101.933 20.996 101.789 21.14C101.653 21.284 101.485 21.356 101.285 21.356ZM101.813 22.424V29H100.721V22.424H101.813ZM106.878 22.304C107.678 22.304 108.326 22.548 108.822 23.036C109.318 23.516 109.566 24.212 109.566 25.124V29H108.486V25.28C108.486 24.624 108.322 24.124 107.994 23.78C107.666 23.428 107.218 23.252 106.65 23.252C106.074 23.252 105.614 23.432 105.27 23.792C104.934 24.152 104.766 24.676 104.766 25.364V29H103.674V22.424H104.766V23.36C104.982 23.024 105.274 22.764 105.642 22.58C106.018 22.396 106.43 22.304 106.878 22.304ZM114.062 22.316C114.63 22.316 115.126 22.44 115.55 22.688C115.982 22.936 116.302 23.248 116.51 23.624V22.424H117.614V29.144C117.614 29.744 117.486 30.276 117.23 30.74C116.974 31.212 116.606 31.58 116.126 31.844C115.654 32.108 115.102 32.24 114.47 32.24C113.606 32.24 112.886 32.036 112.31 31.628C111.734 31.22 111.394 30.664 111.29 29.96H112.37C112.49 30.36 112.738 30.68 113.114 30.92C113.49 31.168 113.942 31.292 114.47 31.292C115.07 31.292 115.558 31.104 115.934 30.728C116.318 30.352 116.51 29.824 116.51 29.144V27.764C116.294 28.148 115.974 28.468 115.55 28.724C115.126 28.98 114.63 29.108 114.062 29.108C113.478 29.108 112.946 28.964 112.466 28.676C111.994 28.388 111.622 27.984 111.35 27.464C111.078 26.944 110.942 26.352 110.942 25.688C110.942 25.016 111.078 24.428 111.35 23.924C111.622 23.412 111.994 23.016 112.466 22.736C112.946 22.456 113.478 22.316 114.062 22.316ZM116.51 25.7C116.51 25.204 116.41 24.772 116.21 24.404C116.01 24.036 115.738 23.756 115.394 23.564C115.058 23.364 114.686 23.264 114.278 23.264C113.87 23.264 113.498 23.36 113.162 23.552C112.826 23.744 112.558 24.024 112.358 24.392C112.158 24.76 112.058 25.192 112.058 25.688C112.058 26.192 112.158 26.632 112.358 27.008C112.558 27.376 112.826 27.66 113.162 27.86C113.498 28.052 113.87 28.148 114.278 28.148C114.686 28.148 115.058 28.052 115.394 27.86C115.738 27.66 116.01 27.376 116.21 27.008C116.41 26.632 116.51 26.196 116.51 25.7ZM123.99 23.324V27.2C123.99 27.52 124.058 27.748 124.194 27.884C124.33 28.012 124.566 28.076 124.902 28.076H125.706V29H124.722C124.114 29 123.658 28.86 123.354 28.58C123.05 28.3 122.898 27.84 122.898 27.2V23.324H122.046V22.424H122.898V20.768H123.99V22.424H125.706V23.324H123.99ZM129.897 29.108C129.281 29.108 128.721 28.968 128.217 28.688C127.721 28.408 127.329 28.012 127.041 27.5C126.761 26.98 126.621 26.38 126.621 25.7C126.621 25.028 126.765 24.436 127.053 23.924C127.349 23.404 127.749 23.008 128.253 22.736C128.757 22.456 129.321 22.316 129.945 22.316C130.569 22.316 131.133 22.456 131.637 22.736C132.141 23.008 132.537 23.4 132.825 23.912C133.121 24.424 133.269 25.02 133.269 25.7C133.269 26.38 133.117 26.98 132.813 27.5C132.517 28.012 132.113 28.408 131.601 28.688C131.089 28.968 130.521 29.108 129.897 29.108ZM129.897 28.148C130.289 28.148 130.657 28.056 131.001 27.872C131.345 27.688 131.621 27.412 131.829 27.044C132.045 26.676 132.153 26.228 132.153 25.7C132.153 25.172 132.049 24.724 131.841 24.356C131.633 23.988 131.361 23.716 131.025 23.54C130.689 23.356 130.325 23.264 129.933 23.264C129.533 23.264 129.165 23.356 128.829 23.54C128.501 23.716 128.237 23.988 128.037 24.356C127.837 24.724 127.737 25.172 127.737 25.7C127.737 26.236 127.833 26.688 128.025 27.056C128.225 27.424 128.489 27.7 128.817 27.884C129.145 28.06 129.505 28.148 129.897 28.148ZM140.232 29.108C139.728 29.108 139.276 29.024 138.876 28.856C138.476 28.68 138.16 28.44 137.928 28.136C137.696 27.824 137.568 27.468 137.544 27.068H138.672C138.704 27.396 138.856 27.664 139.128 27.872C139.408 28.08 139.772 28.184 140.22 28.184C140.636 28.184 140.964 28.092 141.204 27.908C141.444 27.724 141.564 27.492 141.564 27.212C141.564 26.924 141.436 26.712 141.18 26.576C140.924 26.432 140.528 26.292 139.992 26.156C139.504 26.028 139.104 25.9 138.792 25.772C138.488 25.636 138.224 25.44 138 25.184C137.784 24.92 137.676 24.576 137.676 24.152C137.676 23.816 137.776 23.508 137.976 23.228C138.176 22.948 138.46 22.728 138.828 22.568C139.196 22.4 139.616 22.316 140.088 22.316C140.816 22.316 141.404 22.5 141.852 22.868C142.3 23.236 142.54 23.74 142.572 24.38H141.48C141.456 24.036 141.316 23.76 141.06 23.552C140.812 23.344 140.476 23.24 140.052 23.24C139.66 23.24 139.348 23.324 139.116 23.492C138.884 23.66 138.768 23.88 138.768 24.152C138.768 24.368 138.836 24.548 138.972 24.692C139.116 24.828 139.292 24.94 139.5 25.028C139.716 25.108 140.012 25.2 140.388 25.304C140.86 25.432 141.244 25.56 141.54 25.688C141.836 25.808 142.088 25.992 142.296 26.24C142.512 26.488 142.624 26.812 142.632 27.212C142.632 27.572 142.532 27.896 142.332 28.184C142.132 28.472 141.848 28.7 141.48 28.868C141.12 29.028 140.704 29.108 140.232 29.108ZM150.174 25.46C150.174 25.668 150.162 25.888 150.138 26.12H144.882C144.922 26.768 145.142 27.276 145.542 27.644C145.95 28.004 146.442 28.184 147.018 28.184C147.49 28.184 147.882 28.076 148.194 27.86C148.514 27.636 148.738 27.34 148.866 26.972H150.042C149.866 27.604 149.514 28.12 148.986 28.52C148.458 28.912 147.802 29.108 147.018 29.108C146.394 29.108 145.834 28.968 145.338 28.688C144.85 28.408 144.466 28.012 144.186 27.5C143.906 26.98 143.766 26.38 143.766 25.7C143.766 25.02 143.902 24.424 144.174 23.912C144.446 23.4 144.826 23.008 145.314 22.736C145.81 22.456 146.378 22.316 147.018 22.316C147.642 22.316 148.194 22.452 148.674 22.724C149.154 22.996 149.522 23.372 149.778 23.852C150.042 24.324 150.174 24.86 150.174 25.46ZM149.046 25.232C149.046 24.816 148.954 24.46 148.77 24.164C148.586 23.86 148.334 23.632 148.014 23.48C147.702 23.32 147.354 23.24 146.97 23.24C146.418 23.24 145.946 23.416 145.554 23.768C145.17 24.12 144.95 24.608 144.894 25.232H149.046ZM157.615 25.46C157.615 25.668 157.603 25.888 157.579 26.12H152.323C152.363 26.768 152.583 27.276 152.983 27.644C153.391 28.004 153.883 28.184 154.459 28.184C154.931 28.184 155.323 28.076 155.635 27.86C155.955 27.636 156.179 27.34 156.307 26.972H157.483C157.307 27.604 156.955 28.12 156.427 28.52C155.899 28.912 155.243 29.108 154.459 29.108C153.835 29.108 153.275 28.968 152.779 28.688C152.291 28.408 151.907 28.012 151.627 27.5C151.347 26.98 151.207 26.38 151.207 25.7C151.207 25.02 151.343 24.424 151.615 23.912C151.887 23.4 152.267 23.008 152.755 22.736C153.251 22.456 153.819 22.316 154.459 22.316C155.083 22.316 155.635 22.452 156.115 22.724C156.595 22.996 156.963 23.372 157.219 23.852C157.483 24.324 157.615 24.86 157.615 25.46ZM156.487 25.232C156.487 24.816 156.395 24.46 156.211 24.164C156.027 23.86 155.775 23.632 155.455 23.48C155.143 23.32 154.795 23.24 154.411 23.24C153.859 23.24 153.387 23.416 152.995 23.768C152.611 24.12 152.391 24.608 152.335 25.232H156.487ZM167.92 22.424L163.96 32.096H162.832L164.128 28.928L161.476 22.424H162.688L164.752 27.752L166.792 22.424H167.92ZM171.886 29.108C171.27 29.108 170.71 28.968 170.206 28.688C169.71 28.408 169.318 28.012 169.03 27.5C168.75 26.98 168.61 26.38 168.61 25.7C168.61 25.028 168.754 24.436 169.042 23.924C169.338 23.404 169.738 23.008 170.242 22.736C170.746 22.456 171.31 22.316 171.934 22.316C172.558 22.316 173.122 22.456 173.626 22.736C174.13 23.008 174.526 23.4 174.814 23.912C175.11 24.424 175.258 25.02 175.258 25.7C175.258 26.38 175.106 26.98 174.802 27.5C174.506 28.012 174.102 28.408 173.59 28.688C173.078 28.968 172.51 29.108 171.886 29.108ZM171.886 28.148C172.278 28.148 172.646 28.056 172.99 27.872C173.334 27.688 173.61 27.412 173.818 27.044C174.034 26.676 174.142 26.228 174.142 25.7C174.142 25.172 174.038 24.724 173.83 24.356C173.622 23.988 173.35 23.716 173.014 23.54C172.678 23.356 172.314 23.264 171.922 23.264C171.522 23.264 171.154 23.356 170.818 23.54C170.49 23.716 170.226 23.988 170.026 24.356C169.826 24.724 169.726 25.172 169.726 25.7C169.726 26.236 169.822 26.688 170.014 27.056C170.214 27.424 170.478 27.7 170.806 27.884C171.134 28.06 171.494 28.148 171.886 28.148ZM182.526 22.424V29H181.434V28.028C181.226 28.364 180.934 28.628 180.558 28.82C180.19 29.004 179.782 29.096 179.334 29.096C178.822 29.096 178.362 28.992 177.954 28.784C177.546 28.568 177.222 28.248 176.982 27.824C176.75 27.4 176.634 26.884 176.634 26.276V22.424H177.714V26.132C177.714 26.78 177.878 27.28 178.206 27.632C178.534 27.976 178.982 28.148 179.55 28.148C180.134 28.148 180.594 27.968 180.93 27.608C181.266 27.248 181.434 26.724 181.434 26.036V22.424H182.526ZM185.461 23.492C185.653 23.116 185.925 22.824 186.277 22.616C186.637 22.408 187.073 22.304 187.585 22.304V23.432H187.297C186.073 23.432 185.461 24.096 185.461 25.424V29H184.369V22.424H185.461V23.492ZM193.137 23.636C193.353 23.26 193.673 22.948 194.097 22.7C194.529 22.444 195.029 22.316 195.597 22.316C196.181 22.316 196.709 22.456 197.181 22.736C197.661 23.016 198.037 23.412 198.309 23.924C198.581 24.428 198.717 25.016 198.717 25.688C198.717 26.352 198.581 26.944 198.309 27.464C198.037 27.984 197.661 28.388 197.181 28.676C196.709 28.964 196.181 29.108 195.597 29.108C195.037 29.108 194.541 28.984 194.109 28.736C193.685 28.48 193.361 28.164 193.137 27.788V32.12H192.045V22.424H193.137V23.636ZM197.601 25.688C197.601 25.192 197.501 24.76 197.301 24.392C197.101 24.024 196.829 23.744 196.485 23.552C196.149 23.36 195.777 23.264 195.369 23.264C194.969 23.264 194.597 23.364 194.253 23.564C193.917 23.756 193.645 24.04 193.437 24.416C193.237 24.784 193.137 25.212 193.137 25.7C193.137 26.196 193.237 26.632 193.437 27.008C193.645 27.376 193.917 27.66 194.253 27.86C194.597 28.052 194.969 28.148 195.369 28.148C195.777 28.148 196.149 28.052 196.485 27.86C196.829 27.66 197.101 27.376 197.301 27.008C197.501 26.632 197.601 26.192 197.601 25.688ZM201.246 23.492C201.438 23.116 201.71 22.824 202.062 22.616C202.422 22.408 202.858 22.304 203.37 22.304V23.432H203.082C201.858 23.432 201.246 24.096 201.246 25.424V29H200.154V22.424H201.246V23.492ZM207.499 29.108C206.883 29.108 206.323 28.968 205.819 28.688C205.323 28.408 204.931 28.012 204.643 27.5C204.363 26.98 204.223 26.38 204.223 25.7C204.223 25.028 204.367 24.436 204.655 23.924C204.951 23.404 205.351 23.008 205.855 22.736C206.359 22.456 206.923 22.316 207.547 22.316C208.171 22.316 208.735 22.456 209.239 22.736C209.743 23.008 210.139 23.4 210.427 23.912C210.723 24.424 210.871 25.02 210.871 25.7C210.871 26.38 210.719 26.98 210.415 27.5C210.119 28.012 209.715 28.408 209.203 28.688C208.691 28.968 208.123 29.108 207.499 29.108ZM207.499 28.148C207.891 28.148 208.259 28.056 208.603 27.872C208.947 27.688 209.223 27.412 209.431 27.044C209.647 26.676 209.755 26.228 209.755 25.7C209.755 25.172 209.651 24.724 209.443 24.356C209.235 23.988 208.963 23.716 208.627 23.54C208.291 23.356 207.927 23.264 207.535 23.264C207.135 23.264 206.767 23.356 206.431 23.54C206.103 23.716 205.839 23.988 205.639 24.356C205.439 24.724 205.339 25.172 205.339 25.7C205.339 26.236 205.435 26.688 205.627 27.056C205.827 27.424 206.091 27.7 206.419 27.884C206.747 28.06 207.107 28.148 207.499 28.148ZM215.019 22.316C215.587 22.316 216.083 22.44 216.507 22.688C216.939 22.936 217.259 23.248 217.467 23.624V22.424H218.571V29.144C218.571 29.744 218.443 30.276 218.187 30.74C217.931 31.212 217.563 31.58 217.083 31.844C216.611 32.108 216.059 32.24 215.427 32.24C214.563 32.24 213.843 32.036 213.267 31.628C212.691 31.22 212.351 30.664 212.247 29.96H213.327C213.447 30.36 213.695 30.68 214.071 30.92C214.447 31.168 214.899 31.292 215.427 31.292C216.027 31.292 216.515 31.104 216.891 30.728C217.275 30.352 217.467 29.824 217.467 29.144V27.764C217.251 28.148 216.931 28.468 216.507 28.724C216.083 28.98 215.587 29.108 215.019 29.108C214.435 29.108 213.903 28.964 213.423 28.676C212.951 28.388 212.579 27.984 212.307 27.464C212.035 26.944 211.899 26.352 211.899 25.688C211.899 25.016 212.035 24.428 212.307 23.924C212.579 23.412 212.951 23.016 213.423 22.736C213.903 22.456 214.435 22.316 215.019 22.316ZM217.467 25.7C217.467 25.204 217.367 24.772 217.167 24.404C216.967 24.036 216.695 23.756 216.351 23.564C216.015 23.364 215.643 23.264 215.235 23.264C214.827 23.264 214.455 23.36 214.119 23.552C213.783 23.744 213.515 24.024 213.315 24.392C213.115 24.76 213.015 25.192 213.015 25.688C213.015 26.192 213.115 26.632 213.315 27.008C213.515 27.376 213.783 27.66 214.119 27.86C214.455 28.052 214.827 28.148 215.235 28.148C215.643 28.148 216.015 28.052 216.351 27.86C216.695 27.66 216.967 27.376 217.167 27.008C217.367 26.632 217.467 26.196 217.467 25.7ZM221.508 23.492C221.7 23.116 221.972 22.824 222.324 22.616C222.684 22.408 223.12 22.304 223.632 22.304V23.432H223.344C222.12 23.432 221.508 24.096 221.508 25.424V29H220.416V22.424H221.508V23.492ZM230.893 25.46C230.893 25.668 230.881 25.888 230.857 26.12H225.601C225.641 26.768 225.861 27.276 226.261 27.644C226.669 28.004 227.161 28.184 227.737 28.184C228.209 28.184 228.601 28.076 228.913 27.86C229.233 27.636 229.457 27.34 229.585 26.972H230.761C230.585 27.604 230.233 28.12 229.705 28.52C229.177 28.912 228.521 29.108 227.737 29.108C227.113 29.108 226.553 28.968 226.057 28.688C225.569 28.408 225.185 28.012 224.905 27.5C224.625 26.98 224.485 26.38 224.485 25.7C224.485 25.02 224.621 24.424 224.893 23.912C225.165 23.4 225.545 23.008 226.033 22.736C226.529 22.456 227.097 22.316 227.737 22.316C228.361 22.316 228.913 22.452 229.393 22.724C229.873 22.996 230.241 23.372 230.497 23.852C230.761 24.324 230.893 24.86 230.893 25.46ZM229.765 25.232C229.765 24.816 229.673 24.46 229.489 24.164C229.305 23.86 229.053 23.632 228.733 23.48C228.421 23.32 228.073 23.24 227.689 23.24C227.137 23.24 226.665 23.416 226.273 23.768C225.889 24.12 225.669 24.608 225.613 25.232H229.765ZM234.662 29.108C234.158 29.108 233.706 29.024 233.306 28.856C232.906 28.68 232.59 28.44 232.358 28.136C232.126 27.824 231.998 27.468 231.974 27.068H233.102C233.134 27.396 233.286 27.664 233.558 27.872C233.838 28.08 234.202 28.184 234.65 28.184C235.066 28.184 235.394 28.092 235.634 27.908C235.874 27.724 235.994 27.492 235.994 27.212C235.994 26.924 235.866 26.712 235.61 26.576C235.354 26.432 234.958 26.292 234.422 26.156C233.934 26.028 233.534 25.9 233.222 25.772C232.918 25.636 232.654 25.44 232.43 25.184C232.214 24.92 232.106 24.576 232.106 24.152C232.106 23.816 232.206 23.508 232.406 23.228C232.606 22.948 232.89 22.728 233.258 22.568C233.626 22.4 234.046 22.316 234.518 22.316C235.246 22.316 235.834 22.5 236.282 22.868C236.73 23.236 236.97 23.74 237.002 24.38H235.91C235.886 24.036 235.746 23.76 235.49 23.552C235.242 23.344 234.906 23.24 234.482 23.24C234.09 23.24 233.778 23.324 233.546 23.492C233.314 23.66 233.198 23.88 233.198 24.152C233.198 24.368 233.266 24.548 233.402 24.692C233.546 24.828 233.722 24.94 233.93 25.028C234.146 25.108 234.442 25.2 234.818 25.304C235.29 25.432 235.674 25.56 235.97 25.688C236.266 25.808 236.518 25.992 236.726 26.24C236.942 26.488 237.054 26.812 237.062 27.212C237.062 27.572 236.962 27.896 236.762 28.184C236.562 28.472 236.278 28.7 235.91 28.868C235.55 29.028 235.134 29.108 234.662 29.108ZM240.932 29.108C240.428 29.108 239.976 29.024 239.576 28.856C239.176 28.68 238.86 28.44 238.628 28.136C238.396 27.824 238.268 27.468 238.244 27.068H239.372C239.404 27.396 239.556 27.664 239.828 27.872C240.108 28.08 240.472 28.184 240.92 28.184C241.336 28.184 241.664 28.092 241.904 27.908C242.144 27.724 242.264 27.492 242.264 27.212C242.264 26.924 242.136 26.712 241.88 26.576C241.624 26.432 241.228 26.292 240.692 26.156C240.204 26.028 239.804 25.9 239.492 25.772C239.188 25.636 238.924 25.44 238.7 25.184C238.484 24.92 238.376 24.576 238.376 24.152C238.376 23.816 238.476 23.508 238.676 23.228C238.876 22.948 239.16 22.728 239.528 22.568C239.896 22.4 240.316 22.316 240.788 22.316C241.516 22.316 242.104 22.5 242.552 22.868C243 23.236 243.24 23.74 243.272 24.38H242.18C242.156 24.036 242.016 23.76 241.76 23.552C241.512 23.344 241.176 23.24 240.752 23.24C240.36 23.24 240.048 23.324 239.816 23.492C239.584 23.66 239.468 23.88 239.468 24.152C239.468 24.368 239.536 24.548 239.672 24.692C239.816 24.828 239.992 24.94 240.2 25.028C240.416 25.108 240.712 25.2 241.088 25.304C241.56 25.432 241.944 25.56 242.24 25.688C242.536 25.808 242.788 25.992 242.996 26.24C243.212 26.488 243.324 26.812 243.332 27.212C243.332 27.572 243.232 27.896 243.032 28.184C242.832 28.472 242.548 28.7 242.18 28.868C241.82 29.028 241.404 29.108 240.932 29.108ZM246.289 20.636L246.157 26.636H245.245L245.113 20.636H246.289ZM245.749 29.072C245.541 29.072 245.365 29 245.221 28.856C245.077 28.712 245.005 28.536 245.005 28.328C245.005 28.12 245.077 27.944 245.221 27.8C245.365 27.656 245.541 27.584 245.749 27.584C245.949 27.584 246.117 27.656 246.253 27.8C246.397 27.944 246.469 28.12 246.469 28.328C246.469 28.536 246.397 28.712 246.253 28.856C246.117 29 245.949 29.072 245.749 29.072Z" fill="black"></path>
<circle cx="142" cy="63" r="21" fill="#FC2611"></circle>
<path d="M132.381 95.16V94.662H133.509V99H132.957V95.16H132.381ZM136.865 95.694C136.777 95.25 136.503 95.028 136.043 95.028C135.687 95.028 135.421 95.166 135.245 95.442C135.069 95.714 134.983 96.164 134.987 96.792C135.079 96.584 135.231 96.422 135.443 96.306C135.659 96.186 135.899 96.126 136.163 96.126C136.575 96.126 136.903 96.254 137.147 96.51C137.395 96.766 137.519 97.12 137.519 97.572C137.519 97.844 137.465 98.088 137.357 98.304C137.253 98.52 137.093 98.692 136.877 98.82C136.665 98.948 136.407 99.012 136.103 99.012C135.691 99.012 135.369 98.92 135.137 98.736C134.905 98.552 134.743 98.298 134.651 97.974C134.559 97.65 134.513 97.25 134.513 96.774C134.513 95.306 135.025 94.572 136.049 94.572C136.441 94.572 136.749 94.678 136.973 94.89C137.197 95.102 137.329 95.37 137.369 95.694H136.865ZM136.049 96.588C135.877 96.588 135.715 96.624 135.563 96.696C135.411 96.764 135.287 96.87 135.191 97.014C135.099 97.154 135.053 97.326 135.053 97.53C135.053 97.834 135.141 98.082 135.317 98.274C135.493 98.462 135.745 98.556 136.073 98.556C136.353 98.556 136.575 98.47 136.739 98.298C136.907 98.122 136.991 97.886 136.991 97.59C136.991 97.278 136.911 97.034 136.751 96.858C136.591 96.678 136.357 96.588 136.049 96.588ZM140.386 93.348L138.742 100.02H138.202L139.84 93.348H140.386ZM141.097 95.754C141.125 95.386 141.267 95.098 141.523 94.89C141.779 94.682 142.111 94.578 142.519 94.578C142.791 94.578 143.025 94.628 143.221 94.728C143.421 94.824 143.571 94.956 143.671 95.124C143.775 95.292 143.827 95.482 143.827 95.694C143.827 95.942 143.755 96.156 143.611 96.336C143.471 96.516 143.287 96.632 143.059 96.684V96.714C143.319 96.778 143.525 96.904 143.677 97.092C143.829 97.28 143.905 97.526 143.905 97.83C143.905 98.058 143.853 98.264 143.749 98.448C143.645 98.628 143.489 98.77 143.281 98.874C143.073 98.978 142.823 99.03 142.531 99.03C142.107 99.03 141.759 98.92 141.487 98.7C141.215 98.476 141.063 98.16 141.031 97.752H141.559C141.587 97.992 141.685 98.188 141.853 98.34C142.021 98.492 142.245 98.568 142.525 98.568C142.805 98.568 143.017 98.496 143.161 98.352C143.309 98.204 143.383 98.014 143.383 97.782C143.383 97.482 143.283 97.266 143.083 97.134C142.883 97.002 142.581 96.936 142.177 96.936H142.039V96.48H142.183C142.551 96.476 142.829 96.416 143.017 96.3C143.205 96.18 143.299 95.996 143.299 95.748C143.299 95.536 143.229 95.366 143.089 95.238C142.953 95.11 142.757 95.046 142.501 95.046C142.253 95.046 142.053 95.11 141.901 95.238C141.749 95.366 141.659 95.538 141.631 95.754H141.097ZM147.061 95.694C146.973 95.25 146.699 95.028 146.239 95.028C145.883 95.028 145.617 95.166 145.441 95.442C145.265 95.714 145.179 96.164 145.183 96.792C145.275 96.584 145.427 96.422 145.639 96.306C145.855 96.186 146.095 96.126 146.359 96.126C146.771 96.126 147.099 96.254 147.343 96.51C147.591 96.766 147.715 97.12 147.715 97.572C147.715 97.844 147.661 98.088 147.553 98.304C147.449 98.52 147.289 98.692 147.073 98.82C146.861 98.948 146.603 99.012 146.299 99.012C145.887 99.012 145.565 98.92 145.333 98.736C145.101 98.552 144.939 98.298 144.847 97.974C144.755 97.65 144.709 97.25 144.709 96.774C144.709 95.306 145.221 94.572 146.245 94.572C146.637 94.572 146.945 94.678 147.169 94.89C147.393 95.102 147.525 95.37 147.565 95.694H147.061ZM146.245 96.588C146.073 96.588 145.911 96.624 145.759 96.696C145.607 96.764 145.483 96.87 145.387 97.014C145.295 97.154 145.249 97.326 145.249 97.53C145.249 97.834 145.337 98.082 145.513 98.274C145.689 98.462 145.941 98.556 146.269 98.556C146.549 98.556 146.771 98.47 146.935 98.298C147.103 98.122 147.187 97.886 147.187 97.59C147.187 97.278 147.107 97.034 146.947 96.858C146.787 96.678 146.553 96.588 146.245 96.588ZM151.217 95.136H149.111V96.504C149.203 96.376 149.339 96.272 149.519 96.192C149.699 96.108 149.893 96.066 150.101 96.066C150.433 96.066 150.703 96.136 150.911 96.276C151.119 96.412 151.267 96.59 151.355 96.81C151.447 97.026 151.493 97.256 151.493 97.5C151.493 97.788 151.439 98.046 151.331 98.274C151.223 98.502 151.057 98.682 150.833 98.814C150.613 98.946 150.339 99.012 150.011 99.012C149.591 99.012 149.251 98.904 148.991 98.688C148.731 98.472 148.573 98.184 148.517 97.824H149.051C149.103 98.052 149.213 98.23 149.381 98.358C149.549 98.486 149.761 98.55 150.017 98.55C150.333 98.55 150.571 98.456 150.731 98.268C150.891 98.076 150.971 97.824 150.971 97.512C150.971 97.2 150.891 96.96 150.731 96.792C150.571 96.62 150.335 96.534 150.023 96.534C149.811 96.534 149.625 96.586 149.465 96.69C149.309 96.79 149.195 96.928 149.123 97.104H148.607V94.656H151.217V95.136Z" fill="#FC2611"></path>
<rect x="42" y="109" width="200" height="8" rx="4" fill="#CABFBE"></rect>
<rect x="42" y="109" width="28" height="8" rx="4" fill="url(#paint0_linear_65_3117)"></rect>
<path d="M148.292 54L143.139 55.9285L144.988 57.0905C141.685 61.2367 136.907 63.7907 132.87 64.7628L134.013 66.8394C138.55 65.3655 143.353 62.7071 146.446 58.0103L147.855 58.8953L148.292 54ZM148.561 58.0661L148.393 59.9754L146.6 58.8466C146.537 58.9406 146.47 59.0312 146.404 59.1253V70.2609H149.13V58.0661H148.561ZM143.297 62.5259C142.853 62.9092 142.395 63.2715 141.93 63.613V70.2609H144.656V62.5259H143.297ZM138.973 65.4526C138.469 65.7174 137.966 65.9613 137.456 66.1913V70.2609H140.182V65.4526H138.973ZM132.981 66.9857V70.2609H135.708V66.9857H135.509C134.991 67.1773 134.474 67.355 133.959 67.5188L133.712 67.5954L133.377 66.9857H132.981Z" fill="white"></path>
<defs>
<linearGradient id="paint0_linear_65_3117" x1="56" y1="117" x2="56" y2="109" gradientUnits="userSpaceOnUse">
<stop stop-color="#FC2611"></stop>
<stop offset="1" stop-color="#FC2611"></stop>
</linearGradient>
</defs>
</svg>