<svg width="71" height="25" viewBox="0 0 71 25" fill="none" xmlns="http://www.w3.org/2000/svg">
<g clip-path="url(#clip0_40_1736)">
<g filter="url(#filter0_d_40_1736)">
<mask id="path-2-inside-1_40_1736" fill="white">
<path d="M0 12.5C0 5.59644 5.59644 0 12.5 0H58.5C65.4036 0 71 5.59644 71 12.5C71 19.4036 65.4036 25 58.5 25H12.5C5.59644 25 0 19.4036 0 12.5Z"></path>
</mask>
<path d="M0 12.5C0 5.59644 5.59644 0 12.5 0H58.5C65.4036 0 71 5.59644 71 12.5C71 19.4036 65.4036 25 58.5 25H12.5C5.59644 25 0 19.4036 0 12.5Z" fill="#F14619" shape-rendering="crispEdges"></path>
<path d="M0 12.5M71 12.5M71 12.5M0 12.5M12.5 0V1H58.5V0V-1H12.5V0ZM71 12.5M58.5 25V24H12.5V25V26H58.5V25ZM0 12.5M12.5 25V24C6.14872 24 1 18.8513 1 12.5H0H-1C-1 19.9558 5.04416 26 12.5 26V25ZM71 12.5H70C70 18.8513 64.8513 24 58.5 24V25V26C65.9558 26 72 19.9558 72 12.5H71ZM58.5 0V1C64.8513 1 70 6.14873 70 12.5H71H72C72 5.04416 65.9558 -1 58.5 -1V0ZM12.5 0V-1C5.04416 -1 -1 5.04416 -1 12.5H0H1C1 6.14873 6.14873 1 12.5 1V0Z" fill="#F14619" mask="url(#path-2-inside-1_40_1736)"></path>
<path d="M10.885 17.5H9.975V7.75H10.885V17.5ZM17.5114 14.614C17.5114 14.042 17.3034 13.561 16.9004 13.145C16.4844 12.742 16.0034 12.534 15.4314 12.534C14.8594 12.534 14.3654 12.742 13.9624 13.145C13.5464 13.561 13.3514 14.042 13.3514 14.614C13.3514 15.186 13.5464 15.667 13.9624 16.07C14.3654 16.486 14.8594 16.681 15.4314 16.681C16.0034 16.681 16.4844 16.486 16.9004 16.07C17.3034 15.667 17.5114 15.186 17.5114 14.614ZM18.4214 14.614C18.4214 15.446 18.1224 16.148 17.5374 16.72C16.9524 17.305 16.2374 17.591 15.4314 17.591C14.6124 17.591 13.8974 17.305 13.3124 16.72C12.7274 16.148 12.4414 15.446 12.4414 14.614C12.4414 13.795 12.7274 13.093 13.3124 12.508C13.8974 11.923 14.5994 11.624 15.4314 11.624C16.2504 11.624 16.9524 11.923 17.5374 12.508C18.1224 13.093 18.4214 13.795 18.4214 14.614ZM24.6069 14.64C24.6069 14.094 24.4119 13.6 24.0219 13.184C23.6319 12.768 23.1509 12.56 22.5919 12.56C22.0329 12.56 21.5519 12.768 21.1489 13.184C20.7589 13.6 20.5639 14.081 20.5639 14.64C20.5639 15.212 20.7589 15.693 21.1489 16.096C21.5519 16.512 22.0329 16.72 22.5919 16.72C23.1509 16.72 23.6319 16.512 24.0219 16.096C24.4119 15.693 24.6069 15.199 24.6069 14.64ZM20.5509 18.28C20.6289 18.644 20.8109 18.956 21.0969 19.242C21.4999 19.645 21.9809 19.84 22.5529 19.84C23.1119 19.84 23.5929 19.645 23.9959 19.242C24.3989 18.839 24.6069 18.358 24.6069 17.786V16.551C24.5549 16.603 24.5029 16.668 24.4509 16.72C23.9049 17.331 23.2419 17.63 22.4619 17.63C21.6559 17.63 20.9929 17.331 20.4469 16.72C19.9269 16.135 19.6669 15.446 19.6669 14.64C19.6669 13.847 19.9269 13.158 20.4469 12.56C20.9929 11.962 21.6559 11.65 22.4619 11.65C23.2159 11.65 23.8789 11.962 24.4509 12.56C24.5029 12.625 24.5549 12.69 24.6069 12.742V11.78H25.5169V17.786C25.5169 18.605 25.2179 19.307 24.6459 19.879C24.0609 20.464 23.3589 20.75 22.5529 20.75C21.7339 20.75 21.0319 20.464 20.4599 19.879C19.9919 19.424 19.7189 18.891 19.6149 18.28H20.5509ZM30.258 12.625V11.78H31.688V9.557H32.598V11.78H34.015V12.625H32.598V17.5H31.688V12.625H30.258ZM39.9314 14.614C39.9314 14.042 39.7234 13.561 39.3204 13.145C38.9044 12.742 38.4234 12.534 37.8514 12.534C37.2794 12.534 36.7854 12.742 36.3824 13.145C35.9664 13.561 35.7714 14.042 35.7714 14.614C35.7714 15.186 35.9664 15.667 36.3824 16.07C36.7854 16.486 37.2794 16.681 37.8514 16.681C38.4234 16.681 38.9044 16.486 39.3204 16.07C39.7234 15.667 39.9314 15.186 39.9314 14.614ZM40.8414 14.614C40.8414 15.446 40.5424 16.148 39.9574 16.72C39.3724 17.305 38.6574 17.591 37.8514 17.591C37.0324 17.591 36.3174 17.305 35.7324 16.72C35.1474 16.148 34.8614 15.446 34.8614 14.614C34.8614 13.795 35.1474 13.093 35.7324 12.508C36.3174 11.923 37.0194 11.624 37.8514 11.624C38.6704 11.624 39.3724 11.923 39.9574 12.508C40.5424 13.093 40.8414 13.795 40.8414 14.614ZM46.9488 14.64C46.9488 14.094 46.7538 13.6 46.3638 13.184C45.9738 12.768 45.4928 12.56 44.9338 12.56C44.3618 12.56 43.8808 12.768 43.4908 13.184C43.1008 13.6 42.9188 14.094 42.9188 14.64C42.9188 15.199 43.1008 15.693 43.4908 16.096C43.8808 16.512 44.3618 16.72 44.9338 16.72C45.4928 16.72 45.9738 16.512 46.3638 16.096C46.7538 15.693 46.9488 15.199 46.9488 14.64ZM47.8588 17.5H46.9488V16.525C46.8968 16.603 46.8318 16.668 46.7798 16.72C46.2338 17.331 45.5708 17.63 44.7908 17.63C43.9978 17.63 43.3348 17.331 42.7888 16.72C42.2688 16.135 42.0088 15.446 42.0088 14.64C42.0088 13.847 42.2688 13.158 42.7888 12.56C43.3348 11.962 43.9978 11.65 44.7908 11.65C45.5708 11.65 46.2338 11.962 46.7798 12.56C46.8318 12.625 46.8968 12.69 46.9488 12.768V7.75H47.8588V17.5ZM54.3629 14.64C54.3629 14.094 54.1679 13.6 53.7779 13.184C53.3879 12.768 52.9069 12.56 52.3479 12.56C51.7759 12.56 51.2949 12.768 50.9049 13.184C50.5149 13.6 50.3329 14.094 50.3329 14.64C50.3329 15.199 50.5149 15.693 50.9049 16.096C51.2949 16.512 51.7759 16.72 52.3479 16.72C52.9069 16.72 53.3879 16.512 53.7779 16.096C54.1679 15.693 54.3629 15.199 54.3629 14.64ZM55.2729 17.5H54.3629V16.525C54.3109 16.603 54.2459 16.668 54.1939 16.72C53.6479 17.331 52.9849 17.63 52.2049 17.63C51.4119 17.63 50.7489 17.331 50.2029 16.72C49.6829 16.135 49.4229 15.446 49.4229 14.64C49.4229 13.847 49.6829 13.158 50.2029 12.56C50.7489 11.962 51.4119 11.65 52.2049 11.65C52.9849 11.65 53.6479 11.962 54.1939 12.56C54.2459 12.625 54.3109 12.69 54.3629 12.768V11.78H55.2729V17.5ZM57.955 20.75H56.85L58.774 16.564L56.382 11.78H57.422L59.255 15.615L60.893 11.78H61.907L57.955 20.75Z" fill="white"></path>
</g>
</g>
<defs>
<filter id="filter0_d_40_1736" x="0" y="-3.5" width="71" height="34" filterUnits="userSpaceOnUse" color-interpolation-filters="sRGB">
<feFlood flood-opacity="0" result="BackgroundImageFix"></feFlood>
<feColorMatrix in="SourceAlpha" type="matrix" values="0 0 0 0 0 0 0 0 0 0 0 0 0 0 0 0 0 0 127 0" result="hardAlpha"></feColorMatrix>
<feOffset dy="2"></feOffset>
<feComposite in2="hardAlpha" operator="out"></feComposite>
<feColorMatrix type="matrix" values="0 0 0 0 0.0196078 0 0 0 0 0.568627 0 0 0 0 1 0 0 0 0.1 0"></feColorMatrix>
<feBlend mode="normal" in2="BackgroundImageFix" result="effect1_dropShadow_40_1736"></feBlend>
<feBlend mode="normal" in="SourceGraphic" in2="effect1_dropShadow_40_1736" result="shape"></feBlend>
</filter>
<clipPath id="clip0_40_1736">
<path d="M0 2C0 0.89543 0.895431 0 2 0H69C70.1046 0 71 0.895431 71 2V23C71 24.1046 70.1046 25 69 25H2C0.895432 25 0 24.1046 0 23V2Z" fill="white"></path>
</clipPath>
</defs>
</svg>