<svg width="51" height="47" viewBox="0 0 51 47" fill="none" xmlns="http://www.w3.org/2000/svg">
<ellipse cx="25.1965" cy="23.5" rx="25.1965" ry="23.5" fill="white"></ellipse>
<ellipse cx="24.6471" cy="24.7025" rx="15.6471" ry="15.7025" fill="#FF5938"></ellipse>
<path d="M40 15L42 13" stroke="black" stroke-linecap="round"></path>
<path d="M41 17H44" stroke="black" stroke-linecap="round"></path>
<ellipse cx="18.0592" cy="23.4634" rx="1.64706" ry="1.65289" fill="black"></ellipse>
<ellipse cx="31.2349" cy="23.4634" rx="1.64706" ry="1.65289" fill="black"></ellipse>
<path d="M21.7646 30.9008C21.7646 30.9008 23.5683 29.6611 24.647 29.6611C25.7257 29.6611 27.1176 30.9008 27.1176 30.9008" stroke="black" stroke-linecap="round"></path>
<ellipse cx="25.1965" cy="23.5" rx="25.1965" ry="23.5" fill="#FF5938"></ellipse>
<ellipse cx="24.6471" cy="24.7025" rx="15.6471" ry="15.7025" fill="#FF5938"></ellipse>
<path d="M40 15L42 13" stroke="black" stroke-linecap="round"></path>
<path d="M41 17H44" stroke="black" stroke-linecap="round"></path>
<ellipse cx="18.0592" cy="23.4634" rx="1.64706" ry="1.65289" fill="black"></ellipse>
<ellipse cx="31.2349" cy="23.4634" rx="1.64706" ry="1.65289" fill="black"></ellipse>
<path d="M21.7646 30.9008C21.7646 30.9008 23.5683 29.6611 24.647 29.6611C25.7257 29.6611 27.1176 30.9008 27.1176 30.9008" stroke="black" stroke-linecap="round"></path>
</svg>