<svg width="51" height="47" viewBox="0 0 51 47" fill="none" xmlns="http://www.w3.org/2000/svg">
<ellipse cx="25.1965" cy="23.5" rx="25.1965" ry="23.5" fill="white"></ellipse>
<ellipse cx="25.6471" cy="23.755" rx="15.6471" ry="15.7353" fill="#FF5938"></ellipse>
<path d="M32.7059 26.0547C32.7059 27.0431 32.1419 27.991 31.138 28.6899C30.1342 29.3888 28.7726 29.7815 27.3529 29.7815C25.9333 29.7815 24.5717 29.3888 23.5678 28.6899C22.564 27.991 22 27.0431 22 26.0547C22 26.0547 25.2379 26.2637 27.3529 26.2637C29.468 26.2637 32.7059 26.0547 32.7059 26.0547Z" fill="black"></path>
<ellipse cx="32.8228" cy="20.6972" rx="1.64706" ry="1.65635" fill="black"></ellipse>
<ellipse cx="19.6471" cy="20.6972" rx="1.64706" ry="1.65635" fill="black"></ellipse>
<ellipse cx="25.1965" cy="23.5" rx="25.1965" ry="23.5" fill="#FF5938"></ellipse>
<ellipse cx="25.6471" cy="23.755" rx="15.6471" ry="15.7353" fill="#FF5938"></ellipse>
<path d="M32.7059 26.0547C32.7059 27.0431 32.1419 27.991 31.138 28.6899C30.1342 29.3888 28.7726 29.7815 27.3529 29.7815C25.9333 29.7815 24.5717 29.3888 23.5678 28.6899C22.564 27.991 22 27.0431 22 26.0547C22 26.0547 25.2379 26.2637 27.3529 26.2637C29.468 26.2637 32.7059 26.0547 32.7059 26.0547Z" fill="black"></path>
<ellipse cx="32.8228" cy="20.6972" rx="1.64706" ry="1.65635" fill="black"></ellipse>
<ellipse cx="19.6471" cy="20.6972" rx="1.64706" ry="1.65635" fill="black"></ellipse>
</svg>