<svg width="51" height="47" viewBox="0 0 51 47" fill="none" xmlns="http://www.w3.org/2000/svg">
<ellipse cx="25.1965" cy="23.451" rx="25.1965" ry="23.451" fill="white"></ellipse>
<ellipse cx="25.8826" cy="23.1156" rx="16.8824" ry="16.1157" fill="#FF8900"></ellipse>
<path d="M31.2354 16.9173C31.2354 16.9173 32.1486 16.906 32.6471 17.3305C33.12 17.7332 33.7059 18.5701 33.7059 18.5701" stroke="black" stroke-linecap="round"></path>
<path d="M28.3534 28.9007C28.2196 27.8265 26.9615 27.661 25.8828 27.661C24.8041 27.661 23.546 27.8265 23.4122 28.9007C23.2684 30.0554 24.7232 30.5536 25.8828 30.5536C27.0424 30.5536 28.4972 30.0554 28.3534 28.9007Z" stroke="black"></path>
<ellipse cx="19.7061" cy="21.8759" rx="1.64706" ry="1.65289" fill="black"></ellipse>
<ellipse cx="32.0589" cy="21.8759" rx="1.64706" ry="1.65289" fill="black"></ellipse>
<path d="M20.5297 16.9173C20.5297 16.9173 19.4642 16.906 18.8826 17.3305C18.3309 17.7332 18.0591 18.1569 18.0591 18.1569" stroke="black" stroke-linecap="round"></path>
<ellipse cx="25.1965" cy="23.549" rx="25.1965" ry="23.451" fill="#FF8900"></ellipse>
<ellipse cx="25.8826" cy="23.2136" rx="16.8824" ry="16.1157" fill="#FF8900"></ellipse>
<path d="M31.2354 17.0153C31.2354 17.0153 32.1486 17.004 32.6471 17.4285C33.12 17.8312 33.7059 18.6682 33.7059 18.6682" stroke="black" stroke-linecap="round"></path>
<path d="M28.3534 28.9987C28.2196 27.9245 26.9615 27.759 25.8828 27.759C24.8041 27.759 23.546 27.9245 23.4122 28.9987C23.2684 30.1534 24.7232 30.6516 25.8828 30.6516C27.0424 30.6516 28.4972 30.1534 28.3534 28.9987Z" stroke="black"></path>
<ellipse cx="19.7061" cy="21.9739" rx="1.64706" ry="1.65289" fill="black"></ellipse>
<ellipse cx="32.0589" cy="21.9739" rx="1.64706" ry="1.65289" fill="black"></ellipse>
<path d="M20.5297 17.0153C20.5297 17.0153 19.4642 17.0041 18.8826 17.4285C18.3309 17.8312 18.0591 18.2549 18.0591 18.2549" stroke="black" stroke-linecap="round"></path>
</svg>