<svg width="51" height="47" viewBox="0 0 51 47" fill="none" xmlns="http://www.w3.org/2000/svg">
<ellipse cx="25.3931" cy="23.451" rx="25.1965" ry="23.451" fill="white"></ellipse>
<circle cx="24.6965" cy="22.5" r="17.5" fill="#FF8900"></circle>
<path d="M19.1965 17C19.1965 17 19.8394 17 20.6965 17C21.5537 17 22.1965 17 22.1965 17" stroke="black" stroke-linecap="round"></path>
<path d="M27.1965 17C27.1965 17 27.8394 17 28.6965 17C29.5537 17 30.1965 17 30.1965 17" stroke="black" stroke-linecap="round"></path>
<path d="M15.1965 20C15.1965 20 19.0537 22 24.1965 22C29.3394 22 33.1965 20 33.1965 20" stroke="black" stroke-linecap="round"></path>
<ellipse cx="25.1965" cy="23.451" rx="25.1965" ry="23.451" fill="#FF8900"></ellipse>
<circle cx="24.5" cy="22.5" r="17.5" fill="#FF8900"></circle>
<path d="M19 17C19 17 19.6429 17 20.5 17C21.3571 17 22 17 22 17" stroke="black" stroke-linecap="round"></path>
<path d="M27 17C27 17 27.6429 17 28.5 17C29.3571 17 30 17 30 17" stroke="black" stroke-linecap="round"></path>
<path d="M15 20C15 20 18.8571 22 24 22C29.1429 22 33 20 33 20" stroke="black" stroke-linecap="round"></path>
</svg>