<svg width="51" height="47" viewBox="0 0 51 47" fill="none" xmlns="http://www.w3.org/2000/svg">
<ellipse cx="25.1965" cy="23.5" rx="25.1965" ry="23.5" fill="white"></ellipse>
<ellipse cx="25.6021" cy="23.578" rx="16.8824" ry="16.5635" fill="#CF639C"></ellipse>
<path d="M30.9551 19.437C30.9551 19.437 31.9981 20.4045 32.6021 20.6793C33.2062 20.9541 34.2492 21.0934 34.2492 21.0934" stroke="black" stroke-linecap="round"></path>
<path d="M21.0734 19.437C21.0734 19.437 20.4305 20.3389 19.8381 20.6793C19.2458 21.0197 17.7793 21.0934 17.7793 21.0934" stroke="black" stroke-linecap="round"></path>
<ellipse cx="32.1904" cy="24.8211" rx="1.23529" ry="1.24226" fill="black"></ellipse>
<ellipse cx="19.8378" cy="24.8211" rx="1.23529" ry="1.24226" fill="black"></ellipse>
<path d="M22.7197 30.6176C22.7197 30.6176 24.4997 28.8675 26.0138 28.9615C27.3945 29.0472 28.8962 30.6176 28.8962 30.6176" stroke="black" stroke-linecap="round"></path>
<ellipse cx="25.1965" cy="23.5" rx="25.1965" ry="23.5" fill="#CF639C"></ellipse>
<ellipse cx="25.6021" cy="23.578" rx="16.8824" ry="16.5635" fill="#CF639C"></ellipse>
<path d="M30.9551 19.437C30.9551 19.437 31.9981 20.4045 32.6021 20.6793C33.2062 20.9541 34.2492 21.0934 34.2492 21.0934" stroke="black" stroke-linecap="round"></path>
<path d="M21.0734 19.437C21.0734 19.437 20.4305 20.3389 19.8381 20.6793C19.2458 21.0197 17.7793 21.0934 17.7793 21.0934" stroke="black" stroke-linecap="round"></path>
<ellipse cx="32.1904" cy="24.8211" rx="1.23529" ry="1.24226" fill="black"></ellipse>
<ellipse cx="19.8378" cy="24.8211" rx="1.23529" ry="1.24226" fill="black"></ellipse>
<path d="M22.7197 30.6176C22.7197 30.6176 24.4997 28.8675 26.0138 28.9615C27.3945 29.0472 28.8962 30.6176 28.8962 30.6176" stroke="black" stroke-linecap="round"></path>
</svg>