<svg width="51" height="47" viewBox="0 0 51 47" fill="none" xmlns="http://www.w3.org/2000/svg">
<ellipse cx="25.1965" cy="23.451" rx="25.1965" ry="23.451" fill="white"></ellipse>
<ellipse cx="25" cy="22.5" rx="16" ry="15.5" fill="#FF8900"></ellipse>
<path d="M27 18C27 18 27.6429 19 28.5 19C29.3571 19 30 18 30 18" stroke="black" stroke-linecap="round"></path>
<path d="M20 18C20 18 20.6429 19 21.5 19C22.3571 19 23 18 23 18" stroke="black" stroke-linecap="round"></path>
<path d="M17 21C17 21 20.4286 24 25 24C29.5714 24 33 21 33 21" stroke="black" stroke-linecap="round"></path>
<ellipse cx="25.1965" cy="23.549" rx="25.1965" ry="23.451" fill="#FF8900"></ellipse>
<ellipse cx="25" cy="22.598" rx="16" ry="15.5" fill="#FF8900"></ellipse>
<path d="M27 18.098C27 18.098 27.6429 19.098 28.5 19.098C29.3571 19.098 30 18.098 30 18.098" stroke="black" stroke-linecap="round"></path>
<path d="M20 18.098C20 18.098 20.6429 19.098 21.5 19.098C22.3571 19.098 23 18.098 23 18.098" stroke="black" stroke-linecap="round"></path>
<path d="M17 21.098C17 21.098 20.4286 24.098 25 24.098C29.5714 24.098 33 21.098 33 21.098" stroke="black" stroke-linecap="round"></path>
</svg>