<svg width="51" height="47" viewBox="0 0 51 47" fill="none" xmlns="http://www.w3.org/2000/svg">
<ellipse cx="25.1965" cy="23.451" rx="25.1965" ry="23.451" fill="white"></ellipse>
<ellipse cx="25" cy="23.3657" rx="14" ry="13.3657" fill="#FF5938"></ellipse>
<path d="M30.5799 23.8766C29.6016 26.159 27.6451 28.4418 27.6451 28.4418H23.406C23.406 28.4418 20.4768 25.3484 20.1452 22.8981C19.8212 20.5038 19.9107 18.8912 21.7755 17.3548C23.1124 16.2535 24.2946 15.8471 26.0147 16.0505C27.5993 16.2379 28.5633 16.7954 29.6016 18.007C31.1138 19.7716 31.4954 21.7407 30.5799 23.8766Z" fill="white"></path>
<path d="M26.015 28.768L26.3414 26.1594C26.3414 26.1594 27.2366 25.0985 26.6672 24.5288C26.3414 24.2029 25.3627 24.8546 25.3627 24.8546C25.3627 24.8546 24.5439 24.0441 24.0588 24.5289C23.4067 25.1808 24.711 26.1594 24.711 26.1594L25.0368 28.768" stroke="black" stroke-linecap="round"></path>
<path d="M23.7151 28.576C24.2588 28.7343 24.955 28.8984 25.5491 28.8915C26.0676 28.8854 26.6663 28.7468 27.1604 28.6044L26.2131 30.4999H24.5647L23.7151 28.576Z" fill="#030303" stroke="black"></path>
</svg>