<svg width="51" height="47" viewBox="0 0 51 47" fill="none" xmlns="http://www.w3.org/2000/svg">
<ellipse cx="25.1965" cy="23.451" rx="25.1965" ry="23.451" fill="white"></ellipse>
<ellipse cx="24.6471" cy="22.7025" rx="15.6471" ry="15.7025" fill="#CF639C"></ellipse>
<path d="M27.9414 21.0498C27.9414 21.0498 29.2568 22.8035 30.412 22.7027C31.4378 22.6132 32.4708 21.0498 32.4708 21.0498" stroke="black" stroke-linecap="round"></path>
<path d="M15.5889 21.0498C15.5889 21.0498 16.8999 22.7027 18.0595 22.7027C19.219 22.7027 20.53 21.0498 20.53 21.0498" stroke="black" stroke-linecap="round"></path>
<path d="M20.5293 28.074C20.5293 28.074 22.6531 26.349 24.2352 26.4211C25.672 26.4867 27.5293 28.074 27.5293 28.074" stroke="black" stroke-linecap="round"></path>
<path d="M35.4083 27.248C35.4083 25.9413 33.7613 24.3555 33.7613 24.3555C33.7613 24.3555 32.0596 25.9412 32.0596 27.248C32.0596 27.6613 32.1664 28.1269 32.526 28.4877C32.8855 28.8485 33.2528 28.9009 33.7613 28.9009C34.2698 28.9009 34.637 28.8485 34.9966 28.4877C35.3561 28.1269 35.4083 27.7299 35.4083 27.248Z" fill="#4BC3FA" stroke="#4BC3FA" stroke-width="0.2" stroke-linecap="round"></path>
</svg>