<svg width="51" height="47" viewBox="0 0 51 47" fill="none" xmlns="http://www.w3.org/2000/svg">
<ellipse cx="25.1965" cy="23.451" rx="25.1965" ry="23.451" fill="white"></ellipse>
<ellipse cx="24.6471" cy="22.7027" rx="15.6471" ry="15.7025" fill="#FF5938"></ellipse>
<ellipse cx="17.8822" cy="21.785" rx="1.64706" ry="1.65289" fill="black"></ellipse>
<ellipse cx="30.2349" cy="21.785" rx="1.64706" ry="1.65289" fill="black"></ellipse>
<path d="M28.9998 15.9999L33.1174 18.066" stroke="black" stroke-linecap="round"></path>
<path d="M18.7056 15.9999L14.9998 18.066" stroke="black" stroke-linecap="round"></path>
<path d="M21.5879 27.1569C21.5879 27.1569 23.0432 28.0432 24.0585 27.9833C24.9229 27.9323 26.1173 27.1569 26.1173 27.1569" stroke="black" stroke-linecap="round"></path>
<ellipse cx="25.1965" cy="23.549" rx="25.1965" ry="23.451" fill="#FF5938"></ellipse>
<ellipse cx="24.6471" cy="22.8007" rx="15.6471" ry="15.7025" fill="#FF5938"></ellipse>
<ellipse cx="17.8822" cy="21.883" rx="1.64706" ry="1.65289" fill="black"></ellipse>
<ellipse cx="30.2349" cy="21.883" rx="1.64706" ry="1.65289" fill="black"></ellipse>
<path d="M28.9998 16.0979L33.1174 18.164" stroke="black" stroke-linecap="round"></path>
<path d="M18.7056 16.0979L14.9998 18.164" stroke="black" stroke-linecap="round"></path>
<path d="M21.5879 27.2549C21.5879 27.2549 23.0432 28.1413 24.0585 28.0813C24.9229 28.0303 26.1173 27.2549 26.1173 27.2549" stroke="black" stroke-linecap="round"></path>
</svg>