<svg width="51" height="47" viewBox="0 0 51 47" fill="none" xmlns="http://www.w3.org/2000/svg">
<ellipse cx="25.1965" cy="23.451" rx="25.1965" ry="23.451" fill="white"></ellipse>
<ellipse cx="25.6466" cy="25.8343" rx="15.6471" ry="15.7025" fill="#FF5938"></ellipse>
<path d="M18.2349 22.9418C18.2349 22.9418 19.6902 23.8282 20.7055 23.7682C21.5699 23.7172 22.7643 22.9418 22.7643 22.9418" stroke="black" stroke-linecap="round"></path>
<path d="M29.7644 22.5286C29.7644 22.5286 31.4221 23.7682 32.6468 23.7682C33.8714 23.7682 35.5291 22.5286 35.5291 22.5286" stroke="black" stroke-linecap="round"></path>
<path d="M23.9995 28.7269C23.9995 28.7269 25.1257 27.8035 26.0583 27.9003C26.8581 27.9833 27.7054 28.7266 27.7054 28.7266" stroke="black" stroke-linecap="round"></path>
<ellipse cx="15.7644" cy="13.0243" rx="4.11765" ry="3.71901" fill="#4BC3FA"></ellipse>
<ellipse cx="33.0593" cy="12.1972" rx="4.11765" ry="3.71901" fill="#4BC3FA"></ellipse>
<ellipse cx="37.5887" cy="14.2641" rx="2.88235" ry="2.47934" fill="#4BC3FA"></ellipse>
<ellipse cx="24.0003" cy="10.5451" rx="5.76471" ry="4.54545" fill="#4BC3FA"></ellipse>
<ellipse cx="30.5882" cy="14.6769" rx="5.76471" ry="4.54545" fill="#4BC3FA"></ellipse>
<ellipse cx="24.0002" cy="14.6769" rx="8.23529" ry="4.54545" fill="#4BC3FA"></ellipse>
<ellipse cx="25.1965" cy="23.451" rx="25.1965" ry="23.451" fill="white"></ellipse>
<ellipse cx="25.6466" cy="25.8343" rx="15.6471" ry="15.7025" fill="#FF5938"></ellipse>
<path d="M18.2349 22.9418C18.2349 22.9418 19.6902 23.8282 20.7055 23.7682C21.5699 23.7172 22.7643 22.9418 22.7643 22.9418" stroke="black" stroke-linecap="round"></path>
<path d="M29.7644 22.5286C29.7644 22.5286 31.4221 23.7682 32.6468 23.7682C33.8714 23.7682 35.5291 22.5286 35.5291 22.5286" stroke="black" stroke-linecap="round"></path>
<path d="M23.9995 28.7269C23.9995 28.7269 25.1257 27.8035 26.0583 27.9003C26.8581 27.9833 27.7054 28.7266 27.7054 28.7266" stroke="black" stroke-linecap="round"></path>
<ellipse cx="15.7644" cy="13.0243" rx="4.11765" ry="3.71901" fill="#4BC3FA"></ellipse>
<ellipse cx="33.0593" cy="12.1972" rx="4.11765" ry="3.71901" fill="#4BC3FA"></ellipse>
<ellipse cx="37.5887" cy="14.2641" rx="2.88235" ry="2.47934" fill="#4BC3FA"></ellipse>
<ellipse cx="24.0003" cy="10.5451" rx="5.76471" ry="4.54545" fill="#4BC3FA"></ellipse>
<ellipse cx="30.5882" cy="14.6769" rx="5.76471" ry="4.54545" fill="#4BC3FA"></ellipse>
<ellipse cx="24.0002" cy="14.6769" rx="8.23529" ry="4.54545" fill="#4BC3FA"></ellipse>
<ellipse cx="25.1965" cy="23.549" rx="25.1965" ry="23.451" fill="#FF5938"></ellipse>
<ellipse cx="25.6466" cy="25.9323" rx="15.6471" ry="15.7025" fill="#FF5938"></ellipse>
<path d="M18.2349 23.0398C18.2349 23.0398 19.6902 23.9262 20.7055 23.8662C21.5699 23.8152 22.7643 23.0398 22.7643 23.0398" stroke="black" stroke-linecap="round"></path>
<path d="M29.7644 22.6266C29.7644 22.6266 31.4221 23.8663 32.6468 23.8663C33.8714 23.8663 35.5291 22.6266 35.5291 22.6266" stroke="black" stroke-linecap="round"></path>
<path d="M23.9995 28.8249C23.9995 28.8249 25.1257 27.9015 26.0583 27.9983C26.8581 28.0814 27.7054 28.8246 27.7054 28.8246" stroke="black" stroke-linecap="round"></path>
<ellipse cx="15.7644" cy="13.1223" rx="4.11765" ry="3.71901" fill="#4BC3FA"></ellipse>
<ellipse cx="33.0593" cy="12.2952" rx="4.11765" ry="3.71901" fill="#4BC3FA"></ellipse>
<ellipse cx="37.5887" cy="14.3622" rx="2.88235" ry="2.47934" fill="#4BC3FA"></ellipse>
<ellipse cx="24.0003" cy="10.6431" rx="5.76471" ry="4.54545" fill="#4BC3FA"></ellipse>
<ellipse cx="30.5882" cy="14.7749" rx="5.76471" ry="4.54545" fill="#4BC3FA"></ellipse>
<ellipse cx="24.0002" cy="14.7749" rx="8.23529" ry="4.54545" fill="#4BC3FA"></ellipse>
</svg>