<svg width="51" height="47" viewBox="0 0 51 47" fill="none" xmlns="http://www.w3.org/2000/svg">
<ellipse cx="25.1965" cy="23.5" rx="25.1965" ry="23.5" fill="white"></ellipse>
<ellipse cx="25.6473" cy="23.7025" rx="15.6471" ry="15.7025" fill="#CF639C"></ellipse>
<path d="M16.5884 19.5702L20.2943 20.8099" stroke="black" stroke-linecap="round"></path>
<path d="M24.9802 31.0782C24.7077 31.0355 24.4519 31.2223 24.4088 31.4954C24.3658 31.7684 24.5518 32.0244 24.8243 32.067L24.9023 31.5726L24.9802 31.0782ZM28.1603 30.5217C28.2752 30.2702 28.1651 29.9734 27.9142 29.8587C27.6634 29.744 27.3669 29.8549 27.2519 30.1064L27.7061 30.314L28.1603 30.5217ZM26.4705 31.554L26.3313 31.0737L26.4705 31.554ZM24.9023 31.5726C24.8243 32.067 24.8244 32.067 24.8245 32.067C24.8245 32.067 24.8246 32.067 24.8246 32.067C24.8247 32.0671 24.8249 32.0671 24.825 32.0671C24.8253 32.0671 24.8257 32.0672 24.8261 32.0673C24.8269 32.0674 24.8279 32.0675 24.8292 32.0677C24.8318 32.0681 24.8353 32.0687 24.8397 32.0693C24.8485 32.0706 24.8609 32.0724 24.8765 32.0746C24.9077 32.0789 24.9519 32.0846 25.0065 32.091C25.1152 32.1035 25.2667 32.1184 25.4387 32.1275C25.7661 32.1448 26.2298 32.1454 26.6097 32.0344L26.4705 31.554L26.3313 31.0737C26.1232 31.1345 25.8029 31.1444 25.4931 31.1281C25.3465 31.1203 25.2162 31.1076 25.1228 31.0968C25.0763 31.0914 25.0393 31.0865 25.0146 31.0831C25.0023 31.0814 24.993 31.0801 24.9871 31.0792C24.9842 31.0788 24.9822 31.0785 24.981 31.0783C24.9804 31.0782 24.9801 31.0781 24.9799 31.0781C24.9799 31.0781 24.9799 31.0781 24.9799 31.0781C24.9799 31.0781 24.98 31.0781 24.98 31.0781C24.9801 31.0781 24.9801 31.0781 24.9801 31.0781C24.9802 31.0782 24.9802 31.0782 24.9023 31.5726ZM26.4705 31.554L26.6097 32.0344C27.1518 31.8759 27.5425 31.4607 27.7763 31.1505C27.8991 30.9876 27.9931 30.8342 28.0567 30.7213C28.0886 30.6645 28.1134 30.6171 28.1307 30.5827C28.1394 30.5655 28.1462 30.5516 28.1511 30.5412C28.1536 30.5361 28.1556 30.5318 28.1571 30.5286C28.1579 30.5269 28.1585 30.5255 28.1591 30.5244C28.1593 30.5238 28.1596 30.5233 28.1598 30.5228C28.1599 30.5226 28.16 30.5224 28.1601 30.5222C28.1601 30.5221 28.1602 30.522 28.1602 30.5219C28.1603 30.5218 28.1603 30.5217 27.7061 30.314C27.2519 30.1064 27.252 30.1062 27.2521 30.1061C27.2521 30.1061 27.2521 30.106 27.2521 30.1059C27.2522 30.1058 27.2523 30.1057 27.2523 30.1056C27.2524 30.1054 27.2525 30.1052 27.2525 30.1051C27.2526 30.1049 27.2526 30.105 27.2524 30.1053C27.2522 30.1059 27.2515 30.1073 27.2504 30.1097C27.2481 30.1143 27.2442 30.1224 27.2387 30.1333C27.2276 30.1554 27.2101 30.189 27.1866 30.2308C27.1391 30.3151 27.069 30.4293 26.9793 30.5483C26.7883 30.8017 26.5612 31.0065 26.3313 31.0737L26.4705 31.554Z" fill="black"></path>
<path d="M30.1768 20.8099L34.2944 19.5702" stroke="black" stroke-linecap="round"></path>
<ellipse cx="19.0592" cy="24.5289" rx="1.64706" ry="1.65289" fill="black"></ellipse>
<ellipse cx="32.2354" cy="24.5289" rx="1.64706" ry="1.65289" fill="black"></ellipse>
<ellipse cx="25.1965" cy="23.5" rx="25.1965" ry="23.5" fill="#CF639C"></ellipse>
<ellipse cx="25.6473" cy="23.7025" rx="15.6471" ry="15.7025" fill="#CF639C"></ellipse>
<path d="M16.5884 19.5702L20.2943 20.8099" stroke="black" stroke-linecap="round"></path>
<path d="M24.9802 31.0782C24.7077 31.0355 24.4519 31.2223 24.4088 31.4954C24.3658 31.7684 24.5518 32.0244 24.8243 32.067L24.9023 31.5726L24.9802 31.0782ZM28.1603 30.5217C28.2752 30.2702 28.1651 29.9734 27.9142 29.8587C27.6634 29.744 27.3669 29.8549 27.2519 30.1064L27.7061 30.314L28.1603 30.5217ZM26.4705 31.554L26.3313 31.0737L26.4705 31.554ZM24.9023 31.5726C24.8243 32.067 24.8244 32.067 24.8245 32.067C24.8245 32.067 24.8246 32.067 24.8246 32.067C24.8247 32.0671 24.8249 32.0671 24.825 32.0671C24.8253 32.0671 24.8257 32.0672 24.8261 32.0673C24.8269 32.0674 24.8279 32.0675 24.8292 32.0677C24.8318 32.0681 24.8353 32.0687 24.8397 32.0693C24.8485 32.0706 24.8609 32.0724 24.8765 32.0746C24.9077 32.0789 24.9519 32.0846 25.0065 32.091C25.1152 32.1035 25.2667 32.1184 25.4387 32.1275C25.7661 32.1448 26.2298 32.1454 26.6097 32.0344L26.4705 31.554L26.3313 31.0737C26.1232 31.1345 25.8029 31.1444 25.4931 31.1281C25.3465 31.1203 25.2162 31.1076 25.1228 31.0968C25.0763 31.0914 25.0393 31.0865 25.0146 31.0831C25.0023 31.0814 24.993 31.0801 24.9871 31.0792C24.9842 31.0788 24.9822 31.0785 24.981 31.0783C24.9804 31.0782 24.9801 31.0781 24.9799 31.0781C24.9799 31.0781 24.9799 31.0781 24.9799 31.0781C24.9799 31.0781 24.98 31.0781 24.98 31.0781C24.9801 31.0781 24.9801 31.0781 24.9801 31.0781C24.9802 31.0782 24.9802 31.0782 24.9023 31.5726ZM26.4705 31.554L26.6097 32.0344C27.1518 31.8759 27.5425 31.4607 27.7763 31.1505C27.8991 30.9876 27.9931 30.8342 28.0567 30.7213C28.0886 30.6645 28.1134 30.6171 28.1307 30.5827C28.1394 30.5655 28.1462 30.5516 28.1511 30.5412C28.1536 30.5361 28.1556 30.5318 28.1571 30.5286C28.1579 30.5269 28.1585 30.5255 28.1591 30.5244C28.1593 30.5238 28.1596 30.5233 28.1598 30.5228C28.1599 30.5226 28.16 30.5224 28.1601 30.5222C28.1601 30.5221 28.1602 30.522 28.1602 30.5219C28.1603 30.5218 28.1603 30.5217 27.7061 30.314C27.2519 30.1064 27.252 30.1062 27.2521 30.1061C27.2521 30.1061 27.2521 30.106 27.2521 30.1059C27.2522 30.1058 27.2523 30.1057 27.2523 30.1056C27.2524 30.1054 27.2525 30.1052 27.2525 30.1051C27.2526 30.1049 27.2526 30.105 27.2524 30.1053C27.2522 30.1059 27.2515 30.1073 27.2504 30.1097C27.2481 30.1143 27.2442 30.1224 27.2387 30.1333C27.2276 30.1554 27.2101 30.189 27.1866 30.2308C27.1391 30.3151 27.069 30.4293 26.9793 30.5483C26.7883 30.8017 26.5612 31.0065 26.3313 31.0737L26.4705 31.554Z" fill="black"></path>
<path d="M30.1768 20.8099L34.2944 19.5702" stroke="black" stroke-linecap="round"></path>
<ellipse cx="19.0592" cy="24.5289" rx="1.64706" ry="1.65289" fill="black"></ellipse>
<ellipse cx="32.2354" cy="24.5289" rx="1.64706" ry="1.65289" fill="black"></ellipse>
</svg>