<svg width="103" height="44" viewBox="0 0 103 44" fill="none" xmlns="http://www.w3.org/2000/svg">
<rect width="103" height="44" rx="22" fill="url(#paint0_linear_156_4651)"></rect>
<path d="M32.1299 27H30.7649L25.2749 18.675V27H23.9099V16.53H25.2749L30.7649 24.84V16.53H32.1299V27ZM41.9568 22.575C41.9568 22.835 41.9418 23.11 41.9118 23.4H35.3418C35.3918 24.21 35.6668 24.845 36.1668 25.305C36.6768 25.755 37.2918 25.98 38.0118 25.98C38.6018 25.98 39.0918 25.845 39.4818 25.575C39.8818 25.295 40.1618 24.925 40.3218 24.465H41.7918C41.5718 25.255 41.1318 25.9 40.4718 26.4C39.8118 26.89 38.9918 27.135 38.0118 27.135C37.2318 27.135 36.5318 26.96 35.9118 26.61C35.3018 26.26 34.8218 25.765 34.4718 25.125C34.1218 24.475 33.9468 23.725 33.9468 22.875C33.9468 22.025 34.1168 21.28 34.4568 20.64C34.7968 20 35.2718 19.51 35.8818 19.17C36.5018 18.82 37.2118 18.645 38.0118 18.645C38.7918 18.645 39.4818 18.815 40.0818 19.155C40.6818 19.495 41.1418 19.965 41.4618 20.565C41.7918 21.155 41.9568 21.825 41.9568 22.575ZM40.5468 22.29C40.5468 21.77 40.4318 21.325 40.2018 20.955C39.9718 20.575 39.6568 20.29 39.2568 20.1C38.8668 19.9 38.4318 19.8 37.9518 19.8C37.2618 19.8 36.6718 20.02 36.1818 20.46C35.7018 20.9 35.4268 21.51 35.3568 22.29H40.5468ZM48.0485 27L46.0985 23.94L44.2235 27H42.7985L45.4535 22.92L42.7985 18.78H44.3435L46.2935 21.825L48.1535 18.78H49.5785L46.9385 22.845L49.5935 27H48.0485ZM52.6013 19.905V24.75C52.6013 25.15 52.6863 25.435 52.8563 25.605C53.0263 25.765 53.3213 25.845 53.7412 25.845H54.7463V27H53.5163C52.7563 27 52.1863 26.825 51.8063 26.475C51.4263 26.125 51.2363 25.55 51.2363 24.75V19.905H50.1713V18.78H51.2363V16.71H52.6013V18.78H54.7463V19.905H52.6013Z" fill="white"></path>
<path d="M77.2262 21.1485L72.5068 16.9476C72.3142 16.7762 72.2218 16.5761 72.2295 16.3475C72.2372 16.1189 72.3377 15.9188 72.5309 15.7474C72.7236 15.5902 72.9483 15.5079 73.2051 15.5005C73.462 15.493 73.6867 15.5753 73.8793 15.7474L80.236 21.4057C80.3324 21.4914 80.4007 21.5843 80.4412 21.6843C80.4816 21.7843 80.5012 21.8915 80.4999 22.0058C80.4987 22.1201 80.4784 22.2273 80.4393 22.3273C80.4001 22.4273 80.332 22.5202 80.2351 22.6059L73.8784 28.2642C73.7018 28.4214 73.4809 28.5 73.2157 28.5C72.9505 28.5 72.7219 28.4214 72.53 28.2642C72.3373 28.0928 72.241 27.889 72.241 27.653C72.241 27.4169 72.3373 27.2134 72.53 27.0426L77.2262 22.8631L66.4631 22.8631C66.1903 22.8631 65.9613 22.7808 65.7764 22.6162C65.5915 22.4516 65.4994 22.2481 65.5 22.0058C65.5006 21.7635 65.5931 21.5597 65.7774 21.3945C65.9617 21.2294 66.1903 21.1473 66.4631 21.1485L77.2262 21.1485Z" fill="white"></path>
<defs>
<linearGradient id="paint0_linear_156_4651" x1="0" y1="22" x2="103" y2="22" gradientUnits="userSpaceOnUse">
<stop stop-color="#FF7600"></stop>
<stop offset="0.956731" stop-color="#FD400C"></stop>
</linearGradient>
</defs>
</svg>