<svg width="132" height="129" viewBox="0 0 132 129" fill="none" xmlns="http://www.w3.org/2000/svg">
<path d="M36.9947 40.7927L41.7684 42.4605L39.7766 38.0614L44.3344 40.1899L42.8451 35.6158L47.137 38.1816L46.1666 33.4826L50.1456 36.4576L49.7046 31.6851L53.3271 35.0368L53.4204 30.2431L56.6468 33.9347L57.2733 29.1724L60.0681 33.1634L61.2211 28.4847L63.5538 32.7315L65.2204 28.1875L67.0655 32.6435L69.2276 28.2841L70.5648 32.9005L73.1987 28.7734L74.0133 33.4996L77.0902 29.6501L77.3733 34.4343L80.8595 30.9046L80.608 35.6944L84.4652 32.5231L83.6818 37.2661L87.8678 34.4879L86.5613 39.132L91.0302 36.7774L89.2147 41.2718L93.9175 39.3666L91.613 43.6621L96.4983 42.2271L93.7299 46.2766L98.7441 45.3276L95.5423 49.0867L100.631 48.6341L97.0303 52.0616L102.137 52.1104L98.1776 55.1688L103.246 55.7183L98.9716 58.3741L103.947 59.4185L99.4036 61.6425L104.231 63.1702L99.469 64.9381L104.096 66.9324L99.1668 68.2249L103.542 70.6639L98.5006 71.4668L102.577 74.3239L97.4775 74.6283L101.21 77.8721L96.1089 77.6748L99.4564 81.2698L94.4096 80.5729L97.3356 84.4797L92.3983 83.2908L94.8707 87.4666L90.097 85.7988L92.0888 90.1979L87.531 88.0694L89.0203 92.6435L84.7284 90.0777L85.6988 94.7767L81.7198 91.8017L82.1608 96.5742L78.5383 93.2225L78.445 98.0162L75.2186 94.3246L74.5921 99.0869L71.7973 95.0958L70.6443 99.7746L68.3116 95.5278L66.6449 100.072L64.7999 95.6158L62.6377 99.9752L61.3006 95.3588L58.6666 99.4859L57.8521 94.7597L54.7752 98.6091L54.4921 93.8249L51.0059 97.3547L51.2574 92.5648L47.4002 95.7362L48.1836 90.9932L43.9976 93.7714L45.3041 89.1273L40.8352 91.4819L42.6507 86.9874L37.9479 88.8927L40.2524 84.5972L35.3671 86.0321L38.1355 81.9827L33.1212 82.9316L36.3231 79.1726L31.2349 79.6251L34.8351 76.1976L29.7286 76.1489L33.6878 73.0905L28.6191 72.5409L32.8938 69.8852L27.9183 68.8408L32.4617 66.6168L27.6341 65.0891L32.3964 63.3212L27.7694 61.3269L32.6986 60.0344L28.3229 57.5953L33.3648 56.7925L29.2885 53.9354L34.3879 53.631L30.6555 50.3872L35.7565 50.5845L32.409 46.9895L37.4558 47.6864L34.5298 43.7796L39.4671 44.9685L36.9947 40.7927Z" fill="url(#paint0_radial_71_3775)"></path>
<ellipse cx="2.58289" cy="2.61403" rx="2.58289" ry="2.61403" transform="matrix(0.911359 -0.407231 0.41275 0.908777 46.5291 57.7701)" fill="black"></ellipse>
<ellipse cx="2.58289" cy="2.61403" rx="2.58289" ry="2.61403" transform="matrix(0.911359 -0.407231 0.41275 0.908777 60.4954 50.7826)" fill="black"></ellipse>
<path d="M57.6529 58.8424C57.3722 58.875 57.1792 59.1172 57.2218 59.3833C57.2643 59.6495 57.5264 59.8389 57.8071 59.8063L57.73 59.3243L57.6529 58.8424ZM60.2372 58.4288C60.4114 58.2219 60.3708 57.9159 60.1466 57.7453C59.9224 57.5748 59.5994 57.6044 59.4253 57.8114L59.8313 58.1201L60.2372 58.4288ZM58.8501 58.9713L59.1257 59.3885L58.8501 58.9713ZM57.73 59.3243C57.8071 59.8063 57.8072 59.8063 57.8073 59.8063C57.8073 59.8063 57.8074 59.8063 57.8075 59.8063C57.8076 59.8062 57.8077 59.8062 57.8079 59.8062C57.8082 59.8062 57.8086 59.8061 57.809 59.8061C57.8098 59.806 57.8107 59.8059 57.8118 59.8057C57.8141 59.8055 57.8169 59.8051 57.8203 59.8047C57.8271 59.8038 57.8363 59.8026 57.8477 59.801C57.8703 59.7978 57.9018 59.7931 57.9404 59.7866C58.0175 59.7737 58.1244 59.7533 58.2484 59.7231C58.4908 59.6641 58.8231 59.5617 59.1257 59.3885L58.8501 58.9713L58.5746 58.5541C58.3885 58.6606 58.1606 58.7347 57.9652 58.7823C57.8702 58.8054 57.7887 58.8209 57.7321 58.8304C57.7039 58.8351 57.6822 58.8384 57.6685 58.8403C57.6616 58.8412 57.6567 58.8419 57.6541 58.8422C57.6528 58.8424 57.652 58.8425 57.6518 58.8425C57.6517 58.8425 57.6517 58.8425 57.6519 58.8425C57.652 58.8425 57.6521 58.8425 57.6523 58.8425C57.6524 58.8424 57.6525 58.8424 57.6526 58.8424C57.6526 58.8424 57.6527 58.8424 57.6527 58.8424C57.6528 58.8424 57.6529 58.8424 57.73 59.3243ZM58.8501 58.9713L59.1257 59.3885C59.4341 59.2119 59.7135 58.9665 59.9059 58.7795C60.0046 58.6836 60.086 58.5977 60.143 58.5353C60.1716 58.504 60.1943 58.4784 60.2102 58.4601C60.2182 58.451 60.2245 58.4437 60.2291 58.4384C60.2313 58.4358 60.2331 58.4336 60.2345 58.432C60.2352 58.4312 60.2357 58.4306 60.2362 58.43C60.2364 58.4298 60.2366 58.4295 60.2368 58.4293C60.2369 58.4292 60.237 58.4291 60.237 58.4291C60.2371 58.429 60.2371 58.429 60.2371 58.4289C60.2372 58.4289 60.2372 58.4288 59.8313 58.1201C59.4253 57.8114 59.4253 57.8113 59.4254 57.8113C59.4254 57.8113 59.4254 57.8112 59.4254 57.8112C59.4255 57.8111 59.4255 57.8111 59.4255 57.8111C59.4256 57.811 59.4256 57.811 59.4256 57.811C59.4256 57.811 59.4255 57.8111 59.4253 57.8114C59.4248 57.8119 59.424 57.8129 59.4226 57.8145C59.42 57.8175 59.4158 57.8225 59.4099 57.8292C59.3981 57.8426 59.3801 57.863 59.3567 57.8886C59.3096 57.9401 59.2415 58.0121 59.1589 58.0924C58.9885 58.2579 58.7773 58.438 58.5746 58.5541L58.8501 58.9713Z" fill="black"></path>
<defs>
<radialGradient id="paint0_radial_71_3775" cx="0" cy="0" r="1" gradientTransform="matrix(28.938 23.337 -25.0975 27.3522 65.9327 64.1296)" gradientUnits="userSpaceOnUse">
<stop offset="0.288462" stop-color="#FF5609"></stop>
<stop offset="0.884615" stop-color="#F68396"></stop>
<stop offset="0.990385" stop-color="white"></stop>
</radialGradient>
</defs>
</svg>