<svg width="284" height="66" viewBox="0 0 284 66" fill="none" xmlns="http://www.w3.org/2000/svg">
<g filter="url(#filter0_d_121_4276)">
<rect x="4" width="276" height="58" rx="15" fill="url(#paint0_linear_121_4276)" shape-rendering="crispEdges"></rect>
<rect x="4.5" y="0.5" width="275" height="57" rx="14.5" stroke="#FF6F02" shape-rendering="crispEdges"></rect>
<path d="M31.3483 36.7794C30.5918 37.2358 29.6584 36.5586 29.8575 35.6978L30.8143 31.5616C30.8978 31.2007 30.775 30.8233 30.4951 30.5806L27.285 27.7975C26.6174 27.2188 26.9734 26.1221 27.8536 26.0457L32.0999 25.6771C32.4691 25.645 32.7902 25.4115 32.9345 25.0701L34.5789 21.1794C34.923 20.3651 36.077 20.3651 36.4211 21.1794L38.0655 25.0701C38.2098 25.4115 38.5309 25.645 38.9001 25.6771L43.1464 26.0457C44.0266 26.1221 44.3826 27.2188 43.715 27.7975L40.5049 30.5806C40.225 30.8233 40.1022 31.2007 40.1857 31.5616L41.1425 35.6978C41.3416 36.5586 40.4082 37.2358 39.6517 36.7794L36.0165 34.5866C35.6988 34.3949 35.3012 34.3949 34.9835 34.5866L31.3483 36.7794Z" fill="#FE6850"></path>
<path d="M63.715 16.833L61.218 21.607V24.5H60.217V21.607L57.709 16.833H58.82L60.712 20.716L62.604 16.833H63.715ZM67.3998 24.599C66.8352 24.599 66.3218 24.4707 65.8598 24.214C65.4052 23.9573 65.0458 23.5943 64.7818 23.125C64.5252 22.6483 64.3968 22.0983 64.3968 21.475C64.3968 20.859 64.5288 20.3163 64.7928 19.847C65.0642 19.3703 65.4308 19.0073 65.8928 18.758C66.3548 18.5013 66.8718 18.373 67.4438 18.373C68.0158 18.373 68.5328 18.5013 68.9948 18.758C69.4568 19.0073 69.8198 19.3667 70.0838 19.836C70.3552 20.3053 70.4908 20.8517 70.4908 21.475C70.4908 22.0983 70.3515 22.6483 70.0728 23.125C69.8015 23.5943 69.4312 23.9573 68.9618 24.214C68.4925 24.4707 67.9718 24.599 67.3998 24.599ZM67.3998 23.719C67.7592 23.719 68.0965 23.6347 68.4118 23.466C68.7272 23.2973 68.9802 23.0443 69.1708 22.707C69.3688 22.3697 69.4678 21.959 69.4678 21.475C69.4678 20.991 69.3725 20.5803 69.1818 20.243C68.9912 19.9057 68.7418 19.6563 68.4338 19.495C68.1258 19.3263 67.7922 19.242 67.4328 19.242C67.0662 19.242 66.7288 19.3263 66.4208 19.495C66.1202 19.6563 65.8782 19.9057 65.6948 20.243C65.5115 20.5803 65.4198 20.991 65.4198 21.475C65.4198 21.9663 65.5078 22.3807 65.6838 22.718C65.8672 23.0553 66.1092 23.3083 66.4098 23.477C66.7105 23.6383 67.0405 23.719 67.3998 23.719ZM77.153 18.472V24.5H76.152V23.609C75.9613 23.917 75.6936 24.159 75.349 24.335C75.0116 24.5037 74.6376 24.588 74.227 24.588C73.7576 24.588 73.336 24.4927 72.962 24.302C72.588 24.104 72.291 23.8107 72.071 23.422C71.8583 23.0333 71.752 22.5603 71.752 22.003V18.472H72.742V21.871C72.742 22.465 72.8923 22.9233 73.193 23.246C73.4936 23.5613 73.9043 23.719 74.425 23.719C74.9603 23.719 75.382 23.554 75.69 23.224C75.998 22.894 76.152 22.4137 76.152 21.783V18.472H77.153ZM79.8441 19.451C80.0201 19.1063 80.2694 18.8387 80.5921 18.648C80.9221 18.4573 81.3218 18.362 81.7911 18.362V19.396H81.5271C80.4051 19.396 79.8441 20.0047 79.8441 21.222V24.5H78.8431V18.472H79.8441V19.451ZM85.5052 20.661C85.5052 19.913 85.6739 19.242 86.0112 18.648C86.3486 18.0467 86.8069 17.5773 87.3862 17.24C87.9729 16.9027 88.6219 16.734 89.3332 16.734C90.1692 16.734 90.8989 16.9357 91.5222 17.339C92.1456 17.7423 92.6002 18.3143 92.8862 19.055H91.6872C91.4746 18.593 91.1666 18.2373 90.7632 17.988C90.3672 17.7387 89.8906 17.614 89.3332 17.614C88.7979 17.614 88.3176 17.7387 87.8922 17.988C87.4669 18.2373 87.1332 18.593 86.8912 19.055C86.6492 19.5097 86.5282 20.045 86.5282 20.661C86.5282 21.2697 86.6492 21.805 86.8912 22.267C87.1332 22.7217 87.4669 23.0737 87.8922 23.323C88.3176 23.5723 88.7979 23.697 89.3332 23.697C89.8906 23.697 90.3672 23.576 90.7632 23.334C91.1666 23.0847 91.4746 22.729 91.6872 22.267H92.8862C92.6002 23.0003 92.1456 23.5687 91.5222 23.972C90.8989 24.368 90.1692 24.566 89.3332 24.566C88.6219 24.566 87.9729 24.401 87.3862 24.071C86.8069 23.7337 86.3486 23.268 86.0112 22.674C85.6739 22.08 85.5052 21.409 85.5052 20.661ZM99.5683 18.472L95.9383 27.338H94.9043L96.0923 24.434L93.6613 18.472H94.7723L96.6643 23.356L98.5343 18.472H99.5683ZM100.201 21.475C100.201 20.8517 100.325 20.309 100.575 19.847C100.824 19.3777 101.169 19.0147 101.609 18.758C102.056 18.5013 102.566 18.373 103.138 18.373C103.878 18.373 104.487 18.5527 104.964 18.912C105.448 19.2713 105.767 19.77 105.921 20.408H104.843C104.74 20.0413 104.538 19.7517 104.238 19.539C103.944 19.3263 103.578 19.22 103.138 19.22C102.566 19.22 102.104 19.418 101.752 19.814C101.4 20.2027 101.224 20.7563 101.224 21.475C101.224 22.201 101.4 22.762 101.752 23.158C102.104 23.554 102.566 23.752 103.138 23.752C103.578 23.752 103.944 23.6493 104.238 23.444C104.531 23.2387 104.733 22.9453 104.843 22.564H105.921C105.759 23.18 105.437 23.675 104.953 24.049C104.469 24.4157 103.864 24.599 103.138 24.599C102.566 24.599 102.056 24.4707 101.609 24.214C101.169 23.9573 100.824 23.5943 100.575 23.125C100.325 22.6557 100.201 22.1057 100.201 21.475ZM108.257 16.36V24.5H107.256V16.36H108.257ZM115.463 21.255C115.463 21.4457 115.452 21.6473 115.43 21.86H110.612C110.649 22.454 110.851 22.9197 111.217 23.257C111.591 23.587 112.042 23.752 112.57 23.752C113.003 23.752 113.362 23.653 113.648 23.455C113.942 23.2497 114.147 22.9783 114.264 22.641H115.342C115.181 23.2203 114.858 23.6933 114.374 24.06C113.89 24.4193 113.289 24.599 112.57 24.599C111.998 24.599 111.485 24.4707 111.03 24.214C110.583 23.9573 110.231 23.5943 109.974 23.125C109.718 22.6483 109.589 22.0983 109.589 21.475C109.589 20.8517 109.714 20.3053 109.963 19.836C110.213 19.3667 110.561 19.0073 111.008 18.758C111.463 18.5013 111.984 18.373 112.57 18.373C113.142 18.373 113.648 18.4977 114.088 18.747C114.528 18.9963 114.866 19.341 115.1 19.781C115.342 20.2137 115.463 20.705 115.463 21.255ZM114.429 21.046C114.429 20.6647 114.345 20.3383 114.176 20.067C114.008 19.7883 113.777 19.5793 113.483 19.44C113.197 19.2933 112.878 19.22 112.526 19.22C112.02 19.22 111.588 19.3813 111.228 19.704C110.876 20.0267 110.675 20.474 110.623 21.046H114.429ZM119.343 21.464C119.343 20.848 119.468 20.309 119.717 19.847C119.966 19.3777 120.307 19.0147 120.74 18.758C121.18 18.5013 121.668 18.373 122.203 18.373C122.731 18.373 123.189 18.4867 123.578 18.714C123.967 18.9413 124.256 19.2273 124.447 19.572V18.472H125.459V24.5H124.447V23.378C124.249 23.73 123.952 24.0233 123.556 24.258C123.167 24.4853 122.713 24.599 122.192 24.599C121.657 24.599 121.173 24.467 120.74 24.203C120.307 23.939 119.966 23.5687 119.717 23.092C119.468 22.6153 119.343 22.0727 119.343 21.464ZM124.447 21.475C124.447 21.0203 124.355 20.6243 124.172 20.287C123.989 19.9497 123.739 19.693 123.424 19.517C123.116 19.3337 122.775 19.242 122.401 19.242C122.027 19.242 121.686 19.33 121.378 19.506C121.07 19.682 120.824 19.9387 120.641 20.276C120.458 20.6133 120.366 21.0093 120.366 21.464C120.366 21.926 120.458 22.3293 120.641 22.674C120.824 23.0113 121.07 23.2717 121.378 23.455C121.686 23.631 122.027 23.719 122.401 23.719C122.775 23.719 123.116 23.631 123.424 23.455C123.739 23.2717 123.989 23.0113 124.172 22.674C124.355 22.3293 124.447 21.9297 124.447 21.475ZM130.088 18.362C130.821 18.362 131.415 18.5857 131.87 19.033C132.324 19.473 132.552 20.111 132.552 20.947V24.5H131.562V21.09C131.562 20.4887 131.411 20.0303 131.111 19.715C130.81 19.3923 130.399 19.231 129.879 19.231C129.351 19.231 128.929 19.396 128.614 19.726C128.306 20.056 128.152 20.5363 128.152 21.167V24.5H127.151V18.472H128.152V19.33C128.35 19.022 128.617 18.7837 128.955 18.615C129.299 18.4463 129.677 18.362 130.088 18.362ZM133.813 21.464C133.813 20.848 133.938 20.309 134.187 19.847C134.436 19.3777 134.777 19.0147 135.21 18.758C135.65 18.5013 136.141 18.373 136.684 18.373C137.153 18.373 137.59 18.483 137.993 18.703C138.396 18.9157 138.704 19.198 138.917 19.55V16.36H139.929V24.5H138.917V23.367C138.719 23.7263 138.426 24.0233 138.037 24.258C137.648 24.4853 137.194 24.599 136.673 24.599C136.138 24.599 135.65 24.467 135.21 24.203C134.777 23.939 134.436 23.5687 134.187 23.092C133.938 22.6153 133.813 22.0727 133.813 21.464ZM138.917 21.475C138.917 21.0203 138.825 20.6243 138.642 20.287C138.459 19.9497 138.209 19.693 137.894 19.517C137.586 19.3337 137.245 19.242 136.871 19.242C136.497 19.242 136.156 19.33 135.848 19.506C135.54 19.682 135.294 19.9387 135.111 20.276C134.928 20.6133 134.836 21.0093 134.836 21.464C134.836 21.926 134.928 22.3293 135.111 22.674C135.294 23.0113 135.54 23.2717 135.848 23.455C136.156 23.631 136.497 23.719 136.871 23.719C137.245 23.719 137.586 23.631 137.894 23.455C138.209 23.2717 138.459 23.0113 138.642 22.674C138.825 22.3293 138.917 21.9297 138.917 21.475ZM146.984 24.577C146.478 24.577 146.023 24.489 145.62 24.313C145.224 24.1297 144.912 23.8803 144.685 23.565C144.458 23.2423 144.34 22.872 144.333 22.454H145.4C145.437 22.8133 145.583 23.1177 145.84 23.367C146.104 23.609 146.485 23.73 146.984 23.73C147.461 23.73 147.835 23.6127 148.106 23.378C148.385 23.136 148.524 22.828 148.524 22.454C148.524 22.1607 148.443 21.9223 148.282 21.739C148.121 21.5557 147.919 21.4163 147.677 21.321C147.435 21.2257 147.109 21.123 146.698 21.013C146.192 20.881 145.785 20.749 145.477 20.617C145.176 20.485 144.916 20.2797 144.696 20.001C144.483 19.715 144.377 19.3337 144.377 18.857C144.377 18.439 144.483 18.0687 144.696 17.746C144.909 17.4233 145.206 17.174 145.587 16.998C145.976 16.822 146.419 16.734 146.918 16.734C147.637 16.734 148.223 16.9137 148.678 17.273C149.14 17.6323 149.4 18.109 149.459 18.703H148.359C148.322 18.4097 148.168 18.153 147.897 17.933C147.626 17.7057 147.266 17.592 146.819 17.592C146.401 17.592 146.06 17.702 145.796 17.922C145.532 18.1347 145.4 18.4353 145.4 18.824C145.4 19.1027 145.477 19.33 145.631 19.506C145.792 19.682 145.987 19.8177 146.214 19.913C146.449 20.001 146.775 20.1037 147.193 20.221C147.699 20.3603 148.106 20.4997 148.414 20.639C148.722 20.771 148.986 20.98 149.206 21.266C149.426 21.5447 149.536 21.926 149.536 22.41C149.536 22.784 149.437 23.136 149.239 23.466C149.041 23.796 148.748 24.0637 148.359 24.269C147.97 24.4743 147.512 24.577 146.984 24.577ZM156.201 18.472L152.571 27.338H151.537L152.725 24.434L150.294 18.472H151.405L153.297 23.356L155.167 18.472H156.201ZM164.456 18.362C164.926 18.362 165.344 18.461 165.71 18.659C166.077 18.8497 166.367 19.1393 166.579 19.528C166.792 19.9167 166.898 20.3897 166.898 20.947V24.5H165.908V21.09C165.908 20.4887 165.758 20.0303 165.457 19.715C165.164 19.3923 164.764 19.231 164.258 19.231C163.738 19.231 163.323 19.3997 163.015 19.737C162.707 20.067 162.553 20.5473 162.553 21.178V24.5H161.563V21.09C161.563 20.4887 161.413 20.0303 161.112 19.715C160.819 19.3923 160.419 19.231 159.913 19.231C159.393 19.231 158.978 19.3997 158.67 19.737C158.362 20.067 158.208 20.5473 158.208 21.178V24.5H157.207V18.472H158.208V19.341C158.406 19.0257 158.67 18.7837 159 18.615C159.338 18.4463 159.708 18.362 160.111 18.362C160.617 18.362 161.065 18.4757 161.453 18.703C161.842 18.9303 162.132 19.264 162.322 19.704C162.491 19.2787 162.77 18.9487 163.158 18.714C163.547 18.4793 163.98 18.362 164.456 18.362ZM169.541 19.583C169.739 19.2383 170.033 18.9523 170.421 18.725C170.817 18.4903 171.276 18.373 171.796 18.373C172.332 18.373 172.816 18.5013 173.248 18.758C173.688 19.0147 174.033 19.3777 174.282 19.847C174.532 20.309 174.656 20.848 174.656 21.464C174.656 22.0727 174.532 22.6153 174.282 23.092C174.033 23.5687 173.688 23.939 173.248 24.203C172.816 24.467 172.332 24.599 171.796 24.599C171.283 24.599 170.828 24.4853 170.432 24.258C170.044 24.0233 169.747 23.7337 169.541 23.389V27.36H168.54V18.472H169.541V19.583ZM173.633 21.464C173.633 21.0093 173.542 20.6133 173.358 20.276C173.175 19.9387 172.926 19.682 172.61 19.506C172.302 19.33 171.961 19.242 171.587 19.242C171.221 19.242 170.88 19.3337 170.564 19.517C170.256 19.693 170.007 19.9533 169.816 20.298C169.633 20.6353 169.541 21.0277 169.541 21.475C169.541 21.9297 169.633 22.3293 169.816 22.674C170.007 23.0113 170.256 23.2717 170.564 23.455C170.88 23.631 171.221 23.719 171.587 23.719C171.961 23.719 172.302 23.631 172.61 23.455C172.926 23.2717 173.175 23.0113 173.358 22.674C173.542 22.3293 173.633 21.926 173.633 21.464ZM177.195 19.297V22.85C177.195 23.1433 177.257 23.3523 177.382 23.477C177.507 23.5943 177.723 23.653 178.031 23.653H178.768V24.5H177.866C177.309 24.5 176.891 24.3717 176.612 24.115C176.333 23.8583 176.194 23.4367 176.194 22.85V19.297H175.413V18.472H176.194V16.954H177.195V18.472H178.768V19.297H177.195ZM182.61 24.599C182.045 24.599 181.532 24.4707 181.07 24.214C180.615 23.9573 180.256 23.5943 179.992 23.125C179.735 22.6483 179.607 22.0983 179.607 21.475C179.607 20.859 179.739 20.3163 180.003 19.847C180.274 19.3703 180.641 19.0073 181.103 18.758C181.565 18.5013 182.082 18.373 182.654 18.373C183.226 18.373 183.743 18.5013 184.205 18.758C184.667 19.0073 185.03 19.3667 185.294 19.836C185.565 20.3053 185.701 20.8517 185.701 21.475C185.701 22.0983 185.561 22.6483 185.283 23.125C185.011 23.5943 184.641 23.9573 184.172 24.214C183.702 24.4707 183.182 24.599 182.61 24.599ZM182.61 23.719C182.969 23.719 183.306 23.6347 183.622 23.466C183.937 23.2973 184.19 23.0443 184.381 22.707C184.579 22.3697 184.678 21.959 184.678 21.475C184.678 20.991 184.582 20.5803 184.392 20.243C184.201 19.9057 183.952 19.6563 183.644 19.495C183.336 19.3263 183.002 19.242 182.643 19.242C182.276 19.242 181.939 19.3263 181.631 19.495C181.33 19.6563 181.088 19.9057 180.905 20.243C180.721 20.5803 180.63 20.991 180.63 21.475C180.63 21.9663 180.718 22.3807 180.894 22.718C181.077 23.0553 181.319 23.3083 181.62 23.477C181.92 23.6383 182.25 23.719 182.61 23.719ZM194.266 18.362C194.735 18.362 195.153 18.461 195.52 18.659C195.887 18.8497 196.176 19.1393 196.389 19.528C196.602 19.9167 196.708 20.3897 196.708 20.947V24.5H195.718V21.09C195.718 20.4887 195.568 20.0303 195.267 19.715C194.974 19.3923 194.574 19.231 194.068 19.231C193.547 19.231 193.133 19.3997 192.825 19.737C192.517 20.067 192.363 20.5473 192.363 21.178V24.5H191.373V21.09C191.373 20.4887 191.223 20.0303 190.922 19.715C190.629 19.3923 190.229 19.231 189.723 19.231C189.202 19.231 188.788 19.3997 188.48 19.737C188.172 20.067 188.018 20.5473 188.018 21.178V24.5H187.017V18.472H188.018V19.341C188.216 19.0257 188.48 18.7837 188.81 18.615C189.147 18.4463 189.518 18.362 189.921 18.362C190.427 18.362 190.874 18.4757 191.263 18.703C191.652 18.9303 191.941 19.264 192.132 19.704C192.301 19.2787 192.579 18.9487 192.968 18.714C193.357 18.4793 193.789 18.362 194.266 18.362ZM200.484 24.599C200.022 24.599 199.608 24.522 199.241 24.368C198.874 24.2067 198.585 23.9867 198.372 23.708C198.159 23.422 198.042 23.0957 198.02 22.729H199.054C199.083 23.0297 199.223 23.2753 199.472 23.466C199.729 23.6567 200.062 23.752 200.473 23.752C200.854 23.752 201.155 23.6677 201.375 23.499C201.595 23.3303 201.705 23.1177 201.705 22.861C201.705 22.597 201.588 22.4027 201.353 22.278C201.118 22.146 200.755 22.0177 200.264 21.893C199.817 21.7757 199.45 21.6583 199.164 21.541C198.885 21.4163 198.643 21.2367 198.438 21.002C198.24 20.76 198.141 20.4447 198.141 20.056C198.141 19.748 198.233 19.4657 198.416 19.209C198.599 18.9523 198.86 18.7507 199.197 18.604C199.534 18.45 199.919 18.373 200.352 18.373C201.019 18.373 201.558 18.5417 201.969 18.879C202.38 19.2163 202.6 19.6783 202.629 20.265H201.628C201.606 19.9497 201.478 19.6967 201.243 19.506C201.016 19.3153 200.708 19.22 200.319 19.22C199.96 19.22 199.674 19.297 199.461 19.451C199.248 19.605 199.142 19.8067 199.142 20.056C199.142 20.254 199.204 20.419 199.329 20.551C199.461 20.6757 199.622 20.7783 199.813 20.859C200.011 20.9323 200.282 21.0167 200.627 21.112C201.06 21.2293 201.412 21.3467 201.683 21.464C201.954 21.574 202.185 21.7427 202.376 21.97C202.574 22.1973 202.677 22.4943 202.684 22.861C202.684 23.191 202.592 23.488 202.409 23.752C202.226 24.016 201.965 24.225 201.628 24.379C201.298 24.5257 200.917 24.599 200.484 24.599Z" fill="#FE6850"></path>
<path d="M62.054 33.227V33.893H60.344V39.5H59.525V33.893H57.806V33.227H62.054ZM65.2131 39.581C64.7511 39.581 64.3311 39.476 63.9531 39.266C63.5811 39.056 63.2871 38.759 63.0711 38.375C62.8611 37.985 62.7561 37.535 62.7561 37.025C62.7561 36.521 62.8641 36.077 63.0801 35.693C63.3021 35.303 63.6021 35.006 63.9801 34.802C64.3581 34.592 64.7811 34.487 65.2491 34.487C65.7171 34.487 66.1401 34.592 66.5181 34.802C66.8961 35.006 67.1931 35.3 67.4091 35.684C67.6311 36.068 67.7421 36.515 67.7421 37.025C67.7421 37.535 67.6281 37.985 67.4001 38.375C67.1781 38.759 66.8751 39.056 66.4911 39.266C66.1071 39.476 65.6811 39.581 65.2131 39.581ZM65.2131 38.861C65.5071 38.861 65.7831 38.792 66.0411 38.654C66.2991 38.516 66.5061 38.309 66.6621 38.033C66.8241 37.757 66.9051 37.421 66.9051 37.025C66.9051 36.629 66.8271 36.293 66.6711 36.017C66.5151 35.741 66.3111 35.537 66.0591 35.405C65.8071 35.267 65.5341 35.198 65.2401 35.198C64.9401 35.198 64.6641 35.267 64.4121 35.405C64.1661 35.537 63.9681 35.741 63.8181 36.017C63.6681 36.293 63.5931 36.629 63.5931 37.025C63.5931 37.427 63.6651 37.766 63.8091 38.042C63.9591 38.318 64.1571 38.525 64.4031 38.663C64.6491 38.795 64.9191 38.861 65.2131 38.861ZM72.9644 39.581C72.5864 39.581 72.2474 39.518 71.9474 39.392C71.6474 39.26 71.4104 39.08 71.2364 38.852C71.0624 38.618 70.9664 38.351 70.9484 38.051H71.7944C71.8184 38.297 71.9324 38.498 72.1364 38.654C72.3464 38.81 72.6194 38.888 72.9554 38.888C73.2674 38.888 73.5134 38.819 73.6934 38.681C73.8734 38.543 73.9634 38.369 73.9634 38.159C73.9634 37.943 73.8674 37.784 73.6754 37.682C73.4834 37.574 73.1864 37.469 72.7844 37.367C72.4184 37.271 72.1184 37.175 71.8844 37.079C71.6564 36.977 71.4584 36.83 71.2904 36.638C71.1284 36.44 71.0474 36.182 71.0474 35.864C71.0474 35.612 71.1224 35.381 71.2724 35.171C71.4224 34.961 71.6354 34.796 71.9114 34.676C72.1874 34.55 72.5024 34.487 72.8564 34.487C73.4024 34.487 73.8434 34.625 74.1794 34.901C74.5154 35.177 74.6954 35.555 74.7194 36.035H73.9004C73.8824 35.777 73.7774 35.57 73.5854 35.414C73.3994 35.258 73.1474 35.18 72.8294 35.18C72.5354 35.18 72.3014 35.243 72.1274 35.369C71.9534 35.495 71.8664 35.66 71.8664 35.864C71.8664 36.026 71.9174 36.161 72.0194 36.269C72.1274 36.371 72.2594 36.455 72.4154 36.521C72.5774 36.581 72.7994 36.65 73.0814 36.728C73.4354 36.824 73.7234 36.92 73.9454 37.016C74.1674 37.106 74.3564 37.244 74.5124 37.43C74.6744 37.616 74.7584 37.859 74.7644 38.159C74.7644 38.429 74.6894 38.672 74.5394 38.888C74.3894 39.104 74.1764 39.275 73.9004 39.401C73.6304 39.521 73.3184 39.581 72.9644 39.581ZM80.1685 34.568L77.1985 41.822H76.3525L77.3245 39.446L75.3355 34.568H76.2445L77.7925 38.564L79.3225 34.568H80.1685ZM83.3948 34.478C83.9948 34.478 84.4808 34.661 84.8528 35.027C85.2248 35.387 85.4108 35.909 85.4108 36.593V39.5H84.6008V36.71C84.6008 36.218 84.4778 35.843 84.2318 35.585C83.9858 35.321 83.6498 35.189 83.2238 35.189C82.7918 35.189 82.4468 35.324 82.1888 35.594C81.9368 35.864 81.8108 36.257 81.8108 36.773V39.5H80.9918V34.568H81.8108V35.27C81.9728 35.018 82.1918 34.823 82.4678 34.685C82.7498 34.547 83.0588 34.478 83.3948 34.478ZM86.4427 37.025C86.4427 36.515 86.5447 36.071 86.7487 35.693C86.9527 35.309 87.2347 35.012 87.5947 34.802C87.9607 34.592 88.3777 34.487 88.8457 34.487C89.4517 34.487 89.9497 34.634 90.3397 34.928C90.7357 35.222 90.9967 35.63 91.1227 36.152H90.2407C90.1567 35.852 89.9917 35.615 89.7457 35.441C89.5057 35.267 89.2057 35.18 88.8457 35.18C88.3777 35.18 87.9997 35.342 87.7117 35.666C87.4237 35.984 87.2797 36.437 87.2797 37.025C87.2797 37.619 87.4237 38.078 87.7117 38.402C87.9997 38.726 88.3777 38.888 88.8457 38.888C89.2057 38.888 89.5057 38.804 89.7457 38.636C89.9857 38.468 90.1507 38.228 90.2407 37.916H91.1227C90.9907 38.42 90.7267 38.825 90.3307 39.131C89.9347 39.431 89.4397 39.581 88.8457 39.581C88.3777 39.581 87.9607 39.476 87.5947 39.266C87.2347 39.056 86.9527 38.759 86.7487 38.375C86.5447 37.991 86.4427 37.541 86.4427 37.025ZM100.546 34.478C100.93 34.478 101.272 34.559 101.572 34.721C101.872 34.877 102.109 35.114 102.283 35.432C102.457 35.75 102.544 36.137 102.544 36.593V39.5H101.734V36.71C101.734 36.218 101.611 35.843 101.365 35.585C101.125 35.321 100.798 35.189 100.384 35.189C99.9579 35.189 99.6189 35.327 99.3669 35.603C99.1149 35.873 98.9889 36.266 98.9889 36.782V39.5H98.1789V36.71C98.1789 36.218 98.0559 35.843 97.8099 35.585C97.5699 35.321 97.2429 35.189 96.8289 35.189C96.4029 35.189 96.0639 35.327 95.8119 35.603C95.5599 35.873 95.4339 36.266 95.4339 36.782V39.5H94.6149V34.568H95.4339V35.279C95.5959 35.021 95.8119 34.823 96.0819 34.685C96.3579 34.547 96.6609 34.478 96.9909 34.478C97.4049 34.478 97.7709 34.571 98.0889 34.757C98.4069 34.943 98.6439 35.216 98.7999 35.576C98.9379 35.228 99.1659 34.958 99.4839 34.766C99.8019 34.574 100.156 34.478 100.546 34.478ZM108.387 36.845C108.387 37.001 108.378 37.166 108.36 37.34H104.418C104.448 37.826 104.613 38.207 104.913 38.483C105.219 38.753 105.588 38.888 106.02 38.888C106.374 38.888 106.668 38.807 106.902 38.645C107.142 38.477 107.31 38.255 107.406 37.979H108.288C108.156 38.453 107.892 38.84 107.496 39.14C107.1 39.434 106.608 39.581 106.02 39.581C105.552 39.581 105.132 39.476 104.76 39.266C104.394 39.056 104.106 38.759 103.896 38.375C103.686 37.985 103.581 37.535 103.581 37.025C103.581 36.515 103.683 36.068 103.887 35.684C104.091 35.3 104.376 35.006 104.742 34.802C105.114 34.592 105.54 34.487 106.02 34.487C106.488 34.487 106.902 34.589 107.262 34.793C107.622 34.997 107.898 35.279 108.09 35.639C108.288 35.993 108.387 36.395 108.387 36.845ZM107.541 36.674C107.541 36.362 107.472 36.095 107.334 35.873C107.196 35.645 107.007 35.474 106.767 35.36C106.533 35.24 106.272 35.18 105.984 35.18C105.57 35.18 105.216 35.312 104.922 35.576C104.634 35.84 104.469 36.206 104.427 36.674H107.541ZM109.162 37.016C109.162 36.512 109.264 36.071 109.468 35.693C109.672 35.309 109.951 35.012 110.305 34.802C110.665 34.592 111.064 34.487 111.502 34.487C111.934 34.487 112.309 34.58 112.627 34.766C112.945 34.952 113.182 35.186 113.338 35.468V34.568H114.166V39.5H113.338V38.582C113.176 38.87 112.933 39.11 112.609 39.302C112.291 39.488 111.919 39.581 111.493 39.581C111.055 39.581 110.659 39.473 110.305 39.257C109.951 39.041 109.672 38.738 109.468 38.348C109.264 37.958 109.162 37.514 109.162 37.016ZM113.338 37.025C113.338 36.653 113.263 36.329 113.113 36.053C112.963 35.777 112.759 35.567 112.501 35.423C112.249 35.273 111.97 35.198 111.664 35.198C111.358 35.198 111.079 35.27 110.827 35.414C110.575 35.558 110.374 35.768 110.224 36.044C110.074 36.32 109.999 36.644 109.999 37.016C109.999 37.394 110.074 37.724 110.224 38.006C110.374 38.282 110.575 38.495 110.827 38.645C111.079 38.789 111.358 38.861 111.664 38.861C111.97 38.861 112.249 38.789 112.501 38.645C112.759 38.495 112.963 38.282 113.113 38.006C113.263 37.724 113.338 37.397 113.338 37.025ZM116.369 32.84V39.5H115.55V32.84H116.369ZM119.511 39.581C119.133 39.581 118.794 39.518 118.494 39.392C118.194 39.26 117.957 39.08 117.783 38.852C117.609 38.618 117.513 38.351 117.495 38.051H118.341C118.365 38.297 118.479 38.498 118.683 38.654C118.893 38.81 119.166 38.888 119.502 38.888C119.814 38.888 120.06 38.819 120.24 38.681C120.42 38.543 120.51 38.369 120.51 38.159C120.51 37.943 120.414 37.784 120.222 37.682C120.03 37.574 119.733 37.469 119.331 37.367C118.965 37.271 118.665 37.175 118.431 37.079C118.203 36.977 118.005 36.83 117.837 36.638C117.675 36.44 117.594 36.182 117.594 35.864C117.594 35.612 117.669 35.381 117.819 35.171C117.969 34.961 118.182 34.796 118.458 34.676C118.734 34.55 119.049 34.487 119.403 34.487C119.949 34.487 120.39 34.625 120.726 34.901C121.062 35.177 121.242 35.555 121.266 36.035H120.447C120.429 35.777 120.324 35.57 120.132 35.414C119.946 35.258 119.694 35.18 119.376 35.18C119.082 35.18 118.848 35.243 118.674 35.369C118.5 35.495 118.413 35.66 118.413 35.864C118.413 36.026 118.464 36.161 118.566 36.269C118.674 36.371 118.806 36.455 118.962 36.521C119.124 36.581 119.346 36.65 119.628 36.728C119.982 36.824 120.27 36.92 120.492 37.016C120.714 37.106 120.903 37.244 121.059 37.43C121.221 37.616 121.305 37.859 121.311 38.159C121.311 38.429 121.236 38.672 121.086 38.888C120.936 39.104 120.723 39.275 120.447 39.401C120.177 39.521 119.865 39.581 119.511 39.581ZM124.561 37.016C124.561 36.512 124.663 36.071 124.867 35.693C125.071 35.309 125.35 35.012 125.704 34.802C126.064 34.592 126.463 34.487 126.901 34.487C127.333 34.487 127.708 34.58 128.026 34.766C128.344 34.952 128.581 35.186 128.737 35.468V34.568H129.565V39.5H128.737V38.582C128.575 38.87 128.332 39.11 128.008 39.302C127.69 39.488 127.318 39.581 126.892 39.581C126.454 39.581 126.058 39.473 125.704 39.257C125.35 39.041 125.071 38.738 124.867 38.348C124.663 37.958 124.561 37.514 124.561 37.016ZM128.737 37.025C128.737 36.653 128.662 36.329 128.512 36.053C128.362 35.777 128.158 35.567 127.9 35.423C127.648 35.273 127.369 35.198 127.063 35.198C126.757 35.198 126.478 35.27 126.226 35.414C125.974 35.558 125.773 35.768 125.623 36.044C125.473 36.32 125.398 36.644 125.398 37.016C125.398 37.394 125.473 37.724 125.623 38.006C125.773 38.282 125.974 38.495 126.226 38.645C126.478 38.789 126.757 38.861 127.063 38.861C127.369 38.861 127.648 38.789 127.9 38.645C128.158 38.495 128.362 38.282 128.512 38.006C128.662 37.724 128.737 37.397 128.737 37.025ZM133.352 34.478C133.952 34.478 134.438 34.661 134.81 35.027C135.182 35.387 135.368 35.909 135.368 36.593V39.5H134.558V36.71C134.558 36.218 134.435 35.843 134.189 35.585C133.943 35.321 133.607 35.189 133.181 35.189C132.749 35.189 132.404 35.324 132.146 35.594C131.894 35.864 131.768 36.257 131.768 36.773V39.5H130.949V34.568H131.768V35.27C131.93 35.018 132.149 34.823 132.425 34.685C132.707 34.547 133.016 34.478 133.352 34.478ZM136.4 37.016C136.4 36.512 136.502 36.071 136.706 35.693C136.91 35.309 137.189 35.012 137.543 34.802C137.903 34.592 138.305 34.487 138.749 34.487C139.133 34.487 139.49 34.577 139.82 34.757C140.15 34.931 140.402 35.162 140.576 35.45V32.84H141.404V39.5H140.576V38.573C140.414 38.867 140.174 39.11 139.856 39.302C139.538 39.488 139.166 39.581 138.74 39.581C138.302 39.581 137.903 39.473 137.543 39.257C137.189 39.041 136.91 38.738 136.706 38.348C136.502 37.958 136.4 37.514 136.4 37.016ZM140.576 37.025C140.576 36.653 140.501 36.329 140.351 36.053C140.201 35.777 139.997 35.567 139.739 35.423C139.487 35.273 139.208 35.198 138.902 35.198C138.596 35.198 138.317 35.27 138.065 35.414C137.813 35.558 137.612 35.768 137.462 36.044C137.312 36.32 137.237 36.644 137.237 37.016C137.237 37.394 137.312 37.724 137.462 38.006C137.612 38.282 137.813 38.495 138.065 38.645C138.317 38.789 138.596 38.861 138.902 38.861C139.208 38.861 139.487 38.789 139.739 38.645C139.997 38.495 140.201 38.282 140.351 38.006C140.501 37.724 140.576 37.397 140.576 37.025ZM151.118 34.478C151.502 34.478 151.844 34.559 152.144 34.721C152.444 34.877 152.681 35.114 152.855 35.432C153.029 35.75 153.116 36.137 153.116 36.593V39.5H152.306V36.71C152.306 36.218 152.183 35.843 151.937 35.585C151.697 35.321 151.37 35.189 150.956 35.189C150.53 35.189 150.191 35.327 149.939 35.603C149.687 35.873 149.561 36.266 149.561 36.782V39.5H148.751V36.71C148.751 36.218 148.628 35.843 148.382 35.585C148.142 35.321 147.815 35.189 147.401 35.189C146.975 35.189 146.636 35.327 146.384 35.603C146.132 35.873 146.006 36.266 146.006 36.782V39.5H145.187V34.568H146.006V35.279C146.168 35.021 146.384 34.823 146.654 34.685C146.93 34.547 147.233 34.478 147.563 34.478C147.977 34.478 148.343 34.571 148.661 34.757C148.979 34.943 149.216 35.216 149.372 35.576C149.51 35.228 149.738 34.958 150.056 34.766C150.374 34.574 150.728 34.478 151.118 34.478ZM156.611 39.581C156.149 39.581 155.729 39.476 155.351 39.266C154.979 39.056 154.685 38.759 154.469 38.375C154.259 37.985 154.154 37.535 154.154 37.025C154.154 36.521 154.262 36.077 154.478 35.693C154.7 35.303 155 35.006 155.378 34.802C155.756 34.592 156.179 34.487 156.647 34.487C157.115 34.487 157.538 34.592 157.916 34.802C158.294 35.006 158.591 35.3 158.807 35.684C159.029 36.068 159.14 36.515 159.14 37.025C159.14 37.535 159.026 37.985 158.798 38.375C158.576 38.759 158.273 39.056 157.889 39.266C157.505 39.476 157.079 39.581 156.611 39.581ZM156.611 38.861C156.905 38.861 157.181 38.792 157.439 38.654C157.697 38.516 157.904 38.309 158.06 38.033C158.222 37.757 158.303 37.421 158.303 37.025C158.303 36.629 158.225 36.293 158.069 36.017C157.913 35.741 157.709 35.537 157.457 35.405C157.205 35.267 156.932 35.198 156.638 35.198C156.338 35.198 156.062 35.267 155.81 35.405C155.564 35.537 155.366 35.741 155.216 36.017C155.066 36.293 154.991 36.629 154.991 37.025C154.991 37.427 155.063 37.766 155.207 38.042C155.357 38.318 155.555 38.525 155.801 38.663C156.047 38.795 156.317 38.861 156.611 38.861ZM162.052 38.744L163.582 34.568H164.455L162.52 39.5H161.566L159.631 34.568H160.513L162.052 38.744ZM169.761 36.845C169.761 37.001 169.752 37.166 169.734 37.34H165.792C165.822 37.826 165.987 38.207 166.287 38.483C166.593 38.753 166.962 38.888 167.394 38.888C167.748 38.888 168.042 38.807 168.276 38.645C168.516 38.477 168.684 38.255 168.78 37.979H169.662C169.53 38.453 169.266 38.84 168.87 39.14C168.474 39.434 167.982 39.581 167.394 39.581C166.926 39.581 166.506 39.476 166.134 39.266C165.768 39.056 165.48 38.759 165.27 38.375C165.06 37.985 164.955 37.535 164.955 37.025C164.955 36.515 165.057 36.068 165.261 35.684C165.465 35.3 165.75 35.006 166.116 34.802C166.488 34.592 166.914 34.487 167.394 34.487C167.862 34.487 168.276 34.589 168.636 34.793C168.996 34.997 169.272 35.279 169.464 35.639C169.662 35.993 169.761 36.395 169.761 36.845ZM168.915 36.674C168.915 36.362 168.846 36.095 168.708 35.873C168.57 35.645 168.381 35.474 168.141 35.36C167.907 35.24 167.646 35.18 167.358 35.18C166.944 35.18 166.59 35.312 166.296 35.576C166.008 35.84 165.843 36.206 165.801 36.674H168.915ZM176.773 34.478C177.157 34.478 177.499 34.559 177.799 34.721C178.099 34.877 178.336 35.114 178.51 35.432C178.684 35.75 178.771 36.137 178.771 36.593V39.5H177.961V36.71C177.961 36.218 177.838 35.843 177.592 35.585C177.352 35.321 177.025 35.189 176.611 35.189C176.185 35.189 175.846 35.327 175.594 35.603C175.342 35.873 175.216 36.266 175.216 36.782V39.5H174.406V36.71C174.406 36.218 174.283 35.843 174.037 35.585C173.797 35.321 173.47 35.189 173.056 35.189C172.63 35.189 172.291 35.327 172.039 35.603C171.787 35.873 171.661 36.266 171.661 36.782V39.5H170.842V34.568H171.661V35.279C171.823 35.021 172.039 34.823 172.309 34.685C172.585 34.547 172.888 34.478 173.218 34.478C173.632 34.478 173.998 34.571 174.316 34.757C174.634 34.943 174.871 35.216 175.027 35.576C175.165 35.228 175.393 34.958 175.711 34.766C176.029 34.574 176.383 34.478 176.773 34.478ZM184.615 36.845C184.615 37.001 184.606 37.166 184.588 37.34H180.646C180.676 37.826 180.841 38.207 181.141 38.483C181.447 38.753 181.816 38.888 182.248 38.888C182.602 38.888 182.896 38.807 183.13 38.645C183.37 38.477 183.538 38.255 183.634 37.979H184.516C184.384 38.453 184.12 38.84 183.724 39.14C183.328 39.434 182.836 39.581 182.248 39.581C181.78 39.581 181.36 39.476 180.988 39.266C180.622 39.056 180.334 38.759 180.124 38.375C179.914 37.985 179.809 37.535 179.809 37.025C179.809 36.515 179.911 36.068 180.115 35.684C180.319 35.3 180.604 35.006 180.97 34.802C181.342 34.592 181.768 34.487 182.248 34.487C182.716 34.487 183.13 34.589 183.49 34.793C183.85 34.997 184.126 35.279 184.318 35.639C184.516 35.993 184.615 36.395 184.615 36.845ZM183.769 36.674C183.769 36.362 183.7 36.095 183.562 35.873C183.424 35.645 183.235 35.474 182.995 35.36C182.761 35.24 182.5 35.18 182.212 35.18C181.798 35.18 181.444 35.312 181.15 35.576C180.862 35.84 180.697 36.206 180.655 36.674H183.769ZM188.099 34.478C188.699 34.478 189.185 34.661 189.557 35.027C189.929 35.387 190.115 35.909 190.115 36.593V39.5H189.305V36.71C189.305 36.218 189.182 35.843 188.936 35.585C188.69 35.321 188.354 35.189 187.928 35.189C187.496 35.189 187.151 35.324 186.893 35.594C186.641 35.864 186.515 36.257 186.515 36.773V39.5H185.696V34.568H186.515V35.27C186.677 35.018 186.896 34.823 187.172 34.685C187.454 34.547 187.763 34.478 188.099 34.478ZM192.452 35.243V38.15C192.452 38.39 192.503 38.561 192.605 38.663C192.707 38.759 192.884 38.807 193.136 38.807H193.739V39.5H193.001C192.545 39.5 192.203 39.395 191.975 39.185C191.747 38.975 191.633 38.63 191.633 38.15V35.243H190.994V34.568H191.633V33.326H192.452V34.568H193.739V35.243H192.452ZM198.13 35.243V38.15C198.13 38.39 198.181 38.561 198.283 38.663C198.385 38.759 198.562 38.807 198.813 38.807H199.417V39.5H198.679C198.223 39.5 197.881 39.395 197.653 39.185C197.425 38.975 197.311 38.63 197.311 38.15V35.243H196.672V34.568H197.311V33.326H198.13V34.568H199.417V35.243H198.13ZM202.56 39.581C202.098 39.581 201.678 39.476 201.3 39.266C200.928 39.056 200.634 38.759 200.418 38.375C200.208 37.985 200.103 37.535 200.103 37.025C200.103 36.521 200.211 36.077 200.427 35.693C200.649 35.303 200.949 35.006 201.327 34.802C201.705 34.592 202.128 34.487 202.596 34.487C203.064 34.487 203.487 34.592 203.865 34.802C204.243 35.006 204.54 35.3 204.756 35.684C204.978 36.068 205.089 36.515 205.089 37.025C205.089 37.535 204.975 37.985 204.747 38.375C204.525 38.759 204.222 39.056 203.838 39.266C203.454 39.476 203.028 39.581 202.56 39.581ZM202.56 38.861C202.854 38.861 203.13 38.792 203.388 38.654C203.646 38.516 203.853 38.309 204.009 38.033C204.171 37.757 204.252 37.421 204.252 37.025C204.252 36.629 204.174 36.293 204.018 36.017C203.862 35.741 203.658 35.537 203.406 35.405C203.154 35.267 202.881 35.198 202.587 35.198C202.287 35.198 202.011 35.267 201.759 35.405C201.513 35.537 201.315 35.741 201.165 36.017C201.015 36.293 200.94 36.629 200.94 37.025C200.94 37.427 201.012 37.766 201.156 38.042C201.306 38.318 201.504 38.525 201.75 38.663C201.996 38.795 202.266 38.861 202.56 38.861ZM212.813 34.568L209.843 41.822H208.997L209.969 39.446L207.98 34.568H208.889L210.437 38.564L211.967 34.568H212.813ZM215.787 39.581C215.325 39.581 214.905 39.476 214.527 39.266C214.155 39.056 213.861 38.759 213.645 38.375C213.435 37.985 213.33 37.535 213.33 37.025C213.33 36.521 213.438 36.077 213.654 35.693C213.876 35.303 214.176 35.006 214.554 34.802C214.932 34.592 215.355 34.487 215.823 34.487C216.291 34.487 216.714 34.592 217.092 34.802C217.47 35.006 217.767 35.3 217.983 35.684C218.205 36.068 218.316 36.515 218.316 37.025C218.316 37.535 218.202 37.985 217.974 38.375C217.752 38.759 217.449 39.056 217.065 39.266C216.681 39.476 216.255 39.581 215.787 39.581ZM215.787 38.861C216.081 38.861 216.357 38.792 216.615 38.654C216.873 38.516 217.08 38.309 217.236 38.033C217.398 37.757 217.479 37.421 217.479 37.025C217.479 36.629 217.401 36.293 217.245 36.017C217.089 35.741 216.885 35.537 216.633 35.405C216.381 35.267 216.108 35.198 215.814 35.198C215.514 35.198 215.238 35.267 214.986 35.405C214.74 35.537 214.542 35.741 214.392 36.017C214.242 36.293 214.167 36.629 214.167 37.025C214.167 37.427 214.239 37.766 214.383 38.042C214.533 38.318 214.731 38.525 214.977 38.663C215.223 38.795 215.493 38.861 215.787 38.861ZM223.767 34.568V39.5H222.948V38.771C222.792 39.023 222.573 39.221 222.291 39.365C222.015 39.503 221.709 39.572 221.373 39.572C220.989 39.572 220.644 39.494 220.338 39.338C220.032 39.176 219.789 38.936 219.609 38.618C219.435 38.3 219.348 37.913 219.348 37.457V34.568H220.158V37.349C220.158 37.835 220.281 38.21 220.527 38.474C220.773 38.732 221.109 38.861 221.535 38.861C221.973 38.861 222.318 38.726 222.57 38.456C222.822 38.186 222.948 37.793 222.948 37.277V34.568H223.767ZM225.969 35.369C226.113 35.087 226.317 34.868 226.581 34.712C226.851 34.556 227.178 34.478 227.562 34.478V35.324H227.346C226.428 35.324 225.969 35.822 225.969 36.818V39.5H225.15V34.568H225.969V35.369ZM231.726 35.477C231.888 35.195 232.128 34.961 232.446 34.775C232.77 34.583 233.145 34.487 233.571 34.487C234.009 34.487 234.405 34.592 234.759 34.802C235.119 35.012 235.401 35.309 235.605 35.693C235.809 36.071 235.911 36.512 235.911 37.016C235.911 37.514 235.809 37.958 235.605 38.348C235.401 38.738 235.119 39.041 234.759 39.257C234.405 39.473 234.009 39.581 233.571 39.581C233.151 39.581 232.779 39.488 232.455 39.302C232.137 39.11 231.894 38.873 231.726 38.591V41.84H230.907V34.568H231.726V35.477ZM235.074 37.016C235.074 36.644 234.999 36.32 234.849 36.044C234.699 35.768 234.495 35.558 234.237 35.414C233.985 35.27 233.706 35.198 233.4 35.198C233.1 35.198 232.821 35.273 232.563 35.423C232.311 35.567 232.107 35.78 231.951 36.062C231.801 36.338 231.726 36.659 231.726 37.025C231.726 37.397 231.801 37.724 231.951 38.006C232.107 38.282 232.311 38.495 232.563 38.645C232.821 38.789 233.1 38.861 233.4 38.861C233.706 38.861 233.985 38.789 234.237 38.645C234.495 38.495 234.699 38.282 234.849 38.006C234.999 37.724 235.074 37.394 235.074 37.016ZM239.437 34.478C239.809 34.478 240.145 34.559 240.445 34.721C240.745 34.877 240.979 35.114 241.147 35.432C241.321 35.75 241.408 36.137 241.408 36.593V39.5H240.598V36.71C240.598 36.218 240.475 35.843 240.229 35.585C239.983 35.321 239.647 35.189 239.221 35.189C238.789 35.189 238.444 35.324 238.186 35.594C237.934 35.864 237.808 36.257 237.808 36.773V39.5H236.989V32.84H237.808V35.27C237.97 35.018 238.192 34.823 238.474 34.685C238.762 34.547 239.083 34.478 239.437 34.478ZM242.44 37.016C242.44 36.512 242.542 36.071 242.746 35.693C242.95 35.309 243.229 35.012 243.583 34.802C243.943 34.592 244.342 34.487 244.78 34.487C245.212 34.487 245.587 34.58 245.905 34.766C246.223 34.952 246.46 35.186 246.616 35.468V34.568H247.444V39.5H246.616V38.582C246.454 38.87 246.211 39.11 245.887 39.302C245.569 39.488 245.197 39.581 244.771 39.581C244.333 39.581 243.937 39.473 243.583 39.257C243.229 39.041 242.95 38.738 242.746 38.348C242.542 37.958 242.44 37.514 242.44 37.016ZM246.616 37.025C246.616 36.653 246.541 36.329 246.391 36.053C246.241 35.777 246.037 35.567 245.779 35.423C245.527 35.273 245.248 35.198 244.942 35.198C244.636 35.198 244.357 35.27 244.105 35.414C243.853 35.558 243.652 35.768 243.502 36.044C243.352 36.32 243.277 36.644 243.277 37.016C243.277 37.394 243.352 37.724 243.502 38.006C243.652 38.282 243.853 38.495 244.105 38.645C244.357 38.789 244.636 38.861 244.942 38.861C245.248 38.861 245.527 38.789 245.779 38.645C246.037 38.495 246.241 38.282 246.391 38.006C246.541 37.724 246.616 37.397 246.616 37.025ZM250.574 39.581C250.196 39.581 249.857 39.518 249.557 39.392C249.257 39.26 249.02 39.08 248.846 38.852C248.672 38.618 248.576 38.351 248.558 38.051H249.404C249.428 38.297 249.542 38.498 249.746 38.654C249.956 38.81 250.229 38.888 250.565 38.888C250.877 38.888 251.123 38.819 251.303 38.681C251.483 38.543 251.573 38.369 251.573 38.159C251.573 37.943 251.477 37.784 251.285 37.682C251.093 37.574 250.796 37.469 250.394 37.367C250.028 37.271 249.728 37.175 249.494 37.079C249.266 36.977 249.068 36.83 248.9 36.638C248.738 36.44 248.657 36.182 248.657 35.864C248.657 35.612 248.732 35.381 248.882 35.171C249.032 34.961 249.245 34.796 249.521 34.676C249.797 34.55 250.112 34.487 250.466 34.487C251.012 34.487 251.453 34.625 251.789 34.901C252.125 35.177 252.305 35.555 252.329 36.035H251.51C251.492 35.777 251.387 35.57 251.195 35.414C251.009 35.258 250.757 35.18 250.439 35.18C250.145 35.18 249.911 35.243 249.737 35.369C249.563 35.495 249.476 35.66 249.476 35.864C249.476 36.026 249.527 36.161 249.629 36.269C249.737 36.371 249.869 36.455 250.025 36.521C250.187 36.581 250.409 36.65 250.691 36.728C251.045 36.824 251.333 36.92 251.555 37.016C251.777 37.106 251.966 37.244 252.122 37.43C252.284 37.616 252.368 37.859 252.374 38.159C252.374 38.429 252.299 38.672 252.149 38.888C251.999 39.104 251.786 39.275 251.51 39.401C251.24 39.521 250.928 39.581 250.574 39.581ZM258.03 36.845C258.03 37.001 258.021 37.166 258.003 37.34H254.061C254.091 37.826 254.256 38.207 254.556 38.483C254.862 38.753 255.231 38.888 255.663 38.888C256.017 38.888 256.311 38.807 256.545 38.645C256.785 38.477 256.953 38.255 257.049 37.979H257.931C257.799 38.453 257.535 38.84 257.139 39.14C256.743 39.434 256.251 39.581 255.663 39.581C255.195 39.581 254.775 39.476 254.403 39.266C254.037 39.056 253.749 38.759 253.539 38.375C253.329 37.985 253.224 37.535 253.224 37.025C253.224 36.515 253.326 36.068 253.53 35.684C253.734 35.3 254.019 35.006 254.385 34.802C254.757 34.592 255.183 34.487 255.663 34.487C256.131 34.487 256.545 34.589 256.905 34.793C257.265 34.997 257.541 35.279 257.733 35.639C257.931 35.993 258.03 36.395 258.03 36.845ZM257.184 36.674C257.184 36.362 257.115 36.095 256.977 35.873C256.839 35.645 256.65 35.474 256.41 35.36C256.176 35.24 255.915 35.18 255.627 35.18C255.213 35.18 254.859 35.312 254.565 35.576C254.277 35.84 254.112 36.206 254.07 36.674H257.184ZM259.372 39.554C259.216 39.554 259.084 39.5 258.976 39.392C258.868 39.284 258.814 39.152 258.814 38.996C258.814 38.84 258.868 38.708 258.976 38.6C259.084 38.492 259.216 38.438 259.372 38.438C259.522 38.438 259.648 38.492 259.75 38.6C259.858 38.708 259.912 38.84 259.912 38.996C259.912 39.152 259.858 39.284 259.75 39.392C259.648 39.5 259.522 39.554 259.372 39.554Z" fill="black"></path>
</g>
<defs>
<filter id="filter0_d_121_4276" x="0" y="0" width="284" height="66" filterUnits="userSpaceOnUse" color-interpolation-filters="sRGB">
<feFlood flood-opacity="0" result="BackgroundImageFix"></feFlood>
<feColorMatrix in="SourceAlpha" type="matrix" values="0 0 0 0 0 0 0 0 0 0 0 0 0 0 0 0 0 0 127 0" result="hardAlpha"></feColorMatrix>
<feOffset dy="4"></feOffset>
<feGaussianBlur stdDeviation="2"></feGaussianBlur>
<feComposite in2="hardAlpha" operator="out"></feComposite>
<feColorMatrix type="matrix" values="0 0 0 0 0 0 0 0 0 0 0 0 0 0 0 0 0 0 0.25 0"></feColorMatrix>
<feBlend mode="normal" in2="BackgroundImageFix" result="effect1_dropShadow_121_4276"></feBlend>
<feBlend mode="normal" in="SourceGraphic" in2="effect1_dropShadow_121_4276" result="shape"></feBlend>
</filter>
<linearGradient id="paint0_linear_121_4276" x1="4" y1="29" x2="280" y2="29" gradientUnits="userSpaceOnUse">
<stop stop-color="white"></stop>
</linearGradient>
</defs>
</svg>