<svg width="276" height="63" viewBox="0 0 276 63" fill="none" xmlns="http://www.w3.org/2000/svg">
<rect x="0.5" y="0.5" width="275" height="62" rx="14.5" fill="url(#paint0_linear_156_4072)"></rect>
<rect x="0.5" y="0.5" width="275" height="62" rx="14.5" stroke="#17A1FA"></rect>
<path d="M31.5 24.5C30.1155 24.5 28.7622 24.9105 27.611 25.6797C26.4599 26.4489 25.5627 27.5421 25.0328 28.8212C24.503 30.1003 24.3644 31.5078 24.6345 32.8656C24.9046 34.2235 25.5713 35.4708 26.5503 36.4497C27.5292 37.4287 28.7765 38.0954 30.1344 38.3655C31.4922 38.6356 32.8997 38.497 34.1788 37.9672C35.4579 37.4373 36.5511 36.5401 37.3203 35.389C38.0895 34.2378 38.5 32.8845 38.5 31.5C38.5 29.6435 37.7625 27.863 36.4497 26.5503C35.137 25.2375 33.3565 24.5 31.5 24.5ZM30.5 34.295L28 31.795L28.795 31L30.5 32.705L34.205 29L35.003 29.793L30.5 34.295Z" fill="#17A1FA"></path>
<path d="M50.012 11.727V18H49.193V11.727H50.012ZM53.5013 15.516C53.5013 15.012 53.6033 14.571 53.8073 14.193C54.0113 13.809 54.2903 13.512 54.6443 13.302C55.0043 13.092 55.4033 12.987 55.8413 12.987C56.2733 12.987 56.6483 13.08 56.9663 13.266C57.2843 13.452 57.5213 13.686 57.6773 13.968V13.068H58.5053V18H57.6773V17.082C57.5153 17.37 57.2723 17.61 56.9483 17.802C56.6303 17.988 56.2583 18.081 55.8323 18.081C55.3943 18.081 54.9983 17.973 54.6443 17.757C54.2903 17.541 54.0113 17.238 53.8073 16.848C53.6033 16.458 53.5013 16.014 53.5013 15.516ZM57.6773 15.525C57.6773 15.153 57.6023 14.829 57.4523 14.553C57.3023 14.277 57.0983 14.067 56.8403 13.923C56.5883 13.773 56.3093 13.698 56.0033 13.698C55.6973 13.698 55.4183 13.77 55.1663 13.914C54.9143 14.058 54.7133 14.268 54.5633 14.544C54.4133 14.82 54.3383 15.144 54.3383 15.516C54.3383 15.894 54.4133 16.224 54.5633 16.506C54.7133 16.782 54.9143 16.995 55.1663 17.145C55.4183 17.289 55.6973 17.361 56.0033 17.361C56.3093 17.361 56.5883 17.289 56.8403 17.145C57.0983 16.995 57.3023 16.782 57.4523 16.506C57.6023 16.224 57.6773 15.897 57.6773 15.525ZM61.9233 12.987C62.3493 12.987 62.7213 13.08 63.0393 13.266C63.3633 13.452 63.6033 13.686 63.7593 13.968V13.068H64.5873V18.108C64.5873 18.558 64.4913 18.957 64.2993 19.305C64.1073 19.659 63.8313 19.935 63.4713 20.133C63.1173 20.331 62.7033 20.43 62.2293 20.43C61.5813 20.43 61.0413 20.277 60.6093 19.971C60.1773 19.665 59.9223 19.248 59.8443 18.72H60.6543C60.7443 19.02 60.9303 19.26 61.2123 19.44C61.4943 19.626 61.8333 19.719 62.2293 19.719C62.6793 19.719 63.0453 19.578 63.3273 19.296C63.6153 19.014 63.7593 18.618 63.7593 18.108V17.073C63.5973 17.361 63.3573 17.601 63.0393 17.793C62.7213 17.985 62.3493 18.081 61.9233 18.081C61.4853 18.081 61.0863 17.973 60.7263 17.757C60.3723 17.541 60.0933 17.238 59.8893 16.848C59.6853 16.458 59.5833 16.014 59.5833 15.516C59.5833 15.012 59.6853 14.571 59.8893 14.193C60.0933 13.809 60.3723 13.512 60.7263 13.302C61.0863 13.092 61.4853 12.987 61.9233 12.987ZM63.7593 15.525C63.7593 15.153 63.6843 14.829 63.5343 14.553C63.3843 14.277 63.1803 14.067 62.9223 13.923C62.6703 13.773 62.3913 13.698 62.0853 13.698C61.7793 13.698 61.5003 13.77 61.2483 13.914C60.9963 14.058 60.7953 14.268 60.6453 14.544C60.4953 14.82 60.4203 15.144 60.4203 15.516C60.4203 15.894 60.4953 16.224 60.6453 16.506C60.7953 16.782 60.9963 16.995 61.2483 17.145C61.5003 17.289 61.7793 17.361 62.0853 17.361C62.3913 17.361 62.6703 17.289 62.9223 17.145C63.1803 16.995 63.3843 16.782 63.5343 16.506C63.6843 16.224 63.7593 15.897 63.7593 15.525ZM66.7903 13.869C66.9343 13.587 67.1383 13.368 67.4023 13.212C67.6723 13.056 67.9993 12.978 68.3833 12.978V13.824H68.1673C67.2493 13.824 66.7903 14.322 66.7903 15.318V18H65.9713V13.068H66.7903V13.869ZM73.8287 15.345C73.8287 15.501 73.8197 15.666 73.8017 15.84H69.8597C69.8897 16.326 70.0547 16.707 70.3547 16.983C70.6607 17.253 71.0297 17.388 71.4617 17.388C71.8157 17.388 72.1097 17.307 72.3437 17.145C72.5837 16.977 72.7517 16.755 72.8477 16.479H73.7297C73.5977 16.953 73.3337 17.34 72.9377 17.64C72.5417 17.934 72.0497 18.081 71.4617 18.081C70.9937 18.081 70.5737 17.976 70.2017 17.766C69.8357 17.556 69.5477 17.259 69.3377 16.875C69.1277 16.485 69.0227 16.035 69.0227 15.525C69.0227 15.015 69.1247 14.568 69.3287 14.184C69.5327 13.8 69.8177 13.506 70.1837 13.302C70.5557 13.092 70.9817 12.987 71.4617 12.987C71.9297 12.987 72.3437 13.089 72.7037 13.293C73.0637 13.497 73.3397 13.779 73.5317 14.139C73.7297 14.493 73.8287 14.895 73.8287 15.345ZM72.9827 15.174C72.9827 14.862 72.9137 14.595 72.7757 14.373C72.6377 14.145 72.4487 13.974 72.2087 13.86C71.9747 13.74 71.7137 13.68 71.4257 13.68C71.0117 13.68 70.6577 13.812 70.3637 14.076C70.0757 14.34 69.9107 14.706 69.8687 15.174H72.9827ZM79.4098 15.345C79.4098 15.501 79.4008 15.666 79.3828 15.84H75.4408C75.4708 16.326 75.6358 16.707 75.9358 16.983C76.2418 17.253 76.6108 17.388 77.0428 17.388C77.3968 17.388 77.6908 17.307 77.9248 17.145C78.1648 16.977 78.3328 16.755 78.4288 16.479H79.3108C79.1788 16.953 78.9148 17.34 78.5188 17.64C78.1228 17.934 77.6308 18.081 77.0428 18.081C76.5748 18.081 76.1548 17.976 75.7828 17.766C75.4168 17.556 75.1288 17.259 74.9188 16.875C74.7088 16.485 74.6038 16.035 74.6038 15.525C74.6038 15.015 74.7058 14.568 74.9098 14.184C75.1138 13.8 75.3988 13.506 75.7648 13.302C76.1368 13.092 76.5628 12.987 77.0428 12.987C77.5108 12.987 77.9248 13.089 78.2848 13.293C78.6448 13.497 78.9208 13.779 79.1128 14.139C79.3108 14.493 79.4098 14.895 79.4098 15.345ZM78.5638 15.174C78.5638 14.862 78.4948 14.595 78.3568 14.373C78.2188 14.145 78.0298 13.974 77.7898 13.86C77.5558 13.74 77.2948 13.68 77.0068 13.68C76.5928 13.68 76.2388 13.812 75.9448 14.076C75.6568 14.34 75.4918 14.706 75.4498 15.174H78.5638ZM83.8893 13.743V16.65C83.8893 16.89 83.9403 17.061 84.0423 17.163C84.1443 17.259 84.3213 17.307 84.5733 17.307H85.1763V18H84.4383C83.9823 18 83.6403 17.895 83.4123 17.685C83.1843 17.475 83.0703 17.13 83.0703 16.65V13.743H82.4313V13.068H83.0703V11.826H83.8893V13.068H85.1763V13.743H83.8893ZM88.3196 18.081C87.8576 18.081 87.4376 17.976 87.0596 17.766C86.6876 17.556 86.3936 17.259 86.1776 16.875C85.9676 16.485 85.8626 16.035 85.8626 15.525C85.8626 15.021 85.9706 14.577 86.1866 14.193C86.4086 13.803 86.7086 13.506 87.0866 13.302C87.4646 13.092 87.8876 12.987 88.3556 12.987C88.8236 12.987 89.2466 13.092 89.6246 13.302C90.0026 13.506 90.2996 13.8 90.5156 14.184C90.7376 14.568 90.8486 15.015 90.8486 15.525C90.8486 16.035 90.7346 16.485 90.5066 16.875C90.2846 17.259 89.9816 17.556 89.5976 17.766C89.2136 17.976 88.7876 18.081 88.3196 18.081ZM88.3196 17.361C88.6136 17.361 88.8896 17.292 89.1476 17.154C89.4056 17.016 89.6126 16.809 89.7686 16.533C89.9306 16.257 90.0116 15.921 90.0116 15.525C90.0116 15.129 89.9336 14.793 89.7776 14.517C89.6216 14.241 89.4176 14.037 89.1656 13.905C88.9136 13.767 88.6406 13.698 88.3466 13.698C88.0466 13.698 87.7706 13.767 87.5186 13.905C87.2726 14.037 87.0746 14.241 86.9246 14.517C86.7746 14.793 86.6996 15.129 86.6996 15.525C86.6996 15.927 86.7716 16.266 86.9156 16.542C87.0656 16.818 87.2636 17.025 87.5096 17.163C87.7556 17.295 88.0256 17.361 88.3196 17.361ZM99.2568 18H98.4378L95.1438 13.005V18H94.3248V11.718H95.1438L98.4378 16.704V11.718H99.2568V18ZM105.027 13.068V18H104.208V17.271C104.052 17.523 103.833 17.721 103.551 17.865C103.275 18.003 102.969 18.072 102.633 18.072C102.249 18.072 101.904 17.994 101.598 17.838C101.292 17.676 101.049 17.436 100.869 17.118C100.695 16.8 100.608 16.413 100.608 15.957V13.068H101.418V15.849C101.418 16.335 101.541 16.71 101.787 16.974C102.033 17.232 102.369 17.361 102.795 17.361C103.233 17.361 103.578 17.226 103.83 16.956C104.082 16.686 104.208 16.293 104.208 15.777V13.068H105.027ZM107.409 13.743V16.65C107.409 16.89 107.46 17.061 107.562 17.163C107.664 17.259 107.841 17.307 108.093 17.307H108.696V18H107.958C107.502 18 107.16 17.895 106.932 17.685C106.704 17.475 106.59 17.13 106.59 16.65V13.743H105.951V13.068H106.59V11.826H107.409V13.068H108.696V13.743H107.409ZM110.507 13.869C110.651 13.587 110.855 13.368 111.119 13.212C111.389 13.056 111.716 12.978 112.1 12.978V13.824H111.884C110.966 13.824 110.507 14.322 110.507 15.318V18H109.688V13.068H110.507V13.869ZM113.469 12.267C113.313 12.267 113.181 12.213 113.073 12.105C112.965 11.997 112.911 11.865 112.911 11.709C112.911 11.553 112.965 11.421 113.073 11.313C113.181 11.205 113.313 11.151 113.469 11.151C113.619 11.151 113.745 11.205 113.847 11.313C113.955 11.421 114.009 11.553 114.009 11.709C114.009 11.865 113.955 11.997 113.847 12.105C113.745 12.213 113.619 12.267 113.469 12.267ZM113.865 13.068V18H113.046V13.068H113.865ZM117.249 18.063C116.835 18.063 116.463 17.991 116.133 17.847C115.809 17.697 115.554 17.493 115.368 17.235C115.182 16.971 115.086 16.668 115.08 16.326H115.953C115.983 16.62 116.103 16.869 116.313 17.073C116.529 17.271 116.841 17.37 117.249 17.37C117.639 17.37 117.945 17.274 118.167 17.082C118.395 16.884 118.509 16.632 118.509 16.326C118.509 16.086 118.443 15.891 118.311 15.741C118.179 15.591 118.014 15.477 117.816 15.399C117.618 15.321 117.351 15.237 117.015 15.147C116.601 15.039 116.268 14.931 116.016 14.823C115.77 14.715 115.557 14.547 115.377 14.319C115.203 14.085 115.116 13.773 115.116 13.383C115.116 13.041 115.203 12.738 115.377 12.474C115.551 12.21 115.794 12.006 116.106 11.862C116.424 11.718 116.787 11.646 117.195 11.646C117.783 11.646 118.263 11.793 118.635 12.087C119.013 12.381 119.226 12.771 119.274 13.257H118.374C118.344 13.017 118.218 12.807 117.996 12.627C117.774 12.441 117.48 12.348 117.114 12.348C116.772 12.348 116.493 12.438 116.277 12.618C116.061 12.792 115.953 13.038 115.953 13.356C115.953 13.584 116.016 13.77 116.142 13.914C116.274 14.058 116.433 14.169 116.619 14.247C116.811 14.319 117.078 14.403 117.42 14.499C117.834 14.613 118.167 14.727 118.419 14.841C118.671 14.949 118.887 15.12 119.067 15.354C119.247 15.582 119.337 15.894 119.337 16.29C119.337 16.596 119.256 16.884 119.094 17.154C118.932 17.424 118.692 17.643 118.374 17.811C118.056 17.979 117.681 18.063 117.249 18.063ZM124.791 13.068L121.821 20.322H120.975L121.947 17.946L119.958 13.068H120.867L122.415 17.064L123.945 13.068H124.791ZM128.017 12.978C128.617 12.978 129.103 13.161 129.475 13.527C129.847 13.887 130.033 14.409 130.033 15.093V18H129.223V15.21C129.223 14.718 129.1 14.343 128.854 14.085C128.608 13.821 128.272 13.689 127.846 13.689C127.414 13.689 127.069 13.824 126.811 14.094C126.559 14.364 126.433 14.757 126.433 15.273V18H125.614V13.068H126.433V13.77C126.595 13.518 126.814 13.323 127.09 13.185C127.372 13.047 127.681 12.978 128.017 12.978ZM131.065 15.525C131.065 15.015 131.167 14.571 131.371 14.193C131.575 13.809 131.857 13.512 132.217 13.302C132.583 13.092 133 12.987 133.468 12.987C134.074 12.987 134.572 13.134 134.962 13.428C135.358 13.722 135.619 14.13 135.745 14.652H134.863C134.779 14.352 134.614 14.115 134.368 13.941C134.128 13.767 133.828 13.68 133.468 13.68C133 13.68 132.622 13.842 132.334 14.166C132.046 14.484 131.902 14.937 131.902 15.525C131.902 16.119 132.046 16.578 132.334 16.902C132.622 17.226 133 17.388 133.468 17.388C133.828 17.388 134.128 17.304 134.368 17.136C134.608 16.968 134.773 16.728 134.863 16.416H135.745C135.613 16.92 135.349 17.325 134.953 17.631C134.557 17.931 134.062 18.081 133.468 18.081C133 18.081 132.583 17.976 132.217 17.766C131.857 17.556 131.575 17.259 131.371 16.875C131.167 16.491 131.065 16.041 131.065 15.525ZM136.964 11.727H137.873L137.009 13.77H136.433L136.964 11.727ZM140.552 18.081C140.174 18.081 139.835 18.018 139.535 17.892C139.235 17.76 138.998 17.58 138.824 17.352C138.65 17.118 138.554 16.851 138.536 16.551H139.382C139.406 16.797 139.52 16.998 139.724 17.154C139.934 17.31 140.207 17.388 140.543 17.388C140.855 17.388 141.101 17.319 141.281 17.181C141.461 17.043 141.551 16.869 141.551 16.659C141.551 16.443 141.455 16.284 141.263 16.182C141.071 16.074 140.774 15.969 140.372 15.867C140.006 15.771 139.706 15.675 139.472 15.579C139.244 15.477 139.046 15.33 138.878 15.138C138.716 14.94 138.635 14.682 138.635 14.364C138.635 14.112 138.71 13.881 138.86 13.671C139.01 13.461 139.223 13.296 139.499 13.176C139.775 13.05 140.09 12.987 140.444 12.987C140.99 12.987 141.431 13.125 141.767 13.401C142.103 13.677 142.283 14.055 142.307 14.535H141.488C141.47 14.277 141.365 14.07 141.173 13.914C140.987 13.758 140.735 13.68 140.417 13.68C140.123 13.68 139.889 13.743 139.715 13.869C139.541 13.995 139.454 14.16 139.454 14.364C139.454 14.526 139.505 14.661 139.607 14.769C139.715 14.871 139.847 14.955 140.003 15.021C140.165 15.081 140.387 15.15 140.669 15.228C141.023 15.324 141.311 15.42 141.533 15.516C141.755 15.606 141.944 15.744 142.1 15.93C142.262 16.116 142.346 16.359 142.352 16.659C142.352 16.929 142.277 17.172 142.127 17.388C141.977 17.604 141.764 17.775 141.488 17.901C141.218 18.021 140.906 18.081 140.552 18.081ZM208.786 15.516C208.786 15.012 208.888 14.571 209.092 14.193C209.296 13.809 209.575 13.512 209.929 13.302C210.289 13.092 210.688 12.987 211.126 12.987C211.558 12.987 211.933 13.08 212.251 13.266C212.569 13.452 212.806 13.686 212.962 13.968V13.068H213.79V18H212.962V17.082C212.8 17.37 212.557 17.61 212.233 17.802C211.915 17.988 211.543 18.081 211.117 18.081C210.679 18.081 210.283 17.973 209.929 17.757C209.575 17.541 209.296 17.238 209.092 16.848C208.888 16.458 208.786 16.014 208.786 15.516ZM212.962 15.525C212.962 15.153 212.887 14.829 212.737 14.553C212.587 14.277 212.383 14.067 212.125 13.923C211.873 13.773 211.594 13.698 211.288 13.698C210.982 13.698 210.703 13.77 210.451 13.914C210.199 14.058 209.998 14.268 209.848 14.544C209.698 14.82 209.623 15.144 209.623 15.516C209.623 15.894 209.698 16.224 209.848 16.506C209.998 16.782 210.199 16.995 210.451 17.145C210.703 17.289 210.982 17.361 211.288 17.361C211.594 17.361 211.873 17.289 212.125 17.145C212.383 16.995 212.587 16.782 212.737 16.506C212.887 16.224 212.962 15.897 212.962 15.525ZM217.577 12.978C218.177 12.978 218.663 13.161 219.035 13.527C219.407 13.887 219.593 14.409 219.593 15.093V18H218.783V15.21C218.783 14.718 218.66 14.343 218.414 14.085C218.168 13.821 217.832 13.689 217.406 13.689C216.974 13.689 216.629 13.824 216.371 14.094C216.119 14.364 215.993 14.757 215.993 15.273V18H215.174V13.068H215.993V13.77C216.155 13.518 216.374 13.323 216.65 13.185C216.932 13.047 217.241 12.978 217.577 12.978ZM220.625 15.516C220.625 15.012 220.727 14.571 220.931 14.193C221.135 13.809 221.414 13.512 221.768 13.302C222.128 13.092 222.53 12.987 222.974 12.987C223.358 12.987 223.715 13.077 224.045 13.257C224.375 13.431 224.627 13.662 224.801 13.95V11.34H225.629V18H224.801V17.073C224.639 17.367 224.399 17.61 224.081 17.802C223.763 17.988 223.391 18.081 222.965 18.081C222.527 18.081 222.128 17.973 221.768 17.757C221.414 17.541 221.135 17.238 220.931 16.848C220.727 16.458 220.625 16.014 220.625 15.516ZM224.801 15.525C224.801 15.153 224.726 14.829 224.576 14.553C224.426 14.277 224.222 14.067 223.964 13.923C223.712 13.773 223.433 13.698 223.127 13.698C222.821 13.698 222.542 13.77 222.29 13.914C222.038 14.058 221.837 14.268 221.687 14.544C221.537 14.82 221.462 15.144 221.462 15.516C221.462 15.894 221.537 16.224 221.687 16.506C221.837 16.782 222.038 16.995 222.29 17.145C222.542 17.289 222.821 17.361 223.127 17.361C223.433 17.361 223.712 17.289 223.964 17.145C224.222 16.995 224.426 16.782 224.576 16.506C224.726 16.224 224.801 15.897 224.801 15.525ZM80.8528 26.516C80.8528 26.012 80.9548 25.571 81.1588 25.193C81.3628 24.809 81.6418 24.512 81.9958 24.302C82.3558 24.092 82.7548 23.987 83.1928 23.987C83.6248 23.987 83.9998 24.08 84.3178 24.266C84.6358 24.452 84.8728 24.686 85.0288 24.968V24.068H85.8568V29H85.0288V28.082C84.8668 28.37 84.6238 28.61 84.2998 28.802C83.9818 28.988 83.6098 29.081 83.1838 29.081C82.7458 29.081 82.3498 28.973 81.9958 28.757C81.6418 28.541 81.3628 28.238 81.1588 27.848C80.9548 27.458 80.8528 27.014 80.8528 26.516ZM85.0288 26.525C85.0288 26.153 84.9538 25.829 84.8038 25.553C84.6538 25.277 84.4498 25.067 84.1918 24.923C83.9398 24.773 83.6608 24.698 83.3548 24.698C83.0488 24.698 82.7698 24.77 82.5178 24.914C82.2658 25.058 82.0648 25.268 81.9148 25.544C81.7648 25.82 81.6898 26.144 81.6898 26.516C81.6898 26.894 81.7648 27.224 81.9148 27.506C82.0648 27.782 82.2658 27.995 82.5178 28.145C82.7698 28.289 83.0488 28.361 83.3548 28.361C83.6608 28.361 83.9398 28.289 84.1918 28.145C84.4498 27.995 84.6538 27.782 84.8038 27.506C84.9538 27.224 85.0288 26.897 85.0288 26.525ZM89.6439 23.978C90.2439 23.978 90.7299 24.161 91.1019 24.527C91.4739 24.887 91.6599 25.409 91.6599 26.093V29H90.8499V26.21C90.8499 25.718 90.7269 25.343 90.4809 25.085C90.2349 24.821 89.8989 24.689 89.4729 24.689C89.0409 24.689 88.6959 24.824 88.4379 25.094C88.1859 25.364 88.0599 25.757 88.0599 26.273V29H87.2409V24.068H88.0599V24.77C88.2219 24.518 88.4409 24.323 88.7169 24.185C88.9989 24.047 89.3079 23.978 89.6439 23.978ZM92.6917 26.516C92.6917 26.012 92.7937 25.571 92.9977 25.193C93.2017 24.809 93.4807 24.512 93.8347 24.302C94.1947 24.092 94.5967 23.987 95.0407 23.987C95.4247 23.987 95.7817 24.077 96.1117 24.257C96.4417 24.431 96.6937 24.662 96.8677 24.95V22.34H97.6957V29H96.8677V28.073C96.7057 28.367 96.4657 28.61 96.1477 28.802C95.8297 28.988 95.4577 29.081 95.0317 29.081C94.5937 29.081 94.1947 28.973 93.8347 28.757C93.4807 28.541 93.2017 28.238 92.9977 27.848C92.7937 27.458 92.6917 27.014 92.6917 26.516ZM96.8677 26.525C96.8677 26.153 96.7927 25.829 96.6427 25.553C96.4927 25.277 96.2887 25.067 96.0307 24.923C95.7787 24.773 95.4997 24.698 95.1937 24.698C94.8877 24.698 94.6087 24.77 94.3567 24.914C94.1047 25.058 93.9037 25.268 93.7537 25.544C93.6037 25.82 93.5287 26.144 93.5287 26.516C93.5287 26.894 93.6037 27.224 93.7537 27.506C93.9037 27.782 94.1047 27.995 94.3567 28.145C94.6087 28.289 94.8877 28.361 95.1937 28.361C95.4997 28.361 95.7787 28.289 96.0307 28.145C96.2887 27.995 96.4927 27.782 96.6427 27.506C96.7927 27.224 96.8677 26.897 96.8677 26.525ZM101.173 26.525C101.173 26.015 101.275 25.571 101.479 25.193C101.683 24.809 101.965 24.512 102.325 24.302C102.691 24.092 103.108 23.987 103.576 23.987C104.182 23.987 104.68 24.134 105.07 24.428C105.466 24.722 105.727 25.13 105.853 25.652H104.971C104.887 25.352 104.722 25.115 104.476 24.941C104.236 24.767 103.936 24.68 103.576 24.68C103.108 24.68 102.73 24.842 102.442 25.166C102.154 25.484 102.01 25.937 102.01 26.525C102.01 27.119 102.154 27.578 102.442 27.902C102.73 28.226 103.108 28.388 103.576 28.388C103.936 28.388 104.236 28.304 104.476 28.136C104.716 27.968 104.881 27.728 104.971 27.416H105.853C105.721 27.92 105.457 28.325 105.061 28.631C104.665 28.931 104.17 29.081 103.576 29.081C103.108 29.081 102.691 28.976 102.325 28.766C101.965 28.556 101.683 28.259 101.479 27.875C101.275 27.491 101.173 27.041 101.173 26.525ZM109.097 29.081C108.635 29.081 108.215 28.976 107.837 28.766C107.465 28.556 107.171 28.259 106.955 27.875C106.745 27.485 106.64 27.035 106.64 26.525C106.64 26.021 106.748 25.577 106.964 25.193C107.186 24.803 107.486 24.506 107.864 24.302C108.242 24.092 108.665 23.987 109.133 23.987C109.601 23.987 110.024 24.092 110.402 24.302C110.78 24.506 111.077 24.8 111.293 25.184C111.515 25.568 111.626 26.015 111.626 26.525C111.626 27.035 111.512 27.485 111.284 27.875C111.062 28.259 110.759 28.556 110.375 28.766C109.991 28.976 109.565 29.081 109.097 29.081ZM109.097 28.361C109.391 28.361 109.667 28.292 109.925 28.154C110.183 28.016 110.39 27.809 110.546 27.533C110.708 27.257 110.789 26.921 110.789 26.525C110.789 26.129 110.711 25.793 110.555 25.517C110.399 25.241 110.195 25.037 109.943 24.905C109.691 24.767 109.418 24.698 109.124 24.698C108.824 24.698 108.548 24.767 108.296 24.905C108.05 25.037 107.852 25.241 107.702 25.517C107.552 25.793 107.477 26.129 107.477 26.525C107.477 26.927 107.549 27.266 107.693 27.542C107.843 27.818 108.041 28.025 108.287 28.163C108.533 28.295 108.803 28.361 109.097 28.361ZM115.106 23.978C115.706 23.978 116.192 24.161 116.564 24.527C116.936 24.887 117.122 25.409 117.122 26.093V29H116.312V26.21C116.312 25.718 116.189 25.343 115.943 25.085C115.697 24.821 115.361 24.689 114.935 24.689C114.503 24.689 114.158 24.824 113.9 25.094C113.648 25.364 113.522 25.757 113.522 26.273V29H112.703V24.068H113.522V24.77C113.684 24.518 113.903 24.323 114.179 24.185C114.461 24.047 114.77 23.978 115.106 23.978ZM120.206 29.081C119.828 29.081 119.489 29.018 119.189 28.892C118.889 28.76 118.652 28.58 118.478 28.352C118.304 28.118 118.208 27.851 118.19 27.551H119.036C119.06 27.797 119.174 27.998 119.378 28.154C119.588 28.31 119.861 28.388 120.197 28.388C120.509 28.388 120.755 28.319 120.935 28.181C121.115 28.043 121.205 27.869 121.205 27.659C121.205 27.443 121.109 27.284 120.917 27.182C120.725 27.074 120.428 26.969 120.026 26.867C119.66 26.771 119.36 26.675 119.126 26.579C118.898 26.477 118.7 26.33 118.532 26.138C118.37 25.94 118.289 25.682 118.289 25.364C118.289 25.112 118.364 24.881 118.514 24.671C118.664 24.461 118.877 24.296 119.153 24.176C119.429 24.05 119.744 23.987 120.098 23.987C120.644 23.987 121.085 24.125 121.421 24.401C121.757 24.677 121.937 25.055 121.961 25.535H121.142C121.124 25.277 121.019 25.07 120.827 24.914C120.641 24.758 120.389 24.68 120.071 24.68C119.777 24.68 119.543 24.743 119.369 24.869C119.195 24.995 119.108 25.16 119.108 25.364C119.108 25.526 119.159 25.661 119.261 25.769C119.369 25.871 119.501 25.955 119.657 26.021C119.819 26.081 120.041 26.15 120.323 26.228C120.677 26.324 120.965 26.42 121.187 26.516C121.409 26.606 121.598 26.744 121.754 26.93C121.916 27.116 122 27.359 122.006 27.659C122.006 27.929 121.931 28.172 121.781 28.388C121.631 28.604 121.418 28.775 121.142 28.901C120.872 29.021 120.56 29.081 120.206 29.081ZM127.662 26.345C127.662 26.501 127.653 26.666 127.635 26.84H123.693C123.723 27.326 123.888 27.707 124.188 27.983C124.494 28.253 124.863 28.388 125.295 28.388C125.649 28.388 125.943 28.307 126.177 28.145C126.417 27.977 126.585 27.755 126.681 27.479H127.563C127.431 27.953 127.167 28.34 126.771 28.64C126.375 28.934 125.883 29.081 125.295 29.081C124.827 29.081 124.407 28.976 124.035 28.766C123.669 28.556 123.381 28.259 123.171 27.875C122.961 27.485 122.856 27.035 122.856 26.525C122.856 26.015 122.958 25.568 123.162 25.184C123.366 24.8 123.651 24.506 124.017 24.302C124.389 24.092 124.815 23.987 125.295 23.987C125.763 23.987 126.177 24.089 126.537 24.293C126.897 24.497 127.173 24.779 127.365 25.139C127.563 25.493 127.662 25.895 127.662 26.345ZM126.816 26.174C126.816 25.862 126.747 25.595 126.609 25.373C126.471 25.145 126.282 24.974 126.042 24.86C125.808 24.74 125.547 24.68 125.259 24.68C124.845 24.68 124.491 24.812 124.197 25.076C123.909 25.34 123.744 25.706 123.702 26.174H126.816ZM131.146 23.978C131.746 23.978 132.232 24.161 132.604 24.527C132.976 24.887 133.162 25.409 133.162 26.093V29H132.352V26.21C132.352 25.718 132.229 25.343 131.983 25.085C131.737 24.821 131.401 24.689 130.975 24.689C130.543 24.689 130.198 24.824 129.94 25.094C129.688 25.364 129.562 25.757 129.562 26.273V29H128.743V24.068H129.562V24.77C129.724 24.518 129.943 24.323 130.219 24.185C130.501 24.047 130.81 23.978 131.146 23.978ZM135.499 24.743V27.65C135.499 27.89 135.55 28.061 135.652 28.163C135.754 28.259 135.931 28.307 136.183 28.307H136.786V29H136.048C135.592 29 135.25 28.895 135.022 28.685C134.794 28.475 134.68 28.13 134.68 27.65V24.743H134.041V24.068H134.68V22.826H135.499V24.068H136.786V24.743H135.499ZM141.176 24.743V27.65C141.176 27.89 141.227 28.061 141.329 28.163C141.431 28.259 141.608 28.307 141.86 28.307H142.463V29H141.725C141.269 29 140.927 28.895 140.699 28.685C140.471 28.475 140.357 28.13 140.357 27.65V24.743H139.718V24.068H140.357V22.826H141.176V24.068H142.463V24.743H141.176ZM145.607 29.081C145.145 29.081 144.725 28.976 144.347 28.766C143.975 28.556 143.681 28.259 143.465 27.875C143.255 27.485 143.15 27.035 143.15 26.525C143.15 26.021 143.258 25.577 143.474 25.193C143.696 24.803 143.996 24.506 144.374 24.302C144.752 24.092 145.175 23.987 145.643 23.987C146.111 23.987 146.534 24.092 146.912 24.302C147.29 24.506 147.587 24.8 147.803 25.184C148.025 25.568 148.136 26.015 148.136 26.525C148.136 27.035 148.022 27.485 147.794 27.875C147.572 28.259 147.269 28.556 146.885 28.766C146.501 28.976 146.075 29.081 145.607 29.081ZM145.607 28.361C145.901 28.361 146.177 28.292 146.435 28.154C146.693 28.016 146.9 27.809 147.056 27.533C147.218 27.257 147.299 26.921 147.299 26.525C147.299 26.129 147.221 25.793 147.065 25.517C146.909 25.241 146.705 25.037 146.453 24.905C146.201 24.767 145.928 24.698 145.634 24.698C145.334 24.698 145.058 24.767 144.806 24.905C144.56 25.037 144.362 25.241 144.212 25.517C144.062 25.793 143.987 26.129 143.987 26.525C143.987 26.927 144.059 27.266 144.203 27.542C144.353 27.818 144.551 28.025 144.797 28.163C145.043 28.295 145.313 28.361 145.607 28.361ZM152.611 24.743V27.65C152.611 27.89 152.662 28.061 152.764 28.163C152.866 28.259 153.043 28.307 153.295 28.307H153.898V29H153.16C152.704 29 152.362 28.895 152.134 28.685C151.906 28.475 151.792 28.13 151.792 27.65V24.743H151.153V24.068H151.792V22.826H152.611V24.068H153.898V24.743H152.611ZM157.338 23.978C157.71 23.978 158.046 24.059 158.346 24.221C158.646 24.377 158.88 24.614 159.048 24.932C159.222 25.25 159.309 25.637 159.309 26.093V29H158.499V26.21C158.499 25.718 158.376 25.343 158.13 25.085C157.884 24.821 157.548 24.689 157.122 24.689C156.69 24.689 156.345 24.824 156.087 25.094C155.835 25.364 155.709 25.757 155.709 26.273V29H154.89V22.34H155.709V24.77C155.871 24.518 156.093 24.323 156.375 24.185C156.663 24.047 156.984 23.978 157.338 23.978ZM165.147 26.345C165.147 26.501 165.138 26.666 165.12 26.84H161.178C161.208 27.326 161.373 27.707 161.673 27.983C161.979 28.253 162.348 28.388 162.78 28.388C163.134 28.388 163.428 28.307 163.662 28.145C163.902 27.977 164.07 27.755 164.166 27.479H165.048C164.916 27.953 164.652 28.34 164.256 28.64C163.86 28.934 163.368 29.081 162.78 29.081C162.312 29.081 161.892 28.976 161.52 28.766C161.154 28.556 160.866 28.259 160.656 27.875C160.446 27.485 160.341 27.035 160.341 26.525C160.341 26.015 160.443 25.568 160.647 25.184C160.851 24.8 161.136 24.506 161.502 24.302C161.874 24.092 162.3 23.987 162.78 23.987C163.248 23.987 163.662 24.089 164.022 24.293C164.382 24.497 164.658 24.779 164.85 25.139C165.048 25.493 165.147 25.895 165.147 26.345ZM164.301 26.174C164.301 25.862 164.232 25.595 164.094 25.373C163.956 25.145 163.767 24.974 163.527 24.86C163.293 24.74 163.032 24.68 162.744 24.68C162.33 24.68 161.976 24.812 161.682 25.076C161.394 25.34 161.229 25.706 161.187 26.174H164.301ZM169.447 24.977C169.609 24.695 169.849 24.461 170.167 24.275C170.491 24.083 170.866 23.987 171.292 23.987C171.73 23.987 172.126 24.092 172.48 24.302C172.84 24.512 173.122 24.809 173.326 25.193C173.53 25.571 173.632 26.012 173.632 26.516C173.632 27.014 173.53 27.458 173.326 27.848C173.122 28.238 172.84 28.541 172.48 28.757C172.126 28.973 171.73 29.081 171.292 29.081C170.872 29.081 170.5 28.988 170.176 28.802C169.858 28.61 169.615 28.373 169.447 28.091V31.34H168.628V24.068H169.447V24.977ZM172.795 26.516C172.795 26.144 172.72 25.82 172.57 25.544C172.42 25.268 172.216 25.058 171.958 24.914C171.706 24.77 171.427 24.698 171.121 24.698C170.821 24.698 170.542 24.773 170.284 24.923C170.032 25.067 169.828 25.28 169.672 25.562C169.522 25.838 169.447 26.159 169.447 26.525C169.447 26.897 169.522 27.224 169.672 27.506C169.828 27.782 170.032 27.995 170.284 28.145C170.542 28.289 170.821 28.361 171.121 28.361C171.427 28.361 171.706 28.289 171.958 28.145C172.216 27.995 172.42 27.782 172.57 27.506C172.72 27.224 172.795 26.894 172.795 26.516ZM175.529 24.869C175.673 24.587 175.877 24.368 176.141 24.212C176.411 24.056 176.738 23.978 177.122 23.978V24.824H176.906C175.988 24.824 175.529 25.322 175.529 26.318V29H174.71V24.068H175.529V24.869ZM180.218 29.081C179.756 29.081 179.336 28.976 178.958 28.766C178.586 28.556 178.292 28.259 178.076 27.875C177.866 27.485 177.761 27.035 177.761 26.525C177.761 26.021 177.869 25.577 178.085 25.193C178.307 24.803 178.607 24.506 178.985 24.302C179.363 24.092 179.786 23.987 180.254 23.987C180.722 23.987 181.145 24.092 181.523 24.302C181.901 24.506 182.198 24.8 182.414 25.184C182.636 25.568 182.747 26.015 182.747 26.525C182.747 27.035 182.633 27.485 182.405 27.875C182.183 28.259 181.88 28.556 181.496 28.766C181.112 28.976 180.686 29.081 180.218 29.081ZM180.218 28.361C180.512 28.361 180.788 28.292 181.046 28.154C181.304 28.016 181.511 27.809 181.667 27.533C181.829 27.257 181.91 26.921 181.91 26.525C181.91 26.129 181.832 25.793 181.676 25.517C181.52 25.241 181.316 25.037 181.064 24.905C180.812 24.767 180.539 24.698 180.245 24.698C179.945 24.698 179.669 24.767 179.417 24.905C179.171 25.037 178.973 25.241 178.823 25.517C178.673 25.793 178.598 26.129 178.598 26.525C178.598 26.927 178.67 27.266 178.814 27.542C178.964 27.818 179.162 28.025 179.408 28.163C179.654 28.295 179.924 28.361 180.218 28.361ZM183.518 26.525C183.518 26.015 183.62 25.571 183.824 25.193C184.028 24.809 184.31 24.512 184.67 24.302C185.036 24.092 185.453 23.987 185.921 23.987C186.527 23.987 187.025 24.134 187.415 24.428C187.811 24.722 188.072 25.13 188.198 25.652H187.316C187.232 25.352 187.067 25.115 186.821 24.941C186.581 24.767 186.281 24.68 185.921 24.68C185.453 24.68 185.075 24.842 184.787 25.166C184.499 25.484 184.355 25.937 184.355 26.525C184.355 27.119 184.499 27.578 184.787 27.902C185.075 28.226 185.453 28.388 185.921 28.388C186.281 28.388 186.581 28.304 186.821 28.136C187.061 27.968 187.226 27.728 187.316 27.416H188.198C188.066 27.92 187.802 28.325 187.406 28.631C187.01 28.931 186.515 29.081 185.921 29.081C185.453 29.081 185.036 28.976 184.67 28.766C184.31 28.556 184.028 28.259 183.824 27.875C183.62 27.491 183.518 27.041 183.518 26.525ZM193.791 26.345C193.791 26.501 193.782 26.666 193.764 26.84H189.822C189.852 27.326 190.017 27.707 190.317 27.983C190.623 28.253 190.992 28.388 191.424 28.388C191.778 28.388 192.072 28.307 192.306 28.145C192.546 27.977 192.714 27.755 192.81 27.479H193.692C193.56 27.953 193.296 28.34 192.9 28.64C192.504 28.934 192.012 29.081 191.424 29.081C190.956 29.081 190.536 28.976 190.164 28.766C189.798 28.556 189.51 28.259 189.3 27.875C189.09 27.485 188.985 27.035 188.985 26.525C188.985 26.015 189.087 25.568 189.291 25.184C189.495 24.8 189.78 24.506 190.146 24.302C190.518 24.092 190.944 23.987 191.424 23.987C191.892 23.987 192.306 24.089 192.666 24.293C193.026 24.497 193.302 24.779 193.494 25.139C193.692 25.493 193.791 25.895 193.791 26.345ZM192.945 26.174C192.945 25.862 192.876 25.595 192.738 25.373C192.6 25.145 192.411 24.974 192.171 24.86C191.937 24.74 191.676 24.68 191.388 24.68C190.974 24.68 190.62 24.812 190.326 25.076C190.038 25.34 189.873 25.706 189.831 26.174H192.945ZM196.618 29.081C196.24 29.081 195.901 29.018 195.601 28.892C195.301 28.76 195.064 28.58 194.89 28.352C194.716 28.118 194.62 27.851 194.602 27.551H195.448C195.472 27.797 195.586 27.998 195.79 28.154C196 28.31 196.273 28.388 196.609 28.388C196.921 28.388 197.167 28.319 197.347 28.181C197.527 28.043 197.617 27.869 197.617 27.659C197.617 27.443 197.521 27.284 197.329 27.182C197.137 27.074 196.84 26.969 196.438 26.867C196.072 26.771 195.772 26.675 195.538 26.579C195.31 26.477 195.112 26.33 194.944 26.138C194.782 25.94 194.701 25.682 194.701 25.364C194.701 25.112 194.776 24.881 194.926 24.671C195.076 24.461 195.289 24.296 195.565 24.176C195.841 24.05 196.156 23.987 196.51 23.987C197.056 23.987 197.497 24.125 197.833 24.401C198.169 24.677 198.349 25.055 198.373 25.535H197.554C197.536 25.277 197.431 25.07 197.239 24.914C197.053 24.758 196.801 24.68 196.483 24.68C196.189 24.68 195.955 24.743 195.781 24.869C195.607 24.995 195.52 25.16 195.52 25.364C195.52 25.526 195.571 25.661 195.673 25.769C195.781 25.871 195.913 25.955 196.069 26.021C196.231 26.081 196.453 26.15 196.735 26.228C197.089 26.324 197.377 26.42 197.599 26.516C197.821 26.606 198.01 26.744 198.166 26.93C198.328 27.116 198.412 27.359 198.418 27.659C198.418 27.929 198.343 28.172 198.193 28.388C198.043 28.604 197.83 28.775 197.554 28.901C197.284 29.021 196.972 29.081 196.618 29.081ZM201.32 29.081C200.942 29.081 200.603 29.018 200.303 28.892C200.003 28.76 199.766 28.58 199.592 28.352C199.418 28.118 199.322 27.851 199.304 27.551H200.15C200.174 27.797 200.288 27.998 200.492 28.154C200.702 28.31 200.975 28.388 201.311 28.388C201.623 28.388 201.869 28.319 202.049 28.181C202.229 28.043 202.319 27.869 202.319 27.659C202.319 27.443 202.223 27.284 202.031 27.182C201.839 27.074 201.542 26.969 201.14 26.867C200.774 26.771 200.474 26.675 200.24 26.579C200.012 26.477 199.814 26.33 199.646 26.138C199.484 25.94 199.403 25.682 199.403 25.364C199.403 25.112 199.478 24.881 199.628 24.671C199.778 24.461 199.991 24.296 200.267 24.176C200.543 24.05 200.858 23.987 201.212 23.987C201.758 23.987 202.199 24.125 202.535 24.401C202.871 24.677 203.051 25.055 203.075 25.535H202.256C202.238 25.277 202.133 25.07 201.941 24.914C201.755 24.758 201.503 24.68 201.185 24.68C200.891 24.68 200.657 24.743 200.483 24.869C200.309 24.995 200.222 25.16 200.222 25.364C200.222 25.526 200.273 25.661 200.375 25.769C200.483 25.871 200.615 25.955 200.771 26.021C200.933 26.081 201.155 26.15 201.437 26.228C201.791 26.324 202.079 26.42 202.301 26.516C202.523 26.606 202.712 26.744 202.868 26.93C203.03 27.116 203.114 27.359 203.12 27.659C203.12 27.929 203.045 28.172 202.895 28.388C202.745 28.604 202.532 28.775 202.256 28.901C201.986 29.021 201.674 29.081 201.32 29.081ZM204.699 23.267C204.543 23.267 204.411 23.213 204.303 23.105C204.195 22.997 204.141 22.865 204.141 22.709C204.141 22.553 204.195 22.421 204.303 22.313C204.411 22.205 204.543 22.151 204.699 22.151C204.849 22.151 204.975 22.205 205.077 22.313C205.185 22.421 205.239 22.553 205.239 22.709C205.239 22.865 205.185 22.997 205.077 23.105C204.975 23.213 204.849 23.267 204.699 23.267ZM205.095 24.068V29H204.276V24.068H205.095ZM208.894 23.978C209.494 23.978 209.98 24.161 210.352 24.527C210.724 24.887 210.91 25.409 210.91 26.093V29H210.1V26.21C210.1 25.718 209.977 25.343 209.731 25.085C209.485 24.821 209.149 24.689 208.723 24.689C208.291 24.689 207.946 24.824 207.688 25.094C207.436 25.364 207.31 25.757 207.31 26.273V29H206.491V24.068H207.31V24.77C207.472 24.518 207.691 24.323 207.967 24.185C208.249 24.047 208.558 23.978 208.894 23.978ZM214.282 23.987C214.708 23.987 215.08 24.08 215.398 24.266C215.722 24.452 215.962 24.686 216.118 24.968V24.068H216.946V29.108C216.946 29.558 216.85 29.957 216.658 30.305C216.466 30.659 216.19 30.935 215.83 31.133C215.476 31.331 215.062 31.43 214.588 31.43C213.94 31.43 213.4 31.277 212.968 30.971C212.536 30.665 212.281 30.248 212.203 29.72H213.013C213.103 30.02 213.289 30.26 213.571 30.44C213.853 30.626 214.192 30.719 214.588 30.719C215.038 30.719 215.404 30.578 215.686 30.296C215.974 30.014 216.118 29.618 216.118 29.108V28.073C215.956 28.361 215.716 28.601 215.398 28.793C215.08 28.985 214.708 29.081 214.282 29.081C213.844 29.081 213.445 28.973 213.085 28.757C212.731 28.541 212.452 28.238 212.248 27.848C212.044 27.458 211.942 27.014 211.942 26.516C211.942 26.012 212.044 25.571 212.248 25.193C212.452 24.809 212.731 24.512 213.085 24.302C213.445 24.092 213.844 23.987 214.282 23.987ZM216.118 26.525C216.118 26.153 216.043 25.829 215.893 25.553C215.743 25.277 215.539 25.067 215.281 24.923C215.029 24.773 214.75 24.698 214.444 24.698C214.138 24.698 213.859 24.77 213.607 24.914C213.355 25.058 213.154 25.268 213.004 25.544C212.854 25.82 212.779 26.144 212.779 26.516C212.779 26.894 212.854 27.224 213.004 27.506C213.154 27.782 213.355 27.995 213.607 28.145C213.859 28.289 214.138 28.361 214.444 28.361C214.75 28.361 215.029 28.289 215.281 28.145C215.539 27.995 215.743 27.782 215.893 27.506C216.043 27.224 216.118 26.897 216.118 26.525ZM222.88 29.081C222.418 29.081 221.998 28.976 221.62 28.766C221.248 28.556 220.954 28.259 220.738 27.875C220.528 27.485 220.423 27.035 220.423 26.525C220.423 26.021 220.531 25.577 220.747 25.193C220.969 24.803 221.269 24.506 221.647 24.302C222.025 24.092 222.448 23.987 222.916 23.987C223.384 23.987 223.807 24.092 224.185 24.302C224.563 24.506 224.86 24.8 225.076 25.184C225.298 25.568 225.409 26.015 225.409 26.525C225.409 27.035 225.295 27.485 225.067 27.875C224.845 28.259 224.542 28.556 224.158 28.766C223.774 28.976 223.348 29.081 222.88 29.081ZM222.88 28.361C223.174 28.361 223.45 28.292 223.708 28.154C223.966 28.016 224.173 27.809 224.329 27.533C224.491 27.257 224.572 26.921 224.572 26.525C224.572 26.129 224.494 25.793 224.338 25.517C224.182 25.241 223.978 25.037 223.726 24.905C223.474 24.767 223.201 24.698 222.907 24.698C222.607 24.698 222.331 24.767 222.079 24.905C221.833 25.037 221.635 25.241 221.485 25.517C221.335 25.793 221.26 26.129 221.26 26.525C221.26 26.927 221.332 27.266 221.476 27.542C221.626 27.818 221.824 28.025 222.07 28.163C222.316 28.295 222.586 28.361 222.88 28.361ZM228.493 24.743H227.458V29H226.639V24.743H226V24.068H226.639V23.717C226.639 23.165 226.78 22.763 227.062 22.511C227.35 22.253 227.809 22.124 228.439 22.124V22.808C228.079 22.808 227.824 22.88 227.674 23.024C227.53 23.162 227.458 23.393 227.458 23.717V24.068H228.493V24.743ZM237.778 23.978C238.162 23.978 238.504 24.059 238.804 24.221C239.104 24.377 239.341 24.614 239.515 24.932C239.689 25.25 239.776 25.637 239.776 26.093V29H238.966V26.21C238.966 25.718 238.843 25.343 238.597 25.085C238.357 24.821 238.03 24.689 237.616 24.689C237.19 24.689 236.851 24.827 236.599 25.103C236.347 25.373 236.221 25.766 236.221 26.282V29H235.411V26.21C235.411 25.718 235.288 25.343 235.042 25.085C234.802 24.821 234.475 24.689 234.061 24.689C233.635 24.689 233.296 24.827 233.044 25.103C232.792 25.373 232.666 25.766 232.666 26.282V29H231.847V24.068H232.666V24.779C232.828 24.521 233.044 24.323 233.314 24.185C233.59 24.047 233.893 23.978 234.223 23.978C234.637 23.978 235.003 24.071 235.321 24.257C235.639 24.443 235.876 24.716 236.032 25.076C236.17 24.728 236.398 24.458 236.716 24.266C237.034 24.074 237.388 23.978 237.778 23.978ZM245.368 24.068L242.398 31.322H241.552L242.524 28.946L240.535 24.068H241.444L242.992 28.064L244.522 24.068H245.368ZM51.641 34.978C52.013 34.978 52.349 35.059 52.649 35.221C52.949 35.377 53.183 35.614 53.351 35.932C53.525 36.25 53.612 36.637 53.612 37.093V40H52.802V37.21C52.802 36.718 52.679 36.343 52.433 36.085C52.187 35.821 51.851 35.689 51.425 35.689C50.993 35.689 50.648 35.824 50.39 36.094C50.138 36.364 50.012 36.757 50.012 37.273V40H49.193V33.34H50.012V35.77C50.174 35.518 50.396 35.323 50.678 35.185C50.966 35.047 51.287 34.978 51.641 34.978ZM59.4498 37.345C59.4498 37.501 59.4408 37.666 59.4228 37.84H55.4808C55.5108 38.326 55.6758 38.707 55.9758 38.983C56.2818 39.253 56.6508 39.388 57.0828 39.388C57.4368 39.388 57.7308 39.307 57.9648 39.145C58.2048 38.977 58.3728 38.755 58.4688 38.479H59.3508C59.2188 38.953 58.9548 39.34 58.5588 39.64C58.1628 39.934 57.6708 40.081 57.0828 40.081C56.6148 40.081 56.1948 39.976 55.8228 39.766C55.4568 39.556 55.1688 39.259 54.9588 38.875C54.7488 38.485 54.6438 38.035 54.6438 37.525C54.6438 37.015 54.7458 36.568 54.9498 36.184C55.1538 35.8 55.4388 35.506 55.8048 35.302C56.1768 35.092 56.6028 34.987 57.0828 34.987C57.5508 34.987 57.9648 35.089 58.3248 35.293C58.6848 35.497 58.9608 35.779 59.1528 36.139C59.3508 36.493 59.4498 36.895 59.4498 37.345ZM58.6038 37.174C58.6038 36.862 58.5348 36.595 58.3968 36.373C58.2588 36.145 58.0698 35.974 57.8298 35.86C57.5958 35.74 57.3348 35.68 57.0468 35.68C56.6328 35.68 56.2788 35.812 55.9848 36.076C55.6968 36.34 55.5318 36.706 55.4898 37.174H58.6038ZM60.2249 37.516C60.2249 37.012 60.3269 36.571 60.5309 36.193C60.7349 35.809 61.0139 35.512 61.3679 35.302C61.7279 35.092 62.1269 34.987 62.5649 34.987C62.9969 34.987 63.3719 35.08 63.6899 35.266C64.0079 35.452 64.2449 35.686 64.4009 35.968V35.068H65.2289V40H64.4009V39.082C64.2389 39.37 63.9959 39.61 63.6719 39.802C63.3539 39.988 62.9819 40.081 62.5559 40.081C62.1179 40.081 61.7219 39.973 61.3679 39.757C61.0139 39.541 60.7349 39.238 60.5309 38.848C60.3269 38.458 60.2249 38.014 60.2249 37.516ZM64.4009 37.525C64.4009 37.153 64.3259 36.829 64.1759 36.553C64.0259 36.277 63.8219 36.067 63.5639 35.923C63.3119 35.773 63.0329 35.698 62.7269 35.698C62.4209 35.698 62.1419 35.77 61.8899 35.914C61.6379 36.058 61.4369 36.268 61.2869 36.544C61.1369 36.82 61.0619 37.144 61.0619 37.516C61.0619 37.894 61.1369 38.224 61.2869 38.506C61.4369 38.782 61.6379 38.995 61.8899 39.145C62.1419 39.289 62.4209 39.361 62.7269 39.361C63.0329 39.361 63.3119 39.289 63.5639 39.145C63.8219 38.995 64.0259 38.782 64.1759 38.506C64.3259 38.224 64.4009 37.897 64.4009 37.525ZM67.4319 33.34V40H66.6129V33.34H67.4319ZM69.8268 35.743V38.65C69.8268 38.89 69.8778 39.061 69.9798 39.163C70.0818 39.259 70.2588 39.307 70.5108 39.307H71.1138V40H70.3758C69.9198 40 69.5778 39.895 69.3498 39.685C69.1218 39.475 69.0078 39.13 69.0078 38.65V35.743H68.3688V35.068H69.0078V33.826H69.8268V35.068H71.1138V35.743H69.8268ZM74.5541 34.978C74.9261 34.978 75.2621 35.059 75.5621 35.221C75.8621 35.377 76.0961 35.614 76.2641 35.932C76.4381 36.25 76.5251 36.637 76.5251 37.093V40H75.7151V37.21C75.7151 36.718 75.5921 36.343 75.3461 36.085C75.1001 35.821 74.7641 35.689 74.3381 35.689C73.9061 35.689 73.5611 35.824 73.3031 36.094C73.0511 36.364 72.9251 36.757 72.9251 37.273V40H72.1061V33.34H72.9251V35.77C73.0871 35.518 73.3091 35.323 73.5911 35.185C73.8791 35.047 74.2001 34.978 74.5541 34.978ZM79.9563 37.516C79.9563 37.012 80.0583 36.571 80.2623 36.193C80.4663 35.809 80.7453 35.512 81.0993 35.302C81.4593 35.092 81.8613 34.987 82.3053 34.987C82.6893 34.987 83.0463 35.077 83.3763 35.257C83.7063 35.431 83.9583 35.662 84.1323 35.95V33.34H84.9603V40H84.1323V39.073C83.9703 39.367 83.7303 39.61 83.4123 39.802C83.0943 39.988 82.7223 40.081 82.2963 40.081C81.8583 40.081 81.4593 39.973 81.0993 39.757C80.7453 39.541 80.4663 39.238 80.2623 38.848C80.0583 38.458 79.9563 38.014 79.9563 37.516ZM84.1323 37.525C84.1323 37.153 84.0573 36.829 83.9073 36.553C83.7573 36.277 83.5533 36.067 83.2953 35.923C83.0433 35.773 82.7643 35.698 82.4583 35.698C82.1523 35.698 81.8733 35.77 81.6213 35.914C81.3693 36.058 81.1683 36.268 81.0183 36.544C80.8683 36.82 80.7933 37.144 80.7933 37.516C80.7933 37.894 80.8683 38.224 81.0183 38.506C81.1683 38.782 81.3693 38.995 81.6213 39.145C81.8733 39.289 82.1523 39.361 82.4583 39.361C82.7643 39.361 83.0433 39.289 83.2953 39.145C83.5533 38.995 83.7573 38.782 83.9073 38.506C84.0573 38.224 84.1323 37.897 84.1323 37.525ZM86.0384 37.516C86.0384 37.012 86.1404 36.571 86.3444 36.193C86.5484 35.809 86.8274 35.512 87.1814 35.302C87.5414 35.092 87.9404 34.987 88.3784 34.987C88.8104 34.987 89.1854 35.08 89.5034 35.266C89.8214 35.452 90.0584 35.686 90.2144 35.968V35.068H91.0424V40H90.2144V39.082C90.0524 39.37 89.8094 39.61 89.4854 39.802C89.1674 39.988 88.7954 40.081 88.3694 40.081C87.9314 40.081 87.5354 39.973 87.1814 39.757C86.8274 39.541 86.5484 39.238 86.3444 38.848C86.1404 38.458 86.0384 38.014 86.0384 37.516ZM90.2144 37.525C90.2144 37.153 90.1394 36.829 89.9894 36.553C89.8394 36.277 89.6354 36.067 89.3774 35.923C89.1254 35.773 88.8464 35.698 88.5404 35.698C88.2344 35.698 87.9554 35.77 87.7034 35.914C87.4514 36.058 87.2504 36.268 87.1004 36.544C86.9504 36.82 86.8754 37.144 86.8754 37.516C86.8754 37.894 86.9504 38.224 87.1004 38.506C87.2504 38.782 87.4514 38.995 87.7034 39.145C87.9554 39.289 88.2344 39.361 88.5404 39.361C88.8464 39.361 89.1254 39.289 89.3774 39.145C89.6354 38.995 89.8394 38.782 89.9894 38.506C90.1394 38.224 90.2144 37.897 90.2144 37.525ZM93.4254 35.743V38.65C93.4254 38.89 93.4764 39.061 93.5784 39.163C93.6804 39.259 93.8574 39.307 94.1094 39.307H94.7124V40H93.9744C93.5184 40 93.1764 39.895 92.9484 39.685C92.7204 39.475 92.6064 39.13 92.6064 38.65V35.743H91.9674V35.068H92.6064V33.826H93.4254V35.068H94.7124V35.743H93.4254ZM95.3987 37.516C95.3987 37.012 95.5007 36.571 95.7047 36.193C95.9087 35.809 96.1877 35.512 96.5417 35.302C96.9017 35.092 97.3007 34.987 97.7387 34.987C98.1707 34.987 98.5457 35.08 98.8637 35.266C99.1817 35.452 99.4187 35.686 99.5747 35.968V35.068H100.403V40H99.5747V39.082C99.4127 39.37 99.1697 39.61 98.8457 39.802C98.5277 39.988 98.1557 40.081 97.7297 40.081C97.2917 40.081 96.8957 39.973 96.5417 39.757C96.1877 39.541 95.9087 39.238 95.7047 38.848C95.5007 38.458 95.3987 38.014 95.3987 37.516ZM99.5747 37.525C99.5747 37.153 99.4997 36.829 99.3497 36.553C99.1997 36.277 98.9957 36.067 98.7377 35.923C98.4857 35.773 98.2067 35.698 97.9007 35.698C97.5947 35.698 97.3157 35.77 97.0637 35.914C96.8117 36.058 96.6107 36.268 96.4607 36.544C96.3107 36.82 96.2357 37.144 96.2357 37.516C96.2357 37.894 96.3107 38.224 96.4607 38.506C96.6107 38.782 96.8117 38.995 97.0637 39.145C97.3157 39.289 97.5947 39.361 97.9007 39.361C98.2067 39.361 98.4857 39.289 98.7377 39.145C98.9957 38.995 99.1997 38.782 99.3497 38.506C99.4997 38.224 99.5747 37.897 99.5747 37.525ZM102.786 35.743V38.65C102.786 38.89 102.837 39.061 102.939 39.163C103.041 39.259 103.218 39.307 103.47 39.307H104.073V40H103.335C102.879 40 102.537 39.895 102.309 39.685C102.081 39.475 101.967 39.13 101.967 38.65V35.743H101.328V35.068H101.967V33.826H102.786V35.068H104.073V35.743H102.786ZM107.216 40.081C106.754 40.081 106.334 39.976 105.956 39.766C105.584 39.556 105.29 39.259 105.074 38.875C104.864 38.485 104.759 38.035 104.759 37.525C104.759 37.021 104.867 36.577 105.083 36.193C105.305 35.803 105.605 35.506 105.983 35.302C106.361 35.092 106.784 34.987 107.252 34.987C107.72 34.987 108.143 35.092 108.521 35.302C108.899 35.506 109.196 35.8 109.412 36.184C109.634 36.568 109.745 37.015 109.745 37.525C109.745 38.035 109.631 38.485 109.403 38.875C109.181 39.259 108.878 39.556 108.494 39.766C108.11 39.976 107.684 40.081 107.216 40.081ZM107.216 39.361C107.51 39.361 107.786 39.292 108.044 39.154C108.302 39.016 108.509 38.809 108.665 38.533C108.827 38.257 108.908 37.921 108.908 37.525C108.908 37.129 108.83 36.793 108.674 36.517C108.518 36.241 108.314 36.037 108.062 35.905C107.81 35.767 107.537 35.698 107.243 35.698C106.943 35.698 106.667 35.767 106.415 35.905C106.169 36.037 105.971 36.241 105.821 36.517C105.671 36.793 105.596 37.129 105.596 37.525C105.596 37.927 105.668 38.266 105.812 38.542C105.962 38.818 106.16 39.025 106.406 39.163C106.652 39.295 106.922 39.361 107.216 39.361ZM114.04 35.977C114.202 35.695 114.442 35.461 114.76 35.275C115.084 35.083 115.459 34.987 115.885 34.987C116.323 34.987 116.719 35.092 117.073 35.302C117.433 35.512 117.715 35.809 117.919 36.193C118.123 36.571 118.225 37.012 118.225 37.516C118.225 38.014 118.123 38.458 117.919 38.848C117.715 39.238 117.433 39.541 117.073 39.757C116.719 39.973 116.323 40.081 115.885 40.081C115.465 40.081 115.093 39.988 114.769 39.802C114.451 39.61 114.208 39.373 114.04 39.091V42.34H113.221V35.068H114.04V35.977ZM117.388 37.516C117.388 37.144 117.313 36.82 117.163 36.544C117.013 36.268 116.809 36.058 116.551 35.914C116.299 35.77 116.02 35.698 115.714 35.698C115.414 35.698 115.135 35.773 114.877 35.923C114.625 36.067 114.421 36.28 114.265 36.562C114.115 36.838 114.04 37.159 114.04 37.525C114.04 37.897 114.115 38.224 114.265 38.506C114.421 38.782 114.625 38.995 114.877 39.145C115.135 39.289 115.414 39.361 115.714 39.361C116.02 39.361 116.299 39.289 116.551 39.145C116.809 38.995 117.013 38.782 117.163 38.506C117.313 38.224 117.388 37.894 117.388 37.516ZM123.803 37.345C123.803 37.501 123.794 37.666 123.776 37.84H119.834C119.864 38.326 120.029 38.707 120.329 38.983C120.635 39.253 121.004 39.388 121.436 39.388C121.79 39.388 122.084 39.307 122.318 39.145C122.558 38.977 122.726 38.755 122.822 38.479H123.704C123.572 38.953 123.308 39.34 122.912 39.64C122.516 39.934 122.024 40.081 121.436 40.081C120.968 40.081 120.548 39.976 120.176 39.766C119.81 39.556 119.522 39.259 119.312 38.875C119.102 38.485 118.997 38.035 118.997 37.525C118.997 37.015 119.099 36.568 119.303 36.184C119.507 35.8 119.792 35.506 120.158 35.302C120.53 35.092 120.956 34.987 121.436 34.987C121.904 34.987 122.318 35.089 122.678 35.293C123.038 35.497 123.314 35.779 123.506 36.139C123.704 36.493 123.803 36.895 123.803 37.345ZM122.957 37.174C122.957 36.862 122.888 36.595 122.75 36.373C122.612 36.145 122.423 35.974 122.183 35.86C121.949 35.74 121.688 35.68 121.4 35.68C120.986 35.68 120.632 35.812 120.338 36.076C120.05 36.34 119.885 36.706 119.843 37.174H122.957ZM125.703 35.869C125.847 35.587 126.051 35.368 126.315 35.212C126.585 35.056 126.912 34.978 127.296 34.978V35.824H127.08C126.162 35.824 125.703 36.322 125.703 37.318V40H124.884V35.068H125.703V35.869ZM129.988 40.081C129.61 40.081 129.271 40.018 128.971 39.892C128.671 39.76 128.434 39.58 128.26 39.352C128.086 39.118 127.99 38.851 127.972 38.551H128.818C128.842 38.797 128.956 38.998 129.16 39.154C129.37 39.31 129.643 39.388 129.979 39.388C130.291 39.388 130.537 39.319 130.717 39.181C130.897 39.043 130.987 38.869 130.987 38.659C130.987 38.443 130.891 38.284 130.699 38.182C130.507 38.074 130.21 37.969 129.808 37.867C129.442 37.771 129.142 37.675 128.908 37.579C128.68 37.477 128.482 37.33 128.314 37.138C128.152 36.94 128.071 36.682 128.071 36.364C128.071 36.112 128.146 35.881 128.296 35.671C128.446 35.461 128.659 35.296 128.935 35.176C129.211 35.05 129.526 34.987 129.88 34.987C130.426 34.987 130.867 35.125 131.203 35.401C131.539 35.677 131.719 36.055 131.743 36.535H130.924C130.906 36.277 130.801 36.07 130.609 35.914C130.423 35.758 130.171 35.68 129.853 35.68C129.559 35.68 129.325 35.743 129.151 35.869C128.977 35.995 128.89 36.16 128.89 36.364C128.89 36.526 128.941 36.661 129.043 36.769C129.151 36.871 129.283 36.955 129.439 37.021C129.601 37.081 129.823 37.15 130.105 37.228C130.459 37.324 130.747 37.42 130.969 37.516C131.191 37.606 131.38 37.744 131.536 37.93C131.698 38.116 131.782 38.359 131.788 38.659C131.788 38.929 131.713 39.172 131.563 39.388C131.413 39.604 131.2 39.775 130.924 39.901C130.654 40.021 130.342 40.081 129.988 40.081ZM135.095 40.081C134.633 40.081 134.213 39.976 133.835 39.766C133.463 39.556 133.169 39.259 132.953 38.875C132.743 38.485 132.638 38.035 132.638 37.525C132.638 37.021 132.746 36.577 132.962 36.193C133.184 35.803 133.484 35.506 133.862 35.302C134.24 35.092 134.663 34.987 135.131 34.987C135.599 34.987 136.022 35.092 136.4 35.302C136.778 35.506 137.075 35.8 137.291 36.184C137.513 36.568 137.624 37.015 137.624 37.525C137.624 38.035 137.51 38.485 137.282 38.875C137.06 39.259 136.757 39.556 136.373 39.766C135.989 39.976 135.563 40.081 135.095 40.081ZM135.095 39.361C135.389 39.361 135.665 39.292 135.923 39.154C136.181 39.016 136.388 38.809 136.544 38.533C136.706 38.257 136.787 37.921 136.787 37.525C136.787 37.129 136.709 36.793 136.553 36.517C136.397 36.241 136.193 36.037 135.941 35.905C135.689 35.767 135.416 35.698 135.122 35.698C134.822 35.698 134.546 35.767 134.294 35.905C134.048 36.037 133.85 36.241 133.7 36.517C133.55 36.793 133.475 37.129 133.475 37.525C133.475 37.927 133.547 38.266 133.691 38.542C133.841 38.818 134.039 39.025 134.285 39.163C134.531 39.295 134.801 39.361 135.095 39.361ZM141.104 34.978C141.704 34.978 142.19 35.161 142.562 35.527C142.934 35.887 143.12 36.409 143.12 37.093V40H142.31V37.21C142.31 36.718 142.187 36.343 141.941 36.085C141.695 35.821 141.359 35.689 140.933 35.689C140.501 35.689 140.156 35.824 139.898 36.094C139.646 36.364 139.52 36.757 139.52 37.273V40H138.701V35.068H139.52V35.77C139.682 35.518 139.901 35.323 140.177 35.185C140.459 35.047 140.768 34.978 141.104 34.978ZM144.152 37.516C144.152 37.012 144.254 36.571 144.458 36.193C144.662 35.809 144.941 35.512 145.295 35.302C145.655 35.092 146.054 34.987 146.492 34.987C146.924 34.987 147.299 35.08 147.617 35.266C147.935 35.452 148.172 35.686 148.328 35.968V35.068H149.156V40H148.328V39.082C148.166 39.37 147.923 39.61 147.599 39.802C147.281 39.988 146.909 40.081 146.483 40.081C146.045 40.081 145.649 39.973 145.295 39.757C144.941 39.541 144.662 39.238 144.458 38.848C144.254 38.458 144.152 38.014 144.152 37.516ZM148.328 37.525C148.328 37.153 148.253 36.829 148.103 36.553C147.953 36.277 147.749 36.067 147.491 35.923C147.239 35.773 146.96 35.698 146.654 35.698C146.348 35.698 146.069 35.77 145.817 35.914C145.565 36.058 145.364 36.268 145.214 36.544C145.064 36.82 144.989 37.144 144.989 37.516C144.989 37.894 145.064 38.224 145.214 38.506C145.364 38.782 145.565 38.995 145.817 39.145C146.069 39.289 146.348 39.361 146.654 39.361C146.96 39.361 147.239 39.289 147.491 39.145C147.749 38.995 147.953 38.782 148.103 38.506C148.253 38.224 148.328 37.897 148.328 37.525ZM151.359 33.34V40H150.54V33.34H151.359ZM153.178 34.267C153.022 34.267 152.89 34.213 152.782 34.105C152.674 33.997 152.62 33.865 152.62 33.709C152.62 33.553 152.674 33.421 152.782 33.313C152.89 33.205 153.022 33.151 153.178 33.151C153.328 33.151 153.454 33.205 153.556 33.313C153.664 33.421 153.718 33.553 153.718 33.709C153.718 33.865 153.664 33.997 153.556 34.105C153.454 34.213 153.328 34.267 153.178 34.267ZM153.574 35.068V40H152.755V35.068H153.574ZM156.715 40.081C156.337 40.081 155.998 40.018 155.698 39.892C155.398 39.76 155.161 39.58 154.987 39.352C154.813 39.118 154.717 38.851 154.699 38.551H155.545C155.569 38.797 155.683 38.998 155.887 39.154C156.097 39.31 156.37 39.388 156.706 39.388C157.018 39.388 157.264 39.319 157.444 39.181C157.624 39.043 157.714 38.869 157.714 38.659C157.714 38.443 157.618 38.284 157.426 38.182C157.234 38.074 156.937 37.969 156.535 37.867C156.169 37.771 155.869 37.675 155.635 37.579C155.407 37.477 155.209 37.33 155.041 37.138C154.879 36.94 154.798 36.682 154.798 36.364C154.798 36.112 154.873 35.881 155.023 35.671C155.173 35.461 155.386 35.296 155.662 35.176C155.938 35.05 156.253 34.987 156.607 34.987C157.153 34.987 157.594 35.125 157.93 35.401C158.266 35.677 158.446 36.055 158.47 36.535H157.651C157.633 36.277 157.528 36.07 157.336 35.914C157.15 35.758 156.898 35.68 156.58 35.68C156.286 35.68 156.052 35.743 155.878 35.869C155.704 35.995 155.617 36.16 155.617 36.364C155.617 36.526 155.668 36.661 155.77 36.769C155.878 36.871 156.01 36.955 156.166 37.021C156.328 37.081 156.55 37.15 156.832 37.228C157.186 37.324 157.474 37.42 157.696 37.516C157.918 37.606 158.107 37.744 158.263 37.93C158.425 38.116 158.509 38.359 158.515 38.659C158.515 38.929 158.44 39.172 158.29 39.388C158.14 39.604 157.927 39.775 157.651 39.901C157.381 40.021 157.069 40.081 156.715 40.081ZM164.172 37.345C164.172 37.501 164.163 37.666 164.145 37.84H160.203C160.233 38.326 160.398 38.707 160.698 38.983C161.004 39.253 161.373 39.388 161.805 39.388C162.159 39.388 162.453 39.307 162.687 39.145C162.927 38.977 163.095 38.755 163.191 38.479H164.073C163.941 38.953 163.677 39.34 163.281 39.64C162.885 39.934 162.393 40.081 161.805 40.081C161.337 40.081 160.917 39.976 160.545 39.766C160.179 39.556 159.891 39.259 159.681 38.875C159.471 38.485 159.366 38.035 159.366 37.525C159.366 37.015 159.468 36.568 159.672 36.184C159.876 35.8 160.161 35.506 160.527 35.302C160.899 35.092 161.325 34.987 161.805 34.987C162.273 34.987 162.687 35.089 163.047 35.293C163.407 35.497 163.683 35.779 163.875 36.139C164.073 36.493 164.172 36.895 164.172 37.345ZM163.326 37.174C163.326 36.862 163.257 36.595 163.119 36.373C162.981 36.145 162.792 35.974 162.552 35.86C162.318 35.74 162.057 35.68 161.769 35.68C161.355 35.68 161.001 35.812 160.707 36.076C160.419 36.34 160.254 36.706 160.212 37.174H163.326ZM173.583 34.978C173.967 34.978 174.309 35.059 174.609 35.221C174.909 35.377 175.146 35.614 175.32 35.932C175.494 36.25 175.581 36.637 175.581 37.093V40H174.771V37.21C174.771 36.718 174.648 36.343 174.402 36.085C174.162 35.821 173.835 35.689 173.421 35.689C172.995 35.689 172.656 35.827 172.404 36.103C172.152 36.373 172.026 36.766 172.026 37.282V40H171.216V37.21C171.216 36.718 171.093 36.343 170.847 36.085C170.607 35.821 170.28 35.689 169.866 35.689C169.44 35.689 169.101 35.827 168.849 36.103C168.597 36.373 168.471 36.766 168.471 37.282V40H167.652V35.068H168.471V35.779C168.633 35.521 168.849 35.323 169.119 35.185C169.395 35.047 169.698 34.978 170.028 34.978C170.442 34.978 170.808 35.071 171.126 35.257C171.444 35.443 171.681 35.716 171.837 36.076C171.975 35.728 172.203 35.458 172.521 35.266C172.839 35.074 173.193 34.978 173.583 34.978ZM181.172 35.068L178.202 42.322H177.356L178.328 39.946L176.339 35.068H177.248L178.796 39.064L180.326 35.068H181.172ZM186.429 34.987C186.855 34.987 187.227 35.08 187.545 35.266C187.869 35.452 188.109 35.686 188.265 35.968V35.068H189.093V40.108C189.093 40.558 188.997 40.957 188.805 41.305C188.613 41.659 188.337 41.935 187.977 42.133C187.623 42.331 187.209 42.43 186.735 42.43C186.087 42.43 185.547 42.277 185.115 41.971C184.683 41.665 184.428 41.248 184.35 40.72H185.16C185.25 41.02 185.436 41.26 185.718 41.44C186 41.626 186.339 41.719 186.735 41.719C187.185 41.719 187.551 41.578 187.833 41.296C188.121 41.014 188.265 40.618 188.265 40.108V39.073C188.103 39.361 187.863 39.601 187.545 39.793C187.227 39.985 186.855 40.081 186.429 40.081C185.991 40.081 185.592 39.973 185.232 39.757C184.878 39.541 184.599 39.238 184.395 38.848C184.191 38.458 184.089 38.014 184.089 37.516C184.089 37.012 184.191 36.571 184.395 36.193C184.599 35.809 184.878 35.512 185.232 35.302C185.592 35.092 185.991 34.987 186.429 34.987ZM188.265 37.525C188.265 37.153 188.19 36.829 188.04 36.553C187.89 36.277 187.686 36.067 187.428 35.923C187.176 35.773 186.897 35.698 186.591 35.698C186.285 35.698 186.006 35.77 185.754 35.914C185.502 36.058 185.301 36.268 185.151 36.544C185.001 36.82 184.926 37.144 184.926 37.516C184.926 37.894 185.001 38.224 185.151 38.506C185.301 38.782 185.502 38.995 185.754 39.145C186.006 39.289 186.285 39.361 186.591 39.361C186.897 39.361 187.176 39.289 187.428 39.145C187.686 38.995 187.89 38.782 188.04 38.506C188.19 38.224 188.265 37.897 188.265 37.525ZM194.851 35.068V40H194.032V39.271C193.876 39.523 193.657 39.721 193.375 39.865C193.099 40.003 192.793 40.072 192.457 40.072C192.073 40.072 191.728 39.994 191.422 39.838C191.116 39.676 190.873 39.436 190.693 39.118C190.519 38.8 190.432 38.413 190.432 37.957V35.068H191.242V37.849C191.242 38.335 191.365 38.71 191.611 38.974C191.857 39.232 192.193 39.361 192.619 39.361C193.057 39.361 193.402 39.226 193.654 38.956C193.906 38.686 194.032 38.293 194.032 37.777V35.068H194.851ZM196.657 34.267C196.501 34.267 196.369 34.213 196.261 34.105C196.153 33.997 196.099 33.865 196.099 33.709C196.099 33.553 196.153 33.421 196.261 33.313C196.369 33.205 196.501 33.151 196.657 33.151C196.807 33.151 196.933 33.205 197.035 33.313C197.143 33.421 197.197 33.553 197.197 33.709C197.197 33.865 197.143 33.997 197.035 34.105C196.933 34.213 196.807 34.267 196.657 34.267ZM197.053 35.068V40H196.234V35.068H197.053ZM198.143 37.516C198.143 37.012 198.245 36.571 198.449 36.193C198.653 35.809 198.932 35.512 199.286 35.302C199.646 35.092 200.048 34.987 200.492 34.987C200.876 34.987 201.233 35.077 201.563 35.257C201.893 35.431 202.145 35.662 202.319 35.95V33.34H203.147V40H202.319V39.073C202.157 39.367 201.917 39.61 201.599 39.802C201.281 39.988 200.909 40.081 200.483 40.081C200.045 40.081 199.646 39.973 199.286 39.757C198.932 39.541 198.653 39.238 198.449 38.848C198.245 38.458 198.143 38.014 198.143 37.516ZM202.319 37.525C202.319 37.153 202.244 36.829 202.094 36.553C201.944 36.277 201.74 36.067 201.482 35.923C201.23 35.773 200.951 35.698 200.645 35.698C200.339 35.698 200.06 35.77 199.808 35.914C199.556 36.058 199.355 36.268 199.205 36.544C199.055 36.82 198.98 37.144 198.98 37.516C198.98 37.894 199.055 38.224 199.205 38.506C199.355 38.782 199.556 38.995 199.808 39.145C200.06 39.289 200.339 39.361 200.645 39.361C200.951 39.361 201.23 39.289 201.482 39.145C201.74 38.995 201.944 38.782 202.094 38.506C202.244 38.224 202.319 37.897 202.319 37.525ZM204.225 37.516C204.225 37.012 204.327 36.571 204.531 36.193C204.735 35.809 205.014 35.512 205.368 35.302C205.728 35.092 206.127 34.987 206.565 34.987C206.997 34.987 207.372 35.08 207.69 35.266C208.008 35.452 208.245 35.686 208.401 35.968V35.068H209.229V40H208.401V39.082C208.239 39.37 207.996 39.61 207.672 39.802C207.354 39.988 206.982 40.081 206.556 40.081C206.118 40.081 205.722 39.973 205.368 39.757C205.014 39.541 204.735 39.238 204.531 38.848C204.327 38.458 204.225 38.014 204.225 37.516ZM208.401 37.525C208.401 37.153 208.326 36.829 208.176 36.553C208.026 36.277 207.822 36.067 207.564 35.923C207.312 35.773 207.033 35.698 206.727 35.698C206.421 35.698 206.142 35.77 205.89 35.914C205.638 36.058 205.437 36.268 205.287 36.544C205.137 36.82 205.062 37.144 205.062 37.516C205.062 37.894 205.137 38.224 205.287 38.506C205.437 38.782 205.638 38.995 205.89 39.145C206.142 39.289 206.421 39.361 206.727 39.361C207.033 39.361 207.312 39.289 207.564 39.145C207.822 38.995 208.026 38.782 208.176 38.506C208.326 38.224 208.401 37.897 208.401 37.525ZM213.016 34.978C213.616 34.978 214.102 35.161 214.474 35.527C214.846 35.887 215.032 36.409 215.032 37.093V40H214.222V37.21C214.222 36.718 214.099 36.343 213.853 36.085C213.607 35.821 213.271 35.689 212.845 35.689C212.413 35.689 212.068 35.824 211.81 36.094C211.558 36.364 211.432 36.757 211.432 37.273V40H210.613V35.068H211.432V35.77C211.594 35.518 211.813 35.323 212.089 35.185C212.371 35.047 212.68 34.978 213.016 34.978ZM216.064 37.525C216.064 37.015 216.166 36.571 216.37 36.193C216.574 35.809 216.856 35.512 217.216 35.302C217.582 35.092 217.999 34.987 218.467 34.987C219.073 34.987 219.571 35.134 219.961 35.428C220.357 35.722 220.618 36.13 220.744 36.652H219.862C219.778 36.352 219.613 36.115 219.367 35.941C219.127 35.767 218.827 35.68 218.467 35.68C217.999 35.68 217.621 35.842 217.333 36.166C217.045 36.484 216.901 36.937 216.901 37.525C216.901 38.119 217.045 38.578 217.333 38.902C217.621 39.226 217.999 39.388 218.467 39.388C218.827 39.388 219.127 39.304 219.367 39.136C219.607 38.968 219.772 38.728 219.862 38.416H220.744C220.612 38.92 220.348 39.325 219.952 39.631C219.556 39.931 219.061 40.081 218.467 40.081C217.999 40.081 217.582 39.976 217.216 39.766C216.856 39.556 216.574 39.259 216.37 38.875C216.166 38.491 216.064 38.041 216.064 37.525ZM226.337 37.345C226.337 37.501 226.328 37.666 226.31 37.84H222.368C222.398 38.326 222.563 38.707 222.863 38.983C223.169 39.253 223.538 39.388 223.97 39.388C224.324 39.388 224.618 39.307 224.852 39.145C225.092 38.977 225.26 38.755 225.356 38.479H226.238C226.106 38.953 225.842 39.34 225.446 39.64C225.05 39.934 224.558 40.081 223.97 40.081C223.502 40.081 223.082 39.976 222.71 39.766C222.344 39.556 222.056 39.259 221.846 38.875C221.636 38.485 221.531 38.035 221.531 37.525C221.531 37.015 221.633 36.568 221.837 36.184C222.041 35.8 222.326 35.506 222.692 35.302C223.064 35.092 223.49 34.987 223.97 34.987C224.438 34.987 224.852 35.089 225.212 35.293C225.572 35.497 225.848 35.779 226.04 36.139C226.238 36.493 226.337 36.895 226.337 37.345ZM225.491 37.174C225.491 36.862 225.422 36.595 225.284 36.373C225.146 36.145 224.957 35.974 224.717 35.86C224.483 35.74 224.222 35.68 223.934 35.68C223.52 35.68 223.166 35.812 222.872 36.076C222.584 36.34 222.419 36.706 222.377 37.174H225.491ZM227.679 40.054C227.523 40.054 227.391 40 227.283 39.892C227.175 39.784 227.121 39.652 227.121 39.496C227.121 39.34 227.175 39.208 227.283 39.1C227.391 38.992 227.523 38.938 227.679 38.938C227.829 38.938 227.955 38.992 228.057 39.1C228.165 39.208 228.219 39.34 228.219 39.496C228.219 39.652 228.165 39.784 228.057 39.892C227.955 40 227.829 40.054 227.679 40.054Z" fill="black"></path>
<path d="M150.102 13.563C150.102 14.085 149.922 14.52 149.562 14.868C149.208 15.21 148.665 15.381 147.933 15.381H146.727V18H145.908V11.727H147.933C148.641 11.727 149.178 11.898 149.544 12.24C149.916 12.582 150.102 13.023 150.102 13.563ZM147.933 14.706C148.389 14.706 148.725 14.607 148.941 14.409C149.157 14.211 149.265 13.929 149.265 13.563C149.265 12.789 148.821 12.402 147.933 12.402H146.727V14.706H147.933ZM151.939 13.869C152.083 13.587 152.287 13.368 152.551 13.212C152.821 13.056 153.148 12.978 153.532 12.978V13.824H153.316C152.398 13.824 151.939 14.322 151.939 15.318V18H151.12V13.068H151.939V13.869ZM154.9 12.267C154.744 12.267 154.612 12.213 154.504 12.105C154.396 11.997 154.342 11.865 154.342 11.709C154.342 11.553 154.396 11.421 154.504 11.313C154.612 11.205 154.744 11.151 154.9 11.151C155.05 11.151 155.176 11.205 155.278 11.313C155.386 11.421 155.44 11.553 155.44 11.709C155.44 11.865 155.386 11.997 155.278 12.105C155.176 12.213 155.05 12.267 154.9 12.267ZM155.296 13.068V18H154.477V13.068H155.296ZM158.528 17.244L160.058 13.068H160.931L158.996 18H158.042L156.107 13.068H156.989L158.528 17.244ZM161.431 15.516C161.431 15.012 161.533 14.571 161.737 14.193C161.941 13.809 162.22 13.512 162.574 13.302C162.934 13.092 163.333 12.987 163.771 12.987C164.203 12.987 164.578 13.08 164.896 13.266C165.214 13.452 165.451 13.686 165.607 13.968V13.068H166.435V18H165.607V17.082C165.445 17.37 165.202 17.61 164.878 17.802C164.56 17.988 164.188 18.081 163.762 18.081C163.324 18.081 162.928 17.973 162.574 17.757C162.22 17.541 161.941 17.238 161.737 16.848C161.533 16.458 161.431 16.014 161.431 15.516ZM165.607 15.525C165.607 15.153 165.532 14.829 165.382 14.553C165.232 14.277 165.028 14.067 164.77 13.923C164.518 13.773 164.239 13.698 163.933 13.698C163.627 13.698 163.348 13.77 163.096 13.914C162.844 14.058 162.643 14.268 162.493 14.544C162.343 14.82 162.268 15.144 162.268 15.516C162.268 15.894 162.343 16.224 162.493 16.506C162.643 16.782 162.844 16.995 163.096 17.145C163.348 17.289 163.627 17.361 163.933 17.361C164.239 17.361 164.518 17.289 164.77 17.145C165.028 16.995 165.232 16.782 165.382 16.506C165.532 16.224 165.607 15.897 165.607 15.525ZM167.513 15.525C167.513 15.015 167.615 14.571 167.819 14.193C168.023 13.809 168.305 13.512 168.665 13.302C169.031 13.092 169.448 12.987 169.916 12.987C170.522 12.987 171.02 13.134 171.41 13.428C171.806 13.722 172.067 14.13 172.193 14.652H171.311C171.227 14.352 171.062 14.115 170.816 13.941C170.576 13.767 170.276 13.68 169.916 13.68C169.448 13.68 169.07 13.842 168.782 14.166C168.494 14.484 168.35 14.937 168.35 15.525C168.35 16.119 168.494 16.578 168.782 16.902C169.07 17.226 169.448 17.388 169.916 17.388C170.276 17.388 170.576 17.304 170.816 17.136C171.056 16.968 171.221 16.728 171.311 16.416H172.193C172.061 16.92 171.797 17.325 171.401 17.631C171.005 17.931 170.51 18.081 169.916 18.081C169.448 18.081 169.031 17.976 168.665 17.766C168.305 17.556 168.023 17.259 167.819 16.875C167.615 16.491 167.513 16.041 167.513 15.525ZM177.534 13.068L174.564 20.322H173.718L174.69 17.946L172.701 13.068H173.61L175.158 17.064L176.688 13.068H177.534ZM184.95 13.563C184.95 14.085 184.77 14.52 184.41 14.868C184.056 15.21 183.513 15.381 182.781 15.381H181.575V18H180.756V11.727H182.781C183.489 11.727 184.026 11.898 184.392 12.24C184.764 12.582 184.95 13.023 184.95 13.563ZM182.781 14.706C183.237 14.706 183.573 14.607 183.789 14.409C184.005 14.211 184.113 13.929 184.113 13.563C184.113 12.789 183.669 12.402 182.781 12.402H181.575V14.706H182.781ZM188.119 18.081C187.657 18.081 187.237 17.976 186.859 17.766C186.487 17.556 186.193 17.259 185.977 16.875C185.767 16.485 185.662 16.035 185.662 15.525C185.662 15.021 185.77 14.577 185.986 14.193C186.208 13.803 186.508 13.506 186.886 13.302C187.264 13.092 187.687 12.987 188.155 12.987C188.623 12.987 189.046 13.092 189.424 13.302C189.802 13.506 190.099 13.8 190.315 14.184C190.537 14.568 190.648 15.015 190.648 15.525C190.648 16.035 190.534 16.485 190.306 16.875C190.084 17.259 189.781 17.556 189.397 17.766C189.013 17.976 188.587 18.081 188.119 18.081ZM188.119 17.361C188.413 17.361 188.689 17.292 188.947 17.154C189.205 17.016 189.412 16.809 189.568 16.533C189.73 16.257 189.811 15.921 189.811 15.525C189.811 15.129 189.733 14.793 189.577 14.517C189.421 14.241 189.217 14.037 188.965 13.905C188.713 13.767 188.44 13.698 188.146 13.698C187.846 13.698 187.57 13.767 187.318 13.905C187.072 14.037 186.874 14.241 186.724 14.517C186.574 14.793 186.499 15.129 186.499 15.525C186.499 15.927 186.571 16.266 186.715 16.542C186.865 16.818 187.063 17.025 187.309 17.163C187.555 17.295 187.825 17.361 188.119 17.361ZM192.544 11.34V18H191.725V11.34H192.544ZM194.363 12.267C194.207 12.267 194.075 12.213 193.967 12.105C193.859 11.997 193.805 11.865 193.805 11.709C193.805 11.553 193.859 11.421 193.967 11.313C194.075 11.205 194.207 11.151 194.363 11.151C194.513 11.151 194.639 11.205 194.741 11.313C194.849 11.421 194.903 11.553 194.903 11.709C194.903 11.865 194.849 11.997 194.741 12.105C194.639 12.213 194.513 12.267 194.363 12.267ZM194.759 13.068V18H193.94V13.068H194.759ZM195.849 15.525C195.849 15.015 195.951 14.571 196.155 14.193C196.359 13.809 196.641 13.512 197.001 13.302C197.367 13.092 197.784 12.987 198.252 12.987C198.858 12.987 199.356 13.134 199.746 13.428C200.142 13.722 200.403 14.13 200.529 14.652H199.647C199.563 14.352 199.398 14.115 199.152 13.941C198.912 13.767 198.612 13.68 198.252 13.68C197.784 13.68 197.406 13.842 197.118 14.166C196.83 14.484 196.686 14.937 196.686 15.525C196.686 16.119 196.83 16.578 197.118 16.902C197.406 17.226 197.784 17.388 198.252 17.388C198.612 17.388 198.912 17.304 199.152 17.136C199.392 16.968 199.557 16.728 199.647 16.416H200.529C200.397 16.92 200.133 17.325 199.737 17.631C199.341 17.931 198.846 18.081 198.252 18.081C197.784 18.081 197.367 17.976 197.001 17.766C196.641 17.556 196.359 17.259 196.155 16.875C195.951 16.491 195.849 16.041 195.849 15.525ZM205.87 13.068L202.9 20.322H202.054L203.026 17.946L201.037 13.068H201.946L203.494 17.064L205.024 13.068H205.87ZM53.054 22.727V23.393H51.344V29H50.525V23.393H48.806V22.727H53.054ZM58.5621 26.345C58.5621 26.501 58.5531 26.666 58.5351 26.84H54.5931C54.6231 27.326 54.7881 27.707 55.0881 27.983C55.3941 28.253 55.7631 28.388 56.1951 28.388C56.5491 28.388 56.8431 28.307 57.0771 28.145C57.3171 27.977 57.4851 27.755 57.5811 27.479H58.4631C58.3311 27.953 58.0671 28.34 57.6711 28.64C57.2751 28.934 56.7831 29.081 56.1951 29.081C55.7271 29.081 55.3071 28.976 54.9351 28.766C54.5691 28.556 54.2811 28.259 54.0711 27.875C53.8611 27.485 53.7561 27.035 53.7561 26.525C53.7561 26.015 53.8581 25.568 54.0621 25.184C54.2661 24.8 54.5511 24.506 54.9171 24.302C55.2891 24.092 55.7151 23.987 56.1951 23.987C56.6631 23.987 57.0771 24.089 57.4371 24.293C57.7971 24.497 58.0731 24.779 58.2651 25.139C58.4631 25.493 58.5621 25.895 58.5621 26.345ZM57.7161 26.174C57.7161 25.862 57.6471 25.595 57.5091 25.373C57.3711 25.145 57.1821 24.974 56.9421 24.86C56.7081 24.74 56.4471 24.68 56.1591 24.68C55.7451 24.68 55.3911 24.812 55.0971 25.076C54.8091 25.34 54.6441 25.706 54.6021 26.174H57.7161ZM60.4622 24.869C60.6062 24.587 60.8102 24.368 61.0742 24.212C61.3442 24.056 61.6712 23.978 62.0552 23.978V24.824H61.8392C60.9212 24.824 60.4622 25.322 60.4622 26.318V29H59.6432V24.068H60.4622V24.869ZM68.9316 23.978C69.3156 23.978 69.6576 24.059 69.9576 24.221C70.2576 24.377 70.4946 24.614 70.6686 24.932C70.8426 25.25 70.9296 25.637 70.9296 26.093V29H70.1196V26.21C70.1196 25.718 69.9966 25.343 69.7506 25.085C69.5106 24.821 69.1836 24.689 68.7696 24.689C68.3436 24.689 68.0046 24.827 67.7526 25.103C67.5006 25.373 67.3746 25.766 67.3746 26.282V29H66.5646V26.21C66.5646 25.718 66.4416 25.343 66.1956 25.085C65.9556 24.821 65.6286 24.689 65.2146 24.689C64.7886 24.689 64.4496 24.827 64.1976 25.103C63.9456 25.373 63.8196 25.766 63.8196 26.282V29H63.0006V24.068H63.8196V24.779C63.9816 24.521 64.1976 24.323 64.4676 24.185C64.7436 24.047 65.0466 23.978 65.3766 23.978C65.7906 23.978 66.1566 24.071 66.4746 24.257C66.7926 24.443 67.0296 24.716 67.1856 25.076C67.3236 24.728 67.5516 24.458 67.8696 24.266C68.1876 24.074 68.5416 23.978 68.9316 23.978ZM74.0191 29.081C73.6411 29.081 73.3021 29.018 73.0021 28.892C72.7021 28.76 72.4651 28.58 72.2911 28.352C72.1171 28.118 72.0211 27.851 72.0031 27.551H72.8491C72.8731 27.797 72.9871 27.998 73.1911 28.154C73.4011 28.31 73.6741 28.388 74.0101 28.388C74.3221 28.388 74.5681 28.319 74.7481 28.181C74.9281 28.043 75.0181 27.869 75.0181 27.659C75.0181 27.443 74.9221 27.284 74.7301 27.182C74.5381 27.074 74.2411 26.969 73.8391 26.867C73.4731 26.771 73.1731 26.675 72.9391 26.579C72.7111 26.477 72.5131 26.33 72.3451 26.138C72.1831 25.94 72.1021 25.682 72.1021 25.364C72.1021 25.112 72.1771 24.881 72.3271 24.671C72.4771 24.461 72.6901 24.296 72.9661 24.176C73.2421 24.05 73.5571 23.987 73.9111 23.987C74.4571 23.987 74.8981 24.125 75.2341 24.401C75.5701 24.677 75.7501 25.055 75.7741 25.535H74.9551C74.9371 25.277 74.8321 25.07 74.6401 24.914C74.4541 24.758 74.2021 24.68 73.8841 24.68C73.5901 24.68 73.3561 24.743 73.1821 24.869C73.0081 24.995 72.9211 25.16 72.9211 25.364C72.9211 25.526 72.9721 25.661 73.0741 25.769C73.1821 25.871 73.3141 25.955 73.4701 26.021C73.6321 26.081 73.8541 26.15 74.1361 26.228C74.4901 26.324 74.7781 26.42 75.0001 26.516C75.2221 26.606 75.4111 26.744 75.5671 26.93C75.7291 27.116 75.8131 27.359 75.8191 27.659C75.8191 27.929 75.7441 28.172 75.5941 28.388C75.4441 28.604 75.2311 28.775 74.9551 28.901C74.6851 29.021 74.3731 29.081 74.0191 29.081ZM77.8212 27.866L76.8132 30.287H76.2642L76.9212 27.866H77.8212ZM50.677 52.302C50.229 51.8633 49.879 51.3057 49.627 50.629C49.3797 49.9523 49.256 49.222 49.256 48.438C49.256 47.6353 49.3867 46.8863 49.648 46.191C49.914 45.491 50.292 44.9147 50.782 44.462H51.447V44.525C50.9243 45.015 50.53 45.6053 50.264 46.296C50.0027 46.982 49.872 47.696 49.872 48.438C49.872 49.1613 49.9957 49.852 50.243 50.51C50.495 51.168 50.8613 51.7443 51.342 52.239V52.302H50.677ZM54.7867 51L53.6247 49.005H52.8547V51H52.2177V46.121H53.7927C54.1614 46.121 54.4717 46.184 54.7237 46.31C54.9804 46.436 55.1717 46.6063 55.2977 46.821C55.4237 47.0357 55.4867 47.2807 55.4867 47.556C55.4867 47.892 55.3887 48.1883 55.1927 48.445C55.0014 48.7017 54.712 48.872 54.3247 48.956L55.5497 51H54.7867ZM52.8547 48.494H53.7927C54.138 48.494 54.397 48.41 54.5697 48.242C54.7424 48.0693 54.8287 47.8407 54.8287 47.556C54.8287 47.2667 54.7424 47.0427 54.5697 46.884C54.4017 46.7253 54.1427 46.646 53.7927 46.646H52.8547V48.494ZM59.9765 48.935C59.9765 49.0563 59.9695 49.1847 59.9555 49.32H56.8895C56.9128 49.698 57.0412 49.9943 57.2745 50.209C57.5125 50.419 57.7995 50.524 58.1355 50.524C58.4108 50.524 58.6395 50.461 58.8215 50.335C59.0082 50.2043 59.1388 50.0317 59.2135 49.817H59.8995C59.7968 50.1857 59.5915 50.4867 59.2835 50.72C58.9755 50.9487 58.5928 51.063 58.1355 51.063C57.7715 51.063 57.4448 50.9813 57.1555 50.818C56.8708 50.6547 56.6468 50.4237 56.4835 50.125C56.3202 49.8217 56.2385 49.4717 56.2385 49.075C56.2385 48.6783 56.3178 48.3307 56.4765 48.032C56.6352 47.7333 56.8568 47.5047 57.1415 47.346C57.4308 47.1827 57.7622 47.101 58.1355 47.101C58.4995 47.101 58.8215 47.1803 59.1015 47.339C59.3815 47.4977 59.5962 47.717 59.7455 47.997C59.8995 48.2723 59.9765 48.585 59.9765 48.935ZM59.3185 48.802C59.3185 48.5593 59.2648 48.3517 59.1575 48.179C59.0502 48.0017 58.9032 47.8687 58.7165 47.78C58.5345 47.6867 58.3315 47.64 58.1075 47.64C57.7855 47.64 57.5102 47.7427 57.2815 47.948C57.0575 48.1533 56.9292 48.438 56.8965 48.802H59.3185ZM60.5793 49.068C60.5793 48.676 60.6587 48.333 60.8173 48.039C60.976 47.7403 61.193 47.5093 61.4683 47.346C61.7483 47.1827 62.061 47.101 62.4063 47.101C62.7377 47.101 63.027 47.1757 63.2743 47.325C63.5263 47.4697 63.7107 47.6493 63.8273 47.864V47.164H64.4713V52.82H63.8273V50.293C63.706 50.5077 63.5193 50.6897 63.2673 50.839C63.0153 50.9883 62.7213 51.063 62.3853 51.063C62.0493 51.063 61.7437 50.979 61.4683 50.811C61.193 50.643 60.976 50.4073 60.8173 50.104C60.6587 49.8007 60.5793 49.4553 60.5793 49.068ZM63.8273 49.075C63.8273 48.7857 63.769 48.5337 63.6523 48.319C63.5357 48.1043 63.377 47.941 63.1763 47.829C62.9803 47.7123 62.7633 47.654 62.5253 47.654C62.2873 47.654 62.0703 47.71 61.8743 47.822C61.6783 47.934 61.522 48.0973 61.4053 48.312C61.2887 48.5267 61.2303 48.7787 61.2303 49.068C61.2303 49.362 61.2887 49.6187 61.4053 49.838C61.522 50.0527 61.6783 50.2183 61.8743 50.335C62.0703 50.447 62.2873 50.503 62.5253 50.503C62.7633 50.503 62.9803 50.447 63.1763 50.335C63.377 50.2183 63.5357 50.0527 63.6523 49.838C63.769 49.6187 63.8273 49.3643 63.8273 49.075ZM68.9498 47.164V51H68.3128V50.433C68.1915 50.629 68.0211 50.783 67.8018 50.895C67.5871 51.0023 67.3491 51.056 67.0878 51.056C66.7891 51.056 66.5208 50.9953 66.2828 50.874C66.0448 50.748 65.8558 50.5613 65.7158 50.314C65.5805 50.0667 65.5128 49.7657 65.5128 49.411V47.164H66.1428V49.327C66.1428 49.705 66.2385 49.9967 66.4298 50.202C66.6211 50.4027 66.8825 50.503 67.2138 50.503C67.5545 50.503 67.8228 50.398 68.0188 50.188C68.2148 49.978 68.3128 49.6723 68.3128 49.271V47.164H68.9498ZM70.3543 46.541C70.233 46.541 70.1303 46.499 70.0463 46.415C69.9623 46.331 69.9203 46.2283 69.9203 46.107C69.9203 45.9857 69.9623 45.883 70.0463 45.799C70.1303 45.715 70.233 45.673 70.3543 45.673C70.471 45.673 70.569 45.715 70.6483 45.799C70.7323 45.883 70.7743 45.9857 70.7743 46.107C70.7743 46.2283 70.7323 46.331 70.6483 46.415C70.569 46.499 70.471 46.541 70.3543 46.541ZM70.6623 47.164V51H70.0253V47.164H70.6623ZM72.385 47.787C72.497 47.5677 72.6557 47.3973 72.861 47.276C73.071 47.1547 73.3253 47.094 73.624 47.094V47.752H73.456C72.742 47.752 72.385 48.1393 72.385 48.914V51H71.748V47.164H72.385V47.787ZM77.8593 48.935C77.8593 49.0563 77.8523 49.1847 77.8383 49.32H74.7723C74.7956 49.698 74.924 49.9943 75.1573 50.209C75.3953 50.419 75.6823 50.524 76.0183 50.524C76.2936 50.524 76.5223 50.461 76.7043 50.335C76.891 50.2043 77.0216 50.0317 77.0963 49.817H77.7823C77.6796 50.1857 77.4743 50.4867 77.1663 50.72C76.8583 50.9487 76.4756 51.063 76.0183 51.063C75.6543 51.063 75.3276 50.9813 75.0383 50.818C74.7536 50.6547 74.5296 50.4237 74.3663 50.125C74.203 49.8217 74.1213 49.4717 74.1213 49.075C74.1213 48.6783 74.2006 48.3307 74.3593 48.032C74.518 47.7333 74.7396 47.5047 75.0243 47.346C75.3136 47.1827 75.645 47.101 76.0183 47.101C76.3823 47.101 76.7043 47.1803 76.9843 47.339C77.2643 47.4977 77.479 47.717 77.6283 47.997C77.7823 48.2723 77.8593 48.585 77.8593 48.935ZM77.2013 48.802C77.2013 48.5593 77.1476 48.3517 77.0403 48.179C76.933 48.0017 76.786 47.8687 76.5993 47.78C76.4173 47.6867 76.2143 47.64 75.9903 47.64C75.6683 47.64 75.393 47.7427 75.1643 47.948C74.9403 48.1533 74.812 48.438 74.7793 48.802H77.2013ZM78.4621 49.068C78.4621 48.676 78.5415 48.333 78.7001 48.039C78.8588 47.7403 79.0758 47.5093 79.3511 47.346C79.6311 47.1827 79.9438 47.101 80.2891 47.101C80.5878 47.101 80.8655 47.171 81.1221 47.311C81.3788 47.4463 81.5748 47.626 81.7101 47.85V45.82H82.3541V51H81.7101V50.279C81.5841 50.5077 81.3975 50.6967 81.1501 50.846C80.9028 50.9907 80.6135 51.063 80.2821 51.063C79.9415 51.063 79.6311 50.979 79.3511 50.811C79.0758 50.643 78.8588 50.4073 78.7001 50.104C78.5415 49.8007 78.4621 49.4553 78.4621 49.068ZM81.7101 49.075C81.7101 48.7857 81.6518 48.5337 81.5351 48.319C81.4185 48.1043 81.2598 47.941 81.0591 47.829C80.8631 47.7123 80.6461 47.654 80.4081 47.654C80.1701 47.654 79.9531 47.71 79.7571 47.822C79.5611 47.934 79.4048 48.0973 79.2881 48.312C79.1715 48.5267 79.1131 48.7787 79.1131 49.068C79.1131 49.362 79.1715 49.6187 79.2881 49.838C79.4048 50.0527 79.5611 50.2183 79.7571 50.335C79.9531 50.447 80.1701 50.503 80.4081 50.503C80.6461 50.503 80.8631 50.447 81.0591 50.335C81.2598 50.2183 81.4185 50.0527 81.5351 49.838C81.6518 49.6187 81.7101 49.3643 81.7101 49.075ZM83.2276 52.302V52.239C83.7083 51.7443 84.0723 51.168 84.3196 50.51C84.5716 49.852 84.6976 49.1613 84.6976 48.438C84.6976 47.696 84.5646 46.982 84.2986 46.296C84.0373 45.6053 83.6453 45.015 83.1226 44.525V44.462H83.7876C84.2776 44.9147 84.6533 45.491 84.9146 46.191C85.1806 46.8863 85.3136 47.6353 85.3136 48.438C85.3136 49.222 85.1876 49.9523 84.9356 50.629C84.6883 51.3057 84.3406 51.8633 83.8926 52.302H83.2276Z" fill="#FE6850"></path>
<defs>
<linearGradient id="paint0_linear_156_4072" x1="0" y1="31.5" x2="276" y2="31.5" gradientUnits="userSpaceOnUse">
<stop stop-color="white"></stop>
</linearGradient>
</defs>
</svg>