<svg width="295" height="291" viewBox="0 0 295 291" fill="none" xmlns="http://www.w3.org/2000/svg">
<rect width="295" height="291" rx="145.5" fill="url(#paint0_radial_66_4295)"></rect>
<path d="M59.0464 133.405L59.0824 139.48L55.3325 139.51L55.2317 122.51L58.0566 122.488L58.9815 122.481L61.6065 122.46C64.3564 122.438 66.8195 124.644 66.8386 127.869C66.8557 130.744 65.142 132.658 62.9952 133.199L67.9071 139.411L63.1573 139.448L59.0714 133.405L59.0464 133.405ZM60.999 125.415L58.999 125.431L59.0289 130.456L61.0288 130.44C62.1288 130.431 63.2734 129.522 63.2638 127.897C63.2546 126.347 62.099 125.406 60.999 125.415ZM72.461 132.55L77.3859 132.511C77.3859 132.511 77.1987 130.463 74.9238 130.481C72.5739 130.499 72.461 132.55 72.461 132.55ZM80.9922 133.558C80.9935 133.783 80.97 134.033 80.9713 134.258L72.4216 134.325C72.4291 135.6 73.3371 136.943 74.8121 136.932C76.137 136.921 76.9568 136.04 76.9771 135.24L80.802 135.21C80.1692 138.115 77.8279 139.583 74.9029 139.606C71.1031 139.636 68.4648 137.407 68.444 133.907C68.4236 130.457 71.1347 128.11 74.8346 128.081C78.1845 128.055 80.9712 130.033 80.9922 133.558ZM91.9999 133.721C91.9913 132.271 90.8587 130.98 89.3587 130.992C87.8587 131.004 86.7415 132.313 86.7501 133.763C86.7587 135.213 87.8914 136.504 89.3913 136.492C90.8913 136.48 92.0085 135.171 91.9999 133.721ZM95.6712 120.442L95.7825 139.192L92.0326 139.221L92.0247 137.896C91.2814 139.027 89.6591 139.49 88.2592 139.501C85.1343 139.526 82.7683 136.844 82.7502 133.794C82.7321 130.744 85.0659 128.001 88.1908 127.976C89.5907 127.965 90.9931 128.354 91.9752 129.547L91.9213 120.472L95.6712 120.442ZM98.51 134.42L98.4728 128.145L102.223 128.116L102.26 134.391C102.267 135.666 102.772 136.387 103.947 136.378C105.122 136.368 106.039 135.086 106.03 133.611L105.998 128.086L109.747 128.057L109.813 139.082L106.063 139.111L106.055 137.761C105.311 138.717 104.14 139.376 102.69 139.388C99.7397 139.411 98.5277 137.395 98.51 134.42ZM118.377 130.664C116.677 130.677 116.136 132.307 116.144 133.557C116.151 134.832 116.661 136.428 118.411 136.414C119.561 136.405 120.458 135.898 120.577 134.897L124.227 134.868C123.866 137.321 121.653 139.239 118.303 139.265C114.478 139.295 112.163 136.713 112.144 133.563C112.125 130.413 114.56 127.769 118.234 127.74C121.809 127.712 124.097 129.819 124.287 132.368L120.562 132.397C120.506 131.322 119.677 130.654 118.377 130.664ZM129.954 132.098L134.879 132.059C134.879 132.059 134.692 130.011 132.417 130.029C130.067 130.047 129.954 132.098 129.954 132.098ZM138.485 133.106C138.487 133.331 138.463 133.581 138.465 133.806L129.915 133.873C129.922 135.148 130.83 136.491 132.305 136.48C133.63 136.469 134.45 135.588 134.47 134.788L138.295 134.758C137.663 137.663 135.321 139.131 132.396 139.154C128.596 139.184 125.958 136.955 125.937 133.455C125.917 130.005 128.628 127.658 132.328 127.629C135.678 127.603 138.465 129.581 138.485 133.106ZM150.868 133.259C150.877 134.709 152.01 136 153.509 135.988C155.009 135.976 156.127 134.667 156.118 133.218C156.109 131.768 154.977 130.476 153.477 130.488C151.977 130.5 150.86 131.809 150.868 133.259ZM150.938 145.009L147.188 145.038L147.086 127.763L150.835 127.734L150.843 129.084C151.811 127.876 153.184 127.465 154.609 127.454C157.734 127.43 160.1 130.136 160.118 133.186C160.136 136.236 157.802 138.954 154.677 138.979C153.252 138.99 151.65 138.553 150.893 137.434L150.938 145.009ZM173.769 132.329L173.806 138.579L170.056 138.608L170.019 132.358C170.011 131.058 169.507 130.362 168.332 130.371C167.157 130.381 166.24 131.638 166.249 133.138L166.281 138.638L162.531 138.667L162.42 119.918L166.17 119.888L166.224 128.963C166.968 128.007 168.139 127.348 169.589 127.336C172.539 127.313 173.751 129.329 173.769 132.329ZM180.934 144.773L177.035 144.803L179.497 138.534L178.872 138.539L174.607 127.547L178.382 127.517L181.054 135.372L183.632 127.476L187.432 127.446L183.297 138.504L180.934 144.773ZM198.905 130.706L195.231 130.735C195.1 129.736 194.173 129.468 193.448 129.474C192.723 129.48 191.95 129.861 191.954 130.511C191.963 132.061 199.079 130.43 199.106 135.08C199.122 137.68 196.902 138.647 193.703 138.672C190.428 138.698 187.945 137.492 187.727 134.369L191.452 134.34C191.462 135.99 192.937 136.078 193.762 136.072C194.612 136.065 195.335 135.734 195.332 135.134C195.318 132.809 188.204 134.69 188.18 130.69C188.167 128.44 189.884 127.177 193.534 127.148C196.434 127.125 198.565 128.184 198.905 130.706ZM201.085 123.564C201.078 122.339 202.047 121.356 203.272 121.347C204.472 121.337 205.478 122.304 205.485 123.529C205.492 124.729 204.498 125.737 203.298 125.746C202.073 125.756 201.092 124.764 201.085 123.564ZM205.248 138.332L201.498 138.361L201.433 127.336L205.182 127.307L205.248 138.332ZM213.955 129.913C212.255 129.926 211.715 131.555 211.722 132.805C211.73 134.08 212.239 135.676 213.989 135.663C215.139 135.654 216.036 135.147 216.155 134.146L219.805 134.117C219.444 136.57 217.231 138.487 213.881 138.514C210.056 138.544 207.741 135.962 207.722 132.812C207.703 129.662 210.138 127.018 213.812 126.989C217.387 126.961 219.675 129.068 219.865 131.616L216.14 131.646C216.084 130.571 215.255 129.903 213.955 129.913ZM230.765 132.631C230.757 131.181 229.624 129.89 228.124 129.901C226.624 129.913 225.507 131.222 225.515 132.672C225.524 134.122 226.657 135.413 228.157 135.401C229.657 135.39 230.774 134.081 230.765 132.631ZM234.482 127.101L234.548 138.101L230.798 138.131L230.79 136.806C230.047 137.937 228.424 138.399 227.024 138.41C223.9 138.435 221.534 135.753 221.515 132.704C221.497 129.654 223.831 126.91 226.956 126.886C228.356 126.875 229.758 127.264 230.74 128.456L230.733 127.131L234.482 127.101ZM241.303 138.048L237.553 138.078L237.442 119.328L241.192 119.298L241.303 138.048ZM65.4498 163.356L65.4858 169.431L61.7359 169.46L61.6351 152.461L64.46 152.438L65.385 152.431L68.0099 152.411C70.7598 152.389 73.2229 154.595 73.242 157.82C73.2625 161.27 70.8246 163.314 68.0747 163.335L65.4498 163.356ZM67.4024 155.365L65.4025 155.381L65.4323 160.406L67.4322 160.39C68.5322 160.382 69.6768 159.473 69.6672 157.848C69.658 156.298 68.5024 155.357 67.4024 155.365ZM96.387 169.188L92.2621 169.22L90.1926 157.511L86.9373 169.262L83.2624 169.291L79.868 157.593L77.9376 169.333L73.8127 169.365L77.0117 152.34L81.4616 152.305L85.0823 164.202L88.5364 152.249L92.9862 152.214L96.387 169.188ZM104.598 166.473C105.773 166.464 107.62 165.975 107.611 164.45C107.592 161.15 97.7796 163.352 97.7423 157.077C97.7216 153.577 100.962 151.902 104.062 151.877C107.561 151.85 110.721 153.375 110.869 157.249L107.244 157.277C107.033 155.504 106.005 154.937 104.13 154.952C103.08 154.96 101.608 155.472 101.615 156.747C101.633 159.772 111.445 157.519 111.484 163.994C111.507 167.994 107.941 169.497 104.466 169.525C100.716 169.554 97.2805 167.731 97.2309 163.581L101.031 163.551C101.143 165.576 102.748 166.488 104.598 166.473ZM130.165 161.247L126.49 161.276C126.359 160.277 125.432 160.009 124.707 160.015C123.982 160.021 123.21 160.402 123.213 161.052C123.223 162.602 130.338 160.971 130.366 165.621C130.381 168.221 128.162 169.188 124.962 169.213C121.687 169.239 119.205 168.034 118.986 164.91L122.711 164.881C122.721 166.531 124.196 166.619 125.021 166.613C125.871 166.606 126.594 166.276 126.591 165.676C126.577 163.351 119.463 165.232 119.439 161.232C119.426 158.982 121.144 157.718 124.793 157.689C127.693 157.667 129.825 158.725 130.165 161.247ZM137.144 175.118L133.244 175.149L135.707 168.879L135.082 168.884L130.817 157.892L134.592 157.862L137.263 165.717L139.842 157.821L143.641 157.791L139.507 168.849L137.144 175.118ZM156.052 163.119L156.086 168.719L152.336 168.748L152.299 162.648C152.293 161.573 151.937 160.501 150.687 160.511C149.412 160.521 148.672 162.177 148.678 163.277L148.711 168.777L144.961 168.806L144.895 157.781L148.645 157.752L148.653 159.102C149.398 158.146 150.469 157.488 151.694 157.478C153.094 157.467 154.347 158.082 155.13 159.326C156.197 157.943 157.419 157.433 159.144 157.419C162.018 157.397 163.407 159.711 163.424 162.561L163.46 168.661L159.71 168.69L159.674 162.59C159.668 161.515 159.312 160.443 158.062 160.453C156.612 160.464 156.045 161.869 156.052 163.119ZM169.796 163.111C169.804 164.561 170.937 165.852 172.437 165.84C173.937 165.828 175.054 164.52 175.046 163.07C175.037 161.62 173.904 160.329 172.404 160.34C170.904 160.352 169.787 161.661 169.796 163.111ZM169.865 174.861L166.116 174.89L166.013 157.615L169.763 157.586L169.771 158.936C170.739 157.728 172.111 157.318 173.536 157.306C176.661 157.282 179.027 159.988 179.045 163.038C179.063 166.088 176.73 168.807 173.605 168.831C172.18 168.842 170.577 168.405 169.82 167.286L169.865 174.861ZM186.135 160.357L186.184 168.482L182.459 168.512L182.411 160.387L180.411 160.402L180.393 157.502L182.393 157.487L182.368 153.287L186.093 153.258L186.118 157.457L188.118 157.442L188.135 160.342L186.135 160.357ZM195.834 165.806C197.834 165.791 198.375 164.311 198.367 162.911C198.358 161.536 197.75 160.066 195.8 160.081C193.825 160.097 193.234 161.577 193.242 162.952C193.25 164.352 193.809 165.822 195.834 165.806ZM195.782 157.156C199.207 157.13 202.071 159.407 202.091 162.857C202.112 166.382 199.35 168.604 195.851 168.631C192.326 168.659 189.538 166.481 189.517 162.956C189.496 159.506 192.333 157.184 195.782 157.156ZM215.596 162.651L215.63 168.251L211.88 168.28L211.844 162.18C211.837 161.105 211.481 160.033 210.231 160.043C208.956 160.053 208.216 161.709 208.222 162.809L208.255 168.309L204.505 168.338L204.44 157.313L208.189 157.284L208.197 158.634C208.942 157.678 210.013 157.02 211.238 157.01C212.638 156.999 213.891 157.614 214.674 158.858C215.741 157.475 216.963 156.965 218.688 156.951C221.563 156.929 222.951 159.243 222.968 162.093L223.004 168.193L219.255 168.222L219.218 162.122C219.212 161.047 218.856 159.975 217.606 159.985C216.156 159.996 215.589 161.401 215.596 162.651ZM235.777 160.417L232.102 160.446C231.971 159.447 231.044 159.179 230.319 159.185C229.594 159.191 228.821 159.572 228.825 160.222C228.835 161.772 235.95 160.141 235.978 164.791C235.993 167.391 233.774 168.358 230.574 168.383C227.299 168.409 224.817 167.204 224.598 164.08L228.323 164.051C228.333 165.701 229.808 165.789 230.633 165.783C231.483 165.776 232.206 165.445 232.203 164.845C232.189 162.52 225.075 164.401 225.051 160.402C225.038 158.152 226.756 156.888 230.405 156.859C233.305 156.837 235.437 157.895 235.777 160.417Z" fill="black"></path>
<path d="M21.4999 149.515L17.6919 145.549L21.4999 141.582V149.515Z" fill="black"></path>
<path d="M275.962 141.555L279.937 145.528L275.964 149.503L275.962 141.555Z" fill="black"></path>
<rect width="295" height="291" rx="145.5" fill="url(#paint1_radial_66_4295)"></rect>
<path d="M105.241 119.153L99.391 119.198L99.4315 126.023L95.6816 126.053L95.5807 109.053L105.43 108.976L105.451 112.376L99.3508 112.424L99.3708 115.799L105.221 115.753L105.241 119.153ZM111.638 119.102L116.563 119.064C116.563 119.064 116.376 117.015 114.101 117.033C111.751 117.051 111.638 119.102 111.638 119.102ZM120.169 120.11C120.171 120.335 120.147 120.585 120.149 120.81L111.599 120.878C111.606 122.153 112.514 123.495 113.989 123.484C115.314 123.473 116.134 122.592 116.154 121.792L119.979 121.762C119.346 124.667 117.005 126.135 114.08 126.158C110.28 126.188 107.642 123.959 107.621 120.459C107.601 117.009 110.312 114.663 114.012 114.633C117.362 114.607 120.148 116.585 120.169 120.11ZM125.944 118.99L130.869 118.951C130.869 118.951 130.682 116.902 128.407 116.92C126.057 116.939 125.944 118.99 125.944 118.99ZM134.476 119.998C134.477 120.223 134.453 120.473 134.455 120.698L125.905 120.765C125.913 122.04 126.821 123.383 128.296 123.371C129.62 123.361 130.44 122.48 130.46 121.679L134.285 121.649C133.653 124.554 131.311 126.023 128.386 126.046C124.586 126.076 121.948 123.846 121.927 120.346C121.907 116.896 124.618 114.55 128.318 114.521C131.668 114.495 134.455 116.473 134.476 119.998ZM140.641 125.699L136.891 125.729L136.78 106.979L140.53 106.95L140.641 125.699ZM160.971 119.94L161.004 125.539L157.254 125.569L157.218 119.469C157.211 118.394 156.855 117.322 155.605 117.332C154.33 117.342 153.59 118.998 153.596 120.097L153.629 125.597L149.879 125.627L149.814 114.602L153.564 114.573L153.572 115.923C154.316 114.967 155.387 114.308 156.612 114.299C158.012 114.288 159.266 114.903 160.048 116.147C161.115 114.763 162.337 114.254 164.062 114.24C166.937 114.217 168.325 116.532 168.342 119.382L168.379 125.481L164.629 125.511L164.592 119.411C164.586 118.336 164.23 117.264 162.98 117.274C161.53 117.285 160.963 118.69 160.971 119.94ZM176.656 122.816C178.656 122.801 179.197 121.321 179.189 119.921C179.181 118.546 178.572 117.076 176.622 117.091C174.647 117.107 174.056 118.587 174.064 119.962C174.072 121.362 174.631 122.832 176.656 122.816ZM176.605 114.166C180.03 114.14 182.893 116.417 182.914 119.867C182.935 123.392 180.173 125.614 176.673 125.641C173.148 125.669 170.36 123.491 170.339 119.966C170.319 116.516 173.155 114.194 176.605 114.166ZM191.503 117.049C190.103 117.06 189.037 118.494 189.045 119.819L189.077 125.319L185.327 125.348L185.262 114.323L189.012 114.294L189.02 115.644C189.59 114.814 190.535 114.032 191.91 114.021C192.235 114.019 192.736 114.115 193.037 114.262L193.057 117.662L193.007 117.663C192.629 117.216 192.078 117.045 191.503 117.049ZM198.208 118.422L203.133 118.383C203.133 118.383 202.946 116.335 200.671 116.352C198.321 116.371 198.208 118.422 198.208 118.422ZM206.739 119.43C206.74 119.655 206.717 119.905 206.718 120.13L198.168 120.197C198.176 121.472 199.084 122.815 200.559 122.803C201.884 122.793 202.704 121.912 202.724 121.111L206.549 121.081C205.916 123.986 203.575 125.455 200.65 125.478C196.85 125.508 194.212 123.278 194.191 119.778C194.17 116.328 196.881 113.982 200.581 113.953C203.931 113.927 206.718 115.905 206.739 119.43ZM88.5138 149.285L93.4386 149.246C93.4386 149.246 93.2515 147.198 90.9765 147.215C88.6266 147.234 88.5138 149.285 88.5138 149.285ZM97.0449 150.293C97.0462 150.518 97.0227 150.768 97.024 150.993L88.4743 151.06C88.4819 152.335 89.3899 153.678 90.8648 153.667C92.1898 153.656 93.0096 152.775 93.0298 151.974L96.8547 151.944C96.2219 154.849 93.8806 156.318 90.9557 156.341C87.1558 156.371 84.5175 154.141 84.4968 150.641C84.4763 147.192 87.1874 144.845 90.8873 144.816C94.2372 144.79 97.024 146.768 97.0449 150.293ZM110.552 150.337L110.585 155.937L106.835 155.966L106.799 149.866C106.793 148.791 106.436 147.719 105.186 147.729C103.911 147.739 103.171 149.395 103.178 150.495L103.21 155.995L99.4606 156.024L99.3952 144.999L103.145 144.97L103.153 146.32C103.897 145.364 104.969 144.705 106.193 144.696C107.593 144.685 108.847 145.3 109.629 146.544C110.696 145.16 111.918 144.651 113.643 144.637C116.518 144.615 117.907 146.929 117.924 149.779L117.96 155.879L114.21 155.908L114.174 149.808C114.168 148.733 113.811 147.661 112.561 147.671C111.111 147.682 110.545 149.087 110.552 150.337ZM126.237 153.213C128.237 153.198 128.779 151.718 128.77 150.318C128.762 148.944 128.153 147.473 126.204 147.489C124.229 147.504 123.637 148.984 123.646 150.359C123.654 151.759 124.213 153.229 126.237 153.213ZM126.186 144.564C129.611 144.537 132.475 146.814 132.495 150.264C132.516 153.789 129.754 156.011 126.254 156.038C122.729 156.066 119.941 153.888 119.92 150.363C119.9 146.913 122.736 144.591 126.186 144.564ZM139.585 147.583L139.634 155.708L135.909 155.738L135.86 147.613L133.861 147.628L133.843 144.728L135.843 144.713L135.818 140.513L139.543 140.484L139.568 144.683L141.568 144.668L141.585 147.568L139.585 147.583ZM143.336 140.879C143.329 139.654 144.298 138.671 145.523 138.661C146.723 138.652 147.729 139.619 147.736 140.844C147.743 142.044 146.749 143.052 145.549 143.061C144.324 143.071 143.344 142.079 143.336 140.879ZM147.499 155.646L143.749 155.676L143.684 144.651L147.434 144.622L147.499 155.646ZM156.29 152.977C158.29 152.962 158.831 151.482 158.823 150.082C158.815 148.707 158.206 147.237 156.256 147.252C154.281 147.268 153.69 148.748 153.698 150.123C153.707 151.523 154.265 152.993 156.29 152.977ZM156.239 144.327C159.664 144.301 162.527 146.578 162.548 150.028C162.569 153.553 159.807 155.775 156.307 155.802C152.782 155.83 149.994 153.652 149.973 150.127C149.953 146.677 152.789 144.355 156.239 144.327ZM176.199 149.171L176.236 155.421L172.486 155.45L172.449 149.2C172.441 147.9 171.937 147.204 170.762 147.213C169.587 147.223 168.67 148.48 168.679 149.98L168.711 155.48L164.961 155.509L164.896 144.484L168.646 144.455L168.654 145.805C169.398 144.849 170.569 144.19 172.019 144.178C174.969 144.155 176.181 146.171 176.199 149.171ZM187.445 149.832C187.436 148.382 186.303 147.091 184.804 147.103C183.304 147.115 182.186 148.424 182.195 149.874C182.204 151.324 183.336 152.615 184.836 152.603C186.336 152.591 187.453 151.282 187.445 149.832ZM191.162 144.303L191.227 155.303L187.477 155.332L187.47 154.007C186.726 155.138 185.104 155.601 183.704 155.612C180.579 155.636 178.213 152.955 178.195 149.905C178.177 146.855 180.511 144.112 183.636 144.087C185.036 144.076 186.438 144.465 187.42 145.657L187.412 144.332L191.162 144.303ZM197.983 155.25L194.233 155.279L194.122 136.529L197.872 136.5L197.983 155.25ZM204.721 155.197L200.971 155.226L200.86 136.476L204.61 136.447L204.721 155.197ZM212.221 161.388L208.321 161.419L210.784 155.149L210.159 155.154L205.894 144.162L209.669 144.132L212.34 151.987L214.919 144.091L218.718 144.061L214.584 155.119L212.221 161.388ZM101.366 180.51C101.375 181.96 102.507 183.251 104.007 183.239C105.507 183.227 106.625 181.918 106.616 180.468C106.607 179.019 105.475 177.727 103.975 177.739C102.475 177.751 101.358 179.06 101.366 180.51ZM101.399 186.01L97.6489 186.039L97.5376 167.289L101.288 167.26L101.341 176.335C102.309 175.127 103.682 174.716 105.107 174.705C108.232 174.681 110.598 177.387 110.616 180.437C110.634 183.487 108.3 186.205 105.175 186.23C103.75 186.241 102.148 185.804 101.391 184.685L101.399 186.01ZM121.621 180.351C121.613 178.901 120.48 177.609 118.98 177.621C117.48 177.633 116.363 178.942 116.372 180.392C116.38 181.842 117.513 183.133 119.013 183.121C120.513 183.109 121.63 181.801 121.621 180.351ZM125.339 174.821L125.404 185.821L121.654 185.85L121.646 184.525C120.903 185.656 119.281 186.119 117.881 186.13C114.756 186.155 112.39 183.473 112.372 180.423C112.354 177.373 114.687 174.63 117.812 174.605C119.212 174.594 120.615 174.983 121.597 176.176L121.589 174.851L125.339 174.821ZM132.16 185.768L128.41 185.797L128.298 167.048L132.048 167.018L132.16 185.768ZM143.74 180.177C143.731 178.727 142.599 177.436 141.099 177.447C139.599 177.459 138.481 178.768 138.49 180.218C138.499 181.668 139.631 182.959 141.131 182.947C142.631 182.935 143.748 181.627 143.74 180.177ZM147.457 174.647L147.522 185.647L143.772 185.677L143.765 184.352C143.021 185.483 141.399 185.945 139.999 185.956C136.874 185.981 134.508 183.299 134.49 180.249C134.472 177.199 136.806 174.456 139.931 174.431C141.331 174.42 142.733 174.809 143.715 176.002L143.707 174.677L147.457 174.647ZM161.766 179.285L161.803 185.535L158.053 185.564L158.016 179.314C158.008 178.014 157.504 177.318 156.329 177.328C155.154 177.337 154.236 178.594 154.245 180.094L154.278 185.594L150.528 185.624L150.463 174.599L154.213 174.569L154.221 175.919C154.965 174.963 156.136 174.304 157.586 174.293C160.536 174.27 161.748 176.285 161.766 179.285ZM169.995 177.12C168.295 177.134 167.754 178.763 167.762 180.013C167.769 181.288 168.279 182.884 170.029 182.87C171.179 182.861 172.076 182.354 172.195 181.353L175.845 181.324C175.484 183.777 173.271 185.695 169.921 185.721C166.096 185.751 163.78 183.169 163.762 180.019C163.743 176.869 166.177 174.225 169.852 174.196C173.427 174.168 175.715 176.275 175.905 178.824L172.18 178.853C172.124 177.779 171.295 177.11 169.995 177.12ZM181.572 178.554L186.497 178.516C186.497 178.516 186.31 176.467 184.035 176.485C181.685 176.503 181.572 178.554 181.572 178.554ZM190.103 179.562C190.105 179.787 190.081 180.037 190.082 180.262L181.533 180.33C181.54 181.605 182.448 182.948 183.923 182.936C185.248 182.926 186.068 182.044 186.088 181.244L189.913 181.214C189.28 184.119 186.939 185.587 184.014 185.61C180.214 185.64 177.576 183.411 177.555 179.911C177.535 176.461 180.246 174.115 183.946 174.086C187.296 174.059 190.082 176.037 190.103 179.562ZM201.111 179.726C201.103 178.276 199.97 176.985 198.47 176.996C196.97 177.008 195.853 178.317 195.861 179.767C195.87 181.217 197.003 182.508 198.503 182.496C200.002 182.485 201.12 181.176 201.111 179.726ZM204.782 166.447L204.894 185.196L201.144 185.226L201.136 183.901C200.393 185.032 198.77 185.494 197.37 185.505C194.245 185.53 191.88 182.848 191.861 179.798C191.843 176.749 194.177 174.005 197.302 173.981C198.702 173.97 200.104 174.359 201.086 175.551L201.032 166.476L204.782 166.447Z" fill="black"></path>
<defs>
<radialGradient id="paint0_radial_66_4295" cx="0" cy="0" r="1" gradientUnits="userSpaceOnUse" gradientTransform="translate(147.5 145.5) rotate(90) scale(145.5 147.5)">
<stop offset="0.0673077" stop-color="#79B476"></stop>
<stop offset="0.884615" stop-color="#B8A9C9"></stop>
<stop offset="1" stop-color="#FAF0E7"></stop>
</radialGradient>
<radialGradient id="paint1_radial_66_4295" cx="0" cy="0" r="1" gradientUnits="userSpaceOnUse" gradientTransform="translate(147.5 145.5) rotate(90) scale(145.5 147.5)">
<stop offset="0.211538" stop-color="#F76937"></stop>
<stop offset="0.913462" stop-color="#E5C5DA"></stop>
<stop offset="1" stop-color="#FAF0E7"></stop>
</radialGradient>
</defs>
</svg>