<svg width="276" height="44" viewBox="0 0 276 44" fill="none" xmlns="http://www.w3.org/2000/svg">
<rect width="276" height="44" rx="15" fill="url(#paint0_linear_79_3156)"></rect>
<path d="M118.774 25.89H122.434V27H117.409V16.545H118.774V25.89ZM127.469 27.135C126.699 27.135 125.999 26.96 125.369 26.61C124.749 26.26 124.259 25.765 123.899 25.125C123.549 24.475 123.374 23.725 123.374 22.875C123.374 22.035 123.554 21.295 123.914 20.655C124.284 20.005 124.784 19.51 125.414 19.17C126.044 18.82 126.749 18.645 127.529 18.645C128.309 18.645 129.014 18.82 129.644 19.17C130.274 19.51 130.769 20 131.129 20.64C131.499 21.28 131.684 22.025 131.684 22.875C131.684 23.725 131.494 24.475 131.114 25.125C130.744 25.765 130.239 26.26 129.599 26.61C128.959 26.96 128.249 27.135 127.469 27.135ZM127.469 25.935C127.959 25.935 128.419 25.82 128.849 25.59C129.279 25.36 129.624 25.015 129.884 24.555C130.154 24.095 130.289 23.535 130.289 22.875C130.289 22.215 130.159 21.655 129.899 21.195C129.639 20.735 129.299 20.395 128.879 20.175C128.459 19.945 128.004 19.83 127.514 19.83C127.014 19.83 126.554 19.945 126.134 20.175C125.724 20.395 125.394 20.735 125.144 21.195C124.894 21.655 124.769 22.215 124.769 22.875C124.769 23.545 124.889 24.11 125.129 24.57C125.379 25.03 125.709 25.375 126.119 25.605C126.529 25.825 126.979 25.935 127.469 25.935ZM136.869 18.645C137.579 18.645 138.199 18.8 138.729 19.11C139.269 19.42 139.669 19.81 139.929 20.28V18.78H141.309V27.18C141.309 27.93 141.149 28.595 140.829 29.175C140.509 29.765 140.049 30.225 139.449 30.555C138.859 30.885 138.169 31.05 137.379 31.05C136.299 31.05 135.399 30.795 134.679 30.285C133.959 29.775 133.534 29.08 133.404 28.2H134.754C134.904 28.7 135.214 29.1 135.684 29.4C136.154 29.71 136.719 29.865 137.379 29.865C138.129 29.865 138.739 29.63 139.209 29.16C139.689 28.69 139.929 28.03 139.929 27.18V25.455C139.659 25.935 139.259 26.335 138.729 26.655C138.199 26.975 137.579 27.135 136.869 27.135C136.139 27.135 135.474 26.955 134.874 26.595C134.284 26.235 133.819 25.73 133.479 25.08C133.139 24.43 132.969 23.69 132.969 22.86C132.969 22.02 133.139 21.285 133.479 20.655C133.819 20.015 134.284 19.52 134.874 19.17C135.474 18.82 136.139 18.645 136.869 18.645ZM139.929 22.875C139.929 22.255 139.804 21.715 139.554 21.255C139.304 20.795 138.964 20.445 138.534 20.205C138.114 19.955 137.649 19.83 137.139 19.83C136.629 19.83 136.164 19.95 135.744 20.19C135.324 20.43 134.989 20.78 134.739 21.24C134.489 21.7 134.364 22.24 134.364 22.86C134.364 23.49 134.489 24.04 134.739 24.51C134.989 24.97 135.324 25.325 135.744 25.575C136.164 25.815 136.629 25.935 137.139 25.935C137.649 25.935 138.114 25.815 138.534 25.575C138.964 25.325 139.304 24.97 139.554 24.51C139.804 24.04 139.929 23.495 139.929 22.875ZM148.319 17.445C148.059 17.445 147.839 17.355 147.659 17.175C147.479 16.995 147.389 16.775 147.389 16.515C147.389 16.255 147.479 16.035 147.659 15.855C147.839 15.675 148.059 15.585 148.319 15.585C148.569 15.585 148.779 15.675 148.949 15.855C149.129 16.035 149.219 16.255 149.219 16.515C149.219 16.775 149.129 16.995 148.949 17.175C148.779 17.355 148.569 17.445 148.319 17.445ZM148.979 18.78V27H147.614V18.78H148.979ZM155.311 18.63C156.311 18.63 157.121 18.935 157.741 19.545C158.361 20.145 158.671 21.015 158.671 22.155V27H157.321V22.35C157.321 21.53 157.116 20.905 156.706 20.475C156.296 20.035 155.736 19.815 155.026 19.815C154.306 19.815 153.731 20.04 153.301 20.49C152.881 20.94 152.671 21.595 152.671 22.455V27H151.306V18.78H152.671V19.95C152.941 19.53 153.306 19.205 153.766 18.975C154.236 18.745 154.751 18.63 155.311 18.63Z" fill="#17100E"></path>
<defs>
<linearGradient id="paint0_linear_79_3156" x1="0" y1="22" x2="276" y2="22" gradientUnits="userSpaceOnUse">
<stop offset="0.956731" stop-color="white"></stop>
</linearGradient>
</defs>
</svg>