<svg width="60" height="18" viewBox="0 0 60 18" fill="none" xmlns="http://www.w3.org/2000/svg">
<rect width="60" height="18" rx="9" fill="#FEC2B0"></rect>
<path d="M16.88 14.66L14.204 7.556L11.528 14.66L9.62 5.84H10.484L11.744 11.768L14.204 5.36L16.652 11.768L17.924 5.84H18.776L16.88 14.66ZM23.9984 11.36C23.9984 10.856 23.8184 10.4 23.4584 10.016C23.0984 9.632 22.6544 9.44 22.1384 9.44C21.6104 9.44 21.1664 9.632 20.8064 10.016C20.4464 10.4 20.2784 10.856 20.2784 11.36C20.2784 11.876 20.4464 12.332 20.8064 12.704C21.1664 13.088 21.6104 13.28 22.1384 13.28C22.6544 13.28 23.0984 13.088 23.4584 12.704C23.8184 12.332 23.9984 11.876 23.9984 11.36ZM24.8384 14H23.9984V13.1C23.9504 13.172 23.8904 13.232 23.8424 13.28C23.3384 13.844 22.7264 14.12 22.0064 14.12C21.2744 14.12 20.6624 13.844 20.1584 13.28C19.6784 12.74 19.4384 12.104 19.4384 11.36C19.4384 10.628 19.6784 9.992 20.1584 9.44C20.6624 8.888 21.2744 8.6 22.0064 8.6C22.7264 8.6 23.3384 8.888 23.8424 9.44C23.8904 9.5 23.9504 9.56 23.9984 9.632V8.72H24.8384V14ZM27.4822 14H26.6422V5H27.4822V14ZM30.1189 14H29.2789V5H30.1189V11.096L32.0509 8.708H33.1669L30.9949 11.276L33.3109 14H32.1949L30.1189 11.468V14ZM35.1817 6.896C35.2777 7.004 35.3377 7.136 35.3377 7.28C35.3377 7.424 35.2777 7.556 35.1817 7.652C35.0737 7.76 34.9417 7.808 34.7977 7.808C34.6537 7.808 34.5217 7.76 34.4257 7.652C34.3177 7.556 34.2697 7.424 34.2697 7.28C34.2697 7.136 34.3177 7.004 34.4257 6.896C34.5217 6.8 34.6537 6.74 34.7977 6.74C34.9417 6.74 35.0737 6.8 35.1817 6.896ZM35.2297 14H34.3897V8.72H35.2297V14ZM40.7199 14V10.712C40.7199 10.364 40.6359 10.064 40.4799 9.824C40.3239 9.584 40.0719 9.464 39.7119 9.464C39.3519 9.464 39.0519 9.524 38.8359 9.668C38.6079 9.8 38.4279 9.98 38.2839 10.196C38.0319 10.592 37.9119 11.12 37.9119 11.792V14H37.0719V8.72H37.9119V9.632C38.0799 9.332 38.3079 9.092 38.5839 8.912C38.8719 8.72 39.1959 8.612 39.5799 8.612C39.9519 8.612 40.2519 8.672 40.4919 8.78C40.7199 8.888 40.9119 9.032 41.0799 9.224C41.3919 9.596 41.5599 10.088 41.5599 10.7V14H40.7199ZM47.4493 11.36C47.4493 10.856 47.2693 10.4 46.9093 10.016C46.5493 9.632 46.1053 9.44 45.5893 9.44C45.0733 9.44 44.6293 9.632 44.2573 10.016C43.8973 10.4 43.7173 10.844 43.7173 11.36C43.7173 11.888 43.8973 12.332 44.2573 12.704C44.6293 13.088 45.0733 13.28 45.5893 13.28C46.1053 13.28 46.5493 13.088 46.9093 12.704C47.2693 12.332 47.4493 11.876 47.4493 11.36ZM43.7053 14.72C43.7773 15.056 43.9453 15.344 44.2093 15.608C44.5813 15.98 45.0253 16.16 45.5533 16.16C46.0693 16.16 46.5133 15.98 46.8853 15.608C47.2573 15.236 47.4493 14.792 47.4493 14.264V13.124C47.4013 13.172 47.3533 13.232 47.3053 13.28C46.8013 13.844 46.1893 14.12 45.4693 14.12C44.7253 14.12 44.1133 13.844 43.6093 13.28C43.1293 12.74 42.8893 12.104 42.8893 11.36C42.8893 10.628 43.1293 9.992 43.6093 9.44C44.1133 8.888 44.7253 8.6 45.4693 8.6C46.1653 8.6 46.7773 8.888 47.3053 9.44C47.3533 9.5 47.4013 9.56 47.4493 9.608V8.72H48.2893V14.264C48.2893 15.02 48.0133 15.668 47.4853 16.196C46.9453 16.736 46.2973 17 45.5533 17C44.7973 17 44.1493 16.736 43.6213 16.196C43.1893 15.776 42.9373 15.284 42.8413 14.72H43.7053Z" fill="#FC2611"></path>
</svg>