<svg width="292" height="47" viewBox="0 0 292 47" fill="none" xmlns="http://www.w3.org/2000/svg">
<rect width="292" height="47" rx="23.5" fill="white"></rect>
<path d="M31.9965 18.242V28H30.7225V18.242H31.9965ZM37.9058 20.188C38.8392 20.188 39.5952 20.4727 40.1738 21.042C40.7525 21.602 41.0418 22.414 41.0418 23.478V28H39.7818V23.66C39.7818 22.8947 39.5905 22.3113 39.2078 21.91C38.8252 21.4993 38.3025 21.294 37.6398 21.294C36.9678 21.294 36.4312 21.504 36.0298 21.924C35.6378 22.344 35.4418 22.9553 35.4418 23.758V28H34.1678V20.328H35.4418V21.42C35.6938 21.028 36.0345 20.7247 36.4638 20.51C36.9025 20.2953 37.3832 20.188 37.9058 20.188ZM45.8389 28.126C45.2509 28.126 44.7236 28.028 44.2569 27.832C43.7903 27.6267 43.4216 27.3467 43.1509 26.992C42.8803 26.628 42.7309 26.2127 42.7029 25.746H44.0189C44.0563 26.1287 44.2336 26.4413 44.5509 26.684C44.8776 26.9267 45.3023 27.048 45.8249 27.048C46.3103 27.048 46.6929 26.9407 46.9729 26.726C47.2529 26.5113 47.3929 26.2407 47.3929 25.914C47.3929 25.578 47.2436 25.3307 46.9449 25.172C46.6463 25.004 46.1843 24.8407 45.5589 24.682C44.9896 24.5327 44.5229 24.3833 44.1589 24.234C43.8043 24.0753 43.4963 23.8467 43.2349 23.548C42.9829 23.24 42.8569 22.8387 42.8569 22.344C42.8569 21.952 42.9736 21.5927 43.2069 21.266C43.4403 20.9393 43.7716 20.6827 44.2009 20.496C44.6303 20.3 45.1203 20.202 45.6709 20.202C46.5203 20.202 47.2063 20.4167 47.7289 20.846C48.2516 21.2753 48.5316 21.8633 48.5689 22.61H47.2949C47.2669 22.2087 47.1036 21.8867 46.8049 21.644C46.5156 21.4013 46.1236 21.28 45.6289 21.28C45.1716 21.28 44.8076 21.378 44.5369 21.574C44.2663 21.77 44.1309 22.0267 44.1309 22.344C44.1309 22.596 44.2103 22.806 44.3689 22.974C44.5369 23.1327 44.7423 23.2633 44.9849 23.366C45.2369 23.4593 45.5823 23.5667 46.0209 23.688C46.5716 23.8373 47.0196 23.9867 47.3649 24.136C47.7103 24.276 48.0043 24.4907 48.2469 24.78C48.4989 25.0693 48.6296 25.4473 48.6389 25.914C48.6389 26.334 48.5223 26.712 48.2889 27.048C48.0556 27.384 47.7243 27.65 47.2949 27.846C46.8749 28.0327 46.3896 28.126 45.8389 28.126ZM53.7834 28.126C53.0647 28.126 52.4114 27.9627 51.8234 27.636C51.2447 27.3093 50.7874 26.8473 50.4514 26.25C50.1247 25.6433 49.9614 24.9433 49.9614 24.15C49.9614 23.366 50.1294 22.6753 50.4654 22.078C50.8107 21.4713 51.2774 21.0093 51.8654 20.692C52.4534 20.3653 53.1114 20.202 53.8394 20.202C54.5674 20.202 55.2254 20.3653 55.8134 20.692C56.4014 21.0093 56.8634 21.4667 57.1994 22.064C57.5447 22.6613 57.7174 23.3567 57.7174 24.15C57.7174 24.9433 57.54 25.6433 57.1854 26.25C56.84 26.8473 56.3687 27.3093 55.7714 27.636C55.174 27.9627 54.5114 28.126 53.7834 28.126ZM53.7834 27.006C54.2407 27.006 54.67 26.8987 55.0714 26.684C55.4727 26.4693 55.7947 26.1473 56.0374 25.718C56.2894 25.2887 56.4154 24.766 56.4154 24.15C56.4154 23.534 56.294 23.0113 56.0514 22.582C55.8087 22.1527 55.4914 21.8353 55.0994 21.63C54.7074 21.4153 54.2827 21.308 53.8254 21.308C53.3587 21.308 52.9294 21.4153 52.5374 21.63C52.1547 21.8353 51.8467 22.1527 51.6134 22.582C51.38 23.0113 51.2634 23.534 51.2634 24.15C51.2634 24.7753 51.3754 25.3027 51.5994 25.732C51.8327 26.1613 52.1407 26.4833 52.5234 26.698C52.906 26.9033 53.326 27.006 53.7834 27.006ZM68.6185 20.188C69.2158 20.188 69.7478 20.314 70.2145 20.566C70.6811 20.8087 71.0498 21.1773 71.3205 21.672C71.5911 22.1667 71.7265 22.7687 71.7265 23.478V28H70.4665V23.66C70.4665 22.8947 70.2751 22.3113 69.8925 21.91C69.5191 21.4993 69.0105 21.294 68.3665 21.294C67.7038 21.294 67.1765 21.5087 66.7845 21.938C66.3925 22.358 66.1965 22.9693 66.1965 23.772V28H64.9365V23.66C64.9365 22.8947 64.7451 22.3113 64.3625 21.91C63.9891 21.4993 63.4805 21.294 62.8365 21.294C62.1738 21.294 61.6465 21.5087 61.2545 21.938C60.8625 22.358 60.6665 22.9693 60.6665 23.772V28H59.3925V20.328H60.6665V21.434C60.9185 21.0327 61.2545 20.7247 61.6745 20.51C62.1038 20.2953 62.5751 20.188 63.0885 20.188C63.7325 20.188 64.3018 20.3327 64.7965 20.622C65.2911 20.9113 65.6598 21.336 65.9025 21.896C66.1171 21.3547 66.4718 20.9347 66.9665 20.636C67.4611 20.3373 68.0118 20.188 68.6185 20.188ZM77.5543 20.188C78.4876 20.188 79.2436 20.4727 79.8223 21.042C80.4009 21.602 80.6903 22.414 80.6903 23.478V28H79.4303V23.66C79.4303 22.8947 79.2389 22.3113 78.8563 21.91C78.4736 21.4993 77.9509 21.294 77.2883 21.294C76.6163 21.294 76.0796 21.504 75.6783 21.924C75.2863 22.344 75.0903 22.9553 75.0903 23.758V28H73.8163V20.328H75.0903V21.42C75.3423 21.028 75.6829 20.7247 76.1123 20.51C76.5509 20.2953 77.0316 20.188 77.5543 20.188ZM83.4294 19.082C83.1867 19.082 82.9814 18.998 82.8134 18.83C82.6454 18.662 82.5614 18.4567 82.5614 18.214C82.5614 17.9713 82.6454 17.766 82.8134 17.598C82.9814 17.43 83.1867 17.346 83.4294 17.346C83.6627 17.346 83.8587 17.43 84.0174 17.598C84.1854 17.766 84.2694 17.9713 84.2694 18.214C84.2694 18.4567 84.1854 18.662 84.0174 18.83C83.8587 18.998 83.6627 19.082 83.4294 19.082ZM84.0454 20.328V28H82.7714V20.328H84.0454ZM85.7407 24.136C85.7407 23.352 85.8993 22.666 86.2167 22.078C86.534 21.4807 86.968 21.0187 87.5187 20.692C88.0787 20.3653 88.6993 20.202 89.3807 20.202C90.0527 20.202 90.636 20.3467 91.1307 20.636C91.6253 20.9253 91.994 21.2893 92.2367 21.728V20.328H93.5247V28H92.2367V26.572C91.9847 27.02 91.6067 27.3933 91.1027 27.692C90.608 27.9813 90.0293 28.126 89.3667 28.126C88.6853 28.126 88.0693 27.958 87.5187 27.622C86.968 27.286 86.534 26.8147 86.2167 26.208C85.8993 25.6013 85.7407 24.9107 85.7407 24.136ZM92.2367 24.15C92.2367 23.5713 92.12 23.0673 91.8867 22.638C91.6533 22.2087 91.336 21.882 90.9347 21.658C90.5427 21.4247 90.1087 21.308 89.6327 21.308C89.1567 21.308 88.7227 21.42 88.3307 21.644C87.9387 21.868 87.626 22.1947 87.3927 22.624C87.1593 23.0533 87.0427 23.5573 87.0427 24.136C87.0427 24.724 87.1593 25.2373 87.3927 25.676C87.626 26.1053 87.9387 26.4367 88.3307 26.67C88.7227 26.894 89.1567 27.006 89.6327 27.006C90.1087 27.006 90.5427 26.894 90.9347 26.67C91.336 26.4367 91.6533 26.1053 91.8867 25.676C92.12 25.2373 92.2367 24.7287 92.2367 24.15Z" fill="black"></path>
<path d="M269 13.3691C274.224 13.3691 278.5 17.6453 278.5 22.8691C278.5 28.093 274.224 32.3691 269 32.3691C263.776 32.3691 259.5 28.093 259.5 22.8691C259.5 17.6453 263.776 13.3691 269 13.3691Z" stroke="black"></path>
</svg>