<svg width="47" height="18" viewBox="0 0 47 18" fill="none" xmlns="http://www.w3.org/2000/svg">
<rect width="47" height="18" rx="9" fill="#FEC2B0"></rect>
<path d="M15.24 13.5H14.4V5.34H15.24V13.5ZM19.7487 9.312C19.5447 9.144 19.3407 9.048 19.1247 9.048C18.9087 9.048 18.7167 9.12 18.5607 9.24C18.4047 9.36 18.2727 9.516 18.1767 9.696C17.9727 10.044 17.8767 10.428 17.8767 10.86V13.5H17.0367V8.22H17.8767V9.312L17.9127 9.096C18.1887 8.448 18.6207 8.112 19.2207 8.112C19.4007 8.112 19.5807 8.148 19.7487 8.22V9.312ZM25.0833 10.836C25.0833 10.308 24.8913 9.864 24.5193 9.48C24.1353 9.108 23.6913 8.916 23.1633 8.916C22.6353 8.916 22.1793 9.108 21.8073 9.48C21.4233 9.864 21.2433 10.308 21.2433 10.836C21.2433 11.364 21.4233 11.808 21.8073 12.18C22.1793 12.564 22.6353 12.744 23.1633 12.744C23.6913 12.744 24.1353 12.564 24.5193 12.18C24.8913 11.808 25.0833 11.364 25.0833 10.836ZM25.9233 10.836C25.9233 11.604 25.6473 12.252 25.1073 12.78C24.5673 13.32 23.9073 13.584 23.1633 13.584C22.4073 13.584 21.7473 13.32 21.2073 12.78C20.6673 12.252 20.4033 11.604 20.4033 10.836C20.4033 10.08 20.6673 9.432 21.2073 8.892C21.7473 8.352 22.3953 8.076 23.1633 8.076C23.9193 8.076 24.5673 8.352 25.1073 8.892C25.6473 9.432 25.9233 10.08 25.9233 10.836ZM31.0089 13.5V10.212C31.0089 9.864 30.9249 9.564 30.7689 9.324C30.6129 9.084 30.3609 8.964 30.0009 8.964C29.6409 8.964 29.3409 9.024 29.1249 9.168C28.8969 9.3 28.7169 9.48 28.5729 9.696C28.3209 10.092 28.2009 10.62 28.2009 11.292V13.5H27.3609V8.22H28.2009V9.132C28.3689 8.832 28.5969 8.592 28.8729 8.412C29.1609 8.22 29.4849 8.112 29.8689 8.112C30.2409 8.112 30.5409 8.172 30.7809 8.28C31.0089 8.388 31.2009 8.532 31.3689 8.724C31.6809 9.096 31.8489 9.588 31.8489 10.2V13.5H31.0089Z" fill="#FC2611"></path>
</svg>