<svg width="86" height="38" viewBox="0 0 86 38" fill="none" xmlns="http://www.w3.org/2000/svg">
<path d="M37.94 3.5C38.356 3.5 38.693 3.824 38.693 4.224V5.684C39.361 5.672 40.11 5.672 40.953 5.672H44.968C45.81 5.672 46.559 5.672 47.227 5.685V4.225C47.227 3.825 47.564 3.5 47.98 3.5C48.396 3.5 48.733 3.824 48.733 4.224V5.75C50.178 5.861 51.127 6.134 51.823 6.805C52.521 7.475 52.805 8.387 52.92 9.777L53 10.5H33V9.776C33.116 8.386 33.4 7.474 34.097 6.804C34.794 6.134 35.742 5.86 37.187 5.749V4.224C37.187 3.824 37.524 3.5 37.94 3.5Z" fill="black"></path>
<path opacity="0.5" d="M52.9998 15.5V13.5C52.9998 12.661 52.9958 11.165 52.9828 10.5H33.0098C32.9968 11.165 32.9998 12.661 32.9998 13.5V15.5C32.9998 19.271 32.9998 21.157 34.1718 22.328C35.3438 23.499 37.2278 23.5 40.9998 23.5H44.9998C48.7698 23.5 50.6558 23.5 51.8278 22.328C52.9998 21.156 52.9998 19.272 52.9998 15.5Z" fill="black"></path>
<path d="M49 18.5C49 18.7652 48.8946 19.0196 48.7071 19.2071C48.5196 19.3946 48.2652 19.5 48 19.5C47.7348 19.5 47.4804 19.3946 47.2929 19.2071C47.1054 19.0196 47 18.7652 47 18.5C47 18.2348 47.1054 17.9804 47.2929 17.7929C47.4804 17.6054 47.7348 17.5 48 17.5C48.2652 17.5 48.5196 17.6054 48.7071 17.7929C48.8946 17.9804 49 18.2348 49 18.5ZM49 14.5C49 14.7652 48.8946 15.0196 48.7071 15.2071C48.5196 15.3946 48.2652 15.5 48 15.5C47.7348 15.5 47.4804 15.3946 47.2929 15.2071C47.1054 15.0196 47 14.7652 47 14.5C47 14.2348 47.1054 13.9804 47.2929 13.7929C47.4804 13.6054 47.7348 13.5 48 13.5C48.2652 13.5 48.5196 13.6054 48.7071 13.7929C48.8946 13.9804 49 14.2348 49 14.5ZM44 18.5C44 18.7652 43.8946 19.0196 43.7071 19.2071C43.5196 19.3946 43.2652 19.5 43 19.5C42.7348 19.5 42.4804 19.3946 42.2929 19.2071C42.1054 19.0196 42 18.7652 42 18.5C42 18.2348 42.1054 17.9804 42.2929 17.7929C42.4804 17.6054 42.7348 17.5 43 17.5C43.2652 17.5 43.5196 17.6054 43.7071 17.7929C43.8946 17.9804 44 18.2348 44 18.5ZM44 14.5C44 14.7652 43.8946 15.0196 43.7071 15.2071C43.5196 15.3946 43.2652 15.5 43 15.5C42.7348 15.5 42.4804 15.3946 42.2929 15.2071C42.1054 15.0196 42 14.7652 42 14.5C42 14.2348 42.1054 13.9804 42.2929 13.7929C42.4804 13.6054 42.7348 13.5 43 13.5C43.2652 13.5 43.5196 13.6054 43.7071 13.7929C43.8946 13.9804 44 14.2348 44 14.5ZM39 18.5C39 18.7652 38.8946 19.0196 38.7071 19.2071C38.5196 19.3946 38.2652 19.5 38 19.5C37.7348 19.5 37.4804 19.3946 37.2929 19.2071C37.1054 19.0196 37 18.7652 37 18.5C37 18.2348 37.1054 17.9804 37.2929 17.7929C37.4804 17.6054 37.7348 17.5 38 17.5C38.2652 17.5 38.5196 17.6054 38.7071 17.7929C38.8946 17.9804 39 18.2348 39 18.5ZM39 14.5C39 14.7652 38.8946 15.0196 38.7071 15.2071C38.5196 15.3946 38.2652 15.5 38 15.5C37.7348 15.5 37.4804 15.3946 37.2929 15.2071C37.1054 15.0196 37 14.7652 37 14.5C37 14.2348 37.1054 13.9804 37.2929 13.7929C37.4804 13.6054 37.7348 13.5 38 13.5C38.2652 13.5 38.5196 13.6054 38.7071 13.7929C38.8946 13.9804 39 14.2348 39 14.5Z" fill="black"></path>
<path d="M30.2002 31.962L29.5162 31.971C29.4082 31.719 29.2372 31.512 29.0122 31.359C28.7782 31.197 28.5532 31.125 28.3192 31.125C28.0852 31.125 27.8782 31.161 27.7162 31.233C27.5452 31.305 27.4012 31.413 27.2752 31.539C27.0052 31.818 26.8702 32.151 26.8702 32.529C26.8702 32.907 27.0052 33.24 27.2752 33.519C27.5452 33.798 27.8692 33.942 28.2562 33.942C28.5082 33.942 28.7332 33.87 28.9492 33.744C29.1652 33.609 29.3272 33.429 29.4532 33.204H30.1642C29.9392 33.843 29.5072 34.266 28.8772 34.491C28.6792 34.563 28.4542 34.59 28.2022 34.59C27.9502 34.59 27.6982 34.536 27.4552 34.428C27.2032 34.32 26.9962 34.167 26.8162 33.978C26.4202 33.564 26.2312 33.087 26.2312 32.52C26.2312 31.962 26.4202 31.476 26.8162 31.071C27.2032 30.666 27.6892 30.459 28.2562 30.459C28.7062 30.459 29.1112 30.603 29.4802 30.882C29.8312 31.161 30.0742 31.521 30.2002 31.962ZM34.3445 32.52C34.3445 32.142 34.2095 31.8 33.9395 31.512C33.6695 31.224 33.3365 31.08 32.9495 31.08C32.5535 31.08 32.2205 31.224 31.9505 31.512C31.6805 31.8 31.5545 32.142 31.5545 32.52C31.5545 32.907 31.6805 33.249 31.9505 33.528C32.2205 33.816 32.5535 33.96 32.9495 33.96C33.3365 33.96 33.6695 33.816 33.9395 33.528C34.2095 33.249 34.3445 32.907 34.3445 32.52ZM34.9745 34.5H34.3445V33.825C34.3085 33.879 34.2635 33.924 34.2275 33.96C33.8495 34.383 33.3905 34.59 32.8505 34.59C32.3015 34.59 31.8425 34.383 31.4645 33.96C31.1045 33.555 30.9245 33.078 30.9245 32.52C30.9245 31.971 31.1045 31.494 31.4645 31.08C31.8425 30.666 32.3015 30.45 32.8505 30.45C33.3905 30.45 33.8495 30.666 34.2275 31.08C34.2635 31.125 34.3085 31.17 34.3445 31.224V30.54H34.9745V34.5ZM36.9573 34.5H36.3273V27.75H36.9573V34.5ZM42.1749 32.43V32.772H38.6919C38.7459 33.105 38.9169 33.384 39.1869 33.609C39.4569 33.825 39.7629 33.942 40.1049 33.942C40.3299 33.942 40.5459 33.888 40.7529 33.78C40.9599 33.672 41.1309 33.528 41.2749 33.339H41.9949C41.8239 33.717 41.5719 34.023 41.2299 34.239C40.8879 34.455 40.5459 34.563 40.1949 34.563C39.8439 34.563 39.5469 34.509 39.2949 34.401C39.0429 34.293 38.8269 34.149 38.6379 33.96C38.2329 33.564 38.0349 33.078 38.0349 32.502C38.0349 31.935 38.2329 31.449 38.6379 31.044C39.0429 30.639 39.5289 30.432 40.1049 30.432C40.6539 30.432 41.1399 30.63 41.5449 31.017C41.9589 31.422 42.1749 31.89 42.1749 32.43ZM41.5089 32.232C41.4279 31.89 41.2659 31.611 40.9959 31.386C40.7349 31.17 40.4379 31.062 40.1049 31.062C39.5829 31.062 39.1779 31.296 38.8899 31.764C38.7999 31.908 38.7369 32.061 38.7009 32.232H41.5089ZM45.9452 34.5V32.034C45.9452 31.773 45.8822 31.548 45.7652 31.368C45.6482 31.188 45.4592 31.098 45.1892 31.098C44.9192 31.098 44.6942 31.143 44.5322 31.251C44.3612 31.35 44.2262 31.485 44.1182 31.647C43.9292 31.944 43.8392 32.34 43.8392 32.844V34.5H43.2092V30.54H43.8392V31.224C43.9652 30.999 44.1362 30.819 44.3432 30.684C44.5592 30.54 44.8022 30.459 45.0902 30.459C45.3692 30.459 45.5942 30.504 45.7742 30.585C45.9452 30.666 46.0892 30.774 46.2152 30.918C46.4492 31.197 46.5752 31.566 46.5752 32.025V34.5H45.9452ZM50.9383 32.52C50.9383 32.142 50.8033 31.8 50.5333 31.512C50.2633 31.224 49.9303 31.08 49.5433 31.08C49.1473 31.08 48.8143 31.224 48.5443 31.512C48.2743 31.8 48.1483 32.142 48.1483 32.52C48.1483 32.907 48.2743 33.249 48.5443 33.528C48.8143 33.816 49.1473 33.96 49.5433 33.96C49.9303 33.96 50.2633 33.816 50.5333 33.528C50.8033 33.249 50.9383 32.907 50.9383 32.52ZM51.5683 34.5H50.9383V33.825C50.9023 33.879 50.8573 33.924 50.8213 33.96C50.4433 34.383 49.9843 34.59 49.4443 34.59C48.8953 34.59 48.4363 34.383 48.0583 33.96C47.6983 33.555 47.5183 33.078 47.5183 32.52C47.5183 31.971 47.6983 31.494 48.0583 31.08C48.4363 30.666 48.8953 30.45 49.4443 30.45C49.9843 30.45 50.4433 30.666 50.8213 31.08C50.8573 31.125 50.9023 31.17 50.9383 31.224V27.75H51.5683V34.5ZM56.0711 32.52C56.0711 32.142 55.9361 31.8 55.6661 31.512C55.3961 31.224 55.0631 31.08 54.6761 31.08C54.2801 31.08 53.9471 31.224 53.6771 31.512C53.4071 31.8 53.2811 32.142 53.2811 32.52C53.2811 32.907 53.4071 33.249 53.6771 33.528C53.9471 33.816 54.2801 33.96 54.6761 33.96C55.0631 33.96 55.3961 33.816 55.6661 33.528C55.9361 33.249 56.0711 32.907 56.0711 32.52ZM56.7011 34.5H56.0711V33.825C56.0351 33.879 55.9901 33.924 55.9541 33.96C55.5761 34.383 55.1171 34.59 54.5771 34.59C54.0281 34.59 53.5691 34.383 53.1911 33.96C52.8311 33.555 52.6511 33.078 52.6511 32.52C52.6511 31.971 52.8311 31.494 53.1911 31.08C53.5691 30.666 54.0281 30.45 54.5771 30.45C55.1171 30.45 55.5761 30.666 55.9541 31.08C55.9901 31.125 56.0351 31.17 56.0711 31.224V30.54H56.7011V34.5ZM60.0879 31.359C59.9349 31.233 59.7819 31.161 59.6199 31.161C59.4579 31.161 59.3139 31.215 59.1969 31.305C59.0799 31.395 58.9809 31.512 58.9089 31.647C58.7559 31.908 58.6839 32.196 58.6839 32.52V34.5H58.0539V30.54H58.6839V31.359L58.7109 31.197C58.9179 30.711 59.2419 30.459 59.6919 30.459C59.8269 30.459 59.9619 30.486 60.0879 30.54V31.359Z" fill="black"></path>
</svg>