<svg width="331" height="46" viewBox="0 0 331 46" fill="none" xmlns="http://www.w3.org/2000/svg">
<g filter="url(#filter0_d_79_4812)">
<rect x="2" y="1" width="327" height="42" rx="8" fill="white"></rect>
<rect x="2.5" y="1.5" width="326" height="41" rx="7.5" stroke="#DDDDDD"></rect>
<path d="M20 15H36C36.55 15 37 15.45 37 16V28C37 28.55 36.55 29 36 29H20C19.45 29 19 28.55 19 28V16C19 15.45 19.45 15 20 15Z" stroke="#737373" stroke-linecap="round" stroke-linejoin="round"></path>
<path d="M19 16.5L28 22L37 16.5" stroke="#737373" stroke-linecap="round" stroke-linejoin="round"></path>
<path d="M55.185 28H49.125V17.8H55.185V18.775H50.175V22.405H55.035V23.395H50.175V27.025H55.185V28ZM65.8007 27.97L65.7857 23.845C65.7857 23.17 65.5757 22.69 65.1407 22.42C64.9907 22.33 64.7657 22.27 64.4507 22.27C64.1507 22.27 63.8507 22.36 63.5807 22.54C63.3107 22.72 63.1007 22.96 62.9357 23.23C62.8757 23.35 62.8157 23.47 62.7707 23.605C62.7707 23.68 62.7707 23.77 62.7707 23.845V27.97H61.7207V23.845C61.7207 23.17 61.5107 22.69 61.0757 22.42C60.9257 22.33 60.7007 22.27 60.3857 22.27C60.0857 22.27 59.7857 22.36 59.5157 22.54C59.2457 22.72 59.0357 22.96 58.8707 23.23C58.6607 23.605 58.5257 24.07 58.4657 24.595V27.97H57.4157V21.37H58.4657V22.435C58.6757 22.09 58.9157 21.82 59.2157 21.595C59.5607 21.355 59.9657 21.22 60.4157 21.22C60.8807 21.22 61.2557 21.295 61.5407 21.445C61.8107 21.595 62.0507 21.775 62.2307 22.015C62.3357 22.165 62.4257 22.315 62.5007 22.48C62.7107 22.12 62.9657 21.835 63.2807 21.595C63.6257 21.355 64.0307 21.22 64.4807 21.22C64.9457 21.22 65.3207 21.295 65.6057 21.445C65.8757 21.595 66.1157 21.775 66.2957 22.015C66.6557 22.495 66.8507 23.11 66.8507 23.845V27.97H65.8007ZM74.1211 24.7C74.1211 24.07 73.8961 23.5 73.4461 23.02C72.9961 22.54 72.4411 22.3 71.7961 22.3C71.1361 22.3 70.5811 22.54 70.1311 23.02C69.6811 23.5 69.4711 24.07 69.4711 24.7C69.4711 25.345 69.6811 25.915 70.1311 26.38C70.5811 26.86 71.1361 27.1 71.7961 27.1C72.4411 27.1 72.9961 26.86 73.4461 26.38C73.8961 25.915 74.1211 25.345 74.1211 24.7ZM75.1711 28H74.1211V26.875C74.0611 26.965 73.9861 27.04 73.9261 27.1C73.2961 27.805 72.5311 28.15 71.6311 28.15C70.7161 28.15 69.9511 27.805 69.3211 27.1C68.7211 26.425 68.4211 25.63 68.4211 24.7C68.4211 23.785 68.7211 22.99 69.3211 22.3C69.9511 21.61 70.7161 21.25 71.6311 21.25C72.5311 21.25 73.2961 21.61 73.9261 22.3C73.9861 22.375 74.0611 22.45 74.1211 22.54V21.4H75.1711V28ZM78.4908 19.12C78.6108 19.255 78.6858 19.42 78.6858 19.6C78.6858 19.78 78.6108 19.945 78.4908 20.065C78.3558 20.2 78.1908 20.26 78.0108 20.26C77.8308 20.26 77.6658 20.2 77.5458 20.065C77.4108 19.945 77.3508 19.78 77.3508 19.6C77.3508 19.42 77.4108 19.255 77.5458 19.12C77.6658 19 77.8308 18.925 78.0108 18.925C78.1908 18.925 78.3558 19 78.4908 19.12ZM78.5508 28H77.5008V21.4H78.5508V28ZM81.9035 28H80.8535V16.75H81.9035V28ZM93.4424 24.7C93.4424 24.07 93.2174 23.5 92.7674 23.02C92.3174 22.54 91.7624 22.3 91.1174 22.3C90.4574 22.3 89.9024 22.54 89.4524 23.02C89.0024 23.5 88.7924 24.07 88.7924 24.7C88.7924 25.345 89.0024 25.915 89.4524 26.38C89.9024 26.86 90.4574 27.1 91.1174 27.1C91.7624 27.1 92.3174 26.86 92.7674 26.38C93.2174 25.915 93.4424 25.345 93.4424 24.7ZM94.4924 28H93.4424V26.875C93.3824 26.965 93.3074 27.04 93.2474 27.1C92.6174 27.805 91.8524 28.15 90.9524 28.15C90.0374 28.15 89.2724 27.805 88.6424 27.1C88.0424 26.425 87.7424 25.63 87.7424 24.7C87.7424 23.785 88.0424 22.99 88.6424 22.3C89.2724 21.61 90.0374 21.25 90.9524 21.25C91.8524 21.25 92.6174 21.61 93.2474 22.3C93.3074 22.375 93.3824 22.45 93.4424 22.54V21.4H94.4924V28ZM101.997 24.7C101.997 24.07 101.772 23.5 101.322 23.02C100.872 22.54 100.317 22.3 99.6721 22.3C99.0121 22.3 98.4571 22.54 98.0071 23.02C97.5571 23.5 97.3471 24.07 97.3471 24.7C97.3471 25.345 97.5571 25.915 98.0071 26.38C98.4571 26.86 99.0121 27.1 99.6721 27.1C100.317 27.1 100.872 26.86 101.322 26.38C101.772 25.915 101.997 25.345 101.997 24.7ZM103.047 28H101.997V26.875C101.937 26.965 101.862 27.04 101.802 27.1C101.172 27.805 100.407 28.15 99.5071 28.15C98.5921 28.15 97.8271 27.805 97.1971 27.1C96.5971 26.425 96.2971 25.63 96.2971 24.7C96.2971 23.785 96.5971 22.99 97.1971 22.3C97.8271 21.61 98.5921 21.25 99.5071 21.25C100.407 21.25 101.172 21.61 101.802 22.3C101.862 22.375 101.937 22.45 101.997 22.54V16.75H103.047V28ZM110.552 24.7C110.552 24.07 110.327 23.5 109.877 23.02C109.427 22.54 108.872 22.3 108.227 22.3C107.567 22.3 107.012 22.54 106.562 23.02C106.112 23.5 105.902 24.07 105.902 24.7C105.902 25.345 106.112 25.915 106.562 26.38C107.012 26.86 107.567 27.1 108.227 27.1C108.872 27.1 109.427 26.86 109.877 26.38C110.327 25.915 110.552 25.345 110.552 24.7ZM111.602 28H110.552V26.875C110.492 26.965 110.417 27.04 110.357 27.1C109.727 27.805 108.962 28.15 108.062 28.15C107.147 28.15 106.382 27.805 105.752 27.1C105.152 26.425 104.852 25.63 104.852 24.7C104.852 23.785 105.152 22.99 105.752 22.3C106.382 21.61 107.147 21.25 108.062 21.25C108.962 21.25 109.727 21.61 110.357 22.3C110.417 22.375 110.492 22.45 110.552 22.54V16.75H111.602V28ZM117.246 22.765C116.991 22.555 116.736 22.435 116.466 22.435C116.196 22.435 115.956 22.525 115.761 22.675C115.566 22.825 115.401 23.02 115.281 23.245C115.026 23.68 114.906 24.16 114.906 24.7V28H113.856V21.4H114.906V22.765L114.951 22.495C115.296 21.685 115.836 21.265 116.586 21.265C116.811 21.265 117.036 21.31 117.246 21.4V22.765ZM124.965 24.55V25.12H119.16C119.25 25.675 119.535 26.14 119.985 26.515C120.435 26.875 120.945 27.07 121.515 27.07C121.89 27.07 122.25 26.98 122.595 26.8C122.94 26.62 123.225 26.38 123.465 26.065H124.665C124.38 26.695 123.96 27.205 123.39 27.565C122.82 27.925 122.25 28.105 121.665 28.105C121.08 28.105 120.585 28.015 120.165 27.835C119.745 27.655 119.385 27.415 119.07 27.1C118.395 26.44 118.065 25.63 118.065 24.67C118.065 23.725 118.395 22.915 119.07 22.24C119.745 21.565 120.555 21.22 121.515 21.22C122.43 21.22 123.24 21.55 123.915 22.195C124.605 22.87 124.965 23.65 124.965 24.55ZM123.855 24.22C123.72 23.65 123.45 23.185 123 22.81C122.565 22.45 122.07 22.27 121.515 22.27C120.645 22.27 119.97 22.66 119.49 23.44C119.34 23.68 119.235 23.935 119.175 24.22H123.855ZM127.633 27.07C127.903 27.25 128.248 27.34 128.653 27.34C129.613 27.34 130.093 26.98 130.093 26.26C130.093 25.84 129.748 25.51 129.073 25.285C128.773 25.195 128.458 25.105 128.128 25.03C127.798 24.94 127.483 24.835 127.183 24.7C126.853 24.55 126.598 24.355 126.418 24.1C126.253 23.86 126.163 23.575 126.163 23.26C126.163 22.6 126.403 22.105 126.853 21.76C127.318 21.43 127.873 21.265 128.503 21.265C129.148 21.265 129.673 21.385 130.108 21.655C130.528 21.91 130.813 22.375 130.948 23.05H129.823C129.718 22.675 129.538 22.435 129.313 22.315C129.088 22.195 128.803 22.135 128.473 22.135C128.158 22.135 127.873 22.195 127.633 22.345C127.393 22.48 127.273 22.705 127.273 23.005C127.273 23.305 127.378 23.515 127.573 23.65C127.768 23.785 128.008 23.905 128.308 23.995C128.593 24.085 128.908 24.175 129.238 24.25C129.583 24.325 129.898 24.43 130.183 24.565C130.873 24.895 131.203 25.405 131.203 26.125C131.203 26.83 130.948 27.355 130.438 27.7C130.183 27.865 129.913 27.985 129.598 28.075C129.283 28.165 128.953 28.195 128.593 28.195C127.063 28.195 126.193 27.52 125.968 26.155H127.078C127.183 26.59 127.378 26.89 127.633 27.07ZM133.669 27.07C133.939 27.25 134.284 27.34 134.689 27.34C135.649 27.34 136.129 26.98 136.129 26.26C136.129 25.84 135.784 25.51 135.109 25.285C134.809 25.195 134.494 25.105 134.164 25.03C133.834 24.94 133.519 24.835 133.219 24.7C132.889 24.55 132.634 24.355 132.454 24.1C132.289 23.86 132.199 23.575 132.199 23.26C132.199 22.6 132.439 22.105 132.889 21.76C133.354 21.43 133.909 21.265 134.539 21.265C135.184 21.265 135.709 21.385 136.144 21.655C136.564 21.91 136.849 22.375 136.984 23.05H135.859C135.754 22.675 135.574 22.435 135.349 22.315C135.124 22.195 134.839 22.135 134.509 22.135C134.194 22.135 133.909 22.195 133.669 22.345C133.429 22.48 133.309 22.705 133.309 23.005C133.309 23.305 133.414 23.515 133.609 23.65C133.804 23.785 134.044 23.905 134.344 23.995C134.629 24.085 134.944 24.175 135.274 24.25C135.619 24.325 135.934 24.43 136.219 24.565C136.909 24.895 137.239 25.405 137.239 26.125C137.239 26.83 136.984 27.355 136.474 27.7C136.219 27.865 135.949 27.985 135.634 28.075C135.319 28.165 134.989 28.195 134.629 28.195C133.099 28.195 132.229 27.52 132.004 26.155H133.114C133.219 26.59 133.414 26.89 133.669 27.07Z" fill="#737373"></path>
</g>
<defs>
<filter id="filter0_d_79_4812" x="0" y="0" width="331" height="46" filterUnits="userSpaceOnUse" color-interpolation-filters="sRGB">
<feFlood flood-opacity="0" result="BackgroundImageFix"></feFlood>
<feColorMatrix in="SourceAlpha" type="matrix" values="0 0 0 0 0 0 0 0 0 0 0 0 0 0 0 0 0 0 127 0" result="hardAlpha"></feColorMatrix>
<feOffset dy="1"></feOffset>
<feGaussianBlur stdDeviation="1"></feGaussianBlur>
<feColorMatrix type="matrix" values="0 0 0 0 0 0 0 0 0 0 0 0 0 0 0 0 0 0 0.05 0"></feColorMatrix>
<feBlend mode="normal" in2="BackgroundImageFix" result="effect1_dropShadow_79_4812"></feBlend>
<feBlend mode="normal" in="SourceGraphic" in2="effect1_dropShadow_79_4812" result="shape"></feBlend>
</filter>
</defs>
</svg>