<svg width="97" height="97" viewBox="0 0 97 97" fill="none" xmlns="http://www.w3.org/2000/svg">
<circle cx="48.5001" cy="48.5" r="48.5" fill="#FFFAF9"></circle>
<path d="M48.5001 7.275C48.5001 3.25713 51.7753 -0.0558812 55.748 0.54457C63.7492 1.75388 71.3614 4.95303 77.8631 9.8987C86.3051 16.3203 92.4092 25.3323 95.2404 35.5542C98.0716 45.7761 97.4738 56.6444 93.5385 66.4941C89.6033 76.3438 82.5476 84.632 73.4522 90.0889C64.3569 95.5459 53.7234 97.8707 43.1806 96.7074C32.6379 95.5441 22.7671 90.9567 15.0804 83.6479C7.39368 76.3392 2.31484 66.7121 0.621855 56.2413C-0.682022 48.1771 0.0777925 39.9549 2.77631 32.3261C4.11618 28.5382 8.58076 27.2076 12.1259 29.0985C15.671 30.9894 16.926 35.3917 15.8322 39.2578C14.4916 43.9968 14.19 48.9998 14.9853 53.9189C16.1704 61.2484 19.7256 67.9874 25.1063 73.1035C30.487 78.2197 37.3965 81.4308 44.7765 82.2452C52.1564 83.0595 59.5998 81.4321 65.9666 77.6123C72.3333 73.7924 77.2723 67.9907 80.027 61.0959C82.7816 54.2011 83.2001 46.5933 81.2183 39.4379C79.2364 32.2826 74.9636 25.9742 69.0542 21.4791C65.0883 18.4623 60.532 16.3739 55.7197 15.3265C51.7937 14.472 48.5001 11.2929 48.5001 7.275Z" fill="url(#paint0_linear_5_180)"></path>
<defs>
<linearGradient id="paint0_linear_5_180" x1="55.5001" y1="-2.70172e-06" x2="-8.99994" y2="23.5" gradientUnits="userSpaceOnUse">
<stop stop-color="#FF664F"></stop>
<stop offset="0.27886" stop-color="#CE4A49"></stop>
<stop offset="0.480499" stop-color="#CA4848"></stop>
<stop offset="1" stop-color="#DE2A2A"></stop>
</linearGradient>
</defs>
</svg>