<svg width="97" height="97" viewBox="0 0 97 97" fill="none" xmlns="http://www.w3.org/2000/svg">
<circle cx="48.5" cy="48.5" r="48.5" fill="#FFFAF9"></circle>
<path d="M48.5 7.2683C48.5 3.25413 51.7721 -0.0557364 55.7412 0.543605C61.5464 1.42018 67.1647 3.34668 72.3142 6.24914C79.5826 10.3459 85.6712 16.2484 89.9915 23.3862C94.3118 30.5239 96.7177 38.6555 96.9766 46.995C97.2355 55.3344 95.3387 63.5996 91.4695 70.9916C87.6003 78.3836 81.8895 84.6525 74.8893 89.1922C67.889 93.7319 59.836 96.389 51.5086 96.9066C43.1813 97.4242 34.8612 95.7847 27.3527 92.1468C22.033 89.5693 17.2482 86.0505 13.2196 81.7798C10.4652 78.8598 11.3203 74.2848 14.6188 71.9972C17.9174 69.7096 22.4027 70.6033 25.3386 73.3408C27.8112 75.6462 30.6242 77.5789 33.691 79.0648C38.9491 81.6124 44.7754 82.7604 50.6069 82.398C56.4383 82.0356 62.0777 80.1749 66.9798 76.9958C71.8819 73.8167 75.881 69.4268 78.5905 64.2503C81.3001 59.0739 82.6284 53.286 82.4471 47.4461C82.2657 41.6062 80.5809 35.9118 77.5555 30.9134C74.5301 25.915 70.2664 21.7816 65.1765 18.9127C62.2078 17.2394 59.0166 16.0294 55.713 15.3114C51.7904 14.4588 48.5 11.2825 48.5 7.2683Z" fill="url(#paint0_linear_5_179)"></path>
<defs>
<linearGradient id="paint0_linear_5_179" x1="55.5" y1="-2.70172e-06" x2="-9" y2="23.5" gradientUnits="userSpaceOnUse">
<stop stop-color="#FF664F"></stop>
<stop offset="1" stop-color="#F79E5C"></stop>
</linearGradient>
</defs>
</svg>