<svg width="97" height="97" viewBox="0 0 97 97" fill="none" xmlns="http://www.w3.org/2000/svg">
<circle cx="48.5" cy="48.5" r="48.5" fill="#FFFAF9"></circle>
<path d="M7.275 48.5C3.25713 48.5 -0.05586 51.7751 0.544587 55.7479C1.6052 62.7652 4.19803 69.4951 8.17372 75.4452C13.503 83.4209 21.0776 89.6373 29.9398 93.3082C38.8021 96.979 48.5538 97.9395 57.9619 96.0681C67.37 94.1967 76.0118 89.5775 82.7947 82.7947C89.5775 76.0118 94.1967 67.37 96.0681 57.9619C97.9395 48.5538 96.979 38.8021 93.3082 29.9399C89.6373 21.0776 83.4209 13.503 75.4452 8.17373C69.4951 4.19803 62.7653 1.6052 55.7479 0.544589C51.7751 -0.0558594 48.5 3.25713 48.5 7.275C48.5 11.2929 51.7936 14.4721 55.7196 15.3265C59.855 16.2265 63.8071 17.8966 67.3616 20.2716C72.9447 24.0021 77.2961 29.3043 79.8657 35.5079C82.4353 41.7115 83.1076 48.5377 81.7977 55.1233C80.4877 61.709 77.2543 67.7583 72.5063 72.5063C67.7583 77.2543 61.709 80.4877 55.1233 81.7977C48.5377 83.1076 41.7114 82.4353 35.5079 79.8657C29.3043 77.2961 24.0021 72.9447 20.2716 67.3616C17.8966 63.8071 16.2265 59.855 15.3265 55.7196C14.4721 51.7936 11.2929 48.5 7.275 48.5Z" fill="url(#paint0_linear_5_178)"></path>
<defs>
<linearGradient id="paint0_linear_5_178" x1="55.5" y1="-2.70172e-06" x2="-9" y2="23.5" gradientUnits="userSpaceOnUse">
<stop stop-color="#FF664F"></stop>
<stop offset="1" stop-color="#F79E5C"></stop>
</linearGradient>
</defs>
</svg>