<svg width="122" height="122" viewBox="0 0 122 122" fill="none" xmlns="http://www.w3.org/2000/svg">
<circle cx="61.0001" cy="61" r="61" fill="url(#paint0_radial_40_1482)"></circle>
<path d="M65.7314 6.3387C66.0236 2.96343 69.0065 0.432807 72.3354 1.06227C85.5621 3.56331 97.6545 10.3862 106.657 20.5474C117.022 32.246 122.502 47.477 121.964 63.0976C121.427 78.7182 114.914 93.5366 103.769 104.495C92.6243 115.454 77.6983 121.716 62.0709 121.991C46.4434 122.265 31.3069 116.53 19.7844 105.97C8.26197 95.409 1.23284 80.8284 0.147396 65.2362C-0.938046 49.6441 4.00302 34.2302 13.9511 22.1749C22.5917 11.704 34.4372 4.46088 47.5679 1.4971C50.8727 0.751169 53.9426 3.17553 54.353 6.53847C54.7635 9.9014 52.3543 12.9221 49.0695 13.7515C39.059 16.2791 30.0524 21.9388 23.4138 29.9836C15.4666 39.6143 11.5193 51.9281 12.3864 64.3842C13.2536 76.8404 18.8689 88.4885 28.0739 96.9251C37.2789 105.362 49.3711 109.943 61.8555 109.724C74.3399 109.505 86.2639 104.502 95.1671 95.7472C104.07 86.9927 109.273 75.1546 109.703 62.6757C110.132 50.1968 105.755 38.0291 97.4745 28.6834C90.5576 20.8766 81.358 15.5365 71.2649 13.3618C67.953 12.6483 65.4393 9.71398 65.7314 6.3387Z" fill="#FF7E7E" fill-opacity="0.44"></path>
<path d="M39.7148 59H37.2398L36.0398 51.965L34.0448 59H31.8398L29.8448 51.965L28.6448 59H26.1698L28.1498 48.8H30.8198L32.9498 55.955L35.0648 48.8H37.7348L39.7148 59ZM42.7311 54.905H45.6861C45.6861 54.905 45.5811 53.675 44.2161 53.675C42.8061 53.675 42.7311 54.905 42.7311 54.905ZM47.8461 55.55C47.8461 55.685 47.8311 55.835 47.8311 55.97H42.7011C42.7011 56.735 43.2411 57.545 44.1261 57.545C44.9211 57.545 45.4161 57.02 45.4311 56.54H47.7261C47.3361 58.28 45.9261 59.15 44.1711 59.15C41.8911 59.15 40.3161 57.8 40.3161 55.7C40.3161 53.63 41.9511 52.235 44.1711 52.235C46.1811 52.235 47.8461 53.435 47.8461 55.55ZM56.0401 55.25V59H53.7901V55.25C53.7901 54.47 53.4901 54.05 52.7851 54.05C52.0801 54.05 51.5251 54.8 51.5251 55.7V59H49.2751V52.385H51.5251V53.195C51.9751 52.625 52.6801 52.235 53.5501 52.235C55.3201 52.235 56.0401 53.45 56.0401 55.25ZM63.7301 54.395H61.5251C61.4501 53.795 60.8951 53.63 60.4601 53.63C60.0251 53.63 59.5601 53.855 59.5601 54.245C59.5601 55.175 63.8351 54.23 63.8351 57.02C63.8351 58.58 62.5001 59.15 60.5801 59.15C58.6151 59.15 57.1301 58.415 57.0101 56.54H59.2451C59.2451 57.53 60.1301 57.59 60.6251 57.59C61.1351 57.59 61.5701 57.395 61.5701 57.035C61.5701 55.64 57.2951 56.735 57.2951 54.335C57.2951 52.985 58.3301 52.235 60.5201 52.235C62.2601 52.235 63.5351 52.88 63.7301 54.395ZM68.0183 54.125V59H65.7833V54.125H64.5833V52.385H65.7833V49.865H68.0183V52.385H69.2183V54.125H68.0183ZM74.1478 54.05C73.3078 54.05 72.6628 54.905 72.6628 55.7V59H70.4128V52.385H72.6628V53.195C73.0078 52.7 73.5778 52.235 74.4028 52.235C74.5978 52.235 74.8978 52.295 75.0778 52.385V54.425H75.0478C74.8228 54.155 74.4928 54.05 74.1478 54.05ZM75.9757 56.15V52.385H78.2257V56.15C78.2257 56.915 78.5257 57.35 79.2307 57.35C79.9357 57.35 80.4907 56.585 80.4907 55.7V52.385H82.7407V59H80.4907V58.19C80.0407 58.76 79.3357 59.15 78.4657 59.15C76.6957 59.15 75.9757 57.935 75.9757 56.15ZM89.7089 55.7C89.7089 54.83 89.0339 54.05 88.1339 54.05C87.2339 54.05 86.5589 54.83 86.5589 55.7C86.5589 56.57 87.2339 57.35 88.1339 57.35C89.0339 57.35 89.7089 56.57 89.7089 55.7ZM91.9589 52.4V59H89.7089V58.205C89.2589 58.88 88.2839 59.15 87.4439 59.15C85.5689 59.15 84.1589 57.53 84.1589 55.7C84.1589 53.87 85.5689 52.235 87.4439 52.235C88.2839 52.235 89.1239 52.475 89.7089 53.195V52.4H91.9589ZM96.0124 59H93.7624V47.75H96.0124V59ZM54.1404 67.92C54.1404 68.52 54.0204 69.06 53.8044 69.564C53.5884 70.068 53.2884 70.488 52.9164 70.848C52.5324 71.208 52.0884 71.496 51.5844 71.7C51.0684 71.904 50.5164 72 49.9404 72H47.8044V63.84H49.9404C50.5164 63.84 51.0684 63.948 51.5844 64.152C52.0884 64.356 52.5324 64.632 52.9164 64.992C53.2884 65.352 53.5884 65.784 53.8044 66.288C54.0204 66.792 54.1404 67.332 54.1404 67.92ZM53.3244 67.92C53.3244 66.996 52.9884 66.216 52.3404 65.592C51.6924 64.992 50.9004 64.68 49.9644 64.68H48.6444V71.16H49.9644C50.9004 71.16 51.6924 70.86 52.3404 70.248C52.9884 69.636 53.3244 68.856 53.3244 67.92ZM59.7857 69.36C59.7857 68.856 59.6057 68.4 59.2457 68.016C58.8857 67.632 58.4417 67.44 57.9257 67.44C57.3977 67.44 56.9537 67.632 56.5937 68.016C56.2337 68.4 56.0657 68.856 56.0657 69.36C56.0657 69.876 56.2337 70.332 56.5937 70.704C56.9537 71.088 57.3977 71.28 57.9257 71.28C58.4417 71.28 58.8857 71.088 59.2457 70.704C59.6057 70.332 59.7857 69.876 59.7857 69.36ZM60.6257 72H59.7857V71.1C59.7377 71.172 59.6777 71.232 59.6297 71.28C59.1257 71.844 58.5137 72.12 57.7937 72.12C57.0617 72.12 56.4497 71.844 55.9457 71.28C55.4657 70.74 55.2257 70.104 55.2257 69.36C55.2257 68.628 55.4657 67.992 55.9457 67.44C56.4497 66.888 57.0617 66.6 57.7937 66.6C58.5137 66.6 59.1257 66.888 59.6297 67.44C59.6777 67.5 59.7377 67.56 59.7857 67.632V66.72H60.6257V72ZM63.1014 75H62.0814L63.8574 71.136L61.6494 66.72H62.6094L64.3014 70.26L65.8134 66.72H66.7494L63.1014 75ZM74.1335 71.916C73.7975 72.06 73.4735 72.132 73.1375 72.132C72.8015 72.132 72.5015 72.084 72.2375 72C71.9615 71.904 71.7095 71.784 71.4815 71.628C70.9895 71.292 70.6535 70.86 70.4735 70.332L71.2895 70.056C71.4215 70.428 71.6495 70.728 71.9855 70.944C72.3095 71.16 72.6335 71.28 72.9695 71.28C73.2935 71.28 73.5695 71.22 73.8095 71.124C74.0375 71.028 74.2415 70.896 74.4095 70.728C74.7935 70.356 74.9855 69.912 74.9855 69.408C74.9855 68.88 74.7935 68.436 74.4215 68.064C74.0495 67.692 73.6055 67.512 73.0775 67.512C72.5495 67.512 72.0935 67.704 71.7095 68.088L71.0735 67.572L73.5455 64.692H70.8575V63.852H75.2495L72.6935 66.876L73.0535 66.66C73.8335 66.708 74.4815 66.984 74.9975 67.476C75.5495 68.004 75.8255 68.652 75.8255 69.408C75.8255 70.176 75.5495 70.812 75.0095 71.34C74.7575 71.58 74.4695 71.772 74.1335 71.916Z" fill="#CA4848"></path>
<path d="M65.7314 6.3387C66.0236 2.96343 69.0064 0.432832 72.3352 1.06236C80.2993 2.56844 87.8846 5.64724 94.6454 10.1178C97.4713 11.9864 97.8466 15.88 95.7037 18.5041C93.5608 21.1281 89.7132 21.4806 86.8409 19.6841C82.0545 16.6905 76.7835 14.551 71.2647 13.3619C67.9528 12.6483 65.4393 9.71398 65.7314 6.3387Z" fill="url(#paint1_linear_40_1482)"></path>
<defs>
<radialGradient id="paint0_radial_40_1482" cx="0" cy="0" r="1" gradientUnits="userSpaceOnUse" gradientTransform="translate(92.0001 104.5) rotate(-126.699) scale(100.4)">
<stop stop-color="white"></stop>
</radialGradient>
<linearGradient id="paint1_linear_40_1482" x1="61.0001" y1="-2.23517e-06" x2="98.5001" y2="23.5" gradientUnits="userSpaceOnUse">
<stop stop-color="#FFA74B"></stop>
<stop offset="1" stop-color="#FF3333"></stop>
</linearGradient>
</defs>
</svg>