<svg width="122" height="122" viewBox="0 0 122 122" fill="none" xmlns="http://www.w3.org/2000/svg">
<circle cx="61" cy="61" r="61" fill="url(#paint0_radial_40_1615)"></circle>
<path d="M65.7313 6.3387C66.0235 2.96343 69.0064 0.432807 72.3353 1.06227C85.562 3.56331 97.6544 10.3862 106.657 20.5474C117.022 32.246 122.501 47.477 121.964 63.0976C121.426 78.7182 114.913 93.5366 103.769 104.495C92.6242 115.454 77.6982 121.716 62.0708 121.991C46.4433 122.265 31.3067 116.53 19.7843 105.97C8.26184 95.409 1.23272 80.8284 0.147274 65.2362C-0.938168 49.6441 4.0029 34.2302 13.9509 22.1749C22.5916 11.704 34.437 4.46088 47.5678 1.4971C50.8726 0.751169 53.9424 3.17553 54.3529 6.53847C54.7633 9.9014 52.3542 12.9221 49.0694 13.7515C39.0588 16.2791 30.0523 21.9388 23.4137 29.9836C15.4665 39.6143 11.5192 51.9281 12.3863 64.3842C13.2534 76.8404 18.8688 88.4885 28.0738 96.9251C37.2788 105.362 49.371 109.943 61.8554 109.724C74.3398 109.505 86.2637 104.502 95.1669 95.7472C104.07 86.9927 109.273 75.1546 109.703 62.6757C110.132 50.1968 105.755 38.0291 97.4744 28.6834C90.5575 20.8766 81.3579 15.5365 71.2648 13.3618C67.9529 12.6483 65.4392 9.71398 65.7313 6.3387Z" fill="#F5CFFF" fill-opacity="0.63"></path>
<path d="M65.7313 6.3387C66.0235 2.96343 69.0062 0.43283 72.3351 1.06236C82.3978 2.96531 91.8544 7.3788 99.8065 13.9357C109.342 21.7979 116.264 32.3709 119.657 44.2547C123.049 56.1385 122.752 68.7726 118.805 80.4838C114.857 92.195 107.446 102.431 97.5515 109.836C87.6573 117.242 75.7471 121.467 63.398 121.953C51.049 122.439 38.8436 119.162 28.3982 112.557C17.9527 105.952 9.75995 96.3298 4.90467 84.9649C0.855508 75.4868 -0.713087 65.1695 0.297872 54.9786C0.632315 51.6072 3.90114 49.4588 7.22188 50.13C10.5426 50.8012 12.6493 54.0401 12.4004 57.4188C11.83 65.1584 13.1148 72.954 16.1869 80.1449C20.0656 89.2241 26.6106 96.9109 34.9552 102.188C43.2998 107.464 53.0504 110.082 62.9157 109.694C72.7811 109.306 82.2958 105.93 90.2001 100.014C98.1043 94.0982 104.025 85.9209 107.179 76.5651C110.332 67.2093 110.57 57.1163 107.859 47.6226C105.149 38.1289 99.619 29.6824 92.0016 23.4015C85.9684 18.4268 78.8511 14.9966 71.2646 13.3619C67.9527 12.6483 65.4392 9.71398 65.7313 6.3387Z" fill="url(#paint1_linear_40_1615)"></path>
<path d="M40.984 59V48.8H43.234V56.96H46.894V59H40.984ZM48.1729 56.15V52.385H50.4229V56.15C50.4229 56.915 50.7229 57.35 51.4279 57.35C52.1329 57.35 52.6879 56.585 52.6879 55.7V52.385H54.9379V59H52.6879V58.19C52.2379 58.76 51.5329 59.15 50.6629 59.15C48.8929 59.15 48.1729 57.935 48.1729 56.15ZM59.5661 54.125V59H57.3311V54.125H56.1311V52.385H57.3311V49.865H59.5661V52.385H60.7661V54.125H59.5661ZM64.0005 54.905H66.9555C66.9555 54.905 66.8505 53.675 65.4855 53.675C64.0755 53.675 64.0005 54.905 64.0005 54.905ZM69.1155 55.55C69.1155 55.685 69.1005 55.835 69.1005 55.97H63.9705C63.9705 56.735 64.5105 57.545 65.3955 57.545C66.1905 57.545 66.6855 57.02 66.7005 56.54H68.9955C68.6055 58.28 67.1955 59.15 65.4405 59.15C63.1605 59.15 61.5855 57.8 61.5855 55.7C61.5855 53.63 63.2205 52.235 65.4405 52.235C67.4505 52.235 69.1155 53.435 69.1155 55.55ZM75.7195 55.7C75.7195 54.83 75.0445 54.05 74.1445 54.05C73.2445 54.05 72.5695 54.83 72.5695 55.7C72.5695 56.57 73.2445 57.35 74.1445 57.35C75.0445 57.35 75.7195 56.57 75.7195 55.7ZM77.9695 52.4V59H75.7195V58.205C75.2695 58.88 74.2945 59.15 73.4545 59.15C71.5795 59.15 70.1695 57.53 70.1695 55.7C70.1695 53.87 71.5795 52.235 73.4545 52.235C74.2945 52.235 75.1345 52.475 75.7195 53.195V52.4H77.9695ZM82.023 59H79.773V47.75H82.023V59ZM49.9333 67.92C49.9333 68.52 49.8133 69.06 49.5973 69.564C49.3813 70.068 49.0813 70.488 48.7093 70.848C48.3253 71.208 47.8813 71.496 47.3773 71.7C46.8613 71.904 46.3093 72 45.7333 72H43.5973V63.84H45.7333C46.3093 63.84 46.8613 63.948 47.3773 64.152C47.8813 64.356 48.3253 64.632 48.7093 64.992C49.0813 65.352 49.3813 65.784 49.5973 66.288C49.8133 66.792 49.9333 67.332 49.9333 67.92ZM49.1173 67.92C49.1173 66.996 48.7813 66.216 48.1333 65.592C47.4853 64.992 46.6933 64.68 45.7573 64.68H44.4373V71.16H45.7573C46.6933 71.16 47.4853 70.86 48.1333 70.248C48.7813 69.636 49.1173 68.856 49.1173 67.92ZM55.5785 69.36C55.5785 68.856 55.3985 68.4 55.0385 68.016C54.6785 67.632 54.2345 67.44 53.7185 67.44C53.1905 67.44 52.7465 67.632 52.3865 68.016C52.0265 68.4 51.8585 68.856 51.8585 69.36C51.8585 69.876 52.0265 70.332 52.3865 70.704C52.7465 71.088 53.1905 71.28 53.7185 71.28C54.2345 71.28 54.6785 71.088 55.0385 70.704C55.3985 70.332 55.5785 69.876 55.5785 69.36ZM56.4185 72H55.5785V71.1C55.5305 71.172 55.4705 71.232 55.4225 71.28C54.9185 71.844 54.3065 72.12 53.5865 72.12C52.8545 72.12 52.2425 71.844 51.7385 71.28C51.2585 70.74 51.0185 70.104 51.0185 69.36C51.0185 68.628 51.2585 67.992 51.7385 67.44C52.2425 66.888 52.8545 66.6 53.5865 66.6C54.3065 66.6 54.9185 66.888 55.4225 67.44C55.4705 67.5 55.5305 67.56 55.5785 67.632V66.72H56.4185V72ZM58.8943 75H57.8743L59.6503 71.136L57.4423 66.72H58.4023L60.0943 70.26L61.6063 66.72H62.5423L58.8943 75ZM66.4103 72L70.6223 67.752C70.9823 67.392 71.1623 66.948 71.1623 66.432C71.1623 65.916 70.9823 65.484 70.6103 65.124C70.2383 64.764 69.7943 64.584 69.2663 64.584C68.7383 64.584 68.2823 64.776 67.9103 65.184C67.5263 65.592 67.3583 66.048 67.3943 66.564H66.5423C66.5183 65.772 66.7703 65.1 67.3103 64.548C67.8623 63.996 68.5223 63.708 69.3023 63.708C70.0583 63.708 70.7063 63.984 71.2583 64.512C71.7983 65.04 72.0743 65.676 72.0743 66.432C72.0743 67.176 71.8103 67.812 71.2823 68.34L68.4383 71.16H72.1583V72H66.4103ZM77.8251 64.752L74.7051 69.468H77.8251V64.752ZM78.7011 70.332V72H77.8251V70.332H73.2171L77.5131 63.84H78.6891L78.7011 69.468H79.7331V70.332H78.7011Z" fill="#B86CB5"></path>
<defs>
<radialGradient id="paint0_radial_40_1615" cx="0" cy="0" r="1" gradientUnits="userSpaceOnUse" gradientTransform="translate(92 104.5) rotate(-126.699) scale(100.4)">
<stop stop-color="white"></stop>
</radialGradient>
<linearGradient id="paint1_linear_40_1615" x1="94" y1="-16.5" x2="81.5" y2="108.5" gradientUnits="userSpaceOnUse">
<stop offset="0.457621" stop-color="#AB55A9"></stop>
<stop offset="0.836273" stop-color="#E56DA1"></stop>
</linearGradient>
</defs>
</svg>