<svg width="122" height="122" viewBox="0 0 122 122" fill="none" xmlns="http://www.w3.org/2000/svg">
<circle cx="61.0001" cy="61" r="61" fill="url(#paint0_radial_40_1572)"></circle>
<path d="M65.7314 6.3387C66.0236 2.96343 69.0065 0.432807 72.3354 1.06227C85.5621 3.56331 97.6545 10.3862 106.657 20.5474C117.022 32.246 122.502 47.477 121.964 63.0976C121.427 78.7182 114.914 93.5366 103.769 104.495C92.6243 115.454 77.6983 121.716 62.0709 121.991C46.4434 122.265 31.3069 116.53 19.7844 105.97C8.26197 95.409 1.23284 80.8284 0.147396 65.2362C-0.938046 49.6441 4.00302 34.2302 13.9511 22.1749C22.5917 11.704 34.4372 4.46088 47.5679 1.4971C50.8727 0.751169 53.9426 3.17553 54.353 6.53847C54.7635 9.9014 52.3543 12.9221 49.0695 13.7515C39.059 16.2791 30.0524 21.9388 23.4138 29.9836C15.4666 39.6143 11.5193 51.9281 12.3864 64.3842C13.2536 76.8404 18.8689 88.4885 28.0739 96.9251C37.2789 105.362 49.3711 109.943 61.8555 109.724C74.3399 109.505 86.2639 104.502 95.1671 95.7472C104.07 86.9927 109.273 75.1546 109.703 62.6757C110.132 50.1968 105.755 38.0291 97.4745 28.6834C90.5576 20.8766 81.358 15.5365 71.2649 13.3618C67.953 12.6483 65.4393 9.71398 65.7314 6.3387Z" fill="#FFEBCF" fill-opacity="0.63"></path>
<path d="M65.7314 6.3387C66.0236 2.96343 69.0062 0.432835 72.3351 1.06237C78.36 2.20176 84.1905 4.24532 89.6257 7.13371C96.8704 10.9837 103.264 16.2555 108.424 22.6338C113.584 29.0121 117.405 36.3657 119.657 44.2547C121.909 52.1437 122.546 60.406 121.531 68.5471C120.516 76.6883 117.87 84.541 113.749 91.6355C109.629 98.7299 104.12 104.92 97.5516 109.836C90.9834 114.752 83.491 118.293 75.5227 120.246C69.5446 121.711 63.3909 122.261 57.2706 121.886C53.8891 121.679 51.6192 118.493 52.1648 115.15C52.7103 111.806 55.8673 109.579 59.253 109.7C63.7347 109.861 68.2272 109.403 72.6018 108.33C78.9675 106.77 84.953 103.941 90.2002 100.014C95.4474 96.0869 99.8484 91.1415 103.14 85.4739C106.432 79.8063 108.546 73.533 109.357 67.0292C110.168 60.5255 109.659 53.925 107.859 47.6226C106.06 41.3203 103.008 35.4457 98.886 30.3502C94.7637 25.2548 89.656 21.0432 83.8684 17.9676C79.8909 15.8539 75.6486 14.3065 71.2646 13.3619C67.9527 12.6483 65.4393 9.71398 65.7314 6.3387Z" fill="url(#paint1_linear_40_1572)"></path>
<path d="M35.9958 53.885C35.9958 52.31 34.5708 50.885 32.9958 50.885C31.4208 50.885 29.9958 52.31 29.9958 53.885C29.9958 55.46 31.4208 56.9 32.9958 56.9C34.5708 56.9 35.9958 55.46 35.9958 53.885ZM38.2458 53.9C38.2458 56.72 35.8158 59.15 32.9958 59.15C30.1758 59.15 27.7458 56.72 27.7458 53.9C27.7458 51.08 30.1758 48.65 32.9958 48.65C35.8158 48.65 38.2458 51.08 38.2458 53.9ZM46.3088 52.385L43.7888 59H41.1338L38.6138 52.385H40.8788L42.4538 57.11L44.0288 52.385H46.3088ZM46.9113 56.15V52.385H49.1613V56.15C49.1613 56.915 49.4613 57.35 50.1663 57.35C50.8713 57.35 51.4263 56.585 51.4263 55.7V52.385H53.6763V59H51.4263V58.19C50.9763 58.76 50.2713 59.15 49.4013 59.15C47.6313 59.15 46.9113 57.935 46.9113 56.15ZM57.7195 59H55.4695V47.75H57.7195V59ZM64.6874 55.7C64.6874 54.83 64.0124 54.05 63.1124 54.05C62.2124 54.05 61.5374 54.83 61.5374 55.7C61.5374 56.57 62.2124 57.35 63.1124 57.35C64.0124 57.35 64.6874 56.57 64.6874 55.7ZM66.9374 52.4V59H64.6874V58.205C64.2374 58.88 63.2624 59.15 62.4224 59.15C60.5474 59.15 59.1374 57.53 59.1374 55.7C59.1374 53.87 60.5474 52.235 62.4224 52.235C63.2624 52.235 64.1024 52.475 64.6874 53.195V52.4H66.9374ZM71.5759 54.125V59H69.3409V54.125H68.1409V52.385H69.3409V49.865H71.5759V52.385H72.7759V54.125H71.5759ZM77.3754 57.44C78.5754 57.44 78.9054 56.555 78.9054 55.715C78.9054 54.89 78.5454 54.005 77.3754 54.005C76.1904 54.005 75.8304 54.89 75.8304 55.715C75.8304 56.555 76.1604 57.44 77.3754 57.44ZM77.3754 52.25C79.4304 52.25 81.1404 53.63 81.1404 55.7C81.1404 57.815 79.4754 59.135 77.3754 59.135C75.2604 59.135 73.5954 57.815 73.5954 55.7C73.5954 53.63 75.3054 52.25 77.3754 52.25ZM86.3041 54.05C85.4641 54.05 84.8191 54.905 84.8191 55.7V59H82.5691V52.385H84.8191V53.195C85.1641 52.7 85.7341 52.235 86.5591 52.235C86.7541 52.235 87.0541 52.295 87.2341 52.385V54.425H87.2041C86.9791 54.155 86.6491 54.05 86.3041 54.05ZM90.967 62.75H88.627L90.127 59H89.752L87.232 52.385H89.497L91.072 57.11L92.647 52.385H94.927L92.407 59L90.967 62.75ZM51.9646 67.92C51.9646 68.52 51.8446 69.06 51.6286 69.564C51.4126 70.068 51.1126 70.488 50.7406 70.848C50.3566 71.208 49.9126 71.496 49.4086 71.7C48.8926 71.904 48.3406 72 47.7646 72H45.6286V63.84H47.7646C48.3406 63.84 48.8926 63.948 49.4086 64.152C49.9126 64.356 50.3566 64.632 50.7406 64.992C51.1126 65.352 51.4126 65.784 51.6286 66.288C51.8446 66.792 51.9646 67.332 51.9646 67.92ZM51.1486 67.92C51.1486 66.996 50.8126 66.216 50.1646 65.592C49.5166 64.992 48.7246 64.68 47.7886 64.68H46.4686V71.16H47.7886C48.7246 71.16 49.5166 70.86 50.1646 70.248C50.8126 69.636 51.1486 68.856 51.1486 67.92ZM57.6099 69.36C57.6099 68.856 57.4299 68.4 57.0699 68.016C56.7099 67.632 56.2659 67.44 55.7499 67.44C55.2219 67.44 54.7779 67.632 54.4179 68.016C54.0579 68.4 53.8899 68.856 53.8899 69.36C53.8899 69.876 54.0579 70.332 54.4179 70.704C54.7779 71.088 55.2219 71.28 55.7499 71.28C56.2659 71.28 56.7099 71.088 57.0699 70.704C57.4299 70.332 57.6099 69.876 57.6099 69.36ZM58.4499 72H57.6099V71.1C57.5619 71.172 57.5019 71.232 57.4539 71.28C56.9499 71.844 56.3379 72.12 55.6179 72.12C54.8859 72.12 54.2739 71.844 53.7699 71.28C53.2899 70.74 53.0499 70.104 53.0499 69.36C53.0499 68.628 53.2899 67.992 53.7699 67.44C54.2739 66.888 54.8859 66.6 55.6179 66.6C56.3379 66.6 56.9499 66.888 57.4539 67.44C57.5019 67.5 57.5619 67.56 57.6099 67.632V66.72H58.4499V72ZM60.9256 75H59.9056L61.6816 71.136L59.4736 66.72H60.4336L62.1256 70.26L63.6376 66.72H64.5736L60.9256 75ZM69.4617 72V64.692H68.2857V63.96L70.3017 63.744V72H69.4617ZM74.215 67.548C73.951 67.548 73.711 67.608 73.483 67.704C73.243 67.8 73.039 67.932 72.871 68.1C72.487 68.46 72.307 68.904 72.307 69.408C72.307 69.936 72.487 70.368 72.871 70.74C73.243 71.112 73.699 71.292 74.215 71.292C74.743 71.292 75.187 71.112 75.547 70.752C75.907 70.392 76.099 69.948 76.099 69.444C76.099 68.94 75.907 68.496 75.547 68.112C75.175 67.74 74.731 67.548 74.215 67.548ZM76.951 69.384C76.951 69.792 76.879 70.152 76.735 70.476C76.591 70.812 76.387 71.1 76.147 71.34C75.619 71.868 74.971 72.132 74.203 72.132C73.447 72.132 72.799 71.868 72.259 71.34C71.719 70.812 71.455 70.176 71.455 69.408C71.455 68.76 71.659 68.184 72.067 67.692L75.259 63.84H76.363L73.867 66.84L74.107 66.684C74.923 66.72 75.583 66.972 76.111 67.44C76.663 67.956 76.951 68.604 76.951 69.384Z" fill="#FF9300"></path>
<defs>
<radialGradient id="paint0_radial_40_1572" cx="0" cy="0" r="1" gradientUnits="userSpaceOnUse" gradientTransform="translate(92.0001 104.5) rotate(-126.699) scale(100.4)">
<stop stop-color="white"></stop>
</radialGradient>
<linearGradient id="paint1_linear_40_1572" x1="71.0001" y1="-1.38935e-07" x2="81.5001" y2="108.5" gradientUnits="userSpaceOnUse">
<stop offset="0.1875" stop-color="#E4CD9E"></stop>
<stop offset="0.75" stop-color="#FF9300"></stop>
</linearGradient>
</defs>
</svg>