<svg width="122" height="122" viewBox="0 0 122 122" fill="none" xmlns="http://www.w3.org/2000/svg">
<circle cx="61.0001" cy="61" r="61" fill="url(#paint0_radial_40_1539)"></circle>
<path d="M65.7314 6.3387C66.0236 2.96343 69.0065 0.432807 72.3354 1.06227C85.5621 3.56331 97.6545 10.3862 106.657 20.5474C117.022 32.246 122.502 47.477 121.964 63.0976C121.427 78.7182 114.914 93.5366 103.769 104.495C92.6243 115.454 77.6983 121.716 62.0709 121.991C46.4434 122.265 31.3069 116.53 19.7844 105.97C8.26197 95.409 1.23284 80.8284 0.147396 65.2362C-0.938046 49.6441 4.00302 34.2302 13.9511 22.1749C22.5917 11.704 34.4372 4.46088 47.5679 1.4971C50.8727 0.751169 53.9426 3.17553 54.353 6.53847C54.7635 9.9014 52.3543 12.9221 49.0695 13.7515C39.059 16.2791 30.0524 21.9388 23.4138 29.9836C15.4666 39.6143 11.5193 51.9281 12.3864 64.3842C13.2536 76.8404 18.8689 88.4885 28.0739 96.9251C37.2789 105.362 49.3711 109.943 61.8555 109.724C74.3399 109.505 86.2639 104.502 95.1671 95.7472C104.07 86.9927 109.273 75.1546 109.703 62.6757C110.132 50.1968 105.755 38.0291 97.4745 28.6834C90.5576 20.8766 81.358 15.5365 71.2649 13.3618C67.953 12.6483 65.4393 9.71398 65.7314 6.3387Z" fill="#89B892" fill-opacity="0.59"></path>
<path d="M65.7314 6.3387C66.0236 2.96343 69.0063 0.432837 72.3352 1.06237C80.3683 2.58155 88.0357 5.70443 94.8699 10.267C103.409 15.9681 110.372 23.7325 115.112 32.8407C119.851 41.9489 122.216 52.1062 121.985 62.3713C121.8 70.5864 119.958 78.6579 116.593 86.1087C115.198 89.1963 111.414 90.1871 108.482 88.4896C105.55 86.7922 104.589 83.05 105.905 79.9281C108.28 74.2936 109.581 68.2449 109.719 62.0955C109.904 53.8949 108.015 45.7805 104.228 38.5042C100.442 31.2279 94.8798 25.0251 88.0578 20.4707C82.9421 17.0554 77.242 14.6499 71.2646 13.3619C67.9527 12.6483 65.4393 9.71398 65.7314 6.3387Z" fill="url(#paint1_linear_40_1539)"></path>
<path d="M36.102 54.905H32.592V59H30.342V48.8H36.252V50.84H32.592V52.865H36.102V54.905ZM41.3056 57.44C42.5056 57.44 42.8356 56.555 42.8356 55.715C42.8356 54.89 42.4756 54.005 41.3056 54.005C40.1206 54.005 39.7606 54.89 39.7606 55.715C39.7606 56.555 40.0906 57.44 41.3056 57.44ZM41.3056 52.25C43.3606 52.25 45.0706 53.63 45.0706 55.7C45.0706 57.815 43.4056 59.135 41.3056 59.135C39.1906 59.135 37.5256 57.815 37.5256 55.7C37.5256 53.63 39.2356 52.25 41.3056 52.25ZM48.7492 59H46.4992V47.75H48.7492V59ZM52.7922 59H50.5422V47.75H52.7922V59ZM54.4652 50.12C54.4652 49.385 55.0502 48.8 55.7852 48.8C56.5052 48.8 57.1052 49.385 57.1052 50.12C57.1052 50.84 56.5052 51.44 55.7852 51.44C55.0502 51.44 54.4652 50.84 54.4652 50.12ZM56.9102 59H54.6602V52.385H56.9102V59ZM62.1643 53.99C61.1443 53.99 60.8143 54.965 60.8143 55.715C60.8143 56.48 61.1143 57.44 62.1643 57.44C62.8543 57.44 63.3943 57.14 63.4693 56.54H65.6593C65.4343 58.01 64.0993 59.15 62.0893 59.15C59.7943 59.15 58.4143 57.59 58.4143 55.7C58.4143 53.81 59.8843 52.235 62.0893 52.235C64.2343 52.235 65.5993 53.51 65.7043 55.04H63.4693C63.4393 54.395 62.9443 53.99 62.1643 53.99ZM66.9156 56.15V52.385H69.1656V56.15C69.1656 56.915 69.4656 57.35 70.1706 57.35C70.8756 57.35 71.4306 56.585 71.4306 55.7V52.385H73.6807V59H71.4306V58.19C70.9806 58.76 70.2756 59.15 69.4056 59.15C67.6356 59.15 66.9156 57.935 66.9156 56.15ZM77.7239 59H75.4739V47.75H77.7239V59ZM84.6918 55.7C84.6918 54.83 84.0168 54.05 83.1168 54.05C82.2168 54.05 81.5418 54.83 81.5418 55.7C81.5418 56.57 82.2168 57.35 83.1168 57.35C84.0168 57.35 84.6918 56.57 84.6918 55.7ZM86.9418 52.4V59H84.6918V58.205C84.2418 58.88 83.2668 59.15 82.4268 59.15C80.5518 59.15 79.1418 57.53 79.1418 55.7C79.1418 53.87 80.5518 52.235 82.4268 52.235C83.2668 52.235 84.1068 52.475 84.6918 53.195V52.4H86.9418ZM92.4803 54.05C91.6403 54.05 90.9953 54.905 90.9953 55.7V59H88.7453V52.385H90.9953V53.195C91.3403 52.7 91.9103 52.235 92.7353 52.235C92.9303 52.235 93.2303 52.295 93.4103 52.385V54.425H93.3803C93.1553 54.155 92.8253 54.05 92.4803 54.05ZM52.1775 67.92C52.1775 68.52 52.0575 69.06 51.8415 69.564C51.6255 70.068 51.3255 70.488 50.9535 70.848C50.5695 71.208 50.1255 71.496 49.6215 71.7C49.1055 71.904 48.5535 72 47.9775 72H45.8415V63.84H47.9775C48.5535 63.84 49.1055 63.948 49.6215 64.152C50.1255 64.356 50.5695 64.632 50.9535 64.992C51.3255 65.352 51.6255 65.784 51.8415 66.288C52.0575 66.792 52.1775 67.332 52.1775 67.92ZM51.3615 67.92C51.3615 66.996 51.0255 66.216 50.3775 65.592C49.7295 64.992 48.9375 64.68 48.0015 64.68H46.6815V71.16H48.0015C48.9375 71.16 49.7295 70.86 50.3775 70.248C51.0255 69.636 51.3615 68.856 51.3615 67.92ZM57.8228 69.36C57.8228 68.856 57.6428 68.4 57.2828 68.016C56.9228 67.632 56.4788 67.44 55.9628 67.44C55.4348 67.44 54.9908 67.632 54.6308 68.016C54.2708 68.4 54.1028 68.856 54.1028 69.36C54.1028 69.876 54.2708 70.332 54.6308 70.704C54.9908 71.088 55.4348 71.28 55.9628 71.28C56.4788 71.28 56.9228 71.088 57.2828 70.704C57.6428 70.332 57.8228 69.876 57.8228 69.36ZM58.6628 72H57.8228V71.1C57.7748 71.172 57.7148 71.232 57.6668 71.28C57.1628 71.844 56.5508 72.12 55.8308 72.12C55.0988 72.12 54.4868 71.844 53.9828 71.28C53.5028 70.74 53.2628 70.104 53.2628 69.36C53.2628 68.628 53.5028 67.992 53.9828 67.44C54.4868 66.888 55.0988 66.6 55.8308 66.6C56.5508 66.6 57.1628 66.888 57.6668 67.44C57.7148 67.5 57.7748 67.56 57.8228 67.632V66.72H58.6628V72ZM61.1385 75H60.1185L61.8945 71.136L59.6865 66.72H60.6465L62.3385 70.26L63.8505 66.72H64.7865L61.1385 75ZM69.6746 72V64.692H68.4986V63.96L70.5146 63.744V72H69.6746ZM75.3519 64.788C75.1599 64.668 74.9199 64.608 74.6559 64.608C74.3919 64.608 74.1519 64.668 73.9599 64.788C73.7679 64.908 73.5999 65.052 73.4559 65.244C73.3119 65.436 73.2039 65.652 73.1199 65.892C73.0239 66.132 72.9639 66.384 72.9159 66.624C72.8199 67.068 72.7839 67.452 72.7839 67.752C72.7839 68.052 72.7839 68.316 72.8079 68.544C72.8319 68.784 72.8679 69.024 72.9159 69.264C72.9639 69.516 73.0239 69.756 73.1199 69.996C73.2159 70.236 73.3239 70.44 73.4679 70.632C73.7799 71.052 74.1879 71.256 74.6919 71.256C75.1359 71.256 75.5079 71.052 75.8199 70.62C76.1919 70.128 76.4199 69.432 76.5159 68.544C76.5399 68.316 76.5519 68.112 76.5519 67.944C76.5519 67.224 76.4319 66.552 76.2039 65.904C76.0119 65.4 75.7359 65.028 75.3519 64.788ZM74.6919 72.108C73.7319 72.108 73.0119 71.64 72.5199 70.692C72.1359 69.936 71.9319 69.012 71.9319 67.908C71.9319 66.816 72.1359 65.892 72.5199 65.136C73.0119 64.188 73.7319 63.708 74.6919 63.708C75.6639 63.708 76.3839 64.188 76.8759 65.136C77.2599 65.892 77.4519 66.816 77.4519 67.908C77.4519 69.012 77.2599 69.936 76.8759 70.692C76.3839 71.64 75.6639 72.108 74.6919 72.108Z" fill="#53825C"></path>
<defs>
<radialGradient id="paint0_radial_40_1539" cx="0" cy="0" r="1" gradientUnits="userSpaceOnUse" gradientTransform="translate(92.0001 104.5) rotate(-126.699) scale(100.4)">
<stop stop-color="white"></stop>
</radialGradient>
<linearGradient id="paint1_linear_40_1539" x1="61.0001" y1="-2.44379e-06" x2="117" y2="41" gradientUnits="userSpaceOnUse">
<stop offset="0.182692" stop-color="#7BC78A"></stop>
<stop offset="0.807692" stop-color="#53825C"></stop>
</linearGradient>
</defs>
</svg>